  0
SECTION
  2
HEADER
  9
$ACADVER
  1
AC2.10
  0
ENDSEC
  0
SECTION
  2
TABLES
  0
TABLE
  2
LAYER
 70
     8
  0
LAYER
  2
0
 62
     7
 70
0
  6
CONTINUOUS
  0
LAYER
  2
1
 62
     1
 70
0
  6
CONTINUOUS
  0
LAYER
  2
2
 62
     2
 70
0
  6
CONTINUOUS
  0
LAYER
  2
3
 62
     3
 70
0
  6
CONTINUOUS
  0
LAYER
  2
4
 62
     4
 70
0
  6
CONTINUOUS
  0
LAYER
  2
5
 62
     5
 70
0
  6
CONTINUOUS
  0
LAYER
  2
6
 62
     6
 70
0
  6
CONTINUOUS
  0
LAYER
  2
7
 62
     7
 70
0
  6
CONTINUOUS
  0
ENDTAB
  0
TABLE
  2
STYLE
 70
     1
  0
STYLE
 70
     0
  2
STANDARD
  3
TXT
 40
0.00
 41
1.00
 42
1.00
 50
0.00
 71
     0
  0
ENDTAB
  0
ENDSEC
  0
SECTION
  2
BLOCKS
  0
BLOCK
  8
0
  2
EPAD
 70
0
 10
0.0
 20
0.0
  0
POLYLINE
  8
0
 66
1
 70
1
 40
0.5
 41
0.5
  0
VERTEX
  8
0
 10
-0.25
 20
0.0
 42
1.0
  0
VERTEX
  8
0
 10
0.25
 20
0.0
 42
1.0
  0
SEQEND
  8
0
  0
ENDBLK
  8
0
  0
BLOCK
  8
0
  2
RPAD
 70
0
 10
0.0
 20
0.0
  0
TRACE
  8
0
 10
-0.5
 20
-0.5
 11
-0.5
 21
0.5
 12
0.5
 22
-0.5
 13
0.5
 23
0.5
  0
ENDBLK
  8
0
  0
ENDSEC
0
SECTION
2
ENTITIES
0
POLYLINE
8
0
66
1
40
0.025000
41
0.025000
0
VERTEX
8
0
10
0.586000
20
-0.814000
0
VERTEX
8
0
10
0.667000
20
-0.895000
0
VERTEX
8
0
10
1.112000
20
-0.895000
0
VERTEX
8
0
10
1.143000
20
-0.926000
0
VERTEX
8
0
10
1.143000
20
-1.267000
0
VERTEX
8
0
10
1.225000
20
-1.349000
0
SEQEND
8
0
0
POLYLINE
8
0
66
1
40
0.025000
41
0.025000
0
VERTEX
8
0
10
-1.021000
20
-0.433000
0
VERTEX
8
0
10
-1.092000
20
-0.505000
0
VERTEX
8
0
10
-1.092000
20
-0.849000
0
VERTEX
8
0
10
-1.171000
20
-0.928000
0
VERTEX
8
0
10
-1.349000
20
-0.928000
0
VERTEX
8
0
10
-1.402000
20
-0.875000
0
VERTEX
8
0
10
-1.402000
20
-0.811000
0
VERTEX
8
0
10
-1.400000
20
-0.809000
0
SEQEND
8
0
0
POLYLINE
8
0
66
1
40
0.025000
41
0.025000
0
VERTEX
8
0
10
-1.400000
20
-0.409000
0
VERTEX
8
0
10
-1.400000
20
-0.167000
0
VERTEX
8
0
10
-1.281000
20
-0.049000
0
SEQEND
8
0
0
POLYLINE
8
0
66
1
40
0.025000
41
0.025000
0
VERTEX
8
0
10
0.265000
20
-0.412000
0
VERTEX
8
0
10
-0.029000
20
-0.412000
0
VERTEX
8
0
10
-0.114000
20
-0.313000
0
VERTEX
8
0
10
-0.114000
20
-0.310000
0
SEQEND
8
0
0
POLYLINE
8
0
66
1
40
0.025000
41
0.025000
0
VERTEX
8
0
10
-0.158000
20
-0.400000
0
VERTEX
8
0
10
-0.340000
20
-0.400000
0
VERTEX
8
0
10
-0.347000
20
-0.408000
0
VERTEX
8
0
10
-0.353000
20
-0.414000
0
VERTEX
8
0
10
-0.347000
20
-0.404000
0
SEQEND
8
0
0
POLYLINE
8
0
66
1
40
0.025000
41
0.025000
0
VERTEX
8
0
10
-1.155000
20
-0.049000
0
VERTEX
8
0
10
-1.033000
20
-0.049000
0
VERTEX
8
0
10
-0.821000
20
-0.261000
0
VERTEX
8
0
10
-0.821000
20
-0.267000
0
VERTEX
8
0
10
-0.405000
20
-0.267000
0
VERTEX
8
0
10
-0.353000
20
-0.319000
0
VERTEX
8
0
10
-0.353000
20
-0.414000
0
VERTEX
8
0
10
-0.349000
20
-0.418000
0
VERTEX
8
0
10
-0.347000
20
-0.408000
0
VERTEX
8
0
10
-0.347000
20
-0.404000
0
SEQEND
8
0
0
POLYLINE
8
0
66
1
40
0.030000
41
0.030000
0
VERTEX
8
0
10
-0.158000
20
-0.400000
0
VERTEX
8
0
10
-0.258000
20
-0.500000
0
VERTEX
8
0
10
-0.258000
20
-0.661000
0
VERTEX
8
0
10
-0.258000
20
-0.900000
0
VERTEX
8
0
10
-0.228000
20
-0.929000
0
VERTEX
8
0
10
-0.030000
20
-0.929000
0
VERTEX
8
0
10
0.040000
20
-0.857000
0
SEQEND
8
0
0
POLYLINE
8
0
66
1
40
0.025000
41
0.025000
0
VERTEX
8
0
10
-0.322000
20
-0.964000
0
VERTEX
8
0
10
-0.322000
20
-1.444000
0
VERTEX
8
0
10
-0.329000
20
-1.451000
0
VERTEX
8
0
10
-0.329000
20
-1.445000
0
VERTEX
8
0
10
-0.388000
20
-1.445000
0
SEQEND
8
0
0
POLYLINE
8
0
66
1
40
0.025000
41
0.025000
0
VERTEX
8
0
10
0.639000
20
-0.412000
0
VERTEX
8
0
10
0.463000
20
-0.413000
0
VERTEX
8
0
10
0.409000
20
-0.346000
0
VERTEX
8
0
10
0.049000
20
-0.346000
0
VERTEX
8
0
10
-0.010000
20
-0.285000
0
SEQEND
8
0
0
POLYLINE
8
0
66
1
40
0.025000
41
0.025000
0
VERTEX
8
0
10
1.048000
20
-0.412000
0
VERTEX
8
0
10
0.765000
20
-0.412000
0
VERTEX
8
0
10
0.644000
20
-0.283000
0
VERTEX
8
0
10
0.128000
20
-0.283000
0
VERTEX
8
0
10
0.098000
20
-0.253000
0
SEQEND
8
0
0
POLYLINE
8
0
66
1
40
0.030000
41
0.030000
0
VERTEX
8
0
10
-1.138000
20
1.073000
0
VERTEX
8
0
10
-1.586000
20
1.073000
0
VERTEX
8
0
10
-1.659000
20
1.146000
0
VERTEX
8
0
10
-1.771000
20
1.146000
0
VERTEX
8
0
10
-1.776000
20
1.142000
0
SEQEND
8
0
0
POLYLINE
8
0
66
1
40
0.025000
41
0.025000
0
VERTEX
8
0
10
-1.487000
20
-0.197000
0
VERTEX
8
0
10
-1.487000
20
0.009000
0
VERTEX
8
0
10
-1.425000
20
0.070000
0
SEQEND
8
0
0
POLYLINE
8
0
66
1
40
0.030000
41
0.030000
0
VERTEX
8
0
10
-1.014000
20
1.067000
0
VERTEX
8
0
10
-1.014000
20
0.442000
0
VERTEX
8
0
10
-0.879000
20
0.307000
0
VERTEX
8
0
10
-0.097000
20
0.307000
0
VERTEX
8
0
10
-0.095000
20
0.305000
0
SEQEND
8
0
0
POLYLINE
8
0
66
1
40
0.025000
41
0.025000
0
VERTEX
8
0
10
-1.487000
20
-0.197000
0
VERTEX
8
0
10
-1.487000
20
-0.887000
0
VERTEX
8
0
10
-1.203000
20
-1.170000
0
VERTEX
8
0
10
-1.203000
20
-1.406000
0
VERTEX
8
0
10
-1.158000
20
-1.451000
0
VERTEX
8
0
10
-0.394000
20
-1.451000
0
VERTEX
8
0
10
-0.388000
20
-1.445000
0
SEQEND
8
0
0
POLYLINE
8
0
66
1
40
0.025000
41
0.025000
0
VERTEX
8
0
10
1.482000
20
0.809000
0
VERTEX
8
0
10
1.604000
20
0.809000
0
VERTEX
8
0
10
1.613000
20
0.800000
0
VERTEX
8
0
10
1.602000
20
0.793000
0
SEQEND
8
0
0
POLYLINE
8
0
66
1
40
0.025000
41
0.025000
0
VERTEX
8
0
10
1.404000
20
0.728000
0
VERTEX
8
0
10
1.459000
20
0.784000
0
VERTEX
8
0
10
1.459000
20
0.786000
0
VERTEX
8
0
10
1.459000
20
0.786000
0
SEQEND
8
0
0
POLYLINE
8
0
66
1
40
0.025000
41
0.025000
0
VERTEX
8
0
10
1.032000
20
0.316000
0
VERTEX
8
0
10
1.343000
20
0.316000
0
VERTEX
8
0
10
1.398000
20
0.372000
0
VERTEX
8
0
10
1.398000
20
0.724000
0
VERTEX
8
0
10
1.459000
20
0.786000
0
VERTEX
8
0
10
1.482000
20
0.809000
0
SEQEND
8
0
0
POLYLINE
8
0
66
1
40
0.025000
41
0.025000
0
VERTEX
8
0
10
-0.912000
20
1.073000
0
VERTEX
8
0
10
-0.070000
20
1.073000
0
VERTEX
8
0
10
0.272000
20
1.416000
0
VERTEX
8
0
10
1.471000
20
1.416000
0
VERTEX
8
0
10
1.817000
20
1.070000
0
VERTEX
8
0
10
1.817000
20
0.835000
0
VERTEX
8
0
10
1.814000
20
0.833000
0
VERTEX
8
0
10
1.802000
20
0.793000
0
SEQEND
8
0
0
POLYLINE
8
0
66
1
40
0.025000
41
0.025000
0
VERTEX
8
0
10
-1.447000
20
1.208000
0
VERTEX
8
0
10
-1.447000
20
1.357000
0
VERTEX
8
0
10
-1.370000
20
1.435000
0
VERTEX
8
0
10
-0.315000
20
1.435000
0
VERTEX
8
0
10
-0.292000
20
1.411000
0
SEQEND
8
0
0
POLYLINE
8
0
66
1
40
0.025000
41
0.025000
0
VERTEX
8
0
10
1.233000
20
0.739000
0
VERTEX
8
0
10
0.692000
20
0.739000
0
VERTEX
8
0
10
0.592000
20
0.639000
0
SEQEND
8
0
0
POLYLINE
8
0
66
1
40
0.025000
41
0.025000
0
VERTEX
8
0
10
1.359000
20
0.028000
0
VERTEX
8
0
10
1.194000
20
0.028000
0
VERTEX
8
0
10
1.107000
20
0.115000
0
VERTEX
8
0
10
0.799000
20
0.115000
0
VERTEX
8
0
10
0.794000
20
0.119000
0
SEQEND
8
0
0
POLYLINE
8
0
66
1
40
0.025000
41
0.025000
0
VERTEX
8
0
10
1.349000
20
-0.159000
0
VERTEX
8
0
10
1.349000
20
-0.095000
0
VERTEX
8
0
10
1.292000
20
-0.039000
0
VERTEX
8
0
10
1.161000
20
-0.039000
0
VERTEX
8
0
10
1.072000
20
0.049000
0
VERTEX
8
0
10
0.709000
20
0.049000
0
SEQEND
8
0
0
POLYLINE
8
0
66
1
40
0.025000
41
0.025000
0
VERTEX
8
0
10
1.308000
20
0.581000
0
VERTEX
8
0
10
0.785000
20
0.581000
0
VERTEX
8
0
10
0.707000
20
0.503000
0
VERTEX
8
0
10
0.707000
20
0.517000
0
SEQEND
8
0
0
INSERT
8
0
2
EPAD
10
-1.021000
20
-0.433000
41
0.070000
42
0.070000
0
CIRCLE
8
0
10
-1.021000
20
-0.433000
40
0.025000
0
INSERT
8
0
2
EPAD
10
-0.388000
20
-1.445000
41
0.070000
42
0.070000
0
CIRCLE
8
0
10
-0.388000
20
-1.445000
40
0.025000
0
INSERT
8
0
2
EPAD
10
0.265000
20
-0.412000
41
0.060000
42
0.060000
0
CIRCLE
8
0
10
0.265000
20
-0.412000
40
0.025000
0
INSERT
8
0
2
EPAD
10
-0.114000
20
-0.310000
41
0.060000
42
0.060000
0
CIRCLE
8
0
10
-0.114000
20
-0.310000
40
0.025000
0
INSERT
8
0
2
EPAD
10
-0.158000
20
-0.400000
41
0.070000
42
0.070000
0
CIRCLE
8
0
10
-0.158000
20
-0.400000
40
0.025000
0
INSERT
8
0
2
EPAD
10
0.040000
20
-0.857000
41
0.070000
42
0.070000
0
CIRCLE
8
0
10
0.040000
20
-0.857000
40
0.025000
0
INSERT
8
0
2
EPAD
10
0.639000
20
-0.412000
41
0.060000
42
0.060000
0
CIRCLE
8
0
10
0.639000
20
-0.412000
40
0.025000
0
INSERT
8
0
2
EPAD
10
-0.010000
20
-0.285000
41
0.060000
42
0.060000
0
CIRCLE
8
0
10
-0.010000
20
-0.285000
40
0.025000
0
INSERT
8
0
2
EPAD
10
1.048000
20
-0.412000
41
0.060000
42
0.060000
0
CIRCLE
8
0
10
1.048000
20
-0.412000
40
0.025000
0
INSERT
8
0
2
EPAD
10
0.098000
20
-0.253000
41
0.060000
42
0.060000
0
CIRCLE
8
0
10
0.098000
20
-0.253000
40
0.025000
0
INSERT
8
0
2
EPAD
10
-1.138000
20
1.073000
41
0.070000
42
0.070000
0
CIRCLE
8
0
10
-1.138000
20
1.073000
40
0.025000
0
INSERT
8
0
2
EPAD
10
-1.776000
20
1.142000
41
0.070000
42
0.070000
0
CIRCLE
8
0
10
-1.776000
20
1.142000
40
0.025000
0
INSERT
8
0
2
EPAD
10
-1.425000
20
0.070000
41
0.070000
42
0.070000
0
CIRCLE
8
0
10
-1.425000
20
0.070000
40
0.025000
0
INSERT
8
0
2
EPAD
10
-1.014000
20
1.067000
41
0.070000
42
0.070000
0
CIRCLE
8
0
10
-1.014000
20
1.067000
40
0.025000
0
INSERT
8
0
2
EPAD
10
-0.095000
20
0.305000
41
0.070000
42
0.070000
0
CIRCLE
8
0
10
-0.095000
20
0.305000
40
0.025000
0
INSERT
8
0
2
EPAD
10
1.032000
20
0.316000
41
0.070000
42
0.070000
0
CIRCLE
8
0
10
1.032000
20
0.316000
40
0.025000
0
INSERT
8
0
2
EPAD
10
1.404000
20
0.728000
41
0.070000
42
0.070000
0
CIRCLE
8
0
10
1.404000
20
0.728000
40
0.025000
0
INSERT
8
0
2
EPAD
10
-0.912000
20
1.073000
41
0.070000
42
0.070000
0
CIRCLE
8
0
10
-0.912000
20
1.073000
40
0.025000
0
INSERT
8
0
2
EPAD
10
-1.447000
20
1.208000
41
0.070000
42
0.070000
0
CIRCLE
8
0
10
-1.447000
20
1.208000
40
0.025000
0
INSERT
8
0
2
EPAD
10
1.233000
20
0.739000
41
0.070000
42
0.070000
0
CIRCLE
8
0
10
1.233000
20
0.739000
40
0.025000
0
INSERT
8
0
2
EPAD
10
0.592000
20
0.639000
41
0.070000
42
0.070000
0
CIRCLE
8
0
10
0.592000
20
0.639000
40
0.025000
0
INSERT
8
0
2
EPAD
10
1.359000
20
0.028000
41
0.070000
42
0.070000
0
CIRCLE
8
0
10
1.359000
20
0.028000
40
0.025000
0
INSERT
8
0
2
EPAD
10
0.794000
20
0.119000
41
0.070000
42
0.070000
0
CIRCLE
8
0
10
0.794000
20
0.119000
40
0.025000
0
INSERT
8
0
2
EPAD
10
1.349000
20
-0.159000
41
0.070000
42
0.070000
0
CIRCLE
8
0
10
1.349000
20
-0.159000
40
0.025000
0
INSERT
8
0
2
EPAD
10
0.709000
20
0.049000
41
0.070000
42
0.070000
0
CIRCLE
8
0
10
0.709000
20
0.049000
40
0.025000
0
INSERT
8
0
2
EPAD
10
1.308000
20
0.581000
41
0.070000
42
0.070000
0
CIRCLE
8
0
10
1.308000
20
0.581000
40
0.025000
0
INSERT
8
0
2
EPAD
10
0.707000
20
0.517000
41
0.070000
42
0.070000
0
CIRCLE
8
0
10
0.707000
20
0.517000
40
0.025000
0
INSERT
8
0
2
EPAD
10
-1.789000
20
-1.353000
41
0.250000
42
0.250000
0
CIRCLE
8
0
10
-1.789000
20
-1.353000
40
0.030000
0
INSERT
8
0
2
EPAD
10
-1.533000
20
-1.239000
41
0.120000
42
0.120000
0
CIRCLE
8
0
10
-1.533000
20
-1.239000
40
0.030000
0
INSERT
8
0
2
EPAD
10
-1.333000
20
-1.239000
41
0.120000
42
0.120000
0
CIRCLE
8
0
10
-1.333000
20
-1.239000
40
0.030000
0
INSERT
8
0
2
EPAD
10
-1.065000
20
-1.113000
41
0.100000
42
0.100000
0
CIRCLE
8
0
10
-1.065000
20
-1.113000
40
0.025000
0
INSERT
8
0
2
EPAD
10
-0.865000
20
-1.313000
41
0.100000
42
0.100000
0
CIRCLE
8
0
10
-0.865000
20
-1.313000
40
0.025000
0
INSERT
8
0
2
EPAD
10
-1.065000
20
-1.313000
41
0.100000
42
0.100000
0
CIRCLE
8
0
10
-1.065000
20
-1.313000
40
0.025000
0
INSERT
8
0
2
EPAD
10
-0.865000
20
-1.113000
41
0.100000
42
0.100000
0
CIRCLE
8
0
10
-0.865000
20
-1.113000
40
0.025000
0
INSERT
8
0
2
EPAD
10
-0.526000
20
-1.109000
41
0.100000
42
0.100000
0
CIRCLE
8
0
10
-0.526000
20
-1.109000
40
0.025000
0
INSERT
8
0
2
EPAD
10
-0.526000
20
-1.309000
41
0.100000
42
0.100000
0
CIRCLE
8
0
10
-0.526000
20
-1.309000
40
0.025000
0
INSERT
8
0
2
EPAD
10
-0.722000
20
-0.964000
41
0.070000
42
0.070000
0
CIRCLE
8
0
10
-0.722000
20
-0.964000
40
0.025000
0
INSERT
8
0
2
EPAD
10
-0.322000
20
-0.964000
41
0.070000
42
0.070000
0
CIRCLE
8
0
10
-0.322000
20
-0.964000
40
0.025000
0
INSERT
8
0
2
RPAD
10
0.310000
20
-1.302000
41
0.080000
42
0.080000
50
0.000000
0
CIRCLE
8
0
10
0.310000
20
-1.302000
40
0.025000
0
INSERT
8
0
2
RPAD
10
0.410000
20
-1.302000
41
0.080000
42
0.080000
50
0.000000
0
CIRCLE
8
0
10
0.410000
20
-1.302000
40
0.025000
0
INSERT
8
0
2
RPAD
10
0.510000
20
-1.302000
41
0.080000
42
0.080000
50
0.000000
0
CIRCLE
8
0
10
0.510000
20
-1.302000
40
0.025000
0
INSERT
8
0
2
EPAD
10
0.907000
20
-1.172000
41
0.150000
42
0.150000
0
CIRCLE
8
0
10
0.907000
20
-1.172000
40
0.030000
0
INSERT
8
0
2
EPAD
10
-0.077000
20
-1.172000
41
0.150000
42
0.150000
0
CIRCLE
8
0
10
-0.077000
20
-1.172000
40
0.030000
0
INSERT
8
0
2
EPAD
10
0.586000
20
-0.814000
41
0.090000
42
0.090000
0
CIRCLE
8
0
10
0.586000
20
-0.814000
40
0.025000
0
INSERT
8
0
2
EPAD
10
0.186000
20
-0.814000
41
0.090000
42
0.090000
0
CIRCLE
8
0
10
0.186000
20
-0.814000
40
0.025000
0
INSERT
8
0
2
EPAD
10
-0.075000
20
-0.806000
41
0.080000
42
0.080000
0
CIRCLE
8
0
10
-0.075000
20
-0.806000
40
0.025000
0
INSERT
8
0
2
EPAD
10
-0.175000
20
-0.806000
41
0.080000
42
0.080000
0
CIRCLE
8
0
10
-0.175000
20
-0.806000
40
0.025000
0
INSERT
8
0
2
EPAD
10
0.774000
20
-0.816000
41
0.070000
42
0.070000
0
CIRCLE
8
0
10
0.774000
20
-0.816000
40
0.025000
0
INSERT
8
0
2
EPAD
10
0.974000
20
-0.816000
41
0.070000
42
0.070000
0
CIRCLE
8
0
10
0.974000
20
-0.816000
40
0.025000
0
INSERT
8
0
2
RPAD
10
-0.805000
20
-0.179000
41
0.050000
42
0.050000
50
0.000000
0
CIRCLE
8
0
10
-0.805000
20
-0.179000
40
0.030000
0
INSERT
8
0
2
EPAD
10
-0.705000
20
-0.179000
41
0.050000
42
0.050000
0
CIRCLE
8
0
10
-0.705000
20
-0.179000
40
0.030000
0
INSERT
8
0
2
EPAD
10
-0.605000
20
-0.179000
41
0.050000
42
0.050000
0
CIRCLE
8
0
10
-0.605000
20
-0.179000
40
0.030000
0
INSERT
8
0
2
EPAD
10
-0.505000
20
-0.179000
41
0.050000
42
0.050000
0
CIRCLE
8
0
10
-0.505000
20
-0.179000
40
0.030000
0
INSERT
8
0
2
EPAD
10
-0.405000
20
-0.179000
41
0.050000
42
0.050000
0
CIRCLE
8
0
10
-0.405000
20
-0.179000
40
0.030000
0
INSERT
8
0
2
EPAD
10
-0.305000
20
-0.179000
41
0.050000
42
0.050000
0
CIRCLE
8
0
10
-0.305000
20
-0.179000
40
0.030000
0
INSERT
8
0
2
EPAD
10
-0.205000
20
-0.179000
41
0.050000
42
0.050000
0
CIRCLE
8
0
10
-0.205000
20
-0.179000
40
0.030000
0
INSERT
8
0
2
EPAD
10
-0.105000
20
-0.179000
41
0.050000
42
0.050000
0
CIRCLE
8
0
10
-0.105000
20
-0.179000
40
0.030000
0
INSERT
8
0
2
EPAD
10
-0.005000
20
-0.179000
41
0.050000
42
0.050000
0
CIRCLE
8
0
10
-0.005000
20
-0.179000
40
0.030000
0
INSERT
8
0
2
EPAD
10
0.094000
20
-0.179000
41
0.050000
42
0.050000
0
CIRCLE
8
0
10
0.094000
20
-0.179000
40
0.030000
0
INSERT
8
0
2
EPAD
10
0.194000
20
-0.179000
41
0.050000
42
0.050000
0
CIRCLE
8
0
10
0.194000
20
-0.179000
40
0.030000
0
INSERT
8
0
2
EPAD
10
0.294000
20
-0.179000
41
0.050000
42
0.050000
0
CIRCLE
8
0
10
0.294000
20
-0.179000
40
0.030000
0
INSERT
8
0
2
EPAD
10
0.394000
20
-0.179000
41
0.050000
42
0.050000
0
CIRCLE
8
0
10
0.394000
20
-0.179000
40
0.030000
0
INSERT
8
0
2
EPAD
10
0.494000
20
-0.179000
41
0.050000
42
0.050000
0
CIRCLE
8
0
10
0.494000
20
-0.179000
40
0.030000
0
INSERT
8
0
2
EPAD
10
0.594000
20
-0.179000
41
0.050000
42
0.050000
0
CIRCLE
8
0
10
0.594000
20
-0.179000
40
0.030000
0
INSERT
8
0
2
EPAD
10
0.694000
20
-0.179000
41
0.050000
42
0.050000
0
CIRCLE
8
0
10
0.694000
20
-0.179000
40
0.030000
0
INSERT
8
0
2
EPAD
10
0.794000
20
-0.179000
41
0.050000
42
0.050000
0
CIRCLE
8
0
10
0.794000
20
-0.179000
40
0.030000
0
INSERT
8
0
2
EPAD
10
0.894000
20
-0.179000
41
0.050000
42
0.050000
0
CIRCLE
8
0
10
0.894000
20
-0.179000
40
0.030000
0
INSERT
8
0
2
EPAD
10
0.994000
20
-0.179000
41
0.050000
42
0.050000
0
CIRCLE
8
0
10
0.994000
20
-0.179000
40
0.030000
0
INSERT
8
0
2
EPAD
10
1.094000
20
-0.179000
41
0.050000
42
0.050000
0
CIRCLE
8
0
10
1.094000
20
-0.179000
40
0.030000
0
INSERT
8
0
2
EPAD
10
1.094000
20
0.420000
41
0.050000
42
0.050000
0
CIRCLE
8
0
10
1.094000
20
0.420000
40
0.030000
0
INSERT
8
0
2
EPAD
10
0.994000
20
0.420000
41
0.050000
42
0.050000
0
CIRCLE
8
0
10
0.994000
20
0.420000
40
0.030000
0
INSERT
8
0
2
EPAD
10
0.894000
20
0.420000
41
0.050000
42
0.050000
0
CIRCLE
8
0
10
0.894000
20
0.420000
40
0.030000
0
INSERT
8
0
2
EPAD
10
0.794000
20
0.420000
41
0.050000
42
0.050000
0
CIRCLE
8
0
10
0.794000
20
0.420000
40
0.030000
0
INSERT
8
0
2
EPAD
10
0.694000
20
0.420000
41
0.050000
42
0.050000
0
CIRCLE
8
0
10
0.694000
20
0.420000
40
0.030000
0
INSERT
8
0
2
EPAD
10
0.594000
20
0.420000
41
0.050000
42
0.050000
0
CIRCLE
8
0
10
0.594000
20
0.420000
40
0.030000
0
INSERT
8
0
2
EPAD
10
0.494000
20
0.420000
41
0.050000
42
0.050000
0
CIRCLE
8
0
10
0.494000
20
0.420000
40
0.030000
0
INSERT
8
0
2
EPAD
10
0.394000
20
0.420000
41
0.050000
42
0.050000
0
CIRCLE
8
0
10
0.394000
20
0.420000
40
0.030000
0
INSERT
8
0
2
EPAD
10
0.294000
20
0.420000
41
0.050000
42
0.050000
0
CIRCLE
8
0
10
0.294000
20
0.420000
40
0.030000
0
INSERT
8
0
2
EPAD
10
0.194000
20
0.420000
41
0.050000
42
0.050000
0
CIRCLE
8
0
10
0.194000
20
0.420000
40
0.030000
0
INSERT
8
0
2
EPAD
10
0.094000
20
0.420000
41
0.050000
42
0.050000
0
CIRCLE
8
0
10
0.094000
20
0.420000
40
0.030000
0
INSERT
8
0
2
EPAD
10
-0.005000
20
0.420000
41
0.050000
42
0.050000
0
CIRCLE
8
0
10
-0.005000
20
0.420000
40
0.030000
0
INSERT
8
0
2
EPAD
10
-0.105000
20
0.420000
41
0.050000
42
0.050000
0
CIRCLE
8
0
10
-0.105000
20
0.420000
40
0.030000
0
INSERT
8
0
2
EPAD
10
-0.205000
20
0.420000
41
0.050000
42
0.050000
0
CIRCLE
8
0
10
-0.205000
20
0.420000
40
0.030000
0
INSERT
8
0
2
EPAD
10
-0.305000
20
0.420000
41
0.050000
42
0.050000
0
CIRCLE
8
0
10
-0.305000
20
0.420000
40
0.030000
0
INSERT
8
0
2
EPAD
10
-0.405000
20
0.420000
41
0.050000
42
0.050000
0
CIRCLE
8
0
10
-0.405000
20
0.420000
40
0.030000
0
INSERT
8
0
2
EPAD
10
-0.505000
20
0.420000
41
0.050000
42
0.050000
0
CIRCLE
8
0
10
-0.505000
20
0.420000
40
0.030000
0
INSERT
8
0
2
EPAD
10
-0.605000
20
0.420000
41
0.050000
42
0.050000
0
CIRCLE
8
0
10
-0.605000
20
0.420000
40
0.030000
0
INSERT
8
0
2
EPAD
10
-0.705000
20
0.420000
41
0.050000
42
0.050000
0
CIRCLE
8
0
10
-0.705000
20
0.420000
40
0.030000
0
INSERT
8
0
2
EPAD
10
-0.805000
20
0.420000
41
0.050000
42
0.050000
0
CIRCLE
8
0
10
-0.805000
20
0.420000
40
0.030000
0
INSERT
8
0
2
EPAD
10
-1.726000
20
-0.393000
41
0.120000
42
0.120000
0
CIRCLE
8
0
10
-1.726000
20
-0.393000
40
0.030000
0
INSERT
8
0
2
EPAD
10
-1.726000
20
-0.593000
41
0.120000
42
0.120000
0
CIRCLE
8
0
10
-1.726000
20
-0.593000
40
0.030000
0
INSERT
8
0
2
EPAD
10
-1.726000
20
-0.793000
41
0.120000
42
0.120000
0
CIRCLE
8
0
10
-1.726000
20
-0.793000
40
0.030000
0
INSERT
8
0
2
EPAD
10
-1.400000
20
-0.409000
41
0.070000
42
0.070000
0
CIRCLE
8
0
10
-1.400000
20
-0.409000
40
0.025000
0
INSERT
8
0
2
EPAD
10
-1.400000
20
-0.809000
41
0.070000
42
0.070000
0
CIRCLE
8
0
10
-1.400000
20
-0.809000
40
0.025000
0
INSERT
8
0
2
RPAD
10
-0.923000
20
-0.840000
41
0.050000
42
0.050000
50
90.000000
0
CIRCLE
8
0
10
-0.923000
20
-0.840000
40
0.030000
0
INSERT
8
0
2
EPAD
10
-0.923000
20
-0.740000
41
0.050000
42
0.050000
0
CIRCLE
8
0
10
-0.923000
20
-0.740000
40
0.030000
0
INSERT
8
0
2
EPAD
10
-0.923000
20
-0.640000
41
0.050000
42
0.050000
0
CIRCLE
8
0
10
-0.923000
20
-0.640000
40
0.030000
0
INSERT
8
0
2
EPAD
10
-0.923000
20
-0.540000
41
0.050000
42
0.050000
0
CIRCLE
8
0
10
-0.923000
20
-0.540000
40
0.030000
0
INSERT
8
0
2
EPAD
10
-0.923000
20
-0.440000
41
0.050000
42
0.050000
0
CIRCLE
8
0
10
-0.923000
20
-0.440000
40
0.030000
0
INSERT
8
0
2
EPAD
10
-0.923000
20
-0.340000
41
0.050000
42
0.050000
0
CIRCLE
8
0
10
-0.923000
20
-0.340000
40
0.030000
0
INSERT
8
0
2
EPAD
10
-0.923000
20
-0.240000
41
0.050000
42
0.050000
0
CIRCLE
8
0
10
-0.923000
20
-0.240000
40
0.030000
0
INSERT
8
0
2
EPAD
10
-1.223000
20
-0.240000
41
0.050000
42
0.050000
0
CIRCLE
8
0
10
-1.223000
20
-0.240000
40
0.030000
0
INSERT
8
0
2
EPAD
10
-1.223000
20
-0.340000
41
0.050000
42
0.050000
0
CIRCLE
8
0
10
-1.223000
20
-0.340000
40
0.030000
0
INSERT
8
0
2
EPAD
10
-1.223000
20
-0.440000
41
0.050000
42
0.050000
0
CIRCLE
8
0
10
-1.223000
20
-0.440000
40
0.030000
0
INSERT
8
0
2
EPAD
10
-1.223000
20
-0.540000
41
0.050000
42
0.050000
0
CIRCLE
8
0
10
-1.223000
20
-0.540000
40
0.030000
0
INSERT
8
0
2
EPAD
10
-1.223000
20
-0.640000
41
0.050000
42
0.050000
0
CIRCLE
8
0
10
-1.223000
20
-0.640000
40
0.030000
0
INSERT
8
0
2
EPAD
10
-1.223000
20
-0.740000
41
0.050000
42
0.050000
0
CIRCLE
8
0
10
-1.223000
20
-0.740000
40
0.030000
0
INSERT
8
0
2
EPAD
10
-1.223000
20
-0.840000
41
0.050000
42
0.050000
0
CIRCLE
8
0
10
-1.223000
20
-0.840000
40
0.030000
0
INSERT
8
0
2
EPAD
10
-0.749000
20
-0.632000
41
0.070000
42
0.070000
0
CIRCLE
8
0
10
-0.749000
20
-0.632000
40
0.025000
0
INSERT
8
0
2
EPAD
10
-0.349000
20
-0.632000
41
0.070000
42
0.070000
0
CIRCLE
8
0
10
-0.349000
20
-0.632000
40
0.025000
0
INSERT
8
0
2
EPAD
10
-0.747000
20
-0.515000
41
0.070000
42
0.070000
0
CIRCLE
8
0
10
-0.747000
20
-0.515000
40
0.025000
0
INSERT
8
0
2
EPAD
10
-0.347000
20
-0.515000
41
0.070000
42
0.070000
0
CIRCLE
8
0
10
-0.347000
20
-0.515000
40
0.025000
0
INSERT
8
0
2
EPAD
10
-0.747000
20
-0.404000
41
0.070000
42
0.070000
0
CIRCLE
8
0
10
-0.747000
20
-0.404000
40
0.025000
0
INSERT
8
0
2
EPAD
10
-0.347000
20
-0.404000
41
0.070000
42
0.070000
0
CIRCLE
8
0
10
-0.347000
20
-0.404000
40
0.025000
0
INSERT
8
0
2
RPAD
10
-1.829000
20
0.031000
41
0.080000
42
0.080000
50
270.000000
0
CIRCLE
8
0
10
-1.829000
20
0.031000
40
0.025000
0
INSERT
8
0
2
RPAD
10
-1.829000
20
-0.068000
41
0.080000
42
0.080000
50
270.000000
0
CIRCLE
8
0
10
-1.829000
20
-0.068000
40
0.025000
0
INSERT
8
0
2
RPAD
10
-1.829000
20
-0.168000
41
0.080000
42
0.080000
50
270.000000
0
CIRCLE
8
0
10
-1.829000
20
-0.168000
40
0.025000
0
INSERT
8
0
2
EPAD
10
-1.487000
20
0.202000
41
0.070000
42
0.070000
0
CIRCLE
8
0
10
-1.487000
20
0.202000
40
0.025000
0
INSERT
8
0
2
EPAD
10
-1.487000
20
-0.197000
41
0.070000
42
0.070000
0
CIRCLE
8
0
10
-1.487000
20
-0.197000
40
0.025000
0
INSERT
8
0
2
EPAD
10
-1.601000
20
0.201000
41
0.070000
42
0.070000
0
CIRCLE
8
0
10
-1.601000
20
0.201000
40
0.025000
0
INSERT
8
0
2
EPAD
10
-1.601000
20
-0.198000
41
0.070000
42
0.070000
0
CIRCLE
8
0
10
-1.601000
20
-0.198000
40
0.025000
0
INSERT
8
0
2
EPAD
10
0.067000
20
-0.550000
41
0.080000
42
0.080000
0
CIRCLE
8
0
10
0.067000
20
-0.550000
40
0.010000
0
INSERT
8
0
2
EPAD
10
-0.032000
20
-0.550000
41
0.080000
42
0.080000
0
CIRCLE
8
0
10
-0.032000
20
-0.550000
40
0.010000
0
INSERT
8
0
2
EPAD
10
-0.132000
20
-0.550000
41
0.080000
42
0.080000
0
CIRCLE
8
0
10
-0.132000
20
-0.550000
40
0.010000
0
INSERT
8
0
2
EPAD
10
0.489000
20
-0.550000
41
0.080000
42
0.080000
0
CIRCLE
8
0
10
0.489000
20
-0.550000
40
0.010000
0
INSERT
8
0
2
EPAD
10
0.389000
20
-0.550000
41
0.080000
42
0.080000
0
CIRCLE
8
0
10
0.389000
20
-0.550000
40
0.010000
0
INSERT
8
0
2
EPAD
10
0.289000
20
-0.550000
41
0.080000
42
0.080000
0
CIRCLE
8
0
10
0.289000
20
-0.550000
40
0.010000
0
INSERT
8
0
2
EPAD
10
0.907000
20
-0.550000
41
0.080000
42
0.080000
0
CIRCLE
8
0
10
0.907000
20
-0.550000
40
0.010000
0
INSERT
8
0
2
EPAD
10
0.807000
20
-0.550000
41
0.080000
42
0.080000
0
CIRCLE
8
0
10
0.807000
20
-0.550000
40
0.010000
0
INSERT
8
0
2
EPAD
10
0.707000
20
-0.550000
41
0.080000
42
0.080000
0
CIRCLE
8
0
10
0.707000
20
-0.550000
40
0.010000
0
INSERT
8
0
2
EPAD
10
1.326000
20
-0.550000
41
0.080000
42
0.080000
0
CIRCLE
8
0
10
1.326000
20
-0.550000
40
0.010000
0
INSERT
8
0
2
EPAD
10
1.226000
20
-0.550000
41
0.080000
42
0.080000
0
CIRCLE
8
0
10
1.226000
20
-0.550000
40
0.010000
0
INSERT
8
0
2
EPAD
10
1.126000
20
-0.550000
41
0.080000
42
0.080000
0
CIRCLE
8
0
10
1.126000
20
-0.550000
40
0.010000
0
INSERT
8
0
2
EPAD
10
0.776000
20
0.929000
41
0.080000
42
0.080000
0
CIRCLE
8
0
10
0.776000
20
0.929000
40
0.010000
0
INSERT
8
0
2
EPAD
10
0.676000
20
0.929000
41
0.080000
42
0.080000
0
CIRCLE
8
0
10
0.676000
20
0.929000
40
0.010000
0
INSERT
8
0
2
EPAD
10
0.576000
20
0.929000
41
0.080000
42
0.080000
0
CIRCLE
8
0
10
0.576000
20
0.929000
40
0.010000
0
INSERT
8
0
2
EPAD
10
0.476000
20
0.929000
41
0.080000
42
0.080000
0
CIRCLE
8
0
10
0.476000
20
0.929000
40
0.010000
0
INSERT
8
0
2
EPAD
10
0.376000
20
0.929000
41
0.080000
42
0.080000
0
CIRCLE
8
0
10
0.376000
20
0.929000
40
0.010000
0
INSERT
8
0
2
EPAD
10
0.276000
20
0.929000
41
0.080000
42
0.080000
0
CIRCLE
8
0
10
0.276000
20
0.929000
40
0.010000
0
INSERT
8
0
2
EPAD
10
0.176000
20
0.929000
41
0.080000
42
0.080000
0
CIRCLE
8
0
10
0.176000
20
0.929000
40
0.010000
0
INSERT
8
0
2
EPAD
10
0.076000
20
0.929000
41
0.080000
42
0.080000
0
CIRCLE
8
0
10
0.076000
20
0.929000
40
0.010000
0
INSERT
8
0
2
EPAD
10
-0.023000
20
0.929000
41
0.080000
42
0.080000
0
CIRCLE
8
0
10
-0.023000
20
0.929000
40
0.010000
0
INSERT
8
0
2
EPAD
10
-0.123000
20
0.929000
41
0.080000
42
0.080000
0
CIRCLE
8
0
10
-0.123000
20
0.929000
40
0.010000
0
INSERT
8
0
2
EPAD
10
-0.223000
20
0.929000
41
0.080000
42
0.080000
0
CIRCLE
8
0
10
-0.223000
20
0.929000
40
0.010000
0
INSERT
8
0
2
EPAD
10
-0.323000
20
0.929000
41
0.080000
42
0.080000
0
CIRCLE
8
0
10
-0.323000
20
0.929000
40
0.010000
0
INSERT
8
0
2
EPAD
10
-0.423000
20
0.929000
41
0.080000
42
0.080000
0
CIRCLE
8
0
10
-0.423000
20
0.929000
40
0.010000
0
INSERT
8
0
2
EPAD
10
-0.523000
20
0.929000
41
0.080000
42
0.080000
0
CIRCLE
8
0
10
-0.523000
20
0.929000
40
0.010000
0
INSERT
8
0
2
EPAD
10
-0.623000
20
0.929000
41
0.080000
42
0.080000
0
CIRCLE
8
0
10
-0.623000
20
0.929000
40
0.010000
0
INSERT
8
0
2
EPAD
10
-0.723000
20
0.929000
41
0.080000
42
0.080000
0
CIRCLE
8
0
10
-0.723000
20
0.929000
40
0.010000
0
INSERT
8
0
2
EPAD
10
-0.823000
20
0.929000
41
0.080000
42
0.080000
0
CIRCLE
8
0
10
-0.823000
20
0.929000
40
0.010000
0
INSERT
8
0
2
EPAD
10
-0.923000
20
0.929000
41
0.080000
42
0.080000
0
CIRCLE
8
0
10
-0.923000
20
0.929000
40
0.010000
0
INSERT
8
0
2
EPAD
10
-1.023000
20
0.929000
41
0.080000
42
0.080000
0
CIRCLE
8
0
10
-1.023000
20
0.929000
40
0.010000
0
INSERT
8
0
2
EPAD
10
-1.123000
20
0.929000
41
0.080000
42
0.080000
0
CIRCLE
8
0
10
-1.123000
20
0.929000
40
0.010000
0
INSERT
8
0
2
EPAD
10
1.602000
20
0.793000
41
0.080000
42
0.080000
0
CIRCLE
8
0
10
1.602000
20
0.793000
40
0.025000
0
INSERT
8
0
2
EPAD
10
1.802000
20
0.793000
41
0.080000
42
0.080000
0
CIRCLE
8
0
10
1.802000
20
0.793000
40
0.025000
0
INSERT
8
0
2
EPAD
10
1.702000
20
1.013000
41
0.080000
42
0.080000
0
CIRCLE
8
0
10
1.702000
20
1.013000
40
0.025000
0
INSERT
8
0
2
EPAD
10
-1.727000
20
0.372000
41
0.120000
42
0.120000
0
CIRCLE
8
0
10
-1.727000
20
0.372000
40
0.030000
0
INSERT
8
0
2
EPAD
10
-1.727000
20
0.572000
41
0.120000
42
0.120000
0
CIRCLE
8
0
10
-1.727000
20
0.572000
40
0.030000
0
INSERT
8
0
2
EPAD
10
-1.727000
20
0.772000
41
0.120000
42
0.120000
0
CIRCLE
8
0
10
-1.727000
20
0.772000
40
0.030000
0
INSERT
8
0
2
EPAD
10
-1.727000
20
0.972000
41
0.120000
42
0.120000
0
CIRCLE
8
0
10
-1.727000
20
0.972000
40
0.030000
0
INSERT
8
0
2
EPAD
10
0.351000
20
-0.003000
41
0.080000
42
0.080000
0
CIRCLE
8
0
10
0.351000
20
-0.003000
40
0.025000
0
INSERT
8
0
2
EPAD
10
0.551000
20
-0.003000
41
0.080000
42
0.080000
0
CIRCLE
8
0
10
0.551000
20
-0.003000
40
0.025000
0
INSERT
8
0
2
EPAD
10
0.340000
20
0.165000
41
0.070000
42
0.070000
0
CIRCLE
8
0
10
0.340000
20
0.165000
40
0.025000
0
INSERT
8
0
2
EPAD
10
0.340000
20
0.265000
41
0.070000
42
0.070000
0
CIRCLE
8
0
10
0.340000
20
0.265000
40
0.025000
0
INSERT
8
0
2
EPAD
10
0.540000
20
0.165000
41
0.070000
42
0.070000
0
CIRCLE
8
0
10
0.540000
20
0.165000
40
0.025000
0
INSERT
8
0
2
EPAD
10
0.540000
20
0.265000
41
0.070000
42
0.070000
0
CIRCLE
8
0
10
0.540000
20
0.265000
40
0.025000
0
INSERT
8
0
2
EPAD
10
0.725000
20
0.228000
41
0.070000
42
0.070000
0
CIRCLE
8
0
10
0.725000
20
0.228000
40
0.025000
0
INSERT
8
0
2
EPAD
10
0.925000
20
0.228000
41
0.070000
42
0.070000
0
CIRCLE
8
0
10
0.925000
20
0.228000
40
0.025000
0
INSERT
8
0
2
EPAD
10
-1.281000
20
0.350000
41
0.070000
42
0.070000
0
CIRCLE
8
0
10
-1.281000
20
0.350000
40
0.025000
0
INSERT
8
0
2
EPAD
10
-1.281000
20
-0.049000
41
0.070000
42
0.070000
0
CIRCLE
8
0
10
-1.281000
20
-0.049000
40
0.025000
0
INSERT
8
0
2
EPAD
10
-1.155000
20
0.350000
41
0.070000
42
0.070000
0
CIRCLE
8
0
10
-1.155000
20
0.350000
40
0.025000
0
INSERT
8
0
2
EPAD
10
-1.155000
20
-0.049000
41
0.070000
42
0.070000
0
CIRCLE
8
0
10
-1.155000
20
-0.049000
40
0.025000
0
INSERT
8
0
2
RPAD
10
1.351000
20
-0.877000
41
0.080000
42
0.080000
50
0.000000
0
CIRCLE
8
0
10
1.351000
20
-0.877000
40
0.025000
0
INSERT
8
0
2
RPAD
10
1.451000
20
-0.877000
41
0.080000
42
0.080000
50
0.000000
0
CIRCLE
8
0
10
1.451000
20
-0.877000
40
0.025000
0
INSERT
8
0
2
EPAD
10
1.225000
20
-1.349000
41
0.070000
42
0.070000
0
CIRCLE
8
0
10
1.225000
20
-1.349000
40
0.025000
0
INSERT
8
0
2
EPAD
10
1.225000
20
-0.949000
41
0.070000
42
0.070000
0
CIRCLE
8
0
10
1.225000
20
-0.949000
40
0.025000
0
INSERT
8
0
2
EPAD
10
-0.292000
20
1.411000
41
0.070000
42
0.070000
0
CIRCLE
8
0
10
-0.292000
20
1.411000
40
0.025000
0
INSERT
8
0
2
EPAD
10
0.107000
20
1.411000
41
0.070000
42
0.070000
0
CIRCLE
8
0
10
0.107000
20
1.411000
40
0.025000
0
INSERT
8
0
2
EPAD
10
0.636000
20
1.332000
41
0.060000
42
0.060000
0
CIRCLE
8
0
10
0.636000
20
1.332000
40
0.025000
0
INSERT
8
0
2
EPAD
10
0.716000
20
1.332000
41
0.060000
42
0.060000
0
CIRCLE
8
0
10
0.716000
20
1.332000
40
0.025000
0
INSERT
8
0
2
EPAD
10
0.796000
20
1.332000
41
0.060000
42
0.060000
0
CIRCLE
8
0
10
0.796000
20
1.332000
40
0.025000
0
INSERT
8
0
2
EPAD
10
1.116000
20
1.182000
41
0.080000
42
0.080000
0
CIRCLE
8
0
10
1.116000
20
1.182000
40
0.010000
0
INSERT
8
0
2
EPAD
10
1.419000
20
1.182000
41
0.080000
42
0.080000
0
CIRCLE
8
0
10
1.419000
20
1.182000
40
0.010000
0
INSERT
8
0
2
EPAD
10
-0.533000
20
-0.771000
41
0.080000
42
0.080000
0
CIRCLE
8
0
10
-0.533000
20
-0.771000
40
0.025000
0
INSERT
8
0
2
EPAD
10
-0.433000
20
-0.771000
41
0.080000
42
0.080000
0
CIRCLE
8
0
10
-0.433000
20
-0.771000
40
0.025000
0
INSERT
8
0
2
EPAD
10
-1.793000
20
1.326000
41
0.250000
42
0.250000
0
CIRCLE
8
0
10
-1.793000
20
1.326000
40
0.030000
0
INSERT
8
0
2
EPAD
10
1.784000
20
-1.353000
41
0.250000
42
0.250000
0
CIRCLE
8
0
10
1.784000
20
-1.353000
40
0.030000
0
INSERT
8
0
2
EPAD
10
1.800000
20
1.342000
41
0.250000
42
0.250000
0
CIRCLE
8
0
10
1.800000
20
1.342000
40
0.030000
0
INSERT
8
0
2
EPAD
10
1.706000
20
-0.816000
41
0.120000
42
0.120000
0
CIRCLE
8
0
10
1.706000
20
-0.816000
40
0.030000
0
INSERT
8
0
2
EPAD
10
1.706000
20
-0.616000
41
0.120000
42
0.120000
0
CIRCLE
8
0
10
1.706000
20
-0.616000
40
0.030000
0
INSERT
8
0
2
EPAD
10
1.706000
20
-0.416000
41
0.120000
42
0.120000
0
CIRCLE
8
0
10
1.706000
20
-0.416000
40
0.030000
0
INSERT
8
0
2
EPAD
10
1.706000
20
-0.216000
41
0.120000
42
0.120000
0
CIRCLE
8
0
10
1.706000
20
-0.216000
40
0.030000
0
INSERT
8
0
2
EPAD
10
1.706000
20
-0.016000
41
0.120000
42
0.120000
0
CIRCLE
8
0
10
1.706000
20
-0.016000
40
0.030000
0
INSERT
8
0
2
EPAD
10
1.706000
20
0.183000
41
0.120000
42
0.120000
0
CIRCLE
8
0
10
1.706000
20
0.183000
40
0.030000
0
INSERT
8
0
2
EPAD
10
1.706000
20
0.383000
41
0.120000
42
0.120000
0
CIRCLE
8
0
10
1.706000
20
0.383000
40
0.030000
0
INSERT
8
0
2
EPAD
10
1.706000
20
0.583000
41
0.120000
42
0.120000
0
CIRCLE
8
0
10
1.706000
20
0.583000
40
0.030000
0
POLYLINE
8
0
66
1
40
0.008000
41
0.008000
0
VERTEX
8
0
10
-1.947000
20
-1.499000
0
VERTEX
8
0
10
1.947000
20
-1.499000
0
VERTEX
8
0
10
1.947000
20
1.499000
0
VERTEX
8
0
10
-1.947000
20
1.499000
0
VERTEX
8
0
10
-1.947000
20
-1.499000
0
SEQEND
8
0
0
POLYLINE
8
0
66
1
40
0.008000
41
0.008000
0
VERTEX
8
0
10
-1.633000
20
-1.039000
0
VERTEX
8
0
10
-1.633000
20
-1.439000
0
SEQEND
8
0
0
POLYLINE
8
0
66
1
40
0.008000
41
0.008000
0
VERTEX
8
0
10
-1.233000
20
-1.039000
0
VERTEX
8
0
10
-1.233000
20
-1.439000
0
SEQEND
8
0
0
POLYLINE
8
0
66
1
40
0.008000
41
0.008000
0
VERTEX
8
0
10
-1.633000
20
-1.439000
0
VERTEX
8
0
10
-1.233000
20
-1.439000
0
SEQEND
8
0
0
POLYLINE
8
0
66
1
40
0.008000
41
0.008000
0
VERTEX
8
0
10
-1.633000
20
-1.039000
0
VERTEX
8
0
10
-1.233000
20
-1.039000
0
SEQEND
8
0
0
TEXT
8
12632256
10
-1.800000
20
-1.195000
40
0.048000
41
1.041667
1
J16
0
CIRCLE
8
12632256
10
-0.965000
20
-1.213000
40
0.213000
0
POLYLINE
8
0
66
1
40
0.008000
41
0.008000
0
VERTEX
8
0
10
-1.045000
20
-1.023000
0
VERTEX
8
0
10
-1.045000
20
-1.063000
0
SEQEND
8
0
0
POLYLINE
8
0
66
1
40
0.008000
41
0.008000
0
VERTEX
8
0
10
-1.065000
20
-1.043000
0
VERTEX
8
0
10
-1.025000
20
-1.043000
0
SEQEND
8
0
0
TEXT
8
12632256
10
-1.040000
20
-0.990000
40
0.048000
41
1.041667
1
BR1
0
CIRCLE
8
12632256
10
-0.526000
20
-1.209000
40
0.200000
0
POLYLINE
8
0
66
1
40
0.008000
41
0.008000
0
VERTEX
8
0
10
-0.426000
20
-1.084000
0
VERTEX
8
0
10
-0.426000
20
-1.134000
0
SEQEND
8
0
0
POLYLINE
8
0
66
1
40
0.008000
41
0.008000
0
VERTEX
8
0
10
-0.401000
20
-1.109000
0
VERTEX
8
0
10
-0.451000
20
-1.109000
0
SEQEND
8
0
0
TEXT
8
12632256
10
-0.315000
20
-1.440000
40
0.048000
41
1.041667
50
90.000000
1
C4
0
POLYLINE
8
0
66
1
40
0.008000
41
0.008000
0
VERTEX
8
0
10
-0.672000
20
-0.964000
0
VERTEX
8
0
10
-0.622000
20
-0.964000
0
SEQEND
8
0
0
POLYLINE
8
0
66
1
40
0.008000
41
0.008000
0
VERTEX
8
0
10
-0.622000
20
-0.989000
0
VERTEX
8
0
10
-0.422000
20
-0.989000
0
VERTEX
8
0
10
-0.422000
20
-0.939000
0
VERTEX
8
0
10
-0.622000
20
-0.939000
0
VERTEX
8
0
10
-0.622000
20
-0.989000
0
SEQEND
8
0
0
POLYLINE
8
0
66
1
40
0.008000
41
0.008000
0
VERTEX
8
0
10
-0.422000
20
-0.964000
0
VERTEX
8
0
10
-0.372000
20
-0.964000
0
SEQEND
8
0
0
TEXT
8
12632256
10
-0.597000
20
-0.929000
40
0.048000
41
1.041667
1
R60
0
POLYLINE
8
0
66
1
40
0.008000
41
0.008000
0
VERTEX
8
0
10
0.260000
20
-1.352000
0
VERTEX
8
0
10
0.560000
20
-1.352000
0
VERTEX
8
0
10
0.560000
20
-1.252000
0
VERTEX
8
0
10
0.260000
20
-1.252000
0
VERTEX
8
0
10
0.260000
20
-1.352000
0
SEQEND
8
0
0
POLYLINE
8
0
66
1
40
0.008000
41
0.008000
0
VERTEX
8
0
10
0.260000
20
-1.252000
0
VERTEX
8
0
10
0.260000
20
-1.202000
0
VERTEX
8
0
10
0.560000
20
-1.202000
0
VERTEX
8
0
10
0.560000
20
-1.252000
0
SEQEND
8
0
0
POLYLINE
8
0
66
1
40
0.008000
41
0.008000
0
VERTEX
8
0
10
0.260000
20
-1.252000
0
VERTEX
8
0
10
0.310000
20
-1.202000
0
SEQEND
8
0
0
POLYLINE
8
0
66
1
40
0.008000
41
0.008000
0
VERTEX
8
0
10
0.310000
20
-1.252000
0
VERTEX
8
0
10
0.360000
20
-1.202000
0
SEQEND
8
0
0
POLYLINE
8
0
66
1
40
0.008000
41
0.008000
0
VERTEX
8
0
10
0.360000
20
-1.252000
0
VERTEX
8
0
10
0.410000
20
-1.202000
0
SEQEND
8
0
0
POLYLINE
8
0
66
1
40
0.008000
41
0.008000
0
VERTEX
8
0
10
0.410000
20
-1.252000
0
VERTEX
8
0
10
0.460000
20
-1.202000
0
SEQEND
8
0
0
POLYLINE
8
0
66
1
40
0.008000
41
0.008000
0
VERTEX
8
0
10
0.460000
20
-1.252000
0
VERTEX
8
0
10
0.510000
20
-1.202000
0
SEQEND
8
0
0
POLYLINE
8
0
66
1
40
0.008000
41
0.008000
0
VERTEX
8
0
10
0.510000
20
-1.252000
0
VERTEX
8
0
10
0.560000
20
-1.202000
0
SEQEND
8
0
0
TEXT
8
12632256
10
0.335000
20
-1.192000
40
0.048000
41
1.041667
1
U30
0
POLYLINE
8
0
66
1
40
0.008000
41
0.008000
0
VERTEX
8
0
10
-0.278000
20
-1.416000
0
VERTEX
8
0
10
1.099000
20
-1.416000
0
VERTEX
8
0
10
1.099000
20
-0.928000
0
VERTEX
8
0
10
-0.278000
20
-0.928000
0
VERTEX
8
0
10
-0.278000
20
-1.416000
0
SEQEND
8
0
0
POLYLINE
8
0
66
1
40
0.008000
41
0.008000
0
VERTEX
8
0
10
0.284000
20
-0.866000
0
VERTEX
8
0
10
0.488000
20
-0.866000
0
VERTEX
8
0
10
0.488000
20
-0.761000
0
VERTEX
8
0
10
0.284000
20
-0.761000
0
VERTEX
8
0
10
0.284000
20
-0.866000
0
SEQEND
8
0
0
POLYLINE
8
0
66
1
40
0.008000
41
0.008000
0
VERTEX
8
0
10
0.316000
20
-0.762000
0
VERTEX
8
0
10
0.316000
20
-0.865000
0
SEQEND
8
0
0
POLYLINE
8
0
66
1
40
0.008000
41
0.008000
0
VERTEX
8
0
10
0.256000
20
-0.814000
0
VERTEX
8
0
10
0.284000
20
-0.814000
0
SEQEND
8
0
0
POLYLINE
8
0
66
1
40
0.008000
41
0.008000
0
VERTEX
8
0
10
0.488000
20
-0.814000
0
VERTEX
8
0
10
0.516000
20
-0.814000
0
SEQEND
8
0
0
TEXT
8
12632256
10
0.336000
20
-0.751000
40
0.048000
41
1.041667
1
D1
0
CIRCLE
8
12632256
10
-0.125000
20
-0.806000
40
0.100000
0
POLYLINE
8
0
66
1
40
0.008000
41
0.008000
0
VERTEX
8
0
10
-0.050000
20
-0.856000
0
VERTEX
8
0
10
-0.100000
20
-0.856000
0
SEQEND
8
0
0
POLYLINE
8
0
66
1
40
0.008000
41
0.008000
0
VERTEX
8
0
10
-0.075000
20
-0.881000
0
VERTEX
8
0
10
-0.075000
20
-0.831000
0
SEQEND
8
0
0
TEXT
8
12632256
10
-0.337000
20
-0.893000
40
0.048000
41
1.041667
1
C5
0
POLYLINE
8
0
66
1
40
0.008000
41
0.008000
0
VERTEX
8
0
10
0.724000
20
-0.816000
0
VERTEX
8
0
10
0.727000
20
-0.806000
0
VERTEX
8
0
10
0.735000
20
-0.796000
0
VERTEX
8
0
10
0.749000
20
-0.788000
0
VERTEX
8
0
10
0.767000
20
-0.780000
0
VERTEX
8
0
10
0.789000
20
-0.774000
0
VERTEX
8
0
10
0.815000
20
-0.770000
0
VERTEX
8
0
10
0.843000
20
-0.767000
0
VERTEX
8
0
10
0.874000
20
-0.766000
0
SEQEND
8
0
0
POLYLINE
8
0
66
1
40
0.008000
41
0.008000
0
VERTEX
8
0
10
1.024000
20
-0.816000
0
VERTEX
8
0
10
1.021000
20
-0.806000
0
VERTEX
8
0
10
1.012000
20
-0.796000
0
VERTEX
8
0
10
0.998000
20
-0.788000
0
VERTEX
8
0
10
0.980000
20
-0.780000
0
VERTEX
8
0
10
0.958000
20
-0.774000
0
VERTEX
8
0
10
0.933000
20
-0.770000
0
VERTEX
8
0
10
0.905000
20
-0.767000
0
VERTEX
8
0
10
0.874000
20
-0.766000
0
SEQEND
8
0
0
POLYLINE
8
0
66
1
40
0.008000
41
0.008000
0
VERTEX
8
0
10
1.024000
20
-0.816000
0
VERTEX
8
0
10
1.021000
20
-0.826000
0
VERTEX
8
0
10
1.012000
20
-0.836000
0
VERTEX
8
0
10
0.998000
20
-0.844000
0
VERTEX
8
0
10
0.980000
20
-0.852000
0
VERTEX
8
0
10
0.958000
20
-0.858000
0
VERTEX
8
0
10
0.933000
20
-0.862000
0
VERTEX
8
0
10
0.905000
20
-0.865000
0
VERTEX
8
0
10
0.874000
20
-0.866000
0
SEQEND
8
0
0
POLYLINE
8
0
66
1
40
0.008000
41
0.008000
0
VERTEX
8
0
10
0.724000
20
-0.816000
0
VERTEX
8
0
10
0.727000
20
-0.826000
0
VERTEX
8
0
10
0.735000
20
-0.836000
0
VERTEX
8
0
10
0.749000
20
-0.844000
0
VERTEX
8
0
10
0.767000
20
-0.852000
0
VERTEX
8
0
10
0.789000
20
-0.858000
0
VERTEX
8
0
10
0.815000
20
-0.862000
0
VERTEX
8
0
10
0.843000
20
-0.865000
0
VERTEX
8
0
10
0.874000
20
-0.866000
0
SEQEND
8
0
0
TEXT
8
12632256
10
1.041000
20
-0.846000
40
0.048000
41
1.041667
1
C6
0
POLYLINE
8
0
66
1
40
0.008000
41
0.008000
0
VERTEX
8
0
10
-0.755000
20
0.120000
0
VERTEX
8
0
10
-0.757000
20
0.140000
0
VERTEX
8
0
10
-0.763000
20
0.159000
0
VERTEX
8
0
10
-0.772000
20
0.176000
0
VERTEX
8
0
10
-0.784000
20
0.191000
0
VERTEX
8
0
10
-0.799000
20
0.203000
0
VERTEX
8
0
10
-0.816000
20
0.212000
0
VERTEX
8
0
10
-0.835000
20
0.218000
0
VERTEX
8
0
10
-0.855000
20
0.220000
0
SEQEND
8
0
0
POLYLINE
8
0
66
1
40
0.008000
41
0.008000
0
VERTEX
8
0
10
-0.755000
20
0.120000
0
VERTEX
8
0
10
-0.757000
20
0.099000
0
VERTEX
8
0
10
-0.763000
20
0.080000
0
VERTEX
8
0
10
-0.772000
20
0.063000
0
VERTEX
8
0
10
-0.784000
20
0.049000
0
VERTEX
8
0
10
-0.799000
20
0.037000
0
VERTEX
8
0
10
-0.816000
20
0.028000
0
VERTEX
8
0
10
-0.835000
20
0.022000
0
VERTEX
8
0
10
-0.855000
20
0.020000
0
SEQEND
8
0
0
POLYLINE
8
0
66
1
40
0.008000
41
0.008000
0
VERTEX
8
0
10
-0.855000
20
0.220000
0
VERTEX
8
0
10
-0.855000
20
0.370000
0
SEQEND
8
0
0
POLYLINE
8
0
66
1
40
0.008000
41
0.008000
0
VERTEX
8
0
10
1.144000
20
0.370000
0
VERTEX
8
0
10
1.144000
20
-0.129000
0
SEQEND
8
0
0
POLYLINE
8
0
66
1
40
0.008000
41
0.008000
0
VERTEX
8
0
10
-0.855000
20
-0.129000
0
VERTEX
8
0
10
-0.855000
20
0.020000
0
SEQEND
8
0
0
POLYLINE
8
0
66
1
40
0.008000
41
0.008000
0
VERTEX
8
0
10
-0.855000
20
0.370000
0
VERTEX
8
0
10
1.144000
20
0.370000
0
SEQEND
8
0
0
POLYLINE
8
0
66
1
40
0.008000
41
0.008000
0
VERTEX
8
0
10
-0.855000
20
-0.129000
0
VERTEX
8
0
10
1.144000
20
-0.129000
0
SEQEND
8
0
0
TEXT
8
12632256
10
-0.865000
20
0.070000
40
0.048000
41
1.041667
50
90.000000
1
U1
0
POLYLINE
8
0
66
1
40
0.008000
41
0.008000
0
VERTEX
8
0
10
-1.526000
20
-0.293000
0
VERTEX
8
0
10
-1.926000
20
-0.293000
0
SEQEND
8
0
0
POLYLINE
8
0
66
1
40
0.008000
41
0.008000
0
VERTEX
8
0
10
-1.526000
20
-0.893000
0
VERTEX
8
0
10
-1.926000
20
-0.893000
0
SEQEND
8
0
0
POLYLINE
8
0
66
1
40
0.008000
41
0.008000
0
VERTEX
8
0
10
-1.926000
20
-0.293000
0
VERTEX
8
0
10
-1.926000
20
-0.893000
0
SEQEND
8
0
0
POLYLINE
8
0
66
1
40
0.008000
41
0.008000
0
VERTEX
8
0
10
-1.526000
20
-0.893000
0
VERTEX
8
0
10
-1.526000
20
-0.293000
0
SEQEND
8
0
0
TEXT
8
12632256
10
-1.819000
20
-1.093000
40
0.048000
41
1.041667
50
90.000000
1
J20
0
POLYLINE
8
0
66
1
40
0.008000
41
0.008000
0
VERTEX
8
0
10
-1.400000
20
-0.459000
0
VERTEX
8
0
10
-1.400000
20
-0.509000
0
SEQEND
8
0
0
POLYLINE
8
0
66
1
40
0.008000
41
0.008000
0
VERTEX
8
0
10
-1.425000
20
-0.709000
0
VERTEX
8
0
10
-1.375000
20
-0.709000
0
VERTEX
8
0
10
-1.375000
20
-0.509000
0
VERTEX
8
0
10
-1.425000
20
-0.509000
0
VERTEX
8
0
10
-1.425000
20
-0.709000
0
SEQEND
8
0
0
POLYLINE
8
0
66
1
40
0.008000
41
0.008000
0
VERTEX
8
0
10
-1.400000
20
-0.709000
0
VERTEX
8
0
10
-1.400000
20
-0.759000
0
SEQEND
8
0
0
TEXT
8
12632256
10
-1.317000
20
-0.684000
40
0.048000
41
1.041667
50
90.000000
1
R51
0
POLYLINE
8
0
66
1
40
0.008000
41
0.008000
0
VERTEX
8
0
10
-1.123000
20
-0.890000
0
VERTEX
8
0
10
-1.173000
20
-0.890000
0
SEQEND
8
0
0
POLYLINE
8
0
66
1
40
0.008000
41
0.008000
0
VERTEX
8
0
10
-0.973000
20
-0.890000
0
VERTEX
8
0
10
-1.023000
20
-0.890000
0
SEQEND
8
0
0
POLYLINE
8
0
66
1
40
0.008000
41
0.008000
0
VERTEX
8
0
10
-1.073000
20
-0.840000
0
VERTEX
8
0
10
-1.083000
20
-0.841000
0
VERTEX
8
0
10
-1.093000
20
-0.844000
0
VERTEX
8
0
10
-1.101000
20
-0.848000
0
VERTEX
8
0
10
-1.108000
20
-0.854000
0
VERTEX
8
0
10
-1.114000
20
-0.861000
0
VERTEX
8
0
10
-1.119000
20
-0.870000
0
VERTEX
8
0
10
-1.122000
20
-0.880000
0
VERTEX
8
0
10
-1.123000
20
-0.890000
0
SEQEND
8
0
0
POLYLINE
8
0
66
1
40
0.008000
41
0.008000
0
VERTEX
8
0
10
-1.073000
20
-0.840000
0
VERTEX
8
0
10
-1.063000
20
-0.841000
0
VERTEX
8
0
10
-1.053000
20
-0.844000
0
VERTEX
8
0
10
-1.044000
20
-0.848000
0
VERTEX
8
0
10
-1.037000
20
-0.854000
0
VERTEX
8
0
10
-1.031000
20
-0.861000
0
VERTEX
8
0
10
-1.027000
20
-0.870000
0
VERTEX
8
0
10
-1.024000
20
-0.880000
0
VERTEX
8
0
10
-1.023000
20
-0.890000
0
SEQEND
8
0
0
POLYLINE
8
0
66
1
40
0.008000
41
0.008000
0
VERTEX
8
0
10
-0.973000
20
-0.890000
0
VERTEX
8
0
10
-0.973000
20
-0.190000
0
VERTEX
8
0
10
-1.173000
20
-0.190000
0
VERTEX
8
0
10
-1.173000
20
-0.890000
0
SEQEND
8
0
0
TEXT
8
12632256
10
-1.123000
20
-0.948000
40
0.048000
41
1.041667
1
U2
0
POLYLINE
8
0
66
1
40
0.008000
41
0.008000
0
VERTEX
8
0
10
-0.699000
20
-0.632000
0
VERTEX
8
0
10
-0.649000
20
-0.632000
0
SEQEND
8
0
0
POLYLINE
8
0
66
1
40
0.008000
41
0.008000
0
VERTEX
8
0
10
-0.649000
20
-0.657000
0
VERTEX
8
0
10
-0.449000
20
-0.657000
0
VERTEX
8
0
10
-0.449000
20
-0.607000
0
VERTEX
8
0
10
-0.649000
20
-0.607000
0
VERTEX
8
0
10
-0.649000
20
-0.657000
0
SEQEND
8
0
0
POLYLINE
8
0
66
1
40
0.008000
41
0.008000
0
VERTEX
8
0
10
-0.449000
20
-0.632000
0
VERTEX
8
0
10
-0.399000
20
-0.632000
0
SEQEND
8
0
0
TEXT
8
12632256
10
-0.624000
20
-0.597000
40
0.048000
41
1.041667
1
R29
0
POLYLINE
8
0
66
1
40
0.008000
41
0.008000
0
VERTEX
8
0
10
-0.697000
20
-0.515000
0
VERTEX
8
0
10
-0.647000
20
-0.515000
0
SEQEND
8
0
0
POLYLINE
8
0
66
1
40
0.008000
41
0.008000
0
VERTEX
8
0
10
-0.647000
20
-0.540000
0
VERTEX
8
0
10
-0.447000
20
-0.540000
0
VERTEX
8
0
10
-0.447000
20
-0.490000
0
VERTEX
8
0
10
-0.647000
20
-0.490000
0
VERTEX
8
0
10
-0.647000
20
-0.540000
0
SEQEND
8
0
0
POLYLINE
8
0
66
1
40
0.008000
41
0.008000
0
VERTEX
8
0
10
-0.447000
20
-0.515000
0
VERTEX
8
0
10
-0.397000
20
-0.515000
0
SEQEND
8
0
0
TEXT
8
12632256
10
-0.597000
20
-0.480000
40
0.048000
41
1.041667
1
R7
0
POLYLINE
8
0
66
1
40
0.008000
41
0.008000
0
VERTEX
8
0
10
-0.697000
20
-0.404000
0
VERTEX
8
0
10
-0.647000
20
-0.404000
0
SEQEND
8
0
0
POLYLINE
8
0
66
1
40
0.008000
41
0.008000
0
VERTEX
8
0
10
-0.647000
20
-0.429000
0
VERTEX
8
0
10
-0.447000
20
-0.429000
0
VERTEX
8
0
10
-0.447000
20
-0.379000
0
VERTEX
8
0
10
-0.647000
20
-0.379000
0
VERTEX
8
0
10
-0.647000
20
-0.429000
0
SEQEND
8
0
0
POLYLINE
8
0
66
1
40
0.008000
41
0.008000
0
VERTEX
8
0
10
-0.447000
20
-0.404000
0
VERTEX
8
0
10
-0.397000
20
-0.404000
0
SEQEND
8
0
0
TEXT
8
12632256
10
-0.597000
20
-0.369000
40
0.048000
41
1.041667
1
R1
0
POLYLINE
8
0
66
1
40
0.008000
41
0.008000
0
VERTEX
8
0
10
-1.879000
20
-0.218000
0
VERTEX
8
0
10
-1.779000
20
-0.218000
0
VERTEX
8
0
10
-1.779000
20
0.081000
0
VERTEX
8
0
10
-1.879000
20
0.081000
0
VERTEX
8
0
10
-1.879000
20
-0.218000
0
SEQEND
8
0
0
POLYLINE
8
0
66
1
40
0.008000
41
0.008000
0
VERTEX
8
0
10
-1.779000
20
0.081000
0
VERTEX
8
0
10
-1.729000
20
0.081000
0
VERTEX
8
0
10
-1.729000
20
-0.218000
0
VERTEX
8
0
10
-1.779000
20
-0.218000
0
SEQEND
8
0
0
POLYLINE
8
0
66
1
40
0.008000
41
0.008000
0
VERTEX
8
0
10
-1.779000
20
0.081000
0
VERTEX
8
0
10
-1.729000
20
0.031000
0
SEQEND
8
0
0
POLYLINE
8
0
66
1
40
0.008000
41
0.008000
0
VERTEX
8
0
10
-1.779000
20
0.031000
0
VERTEX
8
0
10
-1.729000
20
-0.018000
0
SEQEND
8
0
0
POLYLINE
8
0
66
1
40
0.008000
41
0.008000
0
VERTEX
8
0
10
-1.779000
20
-0.018000
0
VERTEX
8
0
10
-1.729000
20
-0.068000
0
SEQEND
8
0
0
POLYLINE
8
0
66
1
40
0.008000
41
0.008000
0
VERTEX
8
0
10
-1.779000
20
-0.068000
0
VERTEX
8
0
10
-1.729000
20
-0.118000
0
SEQEND
8
0
0
POLYLINE
8
0
66
1
40
0.008000
41
0.008000
0
VERTEX
8
0
10
-1.779000
20
-0.118000
0
VERTEX
8
0
10
-1.729000
20
-0.168000
0
SEQEND
8
0
0
POLYLINE
8
0
66
1
40
0.008000
41
0.008000
0
VERTEX
8
0
10
-1.779000
20
-0.168000
0
VERTEX
8
0
10
-1.729000
20
-0.218000
0
SEQEND
8
0
0
TEXT
8
12632256
10
-1.671000
20
-0.143000
40
0.048000
41
1.041667
50
90.000000
1
U19
0
POLYLINE
8
0
66
1
40
0.008000
41
0.008000
0
VERTEX
8
0
10
-1.487000
20
0.152000
0
VERTEX
8
0
10
-1.487000
20
0.102000
0
SEQEND
8
0
0
POLYLINE
8
0
66
1
40
0.008000
41
0.008000
0
VERTEX
8
0
10
-1.512000
20
-0.097000
0
VERTEX
8
0
10
-1.462000
20
-0.097000
0
VERTEX
8
0
10
-1.462000
20
0.102000
0
VERTEX
8
0
10
-1.512000
20
0.102000
0
VERTEX
8
0
10
-1.512000
20
-0.097000
0
SEQEND
8
0
0
POLYLINE
8
0
66
1
40
0.008000
41
0.008000
0
VERTEX
8
0
10
-1.487000
20
-0.097000
0
VERTEX
8
0
10
-1.487000
20
-0.147000
0
SEQEND
8
0
0
TEXT
8
12632256
10
-1.404000
20
-0.047000
40
0.048000
41
1.041667
50
90.000000
1
R2
0
POLYLINE
8
0
66
1
40
0.008000
41
0.008000
0
VERTEX
8
0
10
-1.601000
20
0.151000
0
VERTEX
8
0
10
-1.601000
20
0.101000
0
SEQEND
8
0
0
POLYLINE
8
0
66
1
40
0.008000
41
0.008000
0
VERTEX
8
0
10
-1.626000
20
-0.098000
0
VERTEX
8
0
10
-1.576000
20
-0.098000
0
VERTEX
8
0
10
-1.576000
20
0.101000
0
VERTEX
8
0
10
-1.626000
20
0.101000
0
VERTEX
8
0
10
-1.626000
20
-0.098000
0
SEQEND
8
0
0
POLYLINE
8
0
66
1
40
0.008000
41
0.008000
0
VERTEX
8
0
10
-1.601000
20
-0.098000
0
VERTEX
8
0
10
-1.601000
20
-0.148000
0
SEQEND
8
0
0
TEXT
8
12632256
10
-1.518000
20
-0.073000
40
0.048000
41
1.041667
50
90.000000
1
R44
0
POLYLINE
8
0
66
1
40
0.008000
41
0.008000
0
VERTEX
8
0
10
-0.232000
20
-0.700000
0
VERTEX
8
0
10
0.167000
20
-0.700000
0
VERTEX
8
0
10
0.167000
20
-0.450000
0
VERTEX
8
0
10
-0.232000
20
-0.450000
0
VERTEX
8
0
10
-0.232000
20
-0.700000
0
SEQEND
8
0
0
POLYLINE
8
0
66
1
40
0.008000
41
0.008000
0
VERTEX
8
0
10
0.167000
20
-0.650000
0
VERTEX
8
0
10
-0.232000
20
-0.650000
0
SEQEND
8
0
0
TEXT
8
12632256
10
-0.003000
20
-0.789000
40
0.048000
41
1.041667
1
J1
0
POLYLINE
8
0
66
1
40
0.008000
41
0.008000
0
VERTEX
8
0
10
0.189000
20
-0.700000
0
VERTEX
8
0
10
0.589000
20
-0.700000
0
VERTEX
8
0
10
0.589000
20
-0.450000
0
VERTEX
8
0
10
0.189000
20
-0.450000
0
VERTEX
8
0
10
0.189000
20
-0.700000
0
SEQEND
8
0
0
POLYLINE
8
0
66
1
40
0.008000
41
0.008000
0
VERTEX
8
0
10
0.589000
20
-0.650000
0
VERTEX
8
0
10
0.189000
20
-0.650000
0
SEQEND
8
0
0
TEXT
8
12632256
10
0.504000
20
-0.777000
40
0.048000
41
1.041667
1
J2
0
POLYLINE
8
0
66
1
40
0.008000
41
0.008000
0
VERTEX
8
0
10
0.607000
20
-0.700000
0
VERTEX
8
0
10
1.007000
20
-0.700000
0
VERTEX
8
0
10
1.007000
20
-0.450000
0
VERTEX
8
0
10
0.607000
20
-0.450000
0
VERTEX
8
0
10
0.607000
20
-0.700000
0
SEQEND
8
0
0
POLYLINE
8
0
66
1
40
0.008000
41
0.008000
0
VERTEX
8
0
10
1.007000
20
-0.650000
0
VERTEX
8
0
10
0.607000
20
-0.650000
0
SEQEND
8
0
0
TEXT
8
12632256
10
0.757000
20
-0.758000
40
0.048000
41
1.041667
1
J7
0
POLYLINE
8
0
66
1
40
0.008000
41
0.008000
0
VERTEX
8
0
10
1.026000
20
-0.700000
0
VERTEX
8
0
10
1.426000
20
-0.700000
0
VERTEX
8
0
10
1.426000
20
-0.450000
0
VERTEX
8
0
10
1.026000
20
-0.450000
0
VERTEX
8
0
10
1.026000
20
-0.700000
0
SEQEND
8
0
0
POLYLINE
8
0
66
1
40
0.008000
41
0.008000
0
VERTEX
8
0
10
1.426000
20
-0.650000
0
VERTEX
8
0
10
1.026000
20
-0.650000
0
SEQEND
8
0
0
TEXT
8
12632256
10
1.176000
20
-0.758000
40
0.048000
41
1.041667
1
J8
0
POLYLINE
8
0
66
1
40
0.008000
41
0.008000
0
VERTEX
8
0
10
-1.223000
20
0.779000
0
VERTEX
8
0
10
0.876000
20
0.779000
0
VERTEX
8
0
10
0.876000
20
1.029000
0
VERTEX
8
0
10
-1.223000
20
1.029000
0
VERTEX
8
0
10
-1.223000
20
0.779000
0
SEQEND
8
0
0
POLYLINE
8
0
66
1
40
0.008000
41
0.008000
0
VERTEX
8
0
10
0.876000
20
0.829000
0
VERTEX
8
0
10
-1.223000
20
0.829000
0
SEQEND
8
0
0
TEXT
8
12632256
10
-0.114000
20
0.697000
40
0.048000
41
1.041667
1
J9
0
POLYLINE
8
0
66
1
40
0.008000
41
0.008000
0
VERTEX
8
0
10
1.552000
20
0.718000
0
VERTEX
8
0
10
1.852000
20
0.718000
0
VERTEX
8
0
10
1.852000
20
0.868000
0
VERTEX
8
0
10
1.552000
20
0.868000
0
VERTEX
8
0
10
1.552000
20
0.718000
0
SEQEND
8
0
0
POLYLINE
8
0
66
1
40
0.008000
41
0.008000
0
VERTEX
8
0
10
1.652000
20
1.018000
0
VERTEX
8
0
10
1.752000
20
1.018000
0
SEQEND
8
0
0
POLYLINE
8
0
66
1
40
0.008000
41
0.008000
0
VERTEX
8
0
10
1.604000
20
0.867000
0
VERTEX
8
0
10
1.797000
20
0.867000
0
VERTEX
8
0
10
1.797000
20
1.088000
0
VERTEX
8
0
10
1.604000
20
1.088000
0
VERTEX
8
0
10
1.604000
20
0.867000
0
SEQEND
8
0
0
TEXT
8
12632256
10
1.369000
20
0.865000
40
0.048000
41
1.041667
1
RV1
0
POLYLINE
8
0
66
1
40
0.008000
41
0.008000
0
VERTEX
8
0
10
-1.927000
20
0.272000
0
VERTEX
8
0
10
-1.527000
20
0.272000
0
SEQEND
8
0
0
POLYLINE
8
0
66
1
40
0.008000
41
0.008000
0
VERTEX
8
0
10
-1.927000
20
1.072000
0
VERTEX
8
0
10
-1.527000
20
1.072000
0
VERTEX
8
0
10
-1.527000
20
0.272000
0
SEQEND
8
0
0
POLYLINE
8
0
66
1
40
0.008000
41
0.008000
0
VERTEX
8
0
10
-1.927000
20
0.272000
0
VERTEX
8
0
10
-1.927000
20
1.072000
0
SEQEND
8
0
0
TEXT
8
12632256
10
-1.832000
20
1.096000
40
0.048000
41
1.041667
50
90.000000
1
J3
0
POLYLINE
8
0
66
1
40
0.008000
41
0.008000
0
VERTEX
8
0
10
0.301000
20
0.096000
0
VERTEX
8
0
10
0.601000
20
0.096000
0
VERTEX
8
0
10
0.651000
20
0.046000
0
VERTEX
8
0
10
0.651000
20
-0.053000
0
VERTEX
8
0
10
0.601000
20
-0.103000
0
VERTEX
8
0
10
0.301000
20
-0.103000
0
VERTEX
8
0
10
0.251000
20
-0.053000
0
VERTEX
8
0
10
0.251000
20
0.046000
0
VERTEX
8
0
10
0.301000
20
0.096000
0
SEQEND
8
0
0
TEXT
8
12632256
10
0.401000
20
0.106000
40
0.048000
41
1.041667
1
X1
0
POLYLINE
8
0
66
1
40
0.008000
41
0.008000
0
VERTEX
8
0
10
0.340000
20
0.115000
0
VERTEX
8
0
10
0.330000
20
0.117000
0
VERTEX
8
0
10
0.320000
20
0.123000
0
VERTEX
8
0
10
0.312000
20
0.132000
0
VERTEX
8
0
10
0.304000
20
0.144000
0
VERTEX
8
0
10
0.298000
20
0.159000
0
VERTEX
8
0
10
0.294000
20
0.176000
0
VERTEX
8
0
10
0.291000
20
0.195000
0
VERTEX
8
0
10
0.290000
20
0.215000
0
SEQEND
8
0
0
POLYLINE
8
0
66
1
40
0.008000
41
0.008000
0
VERTEX
8
0
10
0.340000
20
0.315000
0
VERTEX
8
0
10
0.330000
20
0.313000
0
VERTEX
8
0
10
0.320000
20
0.307000
0
VERTEX
8
0
10
0.312000
20
0.298000
0
VERTEX
8
0
10
0.304000
20
0.286000
0
VERTEX
8
0
10
0.298000
20
0.271000
0
VERTEX
8
0
10
0.294000
20
0.254000
0
VERTEX
8
0
10
0.291000
20
0.235000
0
VERTEX
8
0
10
0.290000
20
0.215000
0
SEQEND
8
0
0
POLYLINE
8
0
66
1
40
0.008000
41
0.008000
0
VERTEX
8
0
10
0.340000
20
0.115000
0
VERTEX
8
0
10
0.350000
20
0.117000
0
VERTEX
8
0
10
0.360000
20
0.123000
0
VERTEX
8
0
10
0.368000
20
0.132000
0
VERTEX
8
0
10
0.376000
20
0.144000
0
VERTEX
8
0
10
0.382000
20
0.159000
0
VERTEX
8
0
10
0.386000
20
0.176000
0
VERTEX
8
0
10
0.389000
20
0.195000
0
VERTEX
8
0
10
0.390000
20
0.215000
0
SEQEND
8
0
0
POLYLINE
8
0
66
1
40
0.008000
41
0.008000
0
VERTEX
8
0
10
0.340000
20
0.315000
0
VERTEX
8
0
10
0.350000
20
0.313000
0
VERTEX
8
0
10
0.360000
20
0.307000
0
VERTEX
8
0
10
0.368000
20
0.298000
0
VERTEX
8
0
10
0.376000
20
0.286000
0
VERTEX
8
0
10
0.382000
20
0.271000
0
VERTEX
8
0
10
0.386000
20
0.254000
0
VERTEX
8
0
10
0.389000
20
0.235000
0
VERTEX
8
0
10
0.390000
20
0.215000
0
SEQEND
8
0
0
TEXT
8
12632256
10
0.280000
20
0.165000
40
0.048000
41
1.041667
50
90.000000
1
C8
0
POLYLINE
8
0
66
1
40
0.008000
41
0.008000
0
VERTEX
8
0
10
0.540000
20
0.115000
0
VERTEX
8
0
10
0.530000
20
0.117000
0
VERTEX
8
0
10
0.520000
20
0.123000
0
VERTEX
8
0
10
0.512000
20
0.132000
0
VERTEX
8
0
10
0.504000
20
0.144000
0
VERTEX
8
0
10
0.498000
20
0.159000
0
VERTEX
8
0
10
0.494000
20
0.176000
0
VERTEX
8
0
10
0.491000
20
0.195000
0
VERTEX
8
0
10
0.490000
20
0.215000
0
SEQEND
8
0
0
POLYLINE
8
0
66
1
40
0.008000
41
0.008000
0
VERTEX
8
0
10
0.540000
20
0.315000
0
VERTEX
8
0
10
0.530000
20
0.313000
0
VERTEX
8
0
10
0.520000
20
0.307000
0
VERTEX
8
0
10
0.512000
20
0.298000
0
VERTEX
8
0
10
0.504000
20
0.286000
0
VERTEX
8
0
10
0.498000
20
0.271000
0
VERTEX
8
0
10
0.494000
20
0.254000
0
VERTEX
8
0
10
0.491000
20
0.235000
0
VERTEX
8
0
10
0.490000
20
0.215000
0
SEQEND
8
0
0
POLYLINE
8
0
66
1
40
0.008000
41
0.008000
0
VERTEX
8
0
10
0.540000
20
0.115000
0
VERTEX
8
0
10
0.550000
20
0.117000
0
VERTEX
8
0
10
0.560000
20
0.123000
0
VERTEX
8
0
10
0.568000
20
0.132000
0
VERTEX
8
0
10
0.576000
20
0.144000
0
VERTEX
8
0
10
0.582000
20
0.159000
0
VERTEX
8
0
10
0.586000
20
0.176000
0
VERTEX
8
0
10
0.589000
20
0.195000
0
VERTEX
8
0
10
0.590000
20
0.215000
0
SEQEND
8
0
0
POLYLINE
8
0
66
1
40
0.008000
41
0.008000
0
VERTEX
8
0
10
0.540000
20
0.315000
0
VERTEX
8
0
10
0.550000
20
0.313000
0
VERTEX
8
0
10
0.560000
20
0.307000
0
VERTEX
8
0
10
0.568000
20
0.298000
0
VERTEX
8
0
10
0.576000
20
0.286000
0
VERTEX
8
0
10
0.582000
20
0.271000
0
VERTEX
8
0
10
0.586000
20
0.254000
0
VERTEX
8
0
10
0.589000
20
0.235000
0
VERTEX
8
0
10
0.590000
20
0.215000
0
SEQEND
8
0
0
TEXT
8
12632256
10
0.480000
20
0.165000
40
0.048000
41
1.041667
50
90.000000
1
C9
0
POLYLINE
8
0
66
1
40
0.008000
41
0.008000
0
VERTEX
8
0
10
0.675000
20
0.228000
0
VERTEX
8
0
10
0.678000
20
0.238000
0
VERTEX
8
0
10
0.686000
20
0.248000
0
VERTEX
8
0
10
0.700000
20
0.256000
0
VERTEX
8
0
10
0.718000
20
0.264000
0
VERTEX
8
0
10
0.740000
20
0.270000
0
VERTEX
8
0
10
0.766000
20
0.274000
0
VERTEX
8
0
10
0.794000
20
0.277000
0
VERTEX
8
0
10
0.825000
20
0.278000
0
SEQEND
8
0
0
POLYLINE
8
0
66
1
40
0.008000
41
0.008000
0
VERTEX
8
0
10
0.975000
20
0.228000
0
VERTEX
8
0
10
0.972000
20
0.238000
0
VERTEX
8
0
10
0.963000
20
0.248000
0
VERTEX
8
0
10
0.950000
20
0.256000
0
VERTEX
8
0
10
0.932000
20
0.264000
0
VERTEX
8
0
10
0.910000
20
0.270000
0
VERTEX
8
0
10
0.884000
20
0.274000
0
VERTEX
8
0
10
0.856000
20
0.277000
0
VERTEX
8
0
10
0.825000
20
0.278000
0
SEQEND
8
0
0
POLYLINE
8
0
66
1
40
0.008000
41
0.008000
0
VERTEX
8
0
10
0.975000
20
0.228000
0
VERTEX
8
0
10
0.972000
20
0.218000
0
VERTEX
8
0
10
0.963000
20
0.208000
0
VERTEX
8
0
10
0.950000
20
0.200000
0
VERTEX
8
0
10
0.932000
20
0.192000
0
VERTEX
8
0
10
0.910000
20
0.186000
0
VERTEX
8
0
10
0.884000
20
0.182000
0
VERTEX
8
0
10
0.856000
20
0.179000
0
VERTEX
8
0
10
0.825000
20
0.178000
0
SEQEND
8
0
0
POLYLINE
8
0
66
1
40
0.008000
41
0.008000
0
VERTEX
8
0
10
0.675000
20
0.228000
0
VERTEX
8
0
10
0.678000
20
0.218000
0
VERTEX
8
0
10
0.686000
20
0.208000
0
VERTEX
8
0
10
0.700000
20
0.200000
0
VERTEX
8
0
10
0.718000
20
0.192000
0
VERTEX
8
0
10
0.740000
20
0.186000
0
VERTEX
8
0
10
0.766000
20
0.182000
0
VERTEX
8
0
10
0.794000
20
0.179000
0
VERTEX
8
0
10
0.825000
20
0.178000
0
SEQEND
8
0
0
TEXT
8
12632256
10
0.775000
20
0.288000
40
0.048000
41
1.041667
1
C1
0
POLYLINE
8
0
66
1
40
0.008000
41
0.008000
0
VERTEX
8
0
10
-1.281000
20
0.300000
0
VERTEX
8
0
10
-1.281000
20
0.250000
0
SEQEND
8
0
0
POLYLINE
8
0
66
1
40
0.008000
41
0.008000
0
VERTEX
8
0
10
-1.306000
20
0.050000
0
VERTEX
8
0
10
-1.256000
20
0.050000
0
VERTEX
8
0
10
-1.256000
20
0.250000
0
VERTEX
8
0
10
-1.306000
20
0.250000
0
VERTEX
8
0
10
-1.306000
20
0.050000
0
SEQEND
8
0
0
POLYLINE
8
0
66
1
40
0.008000
41
0.008000
0
VERTEX
8
0
10
-1.281000
20
0.050000
0
VERTEX
8
0
10
-1.281000
20
0.000000
0
SEQEND
8
0
0
TEXT
8
12632256
10
-1.198000
20
0.100000
40
0.048000
41
1.041667
50
90.000000
1
R3
0
POLYLINE
8
0
66
1
40
0.008000
41
0.008000
0
VERTEX
8
0
10
-1.155000
20
0.300000
0
VERTEX
8
0
10
-1.155000
20
0.250000
0
SEQEND
8
0
0
POLYLINE
8
0
66
1
40
0.008000
41
0.008000
0
VERTEX
8
0
10
-1.180000
20
0.050000
0
VERTEX
8
0
10
-1.130000
20
0.050000
0
VERTEX
8
0
10
-1.130000
20
0.250000
0
VERTEX
8
0
10
-1.180000
20
0.250000
0
VERTEX
8
0
10
-1.180000
20
0.050000
0
SEQEND
8
0
0
POLYLINE
8
0
66
1
40
0.008000
41
0.008000
0
VERTEX
8
0
10
-1.155000
20
0.050000
0
VERTEX
8
0
10
-1.155000
20
0.000000
0
SEQEND
8
0
0
TEXT
8
12632256
10
-1.072000
20
0.100000
40
0.048000
41
1.041667
50
90.000000
1
R4
0
CIRCLE
8
12632256
10
1.401000
20
-0.877000
40
0.000000
0
CIRCLE
8
12632256
10
1.401000
20
-0.877000
40
0.100000
0
POLYLINE
8
0
66
1
40
0.008000
41
0.008000
0
VERTEX
8
0
10
1.276000
20
-0.777000
0
VERTEX
8
0
10
1.326000
20
-0.777000
0
SEQEND
8
0
0
POLYLINE
8
0
66
1
40
0.008000
41
0.008000
0
VERTEX
8
0
10
1.301000
20
-0.752000
0
VERTEX
8
0
10
1.301000
20
-0.802000
0
SEQEND
8
0
0
TEXT
8
12632256
10
1.559000
20
-0.911000
40
0.048000
41
1.041667
1
D3
0
POLYLINE
8
0
66
1
40
0.008000
41
0.008000
0
VERTEX
8
0
10
1.225000
20
-1.299000
0
VERTEX
8
0
10
1.225000
20
-1.249000
0
SEQEND
8
0
0
POLYLINE
8
0
66
1
40
0.008000
41
0.008000
0
VERTEX
8
0
10
1.200000
20
-1.249000
0
VERTEX
8
0
10
1.250000
20
-1.249000
0
VERTEX
8
0
10
1.250000
20
-1.049000
0
VERTEX
8
0
10
1.200000
20
-1.049000
0
VERTEX
8
0
10
1.200000
20
-1.249000
0
SEQEND
8
0
0
POLYLINE
8
0
66
1
40
0.008000
41
0.008000
0
VERTEX
8
0
10
1.225000
20
-1.049000
0
VERTEX
8
0
10
1.225000
20
-0.999000
0
SEQEND
8
0
0
TEXT
8
12632256
10
1.190000
20
-1.224000
40
0.048000
41
1.041667
50
90.000000
1
R24
0
POLYLINE
8
0
66
1
40
0.008000
41
0.008000
0
VERTEX
8
0
10
-0.242000
20
1.411000
0
VERTEX
8
0
10
-0.192000
20
1.411000
0
SEQEND
8
0
0
POLYLINE
8
0
66
1
40
0.008000
41
0.008000
0
VERTEX
8
0
10
-0.192000
20
1.386000
0
VERTEX
8
0
10
0.007000
20
1.386000
0
VERTEX
8
0
10
0.007000
20
1.436000
0
VERTEX
8
0
10
-0.192000
20
1.436000
0
VERTEX
8
0
10
-0.192000
20
1.386000
0
SEQEND
8
0
0
POLYLINE
8
0
66
1
40
0.008000
41
0.008000
0
VERTEX
8
0
10
0.007000
20
1.411000
0
VERTEX
8
0
10
0.057000
20
1.411000
0
SEQEND
8
0
0
TEXT
8
12632256
10
-0.492000
20
1.423000
40
0.048000
41
1.041667
1
R98
0
POLYLINE
8
0
66
1
40
0.008000
41
0.008000
0
VERTEX
8
0
10
0.616000
20
1.267000
0
VERTEX
8
0
10
0.816000
20
1.267000
0
SEQEND
8
0
0
POLYLINE
8
0
66
1
40
0.008000
41
0.008000
0
VERTEX
8
0
10
0.586000
20
1.332000
0
VERTEX
8
0
10
0.588000
20
1.317000
0
VERTEX
8
0
10
0.594000
20
1.301000
0
VERTEX
8
0
10
0.603000
20
1.285000
0
VERTEX
8
0
10
0.616000
20
1.267000
0
SEQEND
8
0
0
POLYLINE
8
0
66
1
40
0.008000
41
0.008000
0
VERTEX
8
0
10
0.586000
20
1.332000
0
VERTEX
8
0
10
0.587000
20
1.357000
0
VERTEX
8
0
10
0.594000
20
1.381000
0
VERTEX
8
0
10
0.605000
20
1.402000
0
VERTEX
8
0
10
0.621000
20
1.421000
0
VERTEX
8
0
10
0.640000
20
1.436000
0
VERTEX
8
0
10
0.663000
20
1.447000
0
VERTEX
8
0
10
0.688000
20
1.454000
0
VERTEX
8
0
10
0.716000
20
1.457000
0
SEQEND
8
0
0
POLYLINE
8
0
66
1
40
0.008000
41
0.008000
0
VERTEX
8
0
10
0.846000
20
1.332000
0
VERTEX
8
0
10
0.844000
20
1.317000
0
VERTEX
8
0
10
0.838000
20
1.301000
0
VERTEX
8
0
10
0.829000
20
1.285000
0
VERTEX
8
0
10
0.816000
20
1.267000
0
SEQEND
8
0
0
POLYLINE
8
0
66
1
40
0.008000
41
0.008000
0
VERTEX
8
0
10
0.846000
20
1.332000
0
VERTEX
8
0
10
0.845000
20
1.357000
0
VERTEX
8
0
10
0.838000
20
1.381000
0
VERTEX
8
0
10
0.827000
20
1.402000
0
VERTEX
8
0
10
0.811000
20
1.421000
0
VERTEX
8
0
10
0.792000
20
1.436000
0
VERTEX
8
0
10
0.769000
20
1.447000
0
VERTEX
8
0
10
0.744000
20
1.454000
0
VERTEX
8
0
10
0.716000
20
1.457000
0
SEQEND
8
0
0
TEXT
8
12632256
10
0.454000
20
1.396000
40
0.048000
41
1.041667
1
Q1
0
CIRCLE
8
12632256
10
1.266000
20
1.182000
40
0.242000
0
CIRCLE
8
12632256
10
1.266000
20
1.182000
40
0.050000
0
TEXT
8
12632256
10
1.101000
20
1.287000
40
0.080000
41
1.125000
1
+
0
TEXT
8
12632256
10
1.166000
20
1.435000
40
0.048000
41
1.041667
1
BUZ1
0
POLYLINE
8
0
66
1
40
0.008000
41
0.008000
0
VERTEX
8
0
10
0.174000
20
0.012000
0
VERTEX
8
0
10
0.136000
20
0.012000
0
SEQEND
8
0
0
POLYLINE
8
0
66
1
40
0.008000
41
0.008000
0
VERTEX
8
0
10
0.174000
20
-0.098000
0
VERTEX
8
0
10
0.135000
20
-0.098000
0
SEQEND
8
0
0
POLYLINE
8
0
66
1
40
0.008000
41
0.008000
0
VERTEX
8
0
10
0.094000
20
0.027000
0
VERTEX
8
0
10
0.094000
20
0.047000
0
SEQEND
8
0
0
POLYLINE
8
0
66
1
40
0.008000
41
0.008000
0
VERTEX
8
0
10
0.104000
20
0.037000
0
VERTEX
8
0
10
0.084000
20
0.037000
0
SEQEND
8
0
0
TEXT
8
12632256
10
0.230000
20
0.057000
40
0.048000
41
1.041667
71
2
1
C21
0
POLYLINE
8
0
66
1
40
0.008000
41
0.008000
0
VERTEX
8
0
10
-0.758000
20
0.003000
0
VERTEX
8
0
10
-0.758000
20
-0.034000
0
SEQEND
8
0
0
POLYLINE
8
0
66
1
40
0.008000
41
0.008000
0
VERTEX
8
0
10
-0.647000
20
0.003000
0
VERTEX
8
0
10
-0.647000
20
-0.035000
0
SEQEND
8
0
0
POLYLINE
8
0
66
1
40
0.008000
41
0.008000
0
VERTEX
8
0
10
-0.773000
20
-0.076000
0
VERTEX
8
0
10
-0.793000
20
-0.076000
0
SEQEND
8
0
0
POLYLINE
8
0
66
1
40
0.008000
41
0.008000
0
VERTEX
8
0
10
-0.783000
20
-0.066000
0
VERTEX
8
0
10
-0.783000
20
-0.086000
0
SEQEND
8
0
0
TEXT
8
12632256
10
-0.803000
20
0.059000
40
0.048000
41
1.041667
50
90.000000
71
2
1
C22
0
POLYLINE
8
0
66
1
40
0.008000
41
0.008000
0
VERTEX
8
0
10
-0.533000
20
0.007000
0
VERTEX
8
0
10
-0.533000
20
-0.030000
0
SEQEND
8
0
0
POLYLINE
8
0
66
1
40
0.008000
41
0.008000
0
VERTEX
8
0
10
-0.422000
20
0.007000
0
VERTEX
8
0
10
-0.422000
20
-0.031000
0
SEQEND
8
0
0
POLYLINE
8
0
66
1
40
0.008000
41
0.008000
0
VERTEX
8
0
10
-0.548000
20
-0.072000
0
VERTEX
8
0
10
-0.568000
20
-0.072000
0
SEQEND
8
0
0
POLYLINE
8
0
66
1
40
0.008000
41
0.008000
0
VERTEX
8
0
10
-0.558000
20
-0.062000
0
VERTEX
8
0
10
-0.558000
20
-0.082000
0
SEQEND
8
0
0
TEXT
8
12632256
10
-0.578000
20
0.063000
40
0.048000
41
1.041667
50
90.000000
71
2
1
C24
0
CIRCLE
8
12632256
10
-0.483000
20
-0.771000
40
0.100000
0
POLYLINE
8
0
66
1
40
0.008000
41
0.008000
0
VERTEX
8
0
10
-0.558000
20
-0.721000
0
VERTEX
8
0
10
-0.508000
20
-0.721000
0
SEQEND
8
0
0
POLYLINE
8
0
66
1
40
0.008000
41
0.008000
0
VERTEX
8
0
10
-0.533000
20
-0.696000
0
VERTEX
8
0
10
-0.533000
20
-0.746000
0
SEQEND
8
0
0
TEXT
8
12632256
10
-0.740000
20
-0.830000
40
0.048000
41
1.041667
1
C35
0
TEXT
8
12632256
10
-0.191000
20
-0.373000
40
0.048000
41
1.041667
1
O G VCC
0
TEXT
8
12632256
10
0.241000
20
-0.373000
40
0.048000
41
1.041667
1
O G VCC
0
TEXT
8
12632256
10
0.648000
20
-0.376000
40
0.048000
41
1.041667
1
O G VCC
0
TEXT
8
12632256
10
1.078000
20
-0.380000
40
0.048000
41
1.041667
1
O G VCC
0
TEXT
8
12632256
10
-0.064000
20
-0.436000
40
0.048000
41
1.041667
1
UP
0
TEXT
8
12632256
10
0.358000
20
-0.429000
40
0.048000
41
1.041667
1
DOWN
0
TEXT
8
12632256
10
0.771000
20
-0.439000
40
0.048000
41
1.041667
1
RIGHT
0
TEXT
8
12632256
10
1.181000
20
-0.432000
40
0.048000
41
1.041667
1
LEFT
0
TEXT
8
12632256
10
-1.532000
20
-1.003000
40
0.048000
41
1.041667
1
VIN
0
TEXT
8
12632256
10
-1.487000
20
-0.803000
40
0.048000
41
1.041667
1
A
0
TEXT
8
12632256
10
-1.481000
20
-0.575000
40
0.048000
41
1.041667
1
B
0
TEXT
8
12632256
10
-1.484000
20
-0.352000
40
0.048000
41
1.041667
1
B'
0
TEXT
8
12632256
10
-1.427000
20
0.280000
40
0.048000
41
1.041667
50
90.000000
1
TERM DOOR  GND
0
TEXT
8
12632256
10
0.694000
20
0.694000
40
0.048000
41
1.041667
1
1
0
TEXT
8
12632256
10
-1.161000
20
0.679000
40
0.048000
41
1.041667
1
20
0
POLYLINE
8
0
66
1
40
0.000000
41
0.000000
0
VERTEX
8
0
10
-1.287000
20
0.462000
0
VERTEX
8
0
10
0.651000
20
0.462000
0
VERTEX
8
0
10
0.651000
20
0.751000
0
VERTEX
8
0
10
-1.287000
20
0.751000
0
VERTEX
8
0
10
-1.287000
20
0.462000
0
SEQEND
8
0
0
TEXT
8
12632256
10
-0.323000
20
1.133000
40
0.048000
41
1.041667
1
GLCD
0
POLYLINE
8
0
66
1
40
0.025000
41
0.025000
0
VERTEX
8
0
10
-1.318000
20
1.127000
0
VERTEX
8
0
10
-0.601000
20
1.127000
0
VERTEX
8
0
10
-0.601000
20
1.380000
0
VERTEX
8
0
10
-1.318000
20
1.380000
0
VERTEX
8
0
10
-1.318000
20
1.127000
0
SEQEND
8
0
0
TEXT
8
12632256
10
-1.124000
20
1.298000
40
0.048000
41
1.041667
1
CONTROL
0
TEXT
8
12632256
10
-1.134000
20
1.235000
40
0.048000
41
1.041667
1
DIGITAL
0
TEXT
8
12632256
10
-1.161000
20
1.158000
40
0.048000
41
1.041667
1
IRCP115
0
POLYLINE
8
0
66
1
40
0.000000
41
0.000000
0
VERTEX
8
0
10
1.329000
20
-1.302000
0
VERTEX
8
0
10
1.608000
20
-1.302000
0
VERTEX
8
0
10
1.608000
20
-1.061000
0
VERTEX
8
0
10
1.329000
20
-1.061000
0
VERTEX
8
0
10
1.329000
20
-1.302000
0
SEQEND
8
0
0
TEXT
8
12632256
10
-0.488000
20
1.201000
40
0.064000
41
0.781250
1
www.jpinglobal.com
0
TEXT
8
12632256
10
-0.457000
20
1.266000
40
0.064000
41
0.781250
1
Bogota - Colombia
0
POLYLINE
8
0
66
1
40
0.008000
41
0.008000
0
VERTEX
8
0
10
0.125000
20
0.336000
0
VERTEX
8
0
10
0.087000
20
0.336000
0
SEQEND
8
0
0
POLYLINE
8
0
66
1
40
0.008000
41
0.008000
0
VERTEX
8
0
10
0.125000
20
0.225000
0
VERTEX
8
0
10
0.086000
20
0.225000
0
SEQEND
8
0
0
POLYLINE
8
0
66
1
40
0.008000
41
0.008000
0
VERTEX
8
0
10
0.045000
20
0.351000
0
VERTEX
8
0
10
0.045000
20
0.371000
0
SEQEND
8
0
0
POLYLINE
8
0
66
1
40
0.008000
41
0.008000
0
VERTEX
8
0
10
0.055000
20
0.361000
0
VERTEX
8
0
10
0.035000
20
0.361000
0
SEQEND
8
0
0
TEXT
8
12632256
10
0.156000
20
0.381000
40
0.048000
41
1.041667
71
2
1
C2
0
TEXT
8
12632256
10
1.484000
20
-0.796000
40
0.048000
41
1.041667
50
90.000000
1
C0  C1  C2  C6 C7 VCC GND GND
0
POLYLINE
8
0
66
1
40
0.008000
41
0.008000
0
VERTEX
8
0
10
1.506000
20
-0.916000
0
VERTEX
8
0
10
1.906000
20
-0.916000
0
SEQEND
8
0
0
POLYLINE
8
0
66
1
40
0.008000
41
0.008000
0
VERTEX
8
0
10
1.506000
20
0.683000
0
VERTEX
8
0
10
1.906000
20
0.683000
0
VERTEX
8
0
10
1.906000
20
-0.916000
0
SEQEND
8
0
0
POLYLINE
8
0
66
1
40
0.008000
41
0.008000
0
VERTEX
8
0
10
1.506000
20
-0.916000
0
VERTEX
8
0
10
1.506000
20
0.683000
0
SEQEND
8
0
0
TEXT
8
12632256
10
1.865000
20
-1.079000
40
0.048000
41
1.041667
50
90.000000
1
J4
0
TEXT
8
12632256
10
1.262000
20
-1.358000
40
0.048000
41
1.041667
1
JUDAPIES
0
TEXT
8
12632256
10
0.892000
20
-1.470000
40
0.048000
41
1.041667
1
DIELEC IRCP-0013
0
ENDSEC
0
EOF

