  0
SECTION
  2
HEADER
  9
$ACADVER
  1
AC2.10
  0
ENDSEC
  0
SECTION
  2
TABLES
  0
TABLE
  2
LAYER
 70
     8
  0
LAYER
  2
0
 62
     7
 70
0
  6
CONTINUOUS
  0
LAYER
  2
1
 62
     1
 70
0
  6
CONTINUOUS
  0
LAYER
  2
2
 62
     2
 70
0
  6
CONTINUOUS
  0
LAYER
  2
3
 62
     3
 70
0
  6
CONTINUOUS
  0
LAYER
  2
4
 62
     4
 70
0
  6
CONTINUOUS
  0
LAYER
  2
5
 62
     5
 70
0
  6
CONTINUOUS
  0
LAYER
  2
6
 62
     6
 70
0
  6
CONTINUOUS
  0
LAYER
  2
7
 62
     7
 70
0
  6
CONTINUOUS
  0
ENDTAB
  0
TABLE
  2
STYLE
 70
     1
  0
STYLE
 70
     0
  2
STANDARD
  3
TXT
 40
0.00
 41
1.00
 42
1.00
 50
0.00
 71
     0
  0
ENDTAB
  0
ENDSEC
  0
SECTION
  2
BLOCKS
  0
BLOCK
  8
0
  2
EPAD
 70
0
 10
0.0
 20
0.0
  0
POLYLINE
  8
0
 66
1
 70
1
 40
0.5
 41
0.5
  0
VERTEX
  8
0
 10
-0.25
 20
0.0
 42
1.0
  0
VERTEX
  8
0
 10
0.25
 20
0.0
 42
1.0
  0
SEQEND
  8
0
  0
ENDBLK
  8
0
  0
BLOCK
  8
0
  2
RPAD
 70
0
 10
0.0
 20
0.0
  0
TRACE
  8
0
 10
-0.5
 20
-0.5
 11
-0.5
 21
0.5
 12
0.5
 22
-0.5
 13
0.5
 23
0.5
  0
ENDBLK
  8
0
  0
ENDSEC
0
SECTION
2
ENTITIES
0
POLYLINE
8
0
66
1
40
0.050000
41
0.050000
0
VERTEX
8
0
10
-0.012000
20
-0.573000
0
VERTEX
8
0
10
-0.012000
20
-0.007000
0
SEQEND
8
0
0
POLYLINE
8
0
66
1
40
0.050000
41
0.050000
0
VERTEX
8
0
10
-0.045000
20
-1.135000
0
VERTEX
8
0
10
-0.045000
20
-1.041000
0
VERTEX
8
0
10
0.072000
20
-0.923000
0
VERTEX
8
0
10
0.072000
20
-0.626000
0
VERTEX
8
0
10
0.032000
20
-0.586000
0
VERTEX
8
0
10
-0.012000
20
-0.573000
0
SEQEND
8
0
0
POLYLINE
8
0
66
1
40
0.050000
41
0.050000
0
VERTEX
8
0
10
-0.012000
20
1.224000
0
VERTEX
8
0
10
0.223000
20
1.224000
0
VERTEX
8
0
10
0.368000
20
1.080000
0
VERTEX
8
0
10
0.476000
20
1.080000
0
SEQEND
8
0
0
POLYLINE
8
0
66
1
40
0.050000
41
0.050000
0
VERTEX
8
0
10
0.526000
20
-0.155000
0
VERTEX
8
0
10
0.389000
20
-0.155000
0
VERTEX
8
0
10
0.240000
20
-0.006000
0
VERTEX
8
0
10
-0.012000
20
-0.006000
0
SEQEND
8
0
0
POLYLINE
8
0
66
1
40
0.030000
41
0.030000
0
VERTEX
8
0
10
-0.012000
20
-0.006000
0
VERTEX
8
0
10
-0.040000
20
-0.006000
0
VERTEX
8
0
10
-0.041000
20
-0.005000
0
VERTEX
8
0
10
-0.012000
20
-0.007000
0
SEQEND
8
0
0
POLYLINE
8
0
66
1
40
0.050000
41
0.050000
0
VERTEX
8
0
10
-0.012000
20
-0.007000
0
VERTEX
8
0
10
-0.012000
20
-0.006000
0
VERTEX
8
0
10
-0.012000
20
1.224000
0
SEQEND
8
0
0
INSERT
8
0
2
EPAD
10
0.476000
20
1.080000
41
0.070000
42
0.070000
0
CIRCLE
8
0
10
0.476000
20
1.080000
40
0.025000
0
INSERT
8
0
2
EPAD
10
0.526000
20
-0.155000
41
0.070000
42
0.070000
0
CIRCLE
8
0
10
0.526000
20
-0.155000
40
0.025000
0
INSERT
8
0
2
EPAD
10
-0.958000
20
-1.584000
41
0.250000
42
0.250000
0
CIRCLE
8
0
10
-0.958000
20
-1.584000
40
0.030000
0
INSERT
8
0
2
EPAD
10
-0.891000
20
0.995000
41
0.120000
42
0.120000
0
CIRCLE
8
0
10
-0.891000
20
0.995000
40
0.030000
0
INSERT
8
0
2
EPAD
10
-0.891000
20
0.795000
41
0.120000
42
0.120000
0
CIRCLE
8
0
10
-0.891000
20
0.795000
40
0.030000
0
INSERT
8
0
2
EPAD
10
-0.891000
20
0.595000
41
0.120000
42
0.120000
0
CIRCLE
8
0
10
-0.891000
20
0.595000
40
0.030000
0
INSERT
8
0
2
EPAD
10
-0.891000
20
0.395000
41
0.120000
42
0.120000
0
CIRCLE
8
0
10
-0.891000
20
0.395000
40
0.030000
0
INSERT
8
0
2
EPAD
10
-0.891000
20
0.195000
41
0.120000
42
0.120000
0
CIRCLE
8
0
10
-0.891000
20
0.195000
40
0.030000
0
INSERT
8
0
2
EPAD
10
-0.891000
20
-0.004000
41
0.120000
42
0.120000
0
CIRCLE
8
0
10
-0.891000
20
-0.004000
40
0.030000
0
INSERT
8
0
2
EPAD
10
-0.891000
20
-0.204000
41
0.120000
42
0.120000
0
CIRCLE
8
0
10
-0.891000
20
-0.204000
40
0.030000
0
INSERT
8
0
2
EPAD
10
-0.891000
20
-0.404000
41
0.120000
42
0.120000
0
CIRCLE
8
0
10
-0.891000
20
-0.404000
40
0.030000
0
INSERT
8
0
2
EPAD
10
-0.352000
20
-1.064000
41
0.100000
42
0.100000
0
CIRCLE
8
0
10
-0.352000
20
-1.064000
40
0.025000
0
INSERT
8
0
2
EPAD
10
-0.352000
20
-0.864000
41
0.100000
42
0.100000
0
CIRCLE
8
0
10
-0.352000
20
-0.864000
40
0.025000
0
INSERT
8
0
2
EPAD
10
-0.045000
20
-1.135000
41
0.070000
42
0.070000
0
CIRCLE
8
0
10
-0.045000
20
-1.135000
40
0.025000
0
INSERT
8
0
2
EPAD
10
-0.045000
20
-0.735000
41
0.070000
42
0.070000
0
CIRCLE
8
0
10
-0.045000
20
-0.735000
40
0.025000
0
INSERT
8
0
2
RPAD
10
0.192000
20
-1.360000
41
0.080000
42
0.080000
50
180.000000
0
CIRCLE
8
0
10
0.192000
20
-1.360000
40
0.025000
0
INSERT
8
0
2
RPAD
10
0.092000
20
-1.360000
41
0.080000
42
0.080000
50
180.000000
0
CIRCLE
8
0
10
0.092000
20
-1.360000
40
0.025000
0
INSERT
8
0
2
RPAD
10
-0.007000
20
-1.360000
41
0.080000
42
0.080000
50
180.000000
0
CIRCLE
8
0
10
-0.007000
20
-1.360000
40
0.025000
0
INSERT
8
0
2
EPAD
10
0.588000
20
-1.458000
41
0.150000
42
0.150000
0
CIRCLE
8
0
10
0.588000
20
-1.458000
40
0.030000
0
INSERT
8
0
2
EPAD
10
-0.395000
20
-1.458000
41
0.150000
42
0.150000
0
CIRCLE
8
0
10
-0.395000
20
-1.458000
40
0.030000
0
INSERT
8
0
2
EPAD
10
0.515000
20
-1.123000
41
0.090000
42
0.090000
0
CIRCLE
8
0
10
0.515000
20
-1.123000
40
0.025000
0
INSERT
8
0
2
EPAD
10
0.115000
20
-1.123000
41
0.090000
42
0.090000
0
CIRCLE
8
0
10
0.115000
20
-1.123000
40
0.025000
0
INSERT
8
0
2
EPAD
10
0.361000
20
-0.852000
41
0.080000
42
0.080000
0
CIRCLE
8
0
10
0.361000
20
-0.852000
40
0.025000
0
INSERT
8
0
2
EPAD
10
0.261000
20
-0.852000
41
0.080000
42
0.080000
0
CIRCLE
8
0
10
0.261000
20
-0.852000
40
0.025000
0
INSERT
8
0
2
EPAD
10
0.737000
20
-0.831000
41
0.070000
42
0.070000
0
CIRCLE
8
0
10
0.737000
20
-0.831000
40
0.025000
0
INSERT
8
0
2
EPAD
10
0.537000
20
-0.831000
41
0.070000
42
0.070000
0
CIRCLE
8
0
10
0.537000
20
-0.831000
40
0.025000
0
INSERT
8
0
2
EPAD
10
-0.528000
20
1.266000
41
0.070000
42
0.070000
0
CIRCLE
8
0
10
-0.528000
20
1.266000
40
0.025000
0
INSERT
8
0
2
EPAD
10
-0.128000
20
1.266000
41
0.070000
42
0.070000
0
CIRCLE
8
0
10
-0.128000
20
1.266000
40
0.025000
0
INSERT
8
0
2
RPAD
10
0.162000
20
1.617000
41
0.080000
42
0.080000
50
-90.000000
0
CIRCLE
8
0
10
0.162000
20
1.617000
40
0.025000
0
INSERT
8
0
2
RPAD
10
0.162000
20
1.517000
41
0.080000
42
0.080000
50
-90.000000
0
CIRCLE
8
0
10
0.162000
20
1.517000
40
0.025000
0
INSERT
8
0
2
RPAD
10
0.162000
20
1.417000
41
0.080000
42
0.080000
50
-90.000000
0
CIRCLE
8
0
10
0.162000
20
1.417000
40
0.025000
0
INSERT
8
0
2
EPAD
10
0.387000
20
1.224000
41
0.090000
42
0.090000
0
CIRCLE
8
0
10
0.387000
20
1.224000
40
0.025000
0
INSERT
8
0
2
EPAD
10
-0.012000
20
1.224000
41
0.090000
42
0.090000
0
CIRCLE
8
0
10
-0.012000
20
1.224000
40
0.025000
0
INSERT
8
0
2
EPAD
10
0.852000
20
1.131000
41
0.120000
42
0.120000
0
CIRCLE
8
0
10
0.852000
20
1.131000
40
0.030000
0
INSERT
8
0
2
EPAD
10
0.852000
20
1.331000
41
0.120000
42
0.120000
0
CIRCLE
8
0
10
0.852000
20
1.331000
40
0.030000
0
INSERT
8
0
2
EPAD
10
-0.528000
20
0.922000
41
0.070000
42
0.070000
0
CIRCLE
8
0
10
-0.528000
20
0.922000
40
0.025000
0
INSERT
8
0
2
EPAD
10
-0.128000
20
0.922000
41
0.070000
42
0.070000
0
CIRCLE
8
0
10
-0.128000
20
0.922000
40
0.025000
0
INSERT
8
0
2
RPAD
10
0.162000
20
1.035000
41
0.080000
42
0.080000
50
-90.000000
0
CIRCLE
8
0
10
0.162000
20
1.035000
40
0.025000
0
INSERT
8
0
2
RPAD
10
0.162000
20
0.935000
41
0.080000
42
0.080000
50
-90.000000
0
CIRCLE
8
0
10
0.162000
20
0.935000
40
0.025000
0
INSERT
8
0
2
RPAD
10
0.162000
20
0.835000
41
0.080000
42
0.080000
50
-90.000000
0
CIRCLE
8
0
10
0.162000
20
0.835000
40
0.025000
0
INSERT
8
0
2
EPAD
10
0.849000
20
0.702000
41
0.120000
42
0.120000
0
CIRCLE
8
0
10
0.849000
20
0.702000
40
0.030000
0
INSERT
8
0
2
EPAD
10
0.849000
20
0.902000
41
0.120000
42
0.120000
0
CIRCLE
8
0
10
0.849000
20
0.902000
40
0.030000
0
INSERT
8
0
2
EPAD
10
-0.528000
20
0.487000
41
0.070000
42
0.070000
0
CIRCLE
8
0
10
-0.528000
20
0.487000
40
0.025000
0
INSERT
8
0
2
EPAD
10
-0.128000
20
0.487000
41
0.070000
42
0.070000
0
CIRCLE
8
0
10
-0.128000
20
0.487000
40
0.025000
0
INSERT
8
0
2
EPAD
10
0.107000
20
0.578000
41
0.060000
42
0.060000
0
CIRCLE
8
0
10
0.107000
20
0.578000
40
0.025000
0
INSERT
8
0
2
EPAD
10
0.187000
20
0.578000
41
0.060000
42
0.060000
0
CIRCLE
8
0
10
0.187000
20
0.578000
40
0.025000
0
INSERT
8
0
2
EPAD
10
0.267000
20
0.578000
41
0.060000
42
0.060000
0
CIRCLE
8
0
10
0.267000
20
0.578000
40
0.025000
0
INSERT
8
0
2
EPAD
10
0.854000
20
0.274000
41
0.120000
42
0.120000
0
CIRCLE
8
0
10
0.854000
20
0.274000
40
0.030000
0
INSERT
8
0
2
EPAD
10
0.854000
20
0.474000
41
0.120000
42
0.120000
0
CIRCLE
8
0
10
0.854000
20
0.474000
40
0.030000
0
INSERT
8
0
2
EPAD
10
-0.528000
20
0.150000
41
0.070000
42
0.070000
0
CIRCLE
8
0
10
-0.528000
20
0.150000
40
0.025000
0
INSERT
8
0
2
EPAD
10
-0.128000
20
0.150000
41
0.070000
42
0.070000
0
CIRCLE
8
0
10
-0.128000
20
0.150000
40
0.025000
0
INSERT
8
0
2
RPAD
10
0.162000
20
0.374000
41
0.080000
42
0.080000
50
-90.000000
0
CIRCLE
8
0
10
0.162000
20
0.374000
40
0.025000
0
INSERT
8
0
2
RPAD
10
0.162000
20
0.274000
41
0.080000
42
0.080000
50
-90.000000
0
CIRCLE
8
0
10
0.162000
20
0.274000
40
0.025000
0
INSERT
8
0
2
RPAD
10
0.162000
20
0.174000
41
0.080000
42
0.080000
50
-90.000000
0
CIRCLE
8
0
10
0.162000
20
0.174000
40
0.025000
0
INSERT
8
0
2
EPAD
10
0.387000
20
-0.007000
41
0.090000
42
0.090000
0
CIRCLE
8
0
10
0.387000
20
-0.007000
40
0.025000
0
INSERT
8
0
2
EPAD
10
-0.012000
20
-0.007000
41
0.090000
42
0.090000
0
CIRCLE
8
0
10
-0.012000
20
-0.007000
40
0.025000
0
INSERT
8
0
2
EPAD
10
0.848000
20
-0.149000
41
0.120000
42
0.120000
0
CIRCLE
8
0
10
0.848000
20
-0.149000
40
0.030000
0
INSERT
8
0
2
EPAD
10
0.848000
20
0.050000
41
0.120000
42
0.120000
0
CIRCLE
8
0
10
0.848000
20
0.050000
40
0.030000
0
INSERT
8
0
2
EPAD
10
-0.528000
20
-0.404000
41
0.070000
42
0.070000
0
CIRCLE
8
0
10
-0.528000
20
-0.404000
40
0.025000
0
INSERT
8
0
2
EPAD
10
-0.128000
20
-0.404000
41
0.070000
42
0.070000
0
CIRCLE
8
0
10
-0.128000
20
-0.404000
40
0.025000
0
INSERT
8
0
2
RPAD
10
0.162000
20
-0.184000
41
0.080000
42
0.080000
50
-90.000000
0
CIRCLE
8
0
10
0.162000
20
-0.184000
40
0.025000
0
INSERT
8
0
2
RPAD
10
0.162000
20
-0.284000
41
0.080000
42
0.080000
50
-90.000000
0
CIRCLE
8
0
10
0.162000
20
-0.284000
40
0.025000
0
INSERT
8
0
2
RPAD
10
0.162000
20
-0.384000
41
0.080000
42
0.080000
50
-90.000000
0
CIRCLE
8
0
10
0.162000
20
-0.384000
40
0.025000
0
INSERT
8
0
2
EPAD
10
0.387000
20
-0.573000
41
0.090000
42
0.090000
0
CIRCLE
8
0
10
0.387000
20
-0.573000
40
0.025000
0
INSERT
8
0
2
EPAD
10
-0.012000
20
-0.573000
41
0.090000
42
0.090000
0
CIRCLE
8
0
10
-0.012000
20
-0.573000
40
0.025000
0
INSERT
8
0
2
EPAD
10
0.844000
20
-0.361000
41
0.120000
42
0.120000
0
CIRCLE
8
0
10
0.844000
20
-0.361000
40
0.030000
0
INSERT
8
0
2
EPAD
10
0.844000
20
-0.561000
41
0.120000
42
0.120000
0
CIRCLE
8
0
10
0.844000
20
-0.561000
40
0.030000
0
INSERT
8
0
2
EPAD
10
0.926000
20
-1.588000
41
0.250000
42
0.250000
0
CIRCLE
8
0
10
0.926000
20
-1.588000
40
0.030000
0
INSERT
8
0
2
EPAD
10
0.972000
20
1.581000
41
0.250000
42
0.250000
0
CIRCLE
8
0
10
0.972000
20
1.581000
40
0.030000
0
INSERT
8
0
2
EPAD
10
-0.956000
20
1.570000
41
0.250000
42
0.250000
0
CIRCLE
8
0
10
-0.956000
20
1.570000
40
0.030000
0
POLYLINE
8
0
66
1
40
0.008000
41
0.008000
0
VERTEX
8
0
10
-1.120000
20
-1.745000
0
VERTEX
8
0
10
1.120000
20
-1.745000
0
VERTEX
8
0
10
1.120000
20
1.745000
0
VERTEX
8
0
10
-1.120000
20
1.745000
0
VERTEX
8
0
10
-1.120000
20
-1.745000
0
SEQEND
8
0
0
POLYLINE
8
0
66
1
40
0.008000
41
0.008000
0
VERTEX
8
0
10
-0.691000
20
1.095000
0
VERTEX
8
0
10
-1.091000
20
1.095000
0
SEQEND
8
0
0
POLYLINE
8
0
66
1
40
0.008000
41
0.008000
0
VERTEX
8
0
10
-0.691000
20
-0.504000
0
VERTEX
8
0
10
-1.091000
20
-0.504000
0
VERTEX
8
0
10
-1.091000
20
1.095000
0
SEQEND
8
0
0
POLYLINE
8
0
66
1
40
0.008000
41
0.008000
0
VERTEX
8
0
10
-0.691000
20
1.095000
0
VERTEX
8
0
10
-0.691000
20
-0.504000
0
SEQEND
8
0
0
TEXT
8
12632256
10
-0.876000
20
-0.624000
40
0.048000
41
1.041667
50
90.000000
1
J4
0
CIRCLE
8
12632256
10
-0.352000
20
-0.964000
40
0.200000
0
POLYLINE
8
0
66
1
40
0.008000
41
0.008000
0
VERTEX
8
0
10
-0.452000
20
-1.089000
0
VERTEX
8
0
10
-0.452000
20
-1.039000
0
SEQEND
8
0
0
POLYLINE
8
0
66
1
40
0.008000
41
0.008000
0
VERTEX
8
0
10
-0.477000
20
-1.064000
0
VERTEX
8
0
10
-0.427000
20
-1.064000
0
SEQEND
8
0
0
TEXT
8
12632256
10
-0.562000
20
-1.014000
40
0.048000
41
1.041667
50
90.000000
1
C4
0
POLYLINE
8
0
66
1
40
0.008000
41
0.008000
0
VERTEX
8
0
10
-0.045000
20
-1.085000
0
VERTEX
8
0
10
-0.045000
20
-1.035000
0
SEQEND
8
0
0
POLYLINE
8
0
66
1
40
0.008000
41
0.008000
0
VERTEX
8
0
10
-0.070000
20
-1.035000
0
VERTEX
8
0
10
-0.020000
20
-1.035000
0
VERTEX
8
0
10
-0.020000
20
-0.835000
0
VERTEX
8
0
10
-0.070000
20
-0.835000
0
VERTEX
8
0
10
-0.070000
20
-1.035000
0
SEQEND
8
0
0
POLYLINE
8
0
66
1
40
0.008000
41
0.008000
0
VERTEX
8
0
10
-0.045000
20
-0.835000
0
VERTEX
8
0
10
-0.045000
20
-0.785000
0
SEQEND
8
0
0
TEXT
8
12632256
10
-0.080000
20
-1.010000
40
0.048000
41
1.041667
50
90.000000
1
R60
0
POLYLINE
8
0
66
1
40
0.008000
41
0.008000
0
VERTEX
8
0
10
-0.057000
20
-1.410000
0
VERTEX
8
0
10
0.242000
20
-1.410000
0
VERTEX
8
0
10
0.242000
20
-1.310000
0
VERTEX
8
0
10
-0.057000
20
-1.310000
0
VERTEX
8
0
10
-0.057000
20
-1.410000
0
SEQEND
8
0
0
POLYLINE
8
0
66
1
40
0.008000
41
0.008000
0
VERTEX
8
0
10
0.242000
20
-1.410000
0
VERTEX
8
0
10
0.242000
20
-1.460000
0
VERTEX
8
0
10
-0.057000
20
-1.460000
0
VERTEX
8
0
10
-0.057000
20
-1.410000
0
SEQEND
8
0
0
POLYLINE
8
0
66
1
40
0.008000
41
0.008000
0
VERTEX
8
0
10
0.242000
20
-1.410000
0
VERTEX
8
0
10
0.192000
20
-1.460000
0
SEQEND
8
0
0
POLYLINE
8
0
66
1
40
0.008000
41
0.008000
0
VERTEX
8
0
10
0.192000
20
-1.410000
0
VERTEX
8
0
10
0.142000
20
-1.460000
0
SEQEND
8
0
0
POLYLINE
8
0
66
1
40
0.008000
41
0.008000
0
VERTEX
8
0
10
0.142000
20
-1.410000
0
VERTEX
8
0
10
0.092000
20
-1.460000
0
SEQEND
8
0
0
POLYLINE
8
0
66
1
40
0.008000
41
0.008000
0
VERTEX
8
0
10
0.092000
20
-1.410000
0
VERTEX
8
0
10
0.042000
20
-1.460000
0
SEQEND
8
0
0
POLYLINE
8
0
66
1
40
0.008000
41
0.008000
0
VERTEX
8
0
10
0.042000
20
-1.410000
0
VERTEX
8
0
10
-0.007000
20
-1.460000
0
SEQEND
8
0
0
POLYLINE
8
0
66
1
40
0.008000
41
0.008000
0
VERTEX
8
0
10
-0.007000
20
-1.410000
0
VERTEX
8
0
10
-0.057000
20
-1.460000
0
SEQEND
8
0
0
TEXT
8
12632256
10
0.017000
20
-1.518000
40
0.048000
41
1.041667
1
U30
0
POLYLINE
8
0
66
1
40
0.008000
41
0.008000
0
VERTEX
8
0
10
-0.596000
20
-1.702000
0
VERTEX
8
0
10
0.781000
20
-1.702000
0
VERTEX
8
0
10
0.781000
20
-1.214000
0
VERTEX
8
0
10
-0.596000
20
-1.214000
0
VERTEX
8
0
10
-0.596000
20
-1.702000
0
SEQEND
8
0
0
POLYLINE
8
0
66
1
40
0.008000
41
0.008000
0
VERTEX
8
0
10
0.213000
20
-1.175000
0
VERTEX
8
0
10
0.417000
20
-1.175000
0
VERTEX
8
0
10
0.417000
20
-1.070000
0
VERTEX
8
0
10
0.213000
20
-1.070000
0
VERTEX
8
0
10
0.213000
20
-1.175000
0
SEQEND
8
0
0
POLYLINE
8
0
66
1
40
0.008000
41
0.008000
0
VERTEX
8
0
10
0.245000
20
-1.071000
0
VERTEX
8
0
10
0.245000
20
-1.174000
0
SEQEND
8
0
0
POLYLINE
8
0
66
1
40
0.008000
41
0.008000
0
VERTEX
8
0
10
0.185000
20
-1.123000
0
VERTEX
8
0
10
0.213000
20
-1.123000
0
SEQEND
8
0
0
POLYLINE
8
0
66
1
40
0.008000
41
0.008000
0
VERTEX
8
0
10
0.417000
20
-1.123000
0
VERTEX
8
0
10
0.445000
20
-1.123000
0
SEQEND
8
0
0
TEXT
8
12632256
10
0.240000
20
-1.060000
40
0.048000
41
1.041667
1
D10
0
CIRCLE
8
12632256
10
0.311000
20
-0.852000
40
0.100000
0
POLYLINE
8
0
66
1
40
0.008000
41
0.008000
0
VERTEX
8
0
10
0.386000
20
-0.902000
0
VERTEX
8
0
10
0.336000
20
-0.902000
0
SEQEND
8
0
0
POLYLINE
8
0
66
1
40
0.008000
41
0.008000
0
VERTEX
8
0
10
0.361000
20
-0.927000
0
VERTEX
8
0
10
0.361000
20
-0.877000
0
SEQEND
8
0
0
TEXT
8
12632256
10
0.261000
20
-1.010000
40
0.048000
41
1.041667
1
C5
0
POLYLINE
8
0
66
1
40
0.008000
41
0.008000
0
VERTEX
8
0
10
0.787000
20
-0.831000
0
VERTEX
8
0
10
0.784000
20
-0.841000
0
VERTEX
8
0
10
0.776000
20
-0.851000
0
VERTEX
8
0
10
0.762000
20
-0.859000
0
VERTEX
8
0
10
0.744000
20
-0.866000
0
VERTEX
8
0
10
0.722000
20
-0.873000
0
VERTEX
8
0
10
0.696000
20
-0.877000
0
VERTEX
8
0
10
0.668000
20
-0.880000
0
VERTEX
8
0
10
0.637000
20
-0.881000
0
SEQEND
8
0
0
POLYLINE
8
0
66
1
40
0.008000
41
0.008000
0
VERTEX
8
0
10
0.487000
20
-0.831000
0
VERTEX
8
0
10
0.490000
20
-0.841000
0
VERTEX
8
0
10
0.499000
20
-0.851000
0
VERTEX
8
0
10
0.512000
20
-0.859000
0
VERTEX
8
0
10
0.530000
20
-0.866000
0
VERTEX
8
0
10
0.552000
20
-0.873000
0
VERTEX
8
0
10
0.578000
20
-0.877000
0
VERTEX
8
0
10
0.606000
20
-0.880000
0
VERTEX
8
0
10
0.637000
20
-0.881000
0
SEQEND
8
0
0
POLYLINE
8
0
66
1
40
0.008000
41
0.008000
0
VERTEX
8
0
10
0.487000
20
-0.831000
0
VERTEX
8
0
10
0.490000
20
-0.821000
0
VERTEX
8
0
10
0.499000
20
-0.811000
0
VERTEX
8
0
10
0.512000
20
-0.803000
0
VERTEX
8
0
10
0.530000
20
-0.796000
0
VERTEX
8
0
10
0.552000
20
-0.789000
0
VERTEX
8
0
10
0.578000
20
-0.785000
0
VERTEX
8
0
10
0.606000
20
-0.782000
0
VERTEX
8
0
10
0.637000
20
-0.781000
0
SEQEND
8
0
0
POLYLINE
8
0
66
1
40
0.008000
41
0.008000
0
VERTEX
8
0
10
0.787000
20
-0.831000
0
VERTEX
8
0
10
0.784000
20
-0.821000
0
VERTEX
8
0
10
0.776000
20
-0.811000
0
VERTEX
8
0
10
0.762000
20
-0.803000
0
VERTEX
8
0
10
0.744000
20
-0.796000
0
VERTEX
8
0
10
0.722000
20
-0.789000
0
VERTEX
8
0
10
0.696000
20
-0.785000
0
VERTEX
8
0
10
0.668000
20
-0.782000
0
VERTEX
8
0
10
0.637000
20
-0.781000
0
SEQEND
8
0
0
TEXT
8
12632256
10
0.587000
20
-0.939000
40
0.048000
41
1.041667
1
C6
0
POLYLINE
8
0
66
1
40
0.008000
41
0.008000
0
VERTEX
8
0
10
-0.478000
20
1.266000
0
VERTEX
8
0
10
-0.428000
20
1.266000
0
SEQEND
8
0
0
POLYLINE
8
0
66
1
40
0.008000
41
0.008000
0
VERTEX
8
0
10
-0.428000
20
1.241000
0
VERTEX
8
0
10
-0.228000
20
1.241000
0
VERTEX
8
0
10
-0.228000
20
1.291000
0
VERTEX
8
0
10
-0.428000
20
1.291000
0
VERTEX
8
0
10
-0.428000
20
1.241000
0
SEQEND
8
0
0
POLYLINE
8
0
66
1
40
0.008000
41
0.008000
0
VERTEX
8
0
10
-0.228000
20
1.266000
0
VERTEX
8
0
10
-0.178000
20
1.266000
0
SEQEND
8
0
0
TEXT
8
12632256
10
-0.378000
20
1.301000
40
0.048000
41
1.041667
1
R2
0
POLYLINE
8
0
66
1
40
0.008000
41
0.008000
0
VERTEX
8
0
10
0.112000
20
1.367000
0
VERTEX
8
0
10
0.212000
20
1.367000
0
VERTEX
8
0
10
0.212000
20
1.667000
0
VERTEX
8
0
10
0.112000
20
1.667000
0
VERTEX
8
0
10
0.112000
20
1.367000
0
SEQEND
8
0
0
POLYLINE
8
0
66
1
40
0.008000
41
0.008000
0
VERTEX
8
0
10
0.212000
20
1.667000
0
VERTEX
8
0
10
0.262000
20
1.667000
0
VERTEX
8
0
10
0.262000
20
1.367000
0
VERTEX
8
0
10
0.212000
20
1.367000
0
SEQEND
8
0
0
POLYLINE
8
0
66
1
40
0.008000
41
0.008000
0
VERTEX
8
0
10
0.212000
20
1.667000
0
VERTEX
8
0
10
0.262000
20
1.617000
0
SEQEND
8
0
0
POLYLINE
8
0
66
1
40
0.008000
41
0.008000
0
VERTEX
8
0
10
0.212000
20
1.617000
0
VERTEX
8
0
10
0.262000
20
1.567000
0
SEQEND
8
0
0
POLYLINE
8
0
66
1
40
0.008000
41
0.008000
0
VERTEX
8
0
10
0.212000
20
1.567000
0
VERTEX
8
0
10
0.262000
20
1.517000
0
SEQEND
8
0
0
POLYLINE
8
0
66
1
40
0.008000
41
0.008000
0
VERTEX
8
0
10
0.212000
20
1.517000
0
VERTEX
8
0
10
0.262000
20
1.467000
0
SEQEND
8
0
0
POLYLINE
8
0
66
1
40
0.008000
41
0.008000
0
VERTEX
8
0
10
0.212000
20
1.467000
0
VERTEX
8
0
10
0.262000
20
1.417000
0
SEQEND
8
0
0
POLYLINE
8
0
66
1
40
0.008000
41
0.008000
0
VERTEX
8
0
10
0.212000
20
1.417000
0
VERTEX
8
0
10
0.262000
20
1.367000
0
SEQEND
8
0
0
TEXT
8
12632256
10
0.320000
20
1.467000
40
0.048000
41
1.041667
50
90.000000
1
Q3
0
POLYLINE
8
0
66
1
40
0.008000
41
0.008000
0
VERTEX
8
0
10
0.085000
20
1.172000
0
VERTEX
8
0
10
0.289000
20
1.172000
0
VERTEX
8
0
10
0.289000
20
1.277000
0
VERTEX
8
0
10
0.085000
20
1.277000
0
VERTEX
8
0
10
0.085000
20
1.172000
0
SEQEND
8
0
0
POLYLINE
8
0
66
1
40
0.008000
41
0.008000
0
VERTEX
8
0
10
0.117000
20
1.276000
0
VERTEX
8
0
10
0.117000
20
1.173000
0
SEQEND
8
0
0
POLYLINE
8
0
66
1
40
0.008000
41
0.008000
0
VERTEX
8
0
10
0.057000
20
1.224000
0
VERTEX
8
0
10
0.085000
20
1.224000
0
SEQEND
8
0
0
POLYLINE
8
0
66
1
40
0.008000
41
0.008000
0
VERTEX
8
0
10
0.289000
20
1.224000
0
VERTEX
8
0
10
0.317000
20
1.224000
0
SEQEND
8
0
0
TEXT
8
12632256
10
0.137000
20
1.287000
40
0.048000
41
1.041667
1
D3
0
POLYLINE
8
0
66
1
40
0.008000
41
0.008000
0
VERTEX
8
0
10
0.652000
20
1.031000
0
VERTEX
8
0
10
1.052000
20
1.031000
0
SEQEND
8
0
0
POLYLINE
8
0
66
1
40
0.008000
41
0.008000
0
VERTEX
8
0
10
0.652000
20
1.431000
0
VERTEX
8
0
10
1.052000
20
1.431000
0
SEQEND
8
0
0
POLYLINE
8
0
66
1
40
0.008000
41
0.008000
0
VERTEX
8
0
10
1.052000
20
1.031000
0
VERTEX
8
0
10
1.052000
20
1.431000
0
SEQEND
8
0
0
POLYLINE
8
0
66
1
40
0.008000
41
0.008000
0
VERTEX
8
0
10
0.652000
20
1.031000
0
VERTEX
8
0
10
0.652000
20
1.431000
0
SEQEND
8
0
0
TEXT
8
12632256
10
0.756000
20
1.448000
40
0.048000
41
1.041667
50
90.000000
1
J3
0
POLYLINE
8
0
66
1
40
0.008000
41
0.008000
0
VERTEX
8
0
10
-0.478000
20
0.922000
0
VERTEX
8
0
10
-0.428000
20
0.922000
0
SEQEND
8
0
0
POLYLINE
8
0
66
1
40
0.008000
41
0.008000
0
VERTEX
8
0
10
-0.428000
20
0.897000
0
VERTEX
8
0
10
-0.228000
20
0.897000
0
VERTEX
8
0
10
-0.228000
20
0.947000
0
VERTEX
8
0
10
-0.428000
20
0.947000
0
VERTEX
8
0
10
-0.428000
20
0.897000
0
SEQEND
8
0
0
POLYLINE
8
0
66
1
40
0.008000
41
0.008000
0
VERTEX
8
0
10
-0.228000
20
0.922000
0
VERTEX
8
0
10
-0.178000
20
0.922000
0
SEQEND
8
0
0
TEXT
8
12632256
10
-0.378000
20
0.957000
40
0.048000
41
1.041667
1
R3
0
POLYLINE
8
0
66
1
40
0.008000
41
0.008000
0
VERTEX
8
0
10
0.112000
20
0.785000
0
VERTEX
8
0
10
0.212000
20
0.785000
0
VERTEX
8
0
10
0.212000
20
1.085000
0
VERTEX
8
0
10
0.112000
20
1.085000
0
VERTEX
8
0
10
0.112000
20
0.785000
0
SEQEND
8
0
0
POLYLINE
8
0
66
1
40
0.008000
41
0.008000
0
VERTEX
8
0
10
0.212000
20
1.085000
0
VERTEX
8
0
10
0.262000
20
1.085000
0
VERTEX
8
0
10
0.262000
20
0.785000
0
VERTEX
8
0
10
0.212000
20
0.785000
0
SEQEND
8
0
0
POLYLINE
8
0
66
1
40
0.008000
41
0.008000
0
VERTEX
8
0
10
0.212000
20
1.085000
0
VERTEX
8
0
10
0.262000
20
1.035000
0
SEQEND
8
0
0
POLYLINE
8
0
66
1
40
0.008000
41
0.008000
0
VERTEX
8
0
10
0.212000
20
1.035000
0
VERTEX
8
0
10
0.262000
20
0.985000
0
SEQEND
8
0
0
POLYLINE
8
0
66
1
40
0.008000
41
0.008000
0
VERTEX
8
0
10
0.212000
20
0.985000
0
VERTEX
8
0
10
0.262000
20
0.935000
0
SEQEND
8
0
0
POLYLINE
8
0
66
1
40
0.008000
41
0.008000
0
VERTEX
8
0
10
0.212000
20
0.935000
0
VERTEX
8
0
10
0.262000
20
0.885000
0
SEQEND
8
0
0
POLYLINE
8
0
66
1
40
0.008000
41
0.008000
0
VERTEX
8
0
10
0.212000
20
0.885000
0
VERTEX
8
0
10
0.262000
20
0.835000
0
SEQEND
8
0
0
POLYLINE
8
0
66
1
40
0.008000
41
0.008000
0
VERTEX
8
0
10
0.212000
20
0.835000
0
VERTEX
8
0
10
0.262000
20
0.785000
0
SEQEND
8
0
0
TEXT
8
12632256
10
0.320000
20
0.885000
40
0.048000
41
1.041667
50
90.000000
1
Q4
0
POLYLINE
8
0
66
1
40
0.008000
41
0.008000
0
VERTEX
8
0
10
0.649000
20
0.602000
0
VERTEX
8
0
10
1.049000
20
0.602000
0
SEQEND
8
0
0
POLYLINE
8
0
66
1
40
0.008000
41
0.008000
0
VERTEX
8
0
10
0.649000
20
1.002000
0
VERTEX
8
0
10
1.049000
20
1.002000
0
SEQEND
8
0
0
POLYLINE
8
0
66
1
40
0.008000
41
0.008000
0
VERTEX
8
0
10
1.049000
20
0.602000
0
VERTEX
8
0
10
1.049000
20
1.002000
0
SEQEND
8
0
0
POLYLINE
8
0
66
1
40
0.008000
41
0.008000
0
VERTEX
8
0
10
0.649000
20
0.602000
0
VERTEX
8
0
10
0.649000
20
1.002000
0
SEQEND
8
0
0
TEXT
8
12632256
10
1.116000
20
0.744000
40
0.048000
41
1.041667
50
90.000000
1
J5
0
POLYLINE
8
0
66
1
40
0.008000
41
0.008000
0
VERTEX
8
0
10
-0.478000
20
0.487000
0
VERTEX
8
0
10
-0.428000
20
0.487000
0
SEQEND
8
0
0
POLYLINE
8
0
66
1
40
0.008000
41
0.008000
0
VERTEX
8
0
10
-0.428000
20
0.462000
0
VERTEX
8
0
10
-0.228000
20
0.462000
0
VERTEX
8
0
10
-0.228000
20
0.512000
0
VERTEX
8
0
10
-0.428000
20
0.512000
0
VERTEX
8
0
10
-0.428000
20
0.462000
0
SEQEND
8
0
0
POLYLINE
8
0
66
1
40
0.008000
41
0.008000
0
VERTEX
8
0
10
-0.228000
20
0.487000
0
VERTEX
8
0
10
-0.178000
20
0.487000
0
SEQEND
8
0
0
TEXT
8
12632256
10
-0.378000
20
0.522000
40
0.048000
41
1.041667
1
R4
0
POLYLINE
8
0
66
1
40
0.008000
41
0.008000
0
VERTEX
8
0
10
0.087000
20
0.513000
0
VERTEX
8
0
10
0.287000
20
0.513000
0
SEQEND
8
0
0
POLYLINE
8
0
66
1
40
0.008000
41
0.008000
0
VERTEX
8
0
10
0.057000
20
0.578000
0
VERTEX
8
0
10
0.059000
20
0.563000
0
VERTEX
8
0
10
0.064000
20
0.547000
0
VERTEX
8
0
10
0.074000
20
0.531000
0
VERTEX
8
0
10
0.087000
20
0.513000
0
SEQEND
8
0
0
POLYLINE
8
0
66
1
40
0.008000
41
0.008000
0
VERTEX
8
0
10
0.057000
20
0.578000
0
VERTEX
8
0
10
0.058000
20
0.604000
0
VERTEX
8
0
10
0.065000
20
0.627000
0
VERTEX
8
0
10
0.076000
20
0.649000
0
VERTEX
8
0
10
0.092000
20
0.667000
0
VERTEX
8
0
10
0.111000
20
0.682000
0
VERTEX
8
0
10
0.134000
20
0.693000
0
VERTEX
8
0
10
0.159000
20
0.701000
0
VERTEX
8
0
10
0.187000
20
0.703000
0
SEQEND
8
0
0
POLYLINE
8
0
66
1
40
0.008000
41
0.008000
0
VERTEX
8
0
10
0.317000
20
0.578000
0
VERTEX
8
0
10
0.315000
20
0.563000
0
VERTEX
8
0
10
0.310000
20
0.547000
0
VERTEX
8
0
10
0.300000
20
0.531000
0
VERTEX
8
0
10
0.287000
20
0.513000
0
SEQEND
8
0
0
POLYLINE
8
0
66
1
40
0.008000
41
0.008000
0
VERTEX
8
0
10
0.317000
20
0.578000
0
VERTEX
8
0
10
0.316000
20
0.604000
0
VERTEX
8
0
10
0.309000
20
0.627000
0
VERTEX
8
0
10
0.298000
20
0.649000
0
VERTEX
8
0
10
0.282000
20
0.667000
0
VERTEX
8
0
10
0.263000
20
0.682000
0
VERTEX
8
0
10
0.240000
20
0.693000
0
VERTEX
8
0
10
0.215000
20
0.701000
0
VERTEX
8
0
10
0.187000
20
0.703000
0
SEQEND
8
0
0
TEXT
8
12632256
10
0.137000
20
0.713000
40
0.048000
41
1.041667
1
Q5
0
POLYLINE
8
0
66
1
40
0.008000
41
0.008000
0
VERTEX
8
0
10
0.654000
20
0.174000
0
VERTEX
8
0
10
1.054000
20
0.174000
0
SEQEND
8
0
0
POLYLINE
8
0
66
1
40
0.008000
41
0.008000
0
VERTEX
8
0
10
0.654000
20
0.574000
0
VERTEX
8
0
10
1.054000
20
0.574000
0
SEQEND
8
0
0
POLYLINE
8
0
66
1
40
0.008000
41
0.008000
0
VERTEX
8
0
10
1.054000
20
0.174000
0
VERTEX
8
0
10
1.054000
20
0.574000
0
SEQEND
8
0
0
POLYLINE
8
0
66
1
40
0.008000
41
0.008000
0
VERTEX
8
0
10
0.654000
20
0.174000
0
VERTEX
8
0
10
0.654000
20
0.574000
0
SEQEND
8
0
0
TEXT
8
12632256
10
1.095000
20
0.335000
40
0.048000
41
1.041667
50
90.000000
1
J6
0
POLYLINE
8
0
66
1
40
0.008000
41
0.008000
0
VERTEX
8
0
10
-0.478000
20
0.150000
0
VERTEX
8
0
10
-0.428000
20
0.150000
0
SEQEND
8
0
0
POLYLINE
8
0
66
1
40
0.008000
41
0.008000
0
VERTEX
8
0
10
-0.428000
20
0.125000
0
VERTEX
8
0
10
-0.228000
20
0.125000
0
VERTEX
8
0
10
-0.228000
20
0.175000
0
VERTEX
8
0
10
-0.428000
20
0.175000
0
VERTEX
8
0
10
-0.428000
20
0.125000
0
SEQEND
8
0
0
POLYLINE
8
0
66
1
40
0.008000
41
0.008000
0
VERTEX
8
0
10
-0.228000
20
0.150000
0
VERTEX
8
0
10
-0.178000
20
0.150000
0
SEQEND
8
0
0
TEXT
8
12632256
10
-0.403000
20
0.185000
40
0.048000
41
1.041667
1
R98
0
POLYLINE
8
0
66
1
40
0.008000
41
0.008000
0
VERTEX
8
0
10
0.112000
20
0.124000
0
VERTEX
8
0
10
0.212000
20
0.124000
0
VERTEX
8
0
10
0.212000
20
0.424000
0
VERTEX
8
0
10
0.112000
20
0.424000
0
VERTEX
8
0
10
0.112000
20
0.124000
0
SEQEND
8
0
0
POLYLINE
8
0
66
1
40
0.008000
41
0.008000
0
VERTEX
8
0
10
0.212000
20
0.424000
0
VERTEX
8
0
10
0.262000
20
0.424000
0
VERTEX
8
0
10
0.262000
20
0.124000
0
VERTEX
8
0
10
0.212000
20
0.124000
0
SEQEND
8
0
0
POLYLINE
8
0
66
1
40
0.008000
41
0.008000
0
VERTEX
8
0
10
0.212000
20
0.424000
0
VERTEX
8
0
10
0.262000
20
0.374000
0
SEQEND
8
0
0
POLYLINE
8
0
66
1
40
0.008000
41
0.008000
0
VERTEX
8
0
10
0.212000
20
0.374000
0
VERTEX
8
0
10
0.262000
20
0.324000
0
SEQEND
8
0
0
POLYLINE
8
0
66
1
40
0.008000
41
0.008000
0
VERTEX
8
0
10
0.212000
20
0.324000
0
VERTEX
8
0
10
0.262000
20
0.274000
0
SEQEND
8
0
0
POLYLINE
8
0
66
1
40
0.008000
41
0.008000
0
VERTEX
8
0
10
0.212000
20
0.274000
0
VERTEX
8
0
10
0.262000
20
0.224000
0
SEQEND
8
0
0
POLYLINE
8
0
66
1
40
0.008000
41
0.008000
0
VERTEX
8
0
10
0.212000
20
0.224000
0
VERTEX
8
0
10
0.262000
20
0.174000
0
SEQEND
8
0
0
POLYLINE
8
0
66
1
40
0.008000
41
0.008000
0
VERTEX
8
0
10
0.212000
20
0.174000
0
VERTEX
8
0
10
0.262000
20
0.124000
0
SEQEND
8
0
0
TEXT
8
12632256
10
0.320000
20
0.224000
40
0.048000
41
1.041667
50
90.000000
1
Q1
0
POLYLINE
8
0
66
1
40
0.008000
41
0.008000
0
VERTEX
8
0
10
0.085000
20
-0.059000
0
VERTEX
8
0
10
0.289000
20
-0.059000
0
VERTEX
8
0
10
0.289000
20
0.045000
0
VERTEX
8
0
10
0.085000
20
0.045000
0
VERTEX
8
0
10
0.085000
20
-0.059000
0
SEQEND
8
0
0
POLYLINE
8
0
66
1
40
0.008000
41
0.008000
0
VERTEX
8
0
10
0.117000
20
0.044000
0
VERTEX
8
0
10
0.117000
20
-0.058000
0
SEQEND
8
0
0
POLYLINE
8
0
66
1
40
0.008000
41
0.008000
0
VERTEX
8
0
10
0.057000
20
-0.007000
0
VERTEX
8
0
10
0.085000
20
-0.007000
0
SEQEND
8
0
0
POLYLINE
8
0
66
1
40
0.008000
41
0.008000
0
VERTEX
8
0
10
0.289000
20
-0.007000
0
VERTEX
8
0
10
0.317000
20
-0.007000
0
SEQEND
8
0
0
TEXT
8
12632256
10
0.137000
20
0.055000
40
0.048000
41
1.041667
1
D1
0
POLYLINE
8
0
66
1
40
0.008000
41
0.008000
0
VERTEX
8
0
10
0.648000
20
-0.249000
0
VERTEX
8
0
10
1.048000
20
-0.249000
0
SEQEND
8
0
0
POLYLINE
8
0
66
1
40
0.008000
41
0.008000
0
VERTEX
8
0
10
0.648000
20
0.150000
0
VERTEX
8
0
10
1.048000
20
0.150000
0
SEQEND
8
0
0
POLYLINE
8
0
66
1
40
0.008000
41
0.008000
0
VERTEX
8
0
10
1.048000
20
-0.249000
0
VERTEX
8
0
10
1.048000
20
0.150000
0
SEQEND
8
0
0
POLYLINE
8
0
66
1
40
0.008000
41
0.008000
0
VERTEX
8
0
10
0.648000
20
-0.249000
0
VERTEX
8
0
10
0.648000
20
0.150000
0
SEQEND
8
0
0
TEXT
8
12632256
10
1.115000
20
-0.096000
40
0.048000
41
1.041667
50
90.000000
1
J1
0
POLYLINE
8
0
66
1
40
0.008000
41
0.008000
0
VERTEX
8
0
10
-0.478000
20
-0.404000
0
VERTEX
8
0
10
-0.428000
20
-0.404000
0
SEQEND
8
0
0
POLYLINE
8
0
66
1
40
0.008000
41
0.008000
0
VERTEX
8
0
10
-0.428000
20
-0.429000
0
VERTEX
8
0
10
-0.228000
20
-0.429000
0
VERTEX
8
0
10
-0.228000
20
-0.379000
0
VERTEX
8
0
10
-0.428000
20
-0.379000
0
VERTEX
8
0
10
-0.428000
20
-0.429000
0
SEQEND
8
0
0
POLYLINE
8
0
66
1
40
0.008000
41
0.008000
0
VERTEX
8
0
10
-0.228000
20
-0.404000
0
VERTEX
8
0
10
-0.178000
20
-0.404000
0
SEQEND
8
0
0
TEXT
8
12632256
10
-0.378000
20
-0.369000
40
0.048000
41
1.041667
1
R1
0
POLYLINE
8
0
66
1
40
0.008000
41
0.008000
0
VERTEX
8
0
10
0.112000
20
-0.434000
0
VERTEX
8
0
10
0.212000
20
-0.434000
0
VERTEX
8
0
10
0.212000
20
-0.134000
0
VERTEX
8
0
10
0.112000
20
-0.134000
0
VERTEX
8
0
10
0.112000
20
-0.434000
0
SEQEND
8
0
0
POLYLINE
8
0
66
1
40
0.008000
41
0.008000
0
VERTEX
8
0
10
0.212000
20
-0.134000
0
VERTEX
8
0
10
0.262000
20
-0.134000
0
VERTEX
8
0
10
0.262000
20
-0.434000
0
VERTEX
8
0
10
0.212000
20
-0.434000
0
SEQEND
8
0
0
POLYLINE
8
0
66
1
40
0.008000
41
0.008000
0
VERTEX
8
0
10
0.212000
20
-0.134000
0
VERTEX
8
0
10
0.262000
20
-0.184000
0
SEQEND
8
0
0
POLYLINE
8
0
66
1
40
0.008000
41
0.008000
0
VERTEX
8
0
10
0.212000
20
-0.184000
0
VERTEX
8
0
10
0.262000
20
-0.234000
0
SEQEND
8
0
0
POLYLINE
8
0
66
1
40
0.008000
41
0.008000
0
VERTEX
8
0
10
0.212000
20
-0.234000
0
VERTEX
8
0
10
0.262000
20
-0.284000
0
SEQEND
8
0
0
POLYLINE
8
0
66
1
40
0.008000
41
0.008000
0
VERTEX
8
0
10
0.212000
20
-0.284000
0
VERTEX
8
0
10
0.262000
20
-0.334000
0
SEQEND
8
0
0
POLYLINE
8
0
66
1
40
0.008000
41
0.008000
0
VERTEX
8
0
10
0.212000
20
-0.334000
0
VERTEX
8
0
10
0.262000
20
-0.384000
0
SEQEND
8
0
0
POLYLINE
8
0
66
1
40
0.008000
41
0.008000
0
VERTEX
8
0
10
0.212000
20
-0.384000
0
VERTEX
8
0
10
0.262000
20
-0.434000
0
SEQEND
8
0
0
TEXT
8
12632256
10
0.320000
20
-0.334000
40
0.048000
41
1.041667
50
90.000000
1
Q2
0
POLYLINE
8
0
66
1
40
0.008000
41
0.008000
0
VERTEX
8
0
10
0.085000
20
-0.625000
0
VERTEX
8
0
10
0.289000
20
-0.625000
0
VERTEX
8
0
10
0.289000
20
-0.520000
0
VERTEX
8
0
10
0.085000
20
-0.520000
0
VERTEX
8
0
10
0.085000
20
-0.625000
0
SEQEND
8
0
0
POLYLINE
8
0
66
1
40
0.008000
41
0.008000
0
VERTEX
8
0
10
0.117000
20
-0.521000
0
VERTEX
8
0
10
0.117000
20
-0.624000
0
SEQEND
8
0
0
POLYLINE
8
0
66
1
40
0.008000
41
0.008000
0
VERTEX
8
0
10
0.057000
20
-0.573000
0
VERTEX
8
0
10
0.085000
20
-0.573000
0
SEQEND
8
0
0
POLYLINE
8
0
66
1
40
0.008000
41
0.008000
0
VERTEX
8
0
10
0.289000
20
-0.573000
0
VERTEX
8
0
10
0.317000
20
-0.573000
0
SEQEND
8
0
0
TEXT
8
12632256
10
0.137000
20
-0.510000
40
0.048000
41
1.041667
1
D2
0
POLYLINE
8
0
66
1
40
0.008000
41
0.008000
0
VERTEX
8
0
10
1.044000
20
-0.261000
0
VERTEX
8
0
10
0.644000
20
-0.261000
0
SEQEND
8
0
0
POLYLINE
8
0
66
1
40
0.008000
41
0.008000
0
VERTEX
8
0
10
1.044000
20
-0.661000
0
VERTEX
8
0
10
0.644000
20
-0.661000
0
SEQEND
8
0
0
POLYLINE
8
0
66
1
40
0.008000
41
0.008000
0
VERTEX
8
0
10
0.644000
20
-0.261000
0
VERTEX
8
0
10
0.644000
20
-0.661000
0
SEQEND
8
0
0
POLYLINE
8
0
66
1
40
0.008000
41
0.008000
0
VERTEX
8
0
10
1.044000
20
-0.261000
0
VERTEX
8
0
10
1.044000
20
-0.661000
0
SEQEND
8
0
0
TEXT
8
12632256
10
1.102000
20
-0.511000
40
0.048000
41
1.041667
50
90.000000
1
J2
0
TEXT
8
12632256
10
-0.633000
20
1.072000
40
0.048000
41
1.041667
50
-90.000000
1
C0  C1  C2  C6  C7  GND  GND  V12
0
TEXT
8
12632256
10
0.527000
20
-0.588000
40
0.048000
41
1.041667
50
90.000000
1
RELE3
0
TEXT
8
12632256
10
0.495000
20
-0.171000
40
0.048000
41
1.041667
50
90.000000
1
RELE2
0
TEXT
8
12632256
10
0.515000
20
1.163000
40
0.048000
41
1.041667
50
90.000000
1
RELE1
0
TEXT
8
12632256
10
0.487000
20
0.317000
40
0.048000
41
1.041667
50
90.000000
1
SSR
0
TEXT
8
12632256
10
0.491000
20
0.509000
40
0.048000
41
1.041667
50
90.000000
1
VENTILADOR
0
TEXT
8
12632256
10
0.617000
20
-0.631000
40
0.048000
41
1.041667
50
90.000000
1
GND V12
0
TEXT
8
12632256
10
0.617000
20
-0.234000
40
0.048000
41
1.041667
50
90.000000
1
GND V12
0
TEXT
8
12632256
10
0.609000
20
1.045000
40
0.048000
41
1.041667
50
90.000000
1
GND V12
0
TEXT
8
12632256
10
0.621000
20
0.214000
40
0.048000
41
1.041667
50
90.000000
1
5V GND
0
TEXT
8
12632256
10
0.629000
20
0.628000
40
0.048000
41
1.041667
50
90.000000
1
5V GND
0
POLYLINE
8
0
66
1
40
0.000000
41
0.000000
0
VERTEX
8
0
10
-1.081000
20
-0.532000
0
VERTEX
8
0
10
-1.081000
20
-1.440000
0
VERTEX
8
0
10
-0.720000
20
-1.440000
0
VERTEX
8
0
10
-0.720000
20
-0.532000
0
VERTEX
8
0
10
-1.081000
20
-0.532000
0
SEQEND
8
0
0
ENDSEC
0
EOF

