  0
SECTION
  2
HEADER
  9
$ACADVER
  1
AC2.10
  0
ENDSEC
  0
SECTION
  2
TABLES
  0
TABLE
  2
LAYER
 70
     8
  0
LAYER
  2
0
 62
     7
 70
0
  6
CONTINUOUS
  0
LAYER
  2
1
 62
     1
 70
0
  6
CONTINUOUS
  0
LAYER
  2
2
 62
     2
 70
0
  6
CONTINUOUS
  0
LAYER
  2
3
 62
     3
 70
0
  6
CONTINUOUS
  0
LAYER
  2
4
 62
     4
 70
0
  6
CONTINUOUS
  0
LAYER
  2
5
 62
     5
 70
0
  6
CONTINUOUS
  0
LAYER
  2
6
 62
     6
 70
0
  6
CONTINUOUS
  0
LAYER
  2
7
 62
     7
 70
0
  6
CONTINUOUS
  0
ENDTAB
  0
TABLE
  2
STYLE
 70
     1
  0
STYLE
 70
     0
  2
STANDARD
  3
TXT
 40
0.00
 41
1.00
 42
1.00
 50
0.00
 71
     0
  0
ENDTAB
  0
ENDSEC
  0
SECTION
  2
BLOCKS
  0
BLOCK
  8
0
  2
EPAD
 70
0
 10
0.0
 20
0.0
  0
POLYLINE
  8
0
 66
1
 70
1
 40
0.5
 41
0.5
  0
VERTEX
  8
0
 10
-0.25
 20
0.0
 42
1.0
  0
VERTEX
  8
0
 10
0.25
 20
0.0
 42
1.0
  0
SEQEND
  8
0
  0
ENDBLK
  8
0
  0
BLOCK
  8
0
  2
RPAD
 70
0
 10
0.0
 20
0.0
  0
TRACE
  8
0
 10
-0.5
 20
-0.5
 11
-0.5
 21
0.5
 12
0.5
 22
-0.5
 13
0.5
 23
0.5
  0
ENDBLK
  8
0
  0
ENDSEC
0
SECTION
2
ENTITIES
0
POLYLINE
8
0
66
1
40
0.025000
41
0.025000
0
VERTEX
8
0
10
-0.052000
20
-0.012000
0
VERTEX
8
0
10
0.092000
20
-0.012000
0
VERTEX
8
0
10
0.229000
20
-0.149000
0
VERTEX
8
0
10
0.229000
20
-0.518000
0
VERTEX
8
0
10
0.146000
20
-0.601000
0
VERTEX
8
0
10
0.133000
20
-0.614000
0
VERTEX
8
0
10
-0.388000
20
-0.614000
0
VERTEX
8
0
10
-0.534000
20
-0.469000
0
VERTEX
8
0
10
-0.534000
20
-0.372000
0
VERTEX
8
0
10
-0.546000
20
-0.360000
0
VERTEX
8
0
10
-0.534000
20
-0.380000
0
SEQEND
8
0
0
POLYLINE
8
0
66
1
40
0.025000
41
0.025000
0
VERTEX
8
0
10
-2.411000
20
0.367000
0
VERTEX
8
0
10
-2.154000
20
0.110000
0
VERTEX
8
0
10
-2.154000
20
-0.153000
0
SEQEND
8
0
0
POLYLINE
8
0
66
1
40
0.025000
41
0.025000
0
VERTEX
8
0
10
0.164000
20
0.413000
0
VERTEX
8
0
10
0.288000
20
0.289000
0
VERTEX
8
0
10
0.520000
20
0.289000
0
VERTEX
8
0
10
0.689000
20
0.458000
0
VERTEX
8
0
10
0.689000
20
0.866000
0
VERTEX
8
0
10
0.644000
20
0.911000
0
VERTEX
8
0
10
-1.163000
20
0.911000
0
VERTEX
8
0
10
-1.166000
20
0.914000
0
SEQEND
8
0
0
POLYLINE
8
0
66
1
40
0.025000
41
0.025000
0
VERTEX
8
0
10
-1.369000
20
0.916000
0
VERTEX
8
0
10
-1.446000
20
0.994000
0
VERTEX
8
0
10
-1.771000
20
0.994000
0
VERTEX
8
0
10
-1.877000
20
1.100000
0
VERTEX
8
0
10
-1.891000
20
1.100000
0
VERTEX
8
0
10
-1.891000
20
1.089000
0
SEQEND
8
0
0
POLYLINE
8
0
66
1
40
0.025000
41
0.025000
0
VERTEX
8
0
10
-2.420000
20
0.470000
0
VERTEX
8
0
10
-2.420000
20
0.550000
0
VERTEX
8
0
10
-2.328000
20
0.642000
0
VERTEX
8
0
10
-2.230000
20
0.642000
0
VERTEX
8
0
10
-2.129000
20
0.541000
0
VERTEX
8
0
10
-2.129000
20
0.360000
0
VERTEX
8
0
10
-1.842000
20
0.073000
0
VERTEX
8
0
10
-1.842000
20
0.059000
0
VERTEX
8
0
10
-1.759000
20
-0.023000
0
SEQEND
8
0
0
POLYLINE
8
0
66
1
40
0.025000
41
0.025000
0
VERTEX
8
0
10
-1.446000
20
1.094000
0
VERTEX
8
0
10
0.345000
20
1.094000
0
VERTEX
8
0
10
0.433000
20
1.007000
0
SEQEND
8
0
0
POLYLINE
8
0
66
1
40
0.025000
41
0.025000
0
VERTEX
8
0
10
-1.275000
20
0.923000
0
VERTEX
8
0
10
-1.446000
20
1.094000
0
VERTEX
8
0
10
-1.674000
20
1.094000
0
VERTEX
8
0
10
-1.674000
20
1.089000
0
SEQEND
8
0
0
POLYLINE
8
0
66
1
40
0.025000
41
0.025000
0
VERTEX
8
0
10
-0.386000
20
0.190000
0
VERTEX
8
0
10
-0.107000
20
0.190000
0
VERTEX
8
0
10
0.054000
20
0.353000
0
VERTEX
8
0
10
0.054000
20
0.507000
0
VERTEX
8
0
10
0.116000
20
0.569000
0
VERTEX
8
0
10
0.333000
20
0.569000
0
VERTEX
8
0
10
0.364000
20
0.538000
0
VERTEX
8
0
10
0.364000
20
0.413000
0
SEQEND
8
0
0
POLYLINE
8
0
66
1
40
0.025000
41
0.025000
0
VERTEX
8
0
10
-1.589000
20
-0.674000
0
VERTEX
8
0
10
-1.091000
20
-0.674000
0
VERTEX
8
0
10
-1.038000
20
-0.621000
0
VERTEX
8
0
10
-1.027000
20
-0.621000
0
SEQEND
8
0
0
POLYLINE
8
0
66
1
40
0.025000
41
0.025000
0
VERTEX
8
0
10
0.811000
20
-0.008000
0
VERTEX
8
0
10
0.644000
20
-0.008000
0
VERTEX
8
0
10
0.555000
20
0.080000
0
SEQEND
8
0
0
POLYLINE
8
0
66
1
40
0.100000
41
0.100000
0
VERTEX
8
0
10
2.253000
20
-0.551000
0
VERTEX
8
0
10
2.402000
20
-0.551000
0
VERTEX
8
0
10
2.503000
20
-0.551000
0
VERTEX
8
0
10
2.608000
20
-0.446000
0
VERTEX
8
0
10
2.608000
20
0.011000
0
VERTEX
8
0
10
2.531000
20
0.088000
0
VERTEX
8
0
10
2.508000
20
0.112000
0
VERTEX
8
0
10
2.463000
20
0.112000
0
VERTEX
8
0
10
2.275000
20
0.112000
0
VERTEX
8
0
10
2.253000
20
0.090000
0
SEQEND
8
0
0
POLYLINE
8
0
66
1
40
0.100000
41
0.100000
0
VERTEX
8
0
10
1.598000
20
1.108000
0
VERTEX
8
0
10
2.038000
20
1.108000
0
VERTEX
8
0
10
2.139000
20
1.209000
0
VERTEX
8
0
10
2.497000
20
1.209000
0
VERTEX
8
0
10
2.681000
20
1.025000
0
VERTEX
8
0
10
2.681000
20
0.238000
0
VERTEX
8
0
10
2.531000
20
0.088000
0
SEQEND
8
0
0
POLYLINE
8
0
66
1
40
0.025000
41
0.025000
0
VERTEX
8
0
10
0.420000
20
-0.015000
0
VERTEX
8
0
10
0.314000
20
0.089000
0
VERTEX
8
0
10
-0.394000
20
0.089000
0
VERTEX
8
0
10
-0.423000
20
0.089000
0
VERTEX
8
0
10
-0.476000
20
0.142000
0
VERTEX
8
0
10
-0.476000
20
0.317000
0
VERTEX
8
0
10
-0.529000
20
0.370000
0
SEQEND
8
0
0
POLYLINE
8
0
66
1
40
0.050000
41
0.050000
0
VERTEX
8
0
10
1.328000
20
-1.260000
0
VERTEX
8
0
10
1.328000
20
-1.042000
0
VERTEX
8
0
10
1.336000
20
-1.033000
0
VERTEX
8
0
10
1.336000
20
-0.701000
0
VERTEX
8
0
10
1.348000
20
-0.689000
0
SEQEND
8
0
0
POLYLINE
8
0
66
1
40
0.040000
41
0.040000
0
VERTEX
8
0
10
0.948000
20
-0.689000
0
VERTEX
8
0
10
1.239000
20
-0.398000
0
VERTEX
8
0
10
1.239000
20
0.357000
0
VERTEX
8
0
10
1.701000
20
0.819000
0
VERTEX
8
0
10
1.701000
20
0.994000
0
SEQEND
8
0
0
POLYLINE
8
0
66
1
40
0.100000
41
0.100000
0
VERTEX
8
0
10
2.261000
20
-1.198000
0
VERTEX
8
0
10
2.138000
20
-1.198000
0
VERTEX
8
0
10
2.085000
20
-1.145000
0
VERTEX
8
0
10
2.085000
20
-0.363000
0
VERTEX
8
0
10
1.662000
20
0.059000
0
VERTEX
8
0
10
1.662000
20
0.651000
0
VERTEX
8
0
10
1.859000
20
0.848000
0
VERTEX
8
0
10
1.988000
20
0.848000
0
VERTEX
8
0
10
2.073000
20
0.763000
0
VERTEX
8
0
10
2.247000
20
0.763000
0
VERTEX
8
0
10
2.253000
20
0.756000
0
SEQEND
8
0
0
INSERT
8
0
2
EPAD
10
-0.052000
20
-0.012000
41
0.070000
42
0.070000
0
CIRCLE
8
0
10
-0.052000
20
-0.012000
40
0.025000
0
INSERT
8
0
2
EPAD
10
-2.154000
20
-0.153000
41
0.070000
42
0.070000
0
CIRCLE
8
0
10
-2.154000
20
-0.153000
40
0.025000
0
INSERT
8
0
2
EPAD
10
-1.166000
20
0.914000
41
0.070000
42
0.070000
0
CIRCLE
8
0
10
-1.166000
20
0.914000
40
0.025000
0
INSERT
8
0
2
EPAD
10
-1.275000
20
0.923000
41
0.070000
42
0.070000
0
CIRCLE
8
0
10
-1.275000
20
0.923000
40
0.025000
0
INSERT
8
0
2
EPAD
10
-1.674000
20
1.089000
41
0.070000
42
0.070000
0
CIRCLE
8
0
10
-1.674000
20
1.089000
40
0.025000
0
INSERT
8
0
2
EPAD
10
-1.369000
20
0.916000
41
0.070000
42
0.070000
0
CIRCLE
8
0
10
-1.369000
20
0.916000
40
0.025000
0
INSERT
8
0
2
EPAD
10
-1.891000
20
1.089000
41
0.070000
42
0.070000
0
CIRCLE
8
0
10
-1.891000
20
1.089000
40
0.025000
0
INSERT
8
0
2
EPAD
10
-1.759000
20
-0.023000
41
0.070000
42
0.070000
0
CIRCLE
8
0
10
-1.759000
20
-0.023000
40
0.025000
0
INSERT
8
0
2
EPAD
10
0.433000
20
1.007000
41
0.070000
42
0.070000
0
CIRCLE
8
0
10
0.433000
20
1.007000
40
0.025000
0
INSERT
8
0
2
EPAD
10
-0.386000
20
0.190000
41
0.070000
42
0.070000
0
CIRCLE
8
0
10
-0.386000
20
0.190000
40
0.025000
0
INSERT
8
0
2
EPAD
10
-1.027000
20
-0.621000
41
0.070000
42
0.070000
0
CIRCLE
8
0
10
-1.027000
20
-0.621000
40
0.025000
0
INSERT
8
0
2
EPAD
10
0.555000
20
0.080000
41
0.070000
42
0.070000
0
CIRCLE
8
0
10
0.555000
20
0.080000
40
0.025000
0
INSERT
8
0
2
EPAD
10
1.598000
20
1.108000
41
0.080000
42
0.080000
0
CIRCLE
8
0
10
1.598000
20
1.108000
40
0.025000
0
INSERT
8
0
2
EPAD
10
0.420000
20
-0.015000
41
0.070000
42
0.070000
0
CIRCLE
8
0
10
0.420000
20
-0.015000
40
0.025000
0
INSERT
8
0
2
EPAD
10
-0.529000
20
0.370000
41
0.070000
42
0.070000
0
CIRCLE
8
0
10
-0.529000
20
0.370000
40
0.025000
0
INSERT
8
0
2
EPAD
10
1.328000
20
-1.260000
41
0.070000
42
0.070000
0
CIRCLE
8
0
10
1.328000
20
-1.260000
40
0.025000
0
INSERT
8
0
2
EPAD
10
1.701000
20
0.994000
41
0.070000
42
0.070000
0
CIRCLE
8
0
10
1.701000
20
0.994000
40
0.025000
0
INSERT
8
0
2
EPAD
10
-2.723000
20
-1.383000
41
0.250000
42
0.250000
0
CIRCLE
8
0
10
-2.723000
20
-1.383000
40
0.030000
0
INSERT
8
0
2
EPAD
10
1.558000
20
-1.397000
41
0.250000
42
0.250000
0
CIRCLE
8
0
10
1.558000
20
-1.397000
40
0.030000
0
INSERT
8
0
2
EPAD
10
0.600000
20
1.393000
41
0.250000
42
0.250000
0
CIRCLE
8
0
10
0.600000
20
1.393000
40
0.030000
0
INSERT
8
0
2
EPAD
10
-2.035000
20
-1.213000
41
0.100000
42
0.100000
0
CIRCLE
8
0
10
-2.035000
20
-1.213000
40
0.025000
0
INSERT
8
0
2
EPAD
10
-1.835000
20
-1.413000
41
0.100000
42
0.100000
0
CIRCLE
8
0
10
-1.835000
20
-1.413000
40
0.025000
0
INSERT
8
0
2
EPAD
10
-2.035000
20
-1.413000
41
0.100000
42
0.100000
0
CIRCLE
8
0
10
-2.035000
20
-1.413000
40
0.025000
0
INSERT
8
0
2
EPAD
10
-1.835000
20
-1.213000
41
0.100000
42
0.100000
0
CIRCLE
8
0
10
-1.835000
20
-1.213000
40
0.025000
0
INSERT
8
0
2
EPAD
10
-0.366000
20
-0.800000
41
0.080000
42
0.080000
0
CIRCLE
8
0
10
-0.366000
20
-0.800000
40
0.010000
0
INSERT
8
0
2
EPAD
10
-0.063000
20
-0.800000
41
0.080000
42
0.080000
0
CIRCLE
8
0
10
-0.063000
20
-0.800000
40
0.010000
0
INSERT
8
0
2
RPAD
10
-1.932000
20
-0.135000
41
0.050000
42
0.050000
50
0.000000
0
CIRCLE
8
0
10
-1.932000
20
-0.135000
40
0.030000
0
INSERT
8
0
2
EPAD
10
-1.832000
20
-0.135000
41
0.050000
42
0.050000
0
CIRCLE
8
0
10
-1.832000
20
-0.135000
40
0.030000
0
INSERT
8
0
2
EPAD
10
-1.732000
20
-0.135000
41
0.050000
42
0.050000
0
CIRCLE
8
0
10
-1.732000
20
-0.135000
40
0.030000
0
INSERT
8
0
2
EPAD
10
-1.632000
20
-0.135000
41
0.050000
42
0.050000
0
CIRCLE
8
0
10
-1.632000
20
-0.135000
40
0.030000
0
INSERT
8
0
2
EPAD
10
-1.532000
20
-0.135000
41
0.050000
42
0.050000
0
CIRCLE
8
0
10
-1.532000
20
-0.135000
40
0.030000
0
INSERT
8
0
2
EPAD
10
-1.432000
20
-0.135000
41
0.050000
42
0.050000
0
CIRCLE
8
0
10
-1.432000
20
-0.135000
40
0.030000
0
INSERT
8
0
2
EPAD
10
-1.332000
20
-0.135000
41
0.050000
42
0.050000
0
CIRCLE
8
0
10
-1.332000
20
-0.135000
40
0.030000
0
INSERT
8
0
2
EPAD
10
-1.232000
20
-0.135000
41
0.050000
42
0.050000
0
CIRCLE
8
0
10
-1.232000
20
-0.135000
40
0.030000
0
INSERT
8
0
2
EPAD
10
-1.132000
20
-0.135000
41
0.050000
42
0.050000
0
CIRCLE
8
0
10
-1.132000
20
-0.135000
40
0.030000
0
INSERT
8
0
2
EPAD
10
-1.032000
20
-0.135000
41
0.050000
42
0.050000
0
CIRCLE
8
0
10
-1.032000
20
-0.135000
40
0.030000
0
INSERT
8
0
2
EPAD
10
-0.932000
20
-0.135000
41
0.050000
42
0.050000
0
CIRCLE
8
0
10
-0.932000
20
-0.135000
40
0.030000
0
INSERT
8
0
2
EPAD
10
-0.832000
20
-0.135000
41
0.050000
42
0.050000
0
CIRCLE
8
0
10
-0.832000
20
-0.135000
40
0.030000
0
INSERT
8
0
2
EPAD
10
-0.732000
20
-0.135000
41
0.050000
42
0.050000
0
CIRCLE
8
0
10
-0.732000
20
-0.135000
40
0.030000
0
INSERT
8
0
2
EPAD
10
-0.632000
20
-0.135000
41
0.050000
42
0.050000
0
CIRCLE
8
0
10
-0.632000
20
-0.135000
40
0.030000
0
INSERT
8
0
2
EPAD
10
-0.532000
20
-0.135000
41
0.050000
42
0.050000
0
CIRCLE
8
0
10
-0.532000
20
-0.135000
40
0.030000
0
INSERT
8
0
2
EPAD
10
-0.432000
20
-0.135000
41
0.050000
42
0.050000
0
CIRCLE
8
0
10
-0.432000
20
-0.135000
40
0.030000
0
INSERT
8
0
2
EPAD
10
-0.332000
20
-0.135000
41
0.050000
42
0.050000
0
CIRCLE
8
0
10
-0.332000
20
-0.135000
40
0.030000
0
INSERT
8
0
2
EPAD
10
-0.232000
20
-0.135000
41
0.050000
42
0.050000
0
CIRCLE
8
0
10
-0.232000
20
-0.135000
40
0.030000
0
INSERT
8
0
2
EPAD
10
-0.132000
20
-0.135000
41
0.050000
42
0.050000
0
CIRCLE
8
0
10
-0.132000
20
-0.135000
40
0.030000
0
INSERT
8
0
2
EPAD
10
-0.032000
20
-0.135000
41
0.050000
42
0.050000
0
CIRCLE
8
0
10
-0.032000
20
-0.135000
40
0.030000
0
INSERT
8
0
2
EPAD
10
-0.032000
20
0.464000
41
0.050000
42
0.050000
0
CIRCLE
8
0
10
-0.032000
20
0.464000
40
0.030000
0
INSERT
8
0
2
EPAD
10
-0.132000
20
0.464000
41
0.050000
42
0.050000
0
CIRCLE
8
0
10
-0.132000
20
0.464000
40
0.030000
0
INSERT
8
0
2
EPAD
10
-0.232000
20
0.464000
41
0.050000
42
0.050000
0
CIRCLE
8
0
10
-0.232000
20
0.464000
40
0.030000
0
INSERT
8
0
2
EPAD
10
-0.332000
20
0.464000
41
0.050000
42
0.050000
0
CIRCLE
8
0
10
-0.332000
20
0.464000
40
0.030000
0
INSERT
8
0
2
EPAD
10
-0.432000
20
0.464000
41
0.050000
42
0.050000
0
CIRCLE
8
0
10
-0.432000
20
0.464000
40
0.030000
0
INSERT
8
0
2
EPAD
10
-0.532000
20
0.464000
41
0.050000
42
0.050000
0
CIRCLE
8
0
10
-0.532000
20
0.464000
40
0.030000
0
INSERT
8
0
2
EPAD
10
-0.632000
20
0.464000
41
0.050000
42
0.050000
0
CIRCLE
8
0
10
-0.632000
20
0.464000
40
0.030000
0
INSERT
8
0
2
EPAD
10
-0.732000
20
0.464000
41
0.050000
42
0.050000
0
CIRCLE
8
0
10
-0.732000
20
0.464000
40
0.030000
0
INSERT
8
0
2
EPAD
10
-0.832000
20
0.464000
41
0.050000
42
0.050000
0
CIRCLE
8
0
10
-0.832000
20
0.464000
40
0.030000
0
INSERT
8
0
2
EPAD
10
-0.932000
20
0.464000
41
0.050000
42
0.050000
0
CIRCLE
8
0
10
-0.932000
20
0.464000
40
0.030000
0
INSERT
8
0
2
EPAD
10
-1.032000
20
0.464000
41
0.050000
42
0.050000
0
CIRCLE
8
0
10
-1.032000
20
0.464000
40
0.030000
0
INSERT
8
0
2
EPAD
10
-1.132000
20
0.464000
41
0.050000
42
0.050000
0
CIRCLE
8
0
10
-1.132000
20
0.464000
40
0.030000
0
INSERT
8
0
2
EPAD
10
-1.232000
20
0.464000
41
0.050000
42
0.050000
0
CIRCLE
8
0
10
-1.232000
20
0.464000
40
0.030000
0
INSERT
8
0
2
EPAD
10
-1.332000
20
0.464000
41
0.050000
42
0.050000
0
CIRCLE
8
0
10
-1.332000
20
0.464000
40
0.030000
0
INSERT
8
0
2
EPAD
10
-1.432000
20
0.464000
41
0.050000
42
0.050000
0
CIRCLE
8
0
10
-1.432000
20
0.464000
40
0.030000
0
INSERT
8
0
2
EPAD
10
-1.532000
20
0.464000
41
0.050000
42
0.050000
0
CIRCLE
8
0
10
-1.532000
20
0.464000
40
0.030000
0
INSERT
8
0
2
EPAD
10
-1.632000
20
0.464000
41
0.050000
42
0.050000
0
CIRCLE
8
0
10
-1.632000
20
0.464000
40
0.030000
0
INSERT
8
0
2
EPAD
10
-1.732000
20
0.464000
41
0.050000
42
0.050000
0
CIRCLE
8
0
10
-1.732000
20
0.464000
40
0.030000
0
INSERT
8
0
2
EPAD
10
-1.832000
20
0.464000
41
0.050000
42
0.050000
0
CIRCLE
8
0
10
-1.832000
20
0.464000
40
0.030000
0
INSERT
8
0
2
EPAD
10
-1.932000
20
0.464000
41
0.050000
42
0.050000
0
CIRCLE
8
0
10
-1.932000
20
0.464000
40
0.030000
0
INSERT
8
0
2
EPAD
10
-2.285000
20
-1.307000
41
0.120000
42
0.120000
0
CIRCLE
8
0
10
-2.285000
20
-1.307000
40
0.030000
0
INSERT
8
0
2
EPAD
10
-2.485000
20
-1.307000
41
0.120000
42
0.120000
0
CIRCLE
8
0
10
-2.485000
20
-1.307000
40
0.030000
0
INSERT
8
0
2
EPAD
10
-2.607000
20
-0.884000
41
0.100000
42
0.100000
0
CIRCLE
8
0
10
-2.607000
20
-0.884000
40
0.025000
0
INSERT
8
0
2
EPAD
10
-2.407000
20
-0.884000
41
0.100000
42
0.100000
0
CIRCLE
8
0
10
-2.407000
20
-0.884000
40
0.025000
0
INSERT
8
0
2
EPAD
10
-2.770000
20
-1.189000
41
0.070000
42
0.070000
0
CIRCLE
8
0
10
-2.770000
20
-1.189000
40
0.025000
0
INSERT
8
0
2
EPAD
10
-2.770000
20
-0.789000
41
0.070000
42
0.070000
0
CIRCLE
8
0
10
-2.770000
20
-0.789000
40
0.025000
0
INSERT
8
0
2
RPAD
10
-1.104000
20
-1.422000
41
0.080000
42
0.080000
50
0.000000
0
CIRCLE
8
0
10
-1.104000
20
-1.422000
40
0.025000
0
INSERT
8
0
2
RPAD
10
-1.004000
20
-1.422000
41
0.080000
42
0.080000
50
0.000000
0
CIRCLE
8
0
10
-1.004000
20
-1.422000
40
0.025000
0
INSERT
8
0
2
RPAD
10
-0.904000
20
-1.422000
41
0.080000
42
0.080000
50
0.000000
0
CIRCLE
8
0
10
-0.904000
20
-1.422000
40
0.025000
0
INSERT
8
0
2
EPAD
10
-0.508000
20
-1.285000
41
0.150000
42
0.150000
0
CIRCLE
8
0
10
-0.508000
20
-1.285000
40
0.030000
0
INSERT
8
0
2
EPAD
10
-1.492000
20
-1.285000
41
0.150000
42
0.150000
0
CIRCLE
8
0
10
-1.492000
20
-1.285000
40
0.030000
0
INSERT
8
0
2
EPAD
10
-0.564000
20
-0.966000
41
0.090000
42
0.090000
0
CIRCLE
8
0
10
-0.564000
20
-0.966000
40
0.025000
0
INSERT
8
0
2
EPAD
10
-0.964000
20
-0.966000
41
0.090000
42
0.090000
0
CIRCLE
8
0
10
-0.964000
20
-0.966000
40
0.025000
0
INSERT
8
0
2
EPAD
10
-0.223000
20
-1.116000
41
0.070000
42
0.070000
0
CIRCLE
8
0
10
-0.223000
20
-1.116000
40
0.025000
0
INSERT
8
0
2
EPAD
10
-0.223000
20
-1.316000
41
0.070000
42
0.070000
0
CIRCLE
8
0
10
-0.223000
20
-1.316000
40
0.025000
0
INSERT
8
0
2
EPAD
10
-1.948000
20
-0.933000
41
0.080000
42
0.080000
0
CIRCLE
8
0
10
-1.948000
20
-0.933000
40
0.025000
0
INSERT
8
0
2
EPAD
10
-1.848000
20
-0.933000
41
0.080000
42
0.080000
0
CIRCLE
8
0
10
-1.848000
20
-0.933000
40
0.025000
0
INSERT
8
0
2
EPAD
10
-2.194000
20
-1.006000
41
0.070000
42
0.070000
0
CIRCLE
8
0
10
-2.194000
20
-1.006000
40
0.025000
0
INSERT
8
0
2
EPAD
10
-2.194000
20
-0.606000
41
0.070000
42
0.070000
0
CIRCLE
8
0
10
-2.194000
20
-0.606000
40
0.025000
0
INSERT
8
0
2
RPAD
10
-1.713000
20
-0.925000
41
0.080000
42
0.080000
50
0.000000
0
CIRCLE
8
0
10
-1.713000
20
-0.925000
40
0.025000
0
INSERT
8
0
2
RPAD
10
-1.613000
20
-0.925000
41
0.080000
42
0.080000
50
0.000000
0
CIRCLE
8
0
10
-1.613000
20
-0.925000
40
0.025000
0
INSERT
8
0
2
EPAD
10
-1.969000
20
-0.255000
41
0.070000
42
0.070000
0
CIRCLE
8
0
10
-1.969000
20
-0.255000
40
0.025000
0
INSERT
8
0
2
EPAD
10
-1.569000
20
-0.255000
41
0.070000
42
0.070000
0
CIRCLE
8
0
10
-1.569000
20
-0.255000
40
0.025000
0
INSERT
8
0
2
EPAD
10
-1.399000
20
-0.383000
41
0.080000
42
0.080000
0
CIRCLE
8
0
10
-1.399000
20
-0.383000
40
0.010000
0
INSERT
8
0
2
EPAD
10
-1.299000
20
-0.383000
41
0.080000
42
0.080000
0
CIRCLE
8
0
10
-1.299000
20
-0.383000
40
0.010000
0
INSERT
8
0
2
EPAD
10
-1.199000
20
-0.383000
41
0.080000
42
0.080000
0
CIRCLE
8
0
10
-1.199000
20
-0.383000
40
0.010000
0
INSERT
8
0
2
EPAD
10
-1.099000
20
-0.383000
41
0.080000
42
0.080000
0
CIRCLE
8
0
10
-1.099000
20
-0.383000
40
0.010000
0
INSERT
8
0
2
EPAD
10
-0.999000
20
-0.383000
41
0.080000
42
0.080000
0
CIRCLE
8
0
10
-0.999000
20
-0.383000
40
0.010000
0
INSERT
8
0
2
EPAD
10
-0.899000
20
-0.383000
41
0.080000
42
0.080000
0
CIRCLE
8
0
10
-0.899000
20
-0.383000
40
0.010000
0
INSERT
8
0
2
EPAD
10
-0.799000
20
-0.383000
41
0.080000
42
0.080000
0
CIRCLE
8
0
10
-0.799000
20
-0.383000
40
0.010000
0
INSERT
8
0
2
EPAD
10
-0.699000
20
-0.383000
41
0.080000
42
0.080000
0
CIRCLE
8
0
10
-0.699000
20
-0.383000
40
0.010000
0
INSERT
8
0
2
EPAD
10
-1.462000
20
-0.565000
41
0.070000
42
0.070000
0
CIRCLE
8
0
10
-1.462000
20
-0.565000
40
0.025000
0
INSERT
8
0
2
EPAD
10
-1.462000
20
-0.965000
41
0.070000
42
0.070000
0
CIRCLE
8
0
10
-1.462000
20
-0.965000
40
0.025000
0
INSERT
8
0
2
EPAD
10
-1.356000
20
-0.565000
41
0.070000
42
0.070000
0
CIRCLE
8
0
10
-1.356000
20
-0.565000
40
0.025000
0
INSERT
8
0
2
EPAD
10
-1.356000
20
-0.965000
41
0.070000
42
0.070000
0
CIRCLE
8
0
10
-1.356000
20
-0.965000
40
0.025000
0
INSERT
8
0
2
EPAD
10
-1.239000
20
-0.565000
41
0.070000
42
0.070000
0
CIRCLE
8
0
10
-1.239000
20
-0.565000
40
0.025000
0
INSERT
8
0
2
EPAD
10
-1.239000
20
-0.965000
41
0.070000
42
0.070000
0
CIRCLE
8
0
10
-1.239000
20
-0.965000
40
0.025000
0
INSERT
8
0
2
EPAD
10
-1.119000
20
-0.565000
41
0.070000
42
0.070000
0
CIRCLE
8
0
10
-1.119000
20
-0.565000
40
0.025000
0
INSERT
8
0
2
EPAD
10
-1.119000
20
-0.965000
41
0.070000
42
0.070000
0
CIRCLE
8
0
10
-1.119000
20
-0.965000
40
0.025000
0
INSERT
8
0
2
EPAD
10
0.532000
20
0.771000
41
0.080000
42
0.080000
0
CIRCLE
8
0
10
0.532000
20
0.771000
40
0.010000
0
INSERT
8
0
2
EPAD
10
0.432000
20
0.771000
41
0.080000
42
0.080000
0
CIRCLE
8
0
10
0.432000
20
0.771000
40
0.010000
0
INSERT
8
0
2
EPAD
10
0.332000
20
0.771000
41
0.080000
42
0.080000
0
CIRCLE
8
0
10
0.332000
20
0.771000
40
0.010000
0
INSERT
8
0
2
EPAD
10
0.232000
20
0.771000
41
0.080000
42
0.080000
0
CIRCLE
8
0
10
0.232000
20
0.771000
40
0.010000
0
INSERT
8
0
2
EPAD
10
0.132000
20
0.771000
41
0.080000
42
0.080000
0
CIRCLE
8
0
10
0.132000
20
0.771000
40
0.010000
0
INSERT
8
0
2
EPAD
10
0.032000
20
0.771000
41
0.080000
42
0.080000
0
CIRCLE
8
0
10
0.032000
20
0.771000
40
0.010000
0
INSERT
8
0
2
EPAD
10
-0.067000
20
0.771000
41
0.080000
42
0.080000
0
CIRCLE
8
0
10
-0.067000
20
0.771000
40
0.010000
0
INSERT
8
0
2
EPAD
10
-0.167000
20
0.771000
41
0.080000
42
0.080000
0
CIRCLE
8
0
10
-0.167000
20
0.771000
40
0.010000
0
INSERT
8
0
2
EPAD
10
-0.267000
20
0.771000
41
0.080000
42
0.080000
0
CIRCLE
8
0
10
-0.267000
20
0.771000
40
0.010000
0
INSERT
8
0
2
EPAD
10
-0.367000
20
0.771000
41
0.080000
42
0.080000
0
CIRCLE
8
0
10
-0.367000
20
0.771000
40
0.010000
0
INSERT
8
0
2
EPAD
10
-0.467000
20
0.771000
41
0.080000
42
0.080000
0
CIRCLE
8
0
10
-0.467000
20
0.771000
40
0.010000
0
INSERT
8
0
2
EPAD
10
-0.567000
20
0.771000
41
0.080000
42
0.080000
0
CIRCLE
8
0
10
-0.567000
20
0.771000
40
0.010000
0
INSERT
8
0
2
EPAD
10
-0.667000
20
0.771000
41
0.080000
42
0.080000
0
CIRCLE
8
0
10
-0.667000
20
0.771000
40
0.010000
0
INSERT
8
0
2
EPAD
10
-0.767000
20
0.771000
41
0.080000
42
0.080000
0
CIRCLE
8
0
10
-0.767000
20
0.771000
40
0.010000
0
INSERT
8
0
2
EPAD
10
-0.867000
20
0.771000
41
0.080000
42
0.080000
0
CIRCLE
8
0
10
-0.867000
20
0.771000
40
0.010000
0
INSERT
8
0
2
EPAD
10
-0.967000
20
0.771000
41
0.080000
42
0.080000
0
CIRCLE
8
0
10
-0.967000
20
0.771000
40
0.010000
0
INSERT
8
0
2
EPAD
10
-1.067000
20
0.771000
41
0.080000
42
0.080000
0
CIRCLE
8
0
10
-1.067000
20
0.771000
40
0.010000
0
INSERT
8
0
2
EPAD
10
-1.167000
20
0.771000
41
0.080000
42
0.080000
0
CIRCLE
8
0
10
-1.167000
20
0.771000
40
0.010000
0
INSERT
8
0
2
EPAD
10
-1.267000
20
0.771000
41
0.080000
42
0.080000
0
CIRCLE
8
0
10
-1.267000
20
0.771000
40
0.010000
0
INSERT
8
0
2
EPAD
10
-1.367000
20
0.771000
41
0.080000
42
0.080000
0
CIRCLE
8
0
10
-1.367000
20
0.771000
40
0.010000
0
INSERT
8
0
2
EPAD
10
0.364000
20
0.413000
41
0.080000
42
0.080000
0
CIRCLE
8
0
10
0.364000
20
0.413000
40
0.025000
0
INSERT
8
0
2
EPAD
10
0.164000
20
0.413000
41
0.080000
42
0.080000
0
CIRCLE
8
0
10
0.164000
20
0.413000
40
0.025000
0
INSERT
8
0
2
EPAD
10
0.264000
20
0.192000
41
0.080000
42
0.080000
0
CIRCLE
8
0
10
0.264000
20
0.192000
40
0.025000
0
INSERT
8
0
2
EPAD
10
-2.673000
20
-0.158000
41
0.120000
42
0.120000
0
CIRCLE
8
0
10
-2.673000
20
-0.158000
40
0.030000
0
INSERT
8
0
2
EPAD
10
-2.673000
20
-0.358000
41
0.120000
42
0.120000
0
CIRCLE
8
0
10
-2.673000
20
-0.358000
40
0.030000
0
INSERT
8
0
2
EPAD
10
-2.673000
20
-0.558000
41
0.120000
42
0.120000
0
CIRCLE
8
0
10
-2.673000
20
-0.558000
40
0.030000
0
INSERT
8
0
2
RPAD
10
-2.060000
20
-0.438000
41
0.050000
42
0.050000
50
90.000000
0
CIRCLE
8
0
10
-2.060000
20
-0.438000
40
0.030000
0
INSERT
8
0
2
EPAD
10
-2.060000
20
-0.338000
41
0.050000
42
0.050000
0
CIRCLE
8
0
10
-2.060000
20
-0.338000
40
0.030000
0
INSERT
8
0
2
EPAD
10
-2.060000
20
-0.238000
41
0.050000
42
0.050000
0
CIRCLE
8
0
10
-2.060000
20
-0.238000
40
0.030000
0
INSERT
8
0
2
EPAD
10
-2.060000
20
-0.138000
41
0.050000
42
0.050000
0
CIRCLE
8
0
10
-2.060000
20
-0.138000
40
0.030000
0
INSERT
8
0
2
EPAD
10
-2.060000
20
-0.038000
41
0.050000
42
0.050000
0
CIRCLE
8
0
10
-2.060000
20
-0.038000
40
0.030000
0
INSERT
8
0
2
EPAD
10
-2.060000
20
0.061000
41
0.050000
42
0.050000
0
CIRCLE
8
0
10
-2.060000
20
0.061000
40
0.030000
0
INSERT
8
0
2
EPAD
10
-2.060000
20
0.161000
41
0.050000
42
0.050000
0
CIRCLE
8
0
10
-2.060000
20
0.161000
40
0.030000
0
INSERT
8
0
2
EPAD
10
-2.360000
20
0.161000
41
0.050000
42
0.050000
0
CIRCLE
8
0
10
-2.360000
20
0.161000
40
0.030000
0
INSERT
8
0
2
EPAD
10
-2.360000
20
0.061000
41
0.050000
42
0.050000
0
CIRCLE
8
0
10
-2.360000
20
0.061000
40
0.030000
0
INSERT
8
0
2
EPAD
10
-2.360000
20
-0.038000
41
0.050000
42
0.050000
0
CIRCLE
8
0
10
-2.360000
20
-0.038000
40
0.030000
0
INSERT
8
0
2
EPAD
10
-2.360000
20
-0.138000
41
0.050000
42
0.050000
0
CIRCLE
8
0
10
-2.360000
20
-0.138000
40
0.030000
0
INSERT
8
0
2
EPAD
10
-2.360000
20
-0.238000
41
0.050000
42
0.050000
0
CIRCLE
8
0
10
-2.360000
20
-0.238000
40
0.030000
0
INSERT
8
0
2
EPAD
10
-2.360000
20
-0.338000
41
0.050000
42
0.050000
0
CIRCLE
8
0
10
-2.360000
20
-0.338000
40
0.030000
0
INSERT
8
0
2
EPAD
10
-2.360000
20
-0.438000
41
0.050000
42
0.050000
0
CIRCLE
8
0
10
-2.360000
20
-0.438000
40
0.030000
0
INSERT
8
0
2
EPAD
10
-1.589000
20
-0.674000
41
0.070000
42
0.070000
0
CIRCLE
8
0
10
-1.589000
20
-0.674000
40
0.025000
0
INSERT
8
0
2
EPAD
10
-1.989000
20
-0.674000
41
0.070000
42
0.070000
0
CIRCLE
8
0
10
-1.989000
20
-0.674000
40
0.025000
0
INSERT
8
0
2
RPAD
10
-2.774000
20
0.042000
41
0.080000
42
0.080000
50
0.000000
0
CIRCLE
8
0
10
-2.774000
20
0.042000
40
0.025000
0
INSERT
8
0
2
RPAD
10
-2.674000
20
0.042000
41
0.080000
42
0.080000
50
0.000000
0
CIRCLE
8
0
10
-2.674000
20
0.042000
40
0.025000
0
INSERT
8
0
2
RPAD
10
-2.574000
20
0.042000
41
0.080000
42
0.080000
50
0.000000
0
CIRCLE
8
0
10
-2.574000
20
0.042000
40
0.025000
0
INSERT
8
0
2
EPAD
10
-2.812000
20
0.248000
41
0.070000
42
0.070000
0
CIRCLE
8
0
10
-2.812000
20
0.248000
40
0.025000
0
INSERT
8
0
2
EPAD
10
-2.412000
20
0.248000
41
0.070000
42
0.070000
0
CIRCLE
8
0
10
-2.412000
20
0.248000
40
0.025000
0
INSERT
8
0
2
EPAD
10
-2.811000
20
0.367000
41
0.070000
42
0.070000
0
CIRCLE
8
0
10
-2.811000
20
0.367000
40
0.025000
0
INSERT
8
0
2
EPAD
10
-2.411000
20
0.367000
41
0.070000
42
0.070000
0
CIRCLE
8
0
10
-2.411000
20
0.367000
40
0.025000
0
INSERT
8
0
2
EPAD
10
-2.263000
20
0.474000
41
0.080000
42
0.080000
0
CIRCLE
8
0
10
-2.263000
20
0.474000
40
0.025000
0
INSERT
8
0
2
EPAD
10
-2.263000
20
0.374000
41
0.080000
42
0.080000
0
CIRCLE
8
0
10
-2.263000
20
0.374000
40
0.025000
0
INSERT
8
0
2
EPAD
10
-2.664000
20
0.558000
41
0.120000
42
0.120000
0
CIRCLE
8
0
10
-2.664000
20
0.558000
40
0.030000
0
INSERT
8
0
2
EPAD
10
-2.664000
20
0.758000
41
0.120000
42
0.120000
0
CIRCLE
8
0
10
-2.664000
20
0.758000
40
0.030000
0
INSERT
8
0
2
EPAD
10
-0.534000
20
-0.380000
41
0.070000
42
0.070000
0
CIRCLE
8
0
10
-0.534000
20
-0.380000
40
0.025000
0
INSERT
8
0
2
EPAD
10
-0.534000
20
-0.780000
41
0.070000
42
0.070000
0
CIRCLE
8
0
10
-0.534000
20
-0.780000
40
0.025000
0
INSERT
8
0
2
EPAD
10
-0.751000
20
-0.768000
41
0.060000
42
0.060000
0
CIRCLE
8
0
10
-0.751000
20
-0.768000
40
0.025000
0
INSERT
8
0
2
EPAD
10
-0.751000
20
-0.688000
41
0.060000
42
0.060000
0
CIRCLE
8
0
10
-0.751000
20
-0.688000
40
0.025000
0
INSERT
8
0
2
EPAD
10
-0.751000
20
-0.608000
41
0.060000
42
0.060000
0
CIRCLE
8
0
10
-0.751000
20
-0.608000
40
0.025000
0
INSERT
8
0
2
EPAD
10
-0.755000
20
0.018000
41
0.080000
42
0.080000
0
CIRCLE
8
0
10
-0.755000
20
0.018000
40
0.025000
0
INSERT
8
0
2
EPAD
10
-0.555000
20
0.018000
41
0.080000
42
0.080000
0
CIRCLE
8
0
10
-0.555000
20
0.018000
40
0.025000
0
INSERT
8
0
2
EPAD
10
-0.778000
20
0.185000
41
0.070000
42
0.070000
0
CIRCLE
8
0
10
-0.778000
20
0.185000
40
0.025000
0
INSERT
8
0
2
EPAD
10
-0.778000
20
0.285000
41
0.070000
42
0.070000
0
CIRCLE
8
0
10
-0.778000
20
0.285000
40
0.025000
0
INSERT
8
0
2
EPAD
10
-0.559000
20
0.181000
41
0.070000
42
0.070000
0
CIRCLE
8
0
10
-0.559000
20
0.181000
40
0.025000
0
INSERT
8
0
2
EPAD
10
-0.559000
20
0.281000
41
0.070000
42
0.070000
0
CIRCLE
8
0
10
-0.559000
20
0.281000
40
0.025000
0
INSERT
8
0
2
EPAD
10
-0.386000
20
0.005000
41
0.070000
42
0.070000
0
CIRCLE
8
0
10
-0.386000
20
0.005000
40
0.025000
0
INSERT
8
0
2
EPAD
10
-0.186000
20
0.005000
41
0.070000
42
0.070000
0
CIRCLE
8
0
10
-0.186000
20
0.005000
40
0.025000
0
INSERT
8
0
2
EPAD
10
-0.437000
20
-0.450000
41
0.070000
42
0.070000
0
CIRCLE
8
0
10
-0.437000
20
-0.450000
40
0.025000
0
INSERT
8
0
2
EPAD
10
-0.037000
20
-0.450000
41
0.070000
42
0.070000
0
CIRCLE
8
0
10
-0.037000
20
-0.450000
40
0.025000
0
INSERT
8
0
2
EPAD
10
0.160000
20
-1.312000
41
0.120000
42
0.120000
0
CIRCLE
8
0
10
0.160000
20
-1.312000
40
0.030000
0
INSERT
8
0
2
EPAD
10
-0.039000
20
-1.312000
41
0.120000
42
0.120000
0
CIRCLE
8
0
10
-0.039000
20
-1.312000
40
0.030000
0
INSERT
8
0
2
EPAD
10
-2.274000
20
0.861000
41
0.120000
42
0.120000
0
CIRCLE
8
0
10
-2.274000
20
0.861000
40
0.030000
0
INSERT
8
0
2
EPAD
10
-2.074000
20
0.861000
41
0.120000
42
0.120000
0
CIRCLE
8
0
10
-2.074000
20
0.861000
40
0.030000
0
INSERT
8
0
2
EPAD
10
-1.874000
20
0.861000
41
0.120000
42
0.120000
0
CIRCLE
8
0
10
-1.874000
20
0.861000
40
0.030000
0
INSERT
8
0
2
EPAD
10
-1.674000
20
0.861000
41
0.120000
42
0.120000
0
CIRCLE
8
0
10
-1.674000
20
0.861000
40
0.030000
0
INSERT
8
0
2
EPAD
10
-1.968000
20
-0.372000
41
0.070000
42
0.070000
0
CIRCLE
8
0
10
-1.968000
20
-0.372000
40
0.025000
0
INSERT
8
0
2
EPAD
10
-1.568000
20
-0.372000
41
0.070000
42
0.070000
0
CIRCLE
8
0
10
-1.568000
20
-0.372000
40
0.025000
0
INSERT
8
0
2
EPAD
10
-1.968000
20
-0.521000
41
0.070000
42
0.070000
0
CIRCLE
8
0
10
-1.968000
20
-0.521000
40
0.025000
0
INSERT
8
0
2
EPAD
10
-1.568000
20
-0.521000
41
0.070000
42
0.070000
0
CIRCLE
8
0
10
-1.568000
20
-0.521000
40
0.025000
0
INSERT
8
0
2
EPAD
10
-1.668000
20
0.037000
41
0.070000
42
0.070000
0
CIRCLE
8
0
10
-1.668000
20
0.037000
40
0.025000
0
INSERT
8
0
2
EPAD
10
-1.268000
20
0.037000
41
0.070000
42
0.070000
0
CIRCLE
8
0
10
-1.268000
20
0.037000
40
0.025000
0
INSERT
8
0
2
EPAD
10
-1.668000
20
0.167000
41
0.070000
42
0.070000
0
CIRCLE
8
0
10
-1.668000
20
0.167000
40
0.025000
0
INSERT
8
0
2
EPAD
10
-1.268000
20
0.167000
41
0.070000
42
0.070000
0
CIRCLE
8
0
10
-1.268000
20
0.167000
40
0.025000
0
INSERT
8
0
2
EPAD
10
-0.912000
20
-0.564000
41
0.150000
42
0.150000
0
CIRCLE
8
0
10
-0.912000
20
-0.564000
40
0.030000
0
INSERT
8
0
2
EPAD
10
-2.420000
20
0.470000
41
0.070000
42
0.070000
0
CIRCLE
8
0
10
-2.420000
20
0.470000
40
0.025000
0
INSERT
8
0
2
EPAD
10
-2.420000
20
0.870000
41
0.070000
42
0.070000
0
CIRCLE
8
0
10
-2.420000
20
0.870000
40
0.025000
0
INSERT
8
0
2
EPAD
10
-2.750000
20
1.381000
41
0.250000
42
0.250000
0
CIRCLE
8
0
10
-2.750000
20
1.381000
40
0.030000
0
INSERT
8
0
2
EPAD
10
0.125000
20
-0.515000
41
0.070000
42
0.070000
0
CIRCLE
8
0
10
0.125000
20
-0.515000
40
0.025000
0
INSERT
8
0
2
EPAD
10
0.525000
20
-0.515000
41
0.070000
42
0.070000
0
CIRCLE
8
0
10
0.525000
20
-0.515000
40
0.025000
0
INSERT
8
0
2
EPAD
10
0.519000
20
-0.206000
41
0.070000
42
0.070000
0
CIRCLE
8
0
10
0.519000
20
-0.206000
40
0.025000
0
INSERT
8
0
2
EPAD
10
0.119000
20
-0.206000
41
0.070000
42
0.070000
0
CIRCLE
8
0
10
0.119000
20
-0.206000
40
0.025000
0
INSERT
8
0
2
EPAD
10
0.821000
20
-0.829000
41
0.060000
42
0.060000
0
CIRCLE
8
0
10
0.821000
20
-0.829000
40
0.025000
0
INSERT
8
0
2
EPAD
10
0.821000
20
-0.749000
41
0.060000
42
0.060000
0
CIRCLE
8
0
10
0.821000
20
-0.749000
40
0.025000
0
INSERT
8
0
2
EPAD
10
0.821000
20
-0.669000
41
0.060000
42
0.060000
0
CIRCLE
8
0
10
0.821000
20
-0.669000
40
0.025000
0
INSERT
8
0
2
EPAD
10
0.811000
20
-0.008000
41
0.060000
42
0.060000
0
CIRCLE
8
0
10
0.811000
20
-0.008000
40
0.025000
0
INSERT
8
0
2
EPAD
10
0.811000
20
0.071000
41
0.060000
42
0.060000
0
CIRCLE
8
0
10
0.811000
20
0.071000
40
0.025000
0
INSERT
8
0
2
EPAD
10
0.811000
20
0.151000
41
0.060000
42
0.060000
0
CIRCLE
8
0
10
0.811000
20
0.151000
40
0.025000
0
INSERT
8
0
2
EPAD
10
1.348000
20
-0.689000
41
0.070000
42
0.070000
0
CIRCLE
8
0
10
1.348000
20
-0.689000
40
0.025000
0
INSERT
8
0
2
EPAD
10
0.948000
20
-0.689000
41
0.070000
42
0.070000
0
CIRCLE
8
0
10
0.948000
20
-0.689000
40
0.025000
0
INSERT
8
0
2
EPAD
10
1.348000
20
0.164000
41
0.070000
42
0.070000
0
CIRCLE
8
0
10
1.348000
20
0.164000
40
0.025000
0
INSERT
8
0
2
EPAD
10
0.948000
20
0.164000
41
0.070000
42
0.070000
0
CIRCLE
8
0
10
0.948000
20
0.164000
40
0.025000
0
INSERT
8
0
2
RPAD
10
2.253000
20
0.971000
41
0.150000
42
0.150000
50
-90.000000
0
CIRCLE
8
0
10
2.253000
20
0.971000
40
0.030000
0
INSERT
8
0
2
RPAD
10
2.253000
20
0.756000
41
0.150000
42
0.150000
50
-90.000000
0
CIRCLE
8
0
10
2.253000
20
0.756000
40
0.030000
0
INSERT
8
0
2
RPAD
10
2.253000
20
0.541000
41
0.150000
42
0.150000
50
-90.000000
0
CIRCLE
8
0
10
2.253000
20
0.541000
40
0.030000
0
INSERT
8
0
2
RPAD
10
2.253000
20
0.305000
41
0.150000
42
0.150000
50
-90.000000
0
CIRCLE
8
0
10
2.253000
20
0.305000
40
0.030000
0
INSERT
8
0
2
RPAD
10
2.253000
20
0.090000
41
0.150000
42
0.150000
50
-90.000000
0
CIRCLE
8
0
10
2.253000
20
0.090000
40
0.030000
0
INSERT
8
0
2
RPAD
10
2.253000
20
-0.124000
41
0.150000
42
0.150000
50
-90.000000
0
CIRCLE
8
0
10
2.253000
20
-0.124000
40
0.030000
0
INSERT
8
0
2
RPAD
10
2.253000
20
-0.336000
41
0.150000
42
0.150000
50
-90.000000
0
CIRCLE
8
0
10
2.253000
20
-0.336000
40
0.030000
0
INSERT
8
0
2
RPAD
10
2.253000
20
-0.551000
41
0.150000
42
0.150000
50
-90.000000
0
CIRCLE
8
0
10
2.253000
20
-0.551000
40
0.030000
0
INSERT
8
0
2
RPAD
10
2.253000
20
-0.766000
41
0.150000
42
0.150000
50
-90.000000
0
CIRCLE
8
0
10
2.253000
20
-0.766000
40
0.030000
0
INSERT
8
0
2
RPAD
10
2.261000
20
-0.983000
41
0.150000
42
0.150000
50
-90.000000
0
CIRCLE
8
0
10
2.261000
20
-0.983000
40
0.030000
0
INSERT
8
0
2
RPAD
10
2.261000
20
-1.198000
41
0.150000
42
0.150000
50
-90.000000
0
CIRCLE
8
0
10
2.261000
20
-1.198000
40
0.030000
0
INSERT
8
0
2
RPAD
10
2.261000
20
-1.413000
41
0.150000
42
0.150000
50
-90.000000
0
CIRCLE
8
0
10
2.261000
20
-1.413000
40
0.030000
0
INSERT
8
0
2
EPAD
10
1.799000
20
-0.675000
41
0.070000
42
0.070000
0
CIRCLE
8
0
10
1.799000
20
-0.675000
40
0.025000
0
INSERT
8
0
2
EPAD
10
1.799000
20
-1.075000
41
0.070000
42
0.070000
0
CIRCLE
8
0
10
1.799000
20
-1.075000
40
0.025000
0
INSERT
8
0
2
EPAD
10
1.684000
20
-1.068000
41
0.070000
42
0.070000
0
CIRCLE
8
0
10
1.684000
20
-1.068000
40
0.025000
0
INSERT
8
0
2
EPAD
10
1.684000
20
-0.668000
41
0.070000
42
0.070000
0
CIRCLE
8
0
10
1.684000
20
-0.668000
40
0.025000
0
INSERT
8
0
2
EPAD
10
1.566000
20
-0.660000
41
0.070000
42
0.070000
0
CIRCLE
8
0
10
1.566000
20
-0.660000
40
0.025000
0
INSERT
8
0
2
EPAD
10
1.566000
20
-1.060000
41
0.070000
42
0.070000
0
CIRCLE
8
0
10
1.566000
20
-1.060000
40
0.025000
0
INSERT
8
0
2
EPAD
10
1.832000
20
-1.225000
41
0.070000
42
0.070000
0
CIRCLE
8
0
10
1.832000
20
-1.225000
40
0.025000
0
INSERT
8
0
2
EPAD
10
1.432000
20
-1.225000
41
0.070000
42
0.070000
0
CIRCLE
8
0
10
1.432000
20
-1.225000
40
0.025000
0
INSERT
8
0
2
EPAD
10
1.083000
20
0.858000
41
0.120000
42
0.120000
0
CIRCLE
8
0
10
1.083000
20
0.858000
40
0.030000
0
INSERT
8
0
2
EPAD
10
0.883000
20
0.858000
41
0.120000
42
0.120000
0
CIRCLE
8
0
10
0.883000
20
0.858000
40
0.030000
0
INSERT
8
0
2
EPAD
10
1.294000
20
0.858000
41
0.120000
42
0.120000
0
CIRCLE
8
0
10
1.294000
20
0.858000
40
0.030000
0
INSERT
8
0
2
EPAD
10
1.494000
20
0.858000
41
0.120000
42
0.120000
0
CIRCLE
8
0
10
1.494000
20
0.858000
40
0.030000
0
INSERT
8
0
2
EPAD
10
0.474000
20
-1.312000
41
0.120000
42
0.120000
0
CIRCLE
8
0
10
0.474000
20
-1.312000
40
0.030000
0
INSERT
8
0
2
EPAD
10
0.674000
20
-1.312000
41
0.120000
42
0.120000
0
CIRCLE
8
0
10
0.674000
20
-1.312000
40
0.030000
0
INSERT
8
0
2
EPAD
10
0.416000
20
-0.932000
41
0.070000
42
0.070000
0
CIRCLE
8
0
10
0.416000
20
-0.932000
40
0.025000
0
INSERT
8
0
2
EPAD
10
0.816000
20
-0.932000
41
0.070000
42
0.070000
0
CIRCLE
8
0
10
0.816000
20
-0.932000
40
0.025000
0
INSERT
8
0
2
RPAD
10
0.938000
20
-1.336000
41
0.080000
42
0.080000
50
0.000000
0
CIRCLE
8
0
10
0.938000
20
-1.336000
40
0.025000
0
INSERT
8
0
2
RPAD
10
1.038000
20
-1.336000
41
0.080000
42
0.080000
50
0.000000
0
CIRCLE
8
0
10
1.038000
20
-1.336000
40
0.025000
0
INSERT
8
0
2
RPAD
10
1.138000
20
-1.336000
41
0.080000
42
0.080000
50
0.000000
0
CIRCLE
8
0
10
1.138000
20
-1.336000
40
0.025000
0
INSERT
8
0
2
RPAD
10
1.961000
20
0.010000
41
0.080000
42
0.080000
50
90.000000
0
CIRCLE
8
0
10
1.961000
20
0.010000
40
0.025000
0
INSERT
8
0
2
RPAD
10
1.961000
20
0.210000
41
0.080000
42
0.080000
50
90.000000
0
CIRCLE
8
0
10
1.961000
20
0.210000
40
0.025000
0
INSERT
8
0
2
RPAD
10
1.961000
20
0.110000
41
0.080000
42
0.080000
50
90.000000
0
CIRCLE
8
0
10
1.961000
20
0.110000
40
0.025000
0
INSERT
8
0
2
RPAD
10
1.956000
20
0.489000
41
0.080000
42
0.080000
50
90.000000
0
CIRCLE
8
0
10
1.956000
20
0.489000
40
0.025000
0
INSERT
8
0
2
RPAD
10
1.956000
20
0.689000
41
0.080000
42
0.080000
50
90.000000
0
CIRCLE
8
0
10
1.956000
20
0.689000
40
0.025000
0
INSERT
8
0
2
RPAD
10
1.956000
20
0.589000
41
0.080000
42
0.080000
50
90.000000
0
CIRCLE
8
0
10
1.956000
20
0.589000
40
0.025000
0
INSERT
8
0
2
RPAD
10
1.954000
20
-0.966000
41
0.080000
42
0.080000
50
90.000000
0
CIRCLE
8
0
10
1.954000
20
-0.966000
40
0.025000
0
INSERT
8
0
2
RPAD
10
1.954000
20
-0.766000
41
0.080000
42
0.080000
50
90.000000
0
CIRCLE
8
0
10
1.954000
20
-0.766000
40
0.025000
0
INSERT
8
0
2
RPAD
10
1.954000
20
-0.866000
41
0.080000
42
0.080000
50
90.000000
0
CIRCLE
8
0
10
1.954000
20
-0.866000
40
0.025000
0
INSERT
8
0
2
RPAD
10
1.856000
20
-1.422000
41
0.080000
42
0.080000
50
0.000000
0
CIRCLE
8
0
10
1.856000
20
-1.422000
40
0.025000
0
INSERT
8
0
2
RPAD
10
2.056000
20
-1.422000
41
0.080000
42
0.080000
50
0.000000
0
CIRCLE
8
0
10
2.056000
20
-1.422000
40
0.025000
0
INSERT
8
0
2
RPAD
10
1.956000
20
-1.422000
41
0.080000
42
0.080000
50
0.000000
0
CIRCLE
8
0
10
1.956000
20
-1.422000
40
0.025000
0
INSERT
8
0
2
EPAD
10
1.532000
20
-0.333000
41
0.250000
42
0.250000
0
CIRCLE
8
0
10
1.532000
20
-0.333000
40
0.030000
0
POLYLINE
8
0
66
1
40
0.008000
41
0.008000
0
VERTEX
8
0
10
-2.908000
20
-1.549000
0
VERTEX
8
0
10
2.924000
20
-1.549000
0
VERTEX
8
0
10
2.924000
20
1.549000
0
VERTEX
8
0
10
-2.908000
20
1.549000
0
VERTEX
8
0
10
-2.908000
20
-1.549000
0
SEQEND
8
0
0
POLYLINE
8
0
66
1
40
0.000000
41
0.000000
0
VERTEX
8
0
10
-1.804000
20
1.085000
0
VERTEX
8
0
10
0.401000
20
1.085000
0
VERTEX
8
0
10
0.401000
20
1.494000
0
VERTEX
8
0
10
-1.804000
20
1.494000
0
VERTEX
8
0
10
-1.804000
20
1.085000
0
SEQEND
8
0
0
CIRCLE
8
12632256
10
-1.935000
20
-1.313000
40
0.213000
0
POLYLINE
8
0
66
1
40
0.008000
41
0.008000
0
VERTEX
8
0
10
-2.015000
20
-1.123000
0
VERTEX
8
0
10
-2.015000
20
-1.163000
0
SEQEND
8
0
0
POLYLINE
8
0
66
1
40
0.008000
41
0.008000
0
VERTEX
8
0
10
-2.035000
20
-1.143000
0
VERTEX
8
0
10
-1.995000
20
-1.143000
0
SEQEND
8
0
0
TEXT
8
12632256
10
-2.010000
20
-1.090000
40
0.048000
41
1.041667
1
BR1
0
CIRCLE
8
12632256
10
-0.216000
20
-0.800000
40
0.242000
0
CIRCLE
8
12632256
10
-0.216000
20
-0.800000
40
0.050000
0
TEXT
8
12632256
10
-0.382000
20
-0.695000
40
0.080000
41
1.125000
1
+
0
TEXT
8
12632256
10
-0.316000
20
-0.547000
40
0.048000
41
1.041667
1
BUZ1
0
POLYLINE
8
0
66
1
40
0.008000
41
0.008000
0
VERTEX
8
0
10
-1.882000
20
0.164000
0
VERTEX
8
0
10
-1.884000
20
0.184000
0
VERTEX
8
0
10
-1.890000
20
0.203000
0
VERTEX
8
0
10
-1.899000
20
0.220000
0
VERTEX
8
0
10
-1.911000
20
0.235000
0
VERTEX
8
0
10
-1.926000
20
0.247000
0
VERTEX
8
0
10
-1.943000
20
0.256000
0
VERTEX
8
0
10
-1.962000
20
0.262000
0
VERTEX
8
0
10
-1.982000
20
0.264000
0
SEQEND
8
0
0
POLYLINE
8
0
66
1
40
0.008000
41
0.008000
0
VERTEX
8
0
10
-1.882000
20
0.164000
0
VERTEX
8
0
10
-1.884000
20
0.143000
0
VERTEX
8
0
10
-1.890000
20
0.124000
0
VERTEX
8
0
10
-1.899000
20
0.107000
0
VERTEX
8
0
10
-1.911000
20
0.093000
0
VERTEX
8
0
10
-1.926000
20
0.081000
0
VERTEX
8
0
10
-1.943000
20
0.072000
0
VERTEX
8
0
10
-1.962000
20
0.066000
0
VERTEX
8
0
10
-1.982000
20
0.064000
0
SEQEND
8
0
0
POLYLINE
8
0
66
1
40
0.008000
41
0.008000
0
VERTEX
8
0
10
-1.982000
20
0.264000
0
VERTEX
8
0
10
-1.982000
20
0.414000
0
SEQEND
8
0
0
POLYLINE
8
0
66
1
40
0.008000
41
0.008000
0
VERTEX
8
0
10
0.017000
20
0.414000
0
VERTEX
8
0
10
0.017000
20
-0.085000
0
SEQEND
8
0
0
POLYLINE
8
0
66
1
40
0.008000
41
0.008000
0
VERTEX
8
0
10
-1.982000
20
-0.085000
0
VERTEX
8
0
10
-1.982000
20
0.064000
0
SEQEND
8
0
0
POLYLINE
8
0
66
1
40
0.008000
41
0.008000
0
VERTEX
8
0
10
-1.982000
20
0.414000
0
VERTEX
8
0
10
0.017000
20
0.414000
0
SEQEND
8
0
0
POLYLINE
8
0
66
1
40
0.008000
41
0.008000
0
VERTEX
8
0
10
-1.982000
20
-0.085000
0
VERTEX
8
0
10
0.017000
20
-0.085000
0
SEQEND
8
0
0
TEXT
8
12632256
10
-1.992000
20
0.114000
40
0.048000
41
1.041667
50
90.000000
1
U1
0
POLYLINE
8
0
66
1
40
0.008000
41
0.008000
0
VERTEX
8
0
10
-2.185000
20
-1.507000
0
VERTEX
8
0
10
-2.185000
20
-1.107000
0
SEQEND
8
0
0
POLYLINE
8
0
66
1
40
0.008000
41
0.008000
0
VERTEX
8
0
10
-2.585000
20
-1.507000
0
VERTEX
8
0
10
-2.585000
20
-1.107000
0
SEQEND
8
0
0
POLYLINE
8
0
66
1
40
0.008000
41
0.008000
0
VERTEX
8
0
10
-2.185000
20
-1.107000
0
VERTEX
8
0
10
-2.585000
20
-1.107000
0
SEQEND
8
0
0
POLYLINE
8
0
66
1
40
0.008000
41
0.008000
0
VERTEX
8
0
10
-2.185000
20
-1.507000
0
VERTEX
8
0
10
-2.585000
20
-1.507000
0
SEQEND
8
0
0
TEXT
8
12632256
10
-2.188000
20
-1.529000
40
0.048000
41
1.041667
1
J16
0
CIRCLE
8
12632256
10
-2.507000
20
-0.884000
40
0.200000
0
POLYLINE
8
0
66
1
40
0.008000
41
0.008000
0
VERTEX
8
0
10
-2.632000
20
-0.784000
0
VERTEX
8
0
10
-2.582000
20
-0.784000
0
SEQEND
8
0
0
POLYLINE
8
0
66
1
40
0.008000
41
0.008000
0
VERTEX
8
0
10
-2.607000
20
-0.759000
0
VERTEX
8
0
10
-2.607000
20
-0.809000
0
SEQEND
8
0
0
TEXT
8
12632256
10
-2.698000
20
-1.119000
40
0.048000
41
1.041667
1
C4
0
POLYLINE
8
0
66
1
40
0.008000
41
0.008000
0
VERTEX
8
0
10
-2.770000
20
-1.139000
0
VERTEX
8
0
10
-2.770000
20
-1.089000
0
SEQEND
8
0
0
POLYLINE
8
0
66
1
40
0.008000
41
0.008000
0
VERTEX
8
0
10
-2.795000
20
-1.089000
0
VERTEX
8
0
10
-2.745000
20
-1.089000
0
VERTEX
8
0
10
-2.745000
20
-0.889000
0
VERTEX
8
0
10
-2.795000
20
-0.889000
0
VERTEX
8
0
10
-2.795000
20
-1.089000
0
SEQEND
8
0
0
POLYLINE
8
0
66
1
40
0.008000
41
0.008000
0
VERTEX
8
0
10
-2.770000
20
-0.889000
0
VERTEX
8
0
10
-2.770000
20
-0.839000
0
SEQEND
8
0
0
TEXT
8
12632256
10
-2.797000
20
-1.064000
40
0.048000
41
1.041667
50
90.000000
1
R60
0
POLYLINE
8
0
66
1
40
0.008000
41
0.008000
0
VERTEX
8
0
10
-1.154000
20
-1.472000
0
VERTEX
8
0
10
-0.854000
20
-1.472000
0
VERTEX
8
0
10
-0.854000
20
-1.372000
0
VERTEX
8
0
10
-1.154000
20
-1.372000
0
VERTEX
8
0
10
-1.154000
20
-1.472000
0
SEQEND
8
0
0
POLYLINE
8
0
66
1
40
0.008000
41
0.008000
0
VERTEX
8
0
10
-1.154000
20
-1.372000
0
VERTEX
8
0
10
-1.154000
20
-1.322000
0
VERTEX
8
0
10
-0.854000
20
-1.322000
0
VERTEX
8
0
10
-0.854000
20
-1.372000
0
SEQEND
8
0
0
POLYLINE
8
0
66
1
40
0.008000
41
0.008000
0
VERTEX
8
0
10
-1.154000
20
-1.372000
0
VERTEX
8
0
10
-1.104000
20
-1.322000
0
SEQEND
8
0
0
POLYLINE
8
0
66
1
40
0.008000
41
0.008000
0
VERTEX
8
0
10
-1.104000
20
-1.372000
0
VERTEX
8
0
10
-1.054000
20
-1.322000
0
SEQEND
8
0
0
POLYLINE
8
0
66
1
40
0.008000
41
0.008000
0
VERTEX
8
0
10
-1.054000
20
-1.372000
0
VERTEX
8
0
10
-1.004000
20
-1.322000
0
SEQEND
8
0
0
POLYLINE
8
0
66
1
40
0.008000
41
0.008000
0
VERTEX
8
0
10
-1.004000
20
-1.372000
0
VERTEX
8
0
10
-0.954000
20
-1.322000
0
SEQEND
8
0
0
POLYLINE
8
0
66
1
40
0.008000
41
0.008000
0
VERTEX
8
0
10
-0.954000
20
-1.372000
0
VERTEX
8
0
10
-0.904000
20
-1.322000
0
SEQEND
8
0
0
POLYLINE
8
0
66
1
40
0.008000
41
0.008000
0
VERTEX
8
0
10
-0.904000
20
-1.372000
0
VERTEX
8
0
10
-0.854000
20
-1.322000
0
SEQEND
8
0
0
TEXT
8
12632256
10
-1.079000
20
-1.312000
40
0.048000
41
1.041667
1
U30
0
POLYLINE
8
0
66
1
40
0.008000
41
0.008000
0
VERTEX
8
0
10
-1.693000
20
-1.529000
0
VERTEX
8
0
10
-0.315000
20
-1.529000
0
VERTEX
8
0
10
-0.315000
20
-1.041000
0
VERTEX
8
0
10
-1.693000
20
-1.041000
0
VERTEX
8
0
10
-1.693000
20
-1.529000
0
SEQEND
8
0
0
POLYLINE
8
0
66
1
40
0.008000
41
0.008000
0
VERTEX
8
0
10
-0.866000
20
-1.018000
0
VERTEX
8
0
10
-0.662000
20
-1.018000
0
VERTEX
8
0
10
-0.662000
20
-0.913000
0
VERTEX
8
0
10
-0.866000
20
-0.913000
0
VERTEX
8
0
10
-0.866000
20
-1.018000
0
SEQEND
8
0
0
POLYLINE
8
0
66
1
40
0.008000
41
0.008000
0
VERTEX
8
0
10
-0.834000
20
-0.914000
0
VERTEX
8
0
10
-0.834000
20
-1.017000
0
SEQEND
8
0
0
POLYLINE
8
0
66
1
40
0.008000
41
0.008000
0
VERTEX
8
0
10
-0.894000
20
-0.966000
0
VERTEX
8
0
10
-0.866000
20
-0.966000
0
SEQEND
8
0
0
POLYLINE
8
0
66
1
40
0.008000
41
0.008000
0
VERTEX
8
0
10
-0.662000
20
-0.966000
0
VERTEX
8
0
10
-0.634000
20
-0.966000
0
SEQEND
8
0
0
TEXT
8
12632256
10
-0.814000
20
-0.903000
40
0.048000
41
1.041667
1
D1
0
POLYLINE
8
0
66
1
40
0.008000
41
0.008000
0
VERTEX
8
0
10
-0.223000
20
-1.066000
0
VERTEX
8
0
10
-0.213000
20
-1.069000
0
VERTEX
8
0
10
-0.203000
20
-1.077000
0
VERTEX
8
0
10
-0.195000
20
-1.091000
0
VERTEX
8
0
10
-0.188000
20
-1.109000
0
VERTEX
8
0
10
-0.182000
20
-1.131000
0
VERTEX
8
0
10
-0.177000
20
-1.157000
0
VERTEX
8
0
10
-0.174000
20
-1.185000
0
VERTEX
8
0
10
-0.173000
20
-1.216000
0
SEQEND
8
0
0
POLYLINE
8
0
66
1
40
0.008000
41
0.008000
0
VERTEX
8
0
10
-0.223000
20
-1.366000
0
VERTEX
8
0
10
-0.218000
20
-1.365000
0
VERTEX
8
0
10
-0.213000
20
-1.363000
0
VERTEX
8
0
10
-0.203000
20
-1.354000
0
VERTEX
8
0
10
-0.195000
20
-1.341000
0
VERTEX
8
0
10
-0.188000
20
-1.322000
0
VERTEX
8
0
10
-0.182000
20
-1.300000
0
VERTEX
8
0
10
-0.177000
20
-1.275000
0
VERTEX
8
0
10
-0.174000
20
-1.247000
0
VERTEX
8
0
10
-0.173000
20
-1.216000
0
SEQEND
8
0
0
POLYLINE
8
0
66
1
40
0.008000
41
0.008000
0
VERTEX
8
0
10
-0.223000
20
-1.366000
0
VERTEX
8
0
10
-0.228000
20
-1.365000
0
VERTEX
8
0
10
-0.233000
20
-1.363000
0
VERTEX
8
0
10
-0.243000
20
-1.354000
0
VERTEX
8
0
10
-0.251000
20
-1.341000
0
VERTEX
8
0
10
-0.258000
20
-1.322000
0
VERTEX
8
0
10
-0.264000
20
-1.300000
0
VERTEX
8
0
10
-0.269000
20
-1.275000
0
VERTEX
8
0
10
-0.272000
20
-1.247000
0
VERTEX
8
0
10
-0.273000
20
-1.216000
0
SEQEND
8
0
0
POLYLINE
8
0
66
1
40
0.008000
41
0.008000
0
VERTEX
8
0
10
-0.223000
20
-1.066000
0
VERTEX
8
0
10
-0.233000
20
-1.069000
0
VERTEX
8
0
10
-0.243000
20
-1.077000
0
VERTEX
8
0
10
-0.251000
20
-1.091000
0
VERTEX
8
0
10
-0.258000
20
-1.109000
0
VERTEX
8
0
10
-0.264000
20
-1.131000
0
VERTEX
8
0
10
-0.269000
20
-1.157000
0
VERTEX
8
0
10
-0.272000
20
-1.185000
0
VERTEX
8
0
10
-0.273000
20
-1.216000
0
SEQEND
8
0
0
TEXT
8
12632256
10
-0.197000
20
-1.502000
40
0.048000
41
1.041667
50
90.000000
1
C6
0
CIRCLE
8
12632256
10
-1.898000
20
-0.933000
40
0.100000
0
POLYLINE
8
0
66
1
40
0.008000
41
0.008000
0
VERTEX
8
0
10
-1.973000
20
-0.883000
0
VERTEX
8
0
10
-1.923000
20
-0.883000
0
SEQEND
8
0
0
POLYLINE
8
0
66
1
40
0.008000
41
0.008000
0
VERTEX
8
0
10
-1.948000
20
-0.858000
0
VERTEX
8
0
10
-1.948000
20
-0.908000
0
SEQEND
8
0
0
TEXT
8
12632256
10
-1.948000
20
-0.823000
40
0.048000
41
1.041667
1
C5
0
POLYLINE
8
0
66
1
40
0.008000
41
0.008000
0
VERTEX
8
0
10
-2.194000
20
-0.956000
0
VERTEX
8
0
10
-2.194000
20
-0.906000
0
SEQEND
8
0
0
POLYLINE
8
0
66
1
40
0.008000
41
0.008000
0
VERTEX
8
0
10
-2.219000
20
-0.906000
0
VERTEX
8
0
10
-2.169000
20
-0.906000
0
VERTEX
8
0
10
-2.169000
20
-0.706000
0
VERTEX
8
0
10
-2.219000
20
-0.706000
0
VERTEX
8
0
10
-2.219000
20
-0.906000
0
SEQEND
8
0
0
POLYLINE
8
0
66
1
40
0.008000
41
0.008000
0
VERTEX
8
0
10
-2.194000
20
-0.706000
0
VERTEX
8
0
10
-2.194000
20
-0.656000
0
SEQEND
8
0
0
TEXT
8
12632256
10
-2.229000
20
-0.881000
40
0.048000
41
1.041667
50
90.000000
1
R24
0
CIRCLE
8
12632256
10
-1.663000
20
-0.925000
40
0.000000
0
CIRCLE
8
12632256
10
-1.663000
20
-0.925000
40
0.100000
0
POLYLINE
8
0
66
1
40
0.008000
41
0.008000
0
VERTEX
8
0
10
-1.788000
20
-0.825000
0
VERTEX
8
0
10
-1.738000
20
-0.825000
0
SEQEND
8
0
0
POLYLINE
8
0
66
1
40
0.008000
41
0.008000
0
VERTEX
8
0
10
-1.763000
20
-0.800000
0
VERTEX
8
0
10
-1.763000
20
-0.850000
0
SEQEND
8
0
0
TEXT
8
12632256
10
-1.725000
20
-0.805000
40
0.048000
41
1.041667
1
D2
0
POLYLINE
8
0
66
1
40
0.008000
41
0.008000
0
VERTEX
8
0
10
-1.919000
20
-0.255000
0
VERTEX
8
0
10
-1.869000
20
-0.255000
0
SEQEND
8
0
0
POLYLINE
8
0
66
1
40
0.008000
41
0.008000
0
VERTEX
8
0
10
-1.869000
20
-0.280000
0
VERTEX
8
0
10
-1.669000
20
-0.280000
0
VERTEX
8
0
10
-1.669000
20
-0.230000
0
VERTEX
8
0
10
-1.869000
20
-0.230000
0
VERTEX
8
0
10
-1.869000
20
-0.280000
0
SEQEND
8
0
0
POLYLINE
8
0
66
1
40
0.008000
41
0.008000
0
VERTEX
8
0
10
-1.669000
20
-0.255000
0
VERTEX
8
0
10
-1.619000
20
-0.255000
0
SEQEND
8
0
0
TEXT
8
12632256
10
-1.825000
20
-0.231000
40
0.048000
41
1.041667
1
R1
0
POLYLINE
8
0
66
1
40
0.008000
41
0.008000
0
VERTEX
8
0
10
-1.499000
20
-0.483000
0
VERTEX
8
0
10
-0.599000
20
-0.483000
0
VERTEX
8
0
10
-0.599000
20
-0.233000
0
VERTEX
8
0
10
-1.499000
20
-0.233000
0
VERTEX
8
0
10
-1.499000
20
-0.483000
0
SEQEND
8
0
0
POLYLINE
8
0
66
1
40
0.008000
41
0.008000
0
VERTEX
8
0
10
-1.499000
20
-0.283000
0
VERTEX
8
0
10
-0.599000
20
-0.283000
0
SEQEND
8
0
0
TEXT
8
12632256
10
-0.555000
20
-0.304000
40
0.048000
41
1.041667
1
J7
0
POLYLINE
8
0
66
1
40
0.008000
41
0.008000
0
VERTEX
8
0
10
-1.462000
20
-0.615000
0
VERTEX
8
0
10
-1.462000
20
-0.665000
0
SEQEND
8
0
0
POLYLINE
8
0
66
1
40
0.008000
41
0.008000
0
VERTEX
8
0
10
-1.487000
20
-0.865000
0
VERTEX
8
0
10
-1.437000
20
-0.865000
0
VERTEX
8
0
10
-1.437000
20
-0.665000
0
VERTEX
8
0
10
-1.487000
20
-0.665000
0
VERTEX
8
0
10
-1.487000
20
-0.865000
0
SEQEND
8
0
0
POLYLINE
8
0
66
1
40
0.008000
41
0.008000
0
VERTEX
8
0
10
-1.462000
20
-0.865000
0
VERTEX
8
0
10
-1.462000
20
-0.915000
0
SEQEND
8
0
0
TEXT
8
12632256
10
-1.379000
20
-0.840000
40
0.048000
41
1.041667
50
90.000000
1
R33
0
POLYLINE
8
0
66
1
40
0.008000
41
0.008000
0
VERTEX
8
0
10
-1.356000
20
-0.615000
0
VERTEX
8
0
10
-1.356000
20
-0.665000
0
SEQEND
8
0
0
POLYLINE
8
0
66
1
40
0.008000
41
0.008000
0
VERTEX
8
0
10
-1.381000
20
-0.865000
0
VERTEX
8
0
10
-1.331000
20
-0.865000
0
VERTEX
8
0
10
-1.331000
20
-0.665000
0
VERTEX
8
0
10
-1.381000
20
-0.665000
0
VERTEX
8
0
10
-1.381000
20
-0.865000
0
SEQEND
8
0
0
POLYLINE
8
0
66
1
40
0.008000
41
0.008000
0
VERTEX
8
0
10
-1.356000
20
-0.865000
0
VERTEX
8
0
10
-1.356000
20
-0.915000
0
SEQEND
8
0
0
TEXT
8
12632256
10
-1.273000
20
-0.840000
40
0.048000
41
1.041667
50
90.000000
1
R34
0
POLYLINE
8
0
66
1
40
0.008000
41
0.008000
0
VERTEX
8
0
10
-1.239000
20
-0.615000
0
VERTEX
8
0
10
-1.239000
20
-0.665000
0
SEQEND
8
0
0
POLYLINE
8
0
66
1
40
0.008000
41
0.008000
0
VERTEX
8
0
10
-1.264000
20
-0.865000
0
VERTEX
8
0
10
-1.214000
20
-0.865000
0
VERTEX
8
0
10
-1.214000
20
-0.665000
0
VERTEX
8
0
10
-1.264000
20
-0.665000
0
VERTEX
8
0
10
-1.264000
20
-0.865000
0
SEQEND
8
0
0
POLYLINE
8
0
66
1
40
0.008000
41
0.008000
0
VERTEX
8
0
10
-1.239000
20
-0.865000
0
VERTEX
8
0
10
-1.239000
20
-0.915000
0
SEQEND
8
0
0
TEXT
8
12632256
10
-1.156000
20
-0.840000
40
0.048000
41
1.041667
50
90.000000
1
R35
0
POLYLINE
8
0
66
1
40
0.008000
41
0.008000
0
VERTEX
8
0
10
-1.119000
20
-0.615000
0
VERTEX
8
0
10
-1.119000
20
-0.665000
0
SEQEND
8
0
0
POLYLINE
8
0
66
1
40
0.008000
41
0.008000
0
VERTEX
8
0
10
-1.144000
20
-0.865000
0
VERTEX
8
0
10
-1.094000
20
-0.865000
0
VERTEX
8
0
10
-1.094000
20
-0.665000
0
VERTEX
8
0
10
-1.144000
20
-0.665000
0
VERTEX
8
0
10
-1.144000
20
-0.865000
0
SEQEND
8
0
0
POLYLINE
8
0
66
1
40
0.008000
41
0.008000
0
VERTEX
8
0
10
-1.119000
20
-0.865000
0
VERTEX
8
0
10
-1.119000
20
-0.915000
0
SEQEND
8
0
0
TEXT
8
12632256
10
-1.036000
20
-0.840000
40
0.048000
41
1.041667
50
90.000000
1
R36
0
POLYLINE
8
0
66
1
40
0.008000
41
0.008000
0
VERTEX
8
0
10
-1.467000
20
0.621000
0
VERTEX
8
0
10
0.632000
20
0.621000
0
VERTEX
8
0
10
0.632000
20
0.871000
0
VERTEX
8
0
10
-1.467000
20
0.871000
0
VERTEX
8
0
10
-1.467000
20
0.621000
0
SEQEND
8
0
0
POLYLINE
8
0
66
1
40
0.008000
41
0.008000
0
VERTEX
8
0
10
0.632000
20
0.671000
0
VERTEX
8
0
10
-1.467000
20
0.671000
0
SEQEND
8
0
0
TEXT
8
12632256
10
-0.467000
20
0.563000
40
0.048000
41
1.041667
1
J9
0
POLYLINE
8
0
66
1
40
0.008000
41
0.008000
0
VERTEX
8
0
10
0.114000
20
0.338000
0
VERTEX
8
0
10
0.414000
20
0.338000
0
VERTEX
8
0
10
0.414000
20
0.488000
0
VERTEX
8
0
10
0.114000
20
0.488000
0
VERTEX
8
0
10
0.114000
20
0.338000
0
SEQEND
8
0
0
POLYLINE
8
0
66
1
40
0.008000
41
0.008000
0
VERTEX
8
0
10
0.314000
20
0.188000
0
VERTEX
8
0
10
0.214000
20
0.188000
0
SEQEND
8
0
0
POLYLINE
8
0
66
1
40
0.008000
41
0.008000
0
VERTEX
8
0
10
0.169000
20
0.118000
0
VERTEX
8
0
10
0.362000
20
0.118000
0
VERTEX
8
0
10
0.362000
20
0.338000
0
VERTEX
8
0
10
0.169000
20
0.338000
0
VERTEX
8
0
10
0.169000
20
0.118000
0
SEQEND
8
0
0
TEXT
8
12632256
10
0.189000
20
0.498000
40
0.048000
41
1.041667
1
RV1
0
POLYLINE
8
0
66
1
40
0.008000
41
0.008000
0
VERTEX
8
0
10
0.527000
20
0.609000
0
VERTEX
8
0
10
0.489000
20
0.609000
0
SEQEND
8
0
0
POLYLINE
8
0
66
1
40
0.008000
41
0.008000
0
VERTEX
8
0
10
0.527000
20
0.498000
0
VERTEX
8
0
10
0.488000
20
0.498000
0
SEQEND
8
0
0
POLYLINE
8
0
66
1
40
0.008000
41
0.008000
0
VERTEX
8
0
10
0.447000
20
0.624000
0
VERTEX
8
0
10
0.447000
20
0.644000
0
SEQEND
8
0
0
POLYLINE
8
0
66
1
40
0.008000
41
0.008000
0
VERTEX
8
0
10
0.457000
20
0.634000
0
VERTEX
8
0
10
0.437000
20
0.634000
0
SEQEND
8
0
0
TEXT
8
12632256
10
0.583000
20
0.654000
40
0.048000
41
1.041667
71
2
1
C21
0
POLYLINE
8
0
66
1
40
0.008000
41
0.008000
0
VERTEX
8
0
10
-2.473000
20
-0.058000
0
VERTEX
8
0
10
-2.873000
20
-0.058000
0
SEQEND
8
0
0
POLYLINE
8
0
66
1
40
0.008000
41
0.008000
0
VERTEX
8
0
10
-2.473000
20
-0.658000
0
VERTEX
8
0
10
-2.873000
20
-0.658000
0
SEQEND
8
0
0
POLYLINE
8
0
66
1
40
0.008000
41
0.008000
0
VERTEX
8
0
10
-2.873000
20
-0.058000
0
VERTEX
8
0
10
-2.873000
20
-0.658000
0
SEQEND
8
0
0
POLYLINE
8
0
66
1
40
0.008000
41
0.008000
0
VERTEX
8
0
10
-2.473000
20
-0.658000
0
VERTEX
8
0
10
-2.473000
20
-0.058000
0
SEQEND
8
0
0
TEXT
8
12632256
10
-2.828000
20
-0.839000
40
0.048000
41
1.041667
50
90.000000
1
J20
0
POLYLINE
8
0
66
1
40
0.008000
41
0.008000
0
VERTEX
8
0
10
-2.260000
20
-0.488000
0
VERTEX
8
0
10
-2.310000
20
-0.488000
0
SEQEND
8
0
0
POLYLINE
8
0
66
1
40
0.008000
41
0.008000
0
VERTEX
8
0
10
-2.110000
20
-0.488000
0
VERTEX
8
0
10
-2.160000
20
-0.488000
0
SEQEND
8
0
0
POLYLINE
8
0
66
1
40
0.008000
41
0.008000
0
VERTEX
8
0
10
-2.210000
20
-0.438000
0
VERTEX
8
0
10
-2.220000
20
-0.439000
0
VERTEX
8
0
10
-2.230000
20
-0.442000
0
VERTEX
8
0
10
-2.238000
20
-0.446000
0
VERTEX
8
0
10
-2.246000
20
-0.452000
0
VERTEX
8
0
10
-2.252000
20
-0.459000
0
VERTEX
8
0
10
-2.256000
20
-0.468000
0
VERTEX
8
0
10
-2.259000
20
-0.478000
0
VERTEX
8
0
10
-2.260000
20
-0.488000
0
SEQEND
8
0
0
POLYLINE
8
0
66
1
40
0.008000
41
0.008000
0
VERTEX
8
0
10
-2.210000
20
-0.438000
0
VERTEX
8
0
10
-2.200000
20
-0.439000
0
VERTEX
8
0
10
-2.190000
20
-0.442000
0
VERTEX
8
0
10
-2.181000
20
-0.446000
0
VERTEX
8
0
10
-2.174000
20
-0.452000
0
VERTEX
8
0
10
-2.168000
20
-0.459000
0
VERTEX
8
0
10
-2.164000
20
-0.468000
0
VERTEX
8
0
10
-2.161000
20
-0.478000
0
VERTEX
8
0
10
-2.160000
20
-0.488000
0
SEQEND
8
0
0
POLYLINE
8
0
66
1
40
0.008000
41
0.008000
0
VERTEX
8
0
10
-2.110000
20
-0.488000
0
VERTEX
8
0
10
-2.110000
20
0.211000
0
VERTEX
8
0
10
-2.310000
20
0.211000
0
VERTEX
8
0
10
-2.310000
20
-0.488000
0
SEQEND
8
0
0
TEXT
8
12632256
10
-2.260000
20
-0.546000
40
0.048000
41
1.041667
1
U2
0
POLYLINE
8
0
66
1
40
0.008000
41
0.008000
0
VERTEX
8
0
10
-1.639000
20
-0.674000
0
VERTEX
8
0
10
-1.689000
20
-0.674000
0
SEQEND
8
0
0
POLYLINE
8
0
66
1
40
0.008000
41
0.008000
0
VERTEX
8
0
10
-1.889000
20
-0.699000
0
VERTEX
8
0
10
-1.689000
20
-0.699000
0
VERTEX
8
0
10
-1.689000
20
-0.649000
0
VERTEX
8
0
10
-1.889000
20
-0.649000
0
VERTEX
8
0
10
-1.889000
20
-0.699000
0
SEQEND
8
0
0
POLYLINE
8
0
66
1
40
0.008000
41
0.008000
0
VERTEX
8
0
10
-1.889000
20
-0.674000
0
VERTEX
8
0
10
-1.939000
20
-0.674000
0
SEQEND
8
0
0
TEXT
8
12632256
10
-1.864000
20
-0.757000
40
0.048000
41
1.041667
1
R51
0
POLYLINE
8
0
66
1
40
0.008000
41
0.008000
0
VERTEX
8
0
10
-2.824000
20
-0.007000
0
VERTEX
8
0
10
-2.524000
20
-0.007000
0
VERTEX
8
0
10
-2.524000
20
0.092000
0
VERTEX
8
0
10
-2.824000
20
0.092000
0
VERTEX
8
0
10
-2.824000
20
-0.007000
0
SEQEND
8
0
0
POLYLINE
8
0
66
1
40
0.008000
41
0.008000
0
VERTEX
8
0
10
-2.824000
20
0.092000
0
VERTEX
8
0
10
-2.824000
20
0.142000
0
VERTEX
8
0
10
-2.524000
20
0.142000
0
VERTEX
8
0
10
-2.524000
20
0.092000
0
SEQEND
8
0
0
POLYLINE
8
0
66
1
40
0.008000
41
0.008000
0
VERTEX
8
0
10
-2.824000
20
0.092000
0
VERTEX
8
0
10
-2.774000
20
0.142000
0
SEQEND
8
0
0
POLYLINE
8
0
66
1
40
0.008000
41
0.008000
0
VERTEX
8
0
10
-2.774000
20
0.092000
0
VERTEX
8
0
10
-2.724000
20
0.142000
0
SEQEND
8
0
0
POLYLINE
8
0
66
1
40
0.008000
41
0.008000
0
VERTEX
8
0
10
-2.724000
20
0.092000
0
VERTEX
8
0
10
-2.674000
20
0.142000
0
SEQEND
8
0
0
POLYLINE
8
0
66
1
40
0.008000
41
0.008000
0
VERTEX
8
0
10
-2.674000
20
0.092000
0
VERTEX
8
0
10
-2.624000
20
0.142000
0
SEQEND
8
0
0
POLYLINE
8
0
66
1
40
0.008000
41
0.008000
0
VERTEX
8
0
10
-2.624000
20
0.092000
0
VERTEX
8
0
10
-2.574000
20
0.142000
0
SEQEND
8
0
0
POLYLINE
8
0
66
1
40
0.008000
41
0.008000
0
VERTEX
8
0
10
-2.574000
20
0.092000
0
VERTEX
8
0
10
-2.524000
20
0.142000
0
SEQEND
8
0
0
TEXT
8
12632256
10
-2.749000
20
0.152000
40
0.048000
41
1.041667
1
U19
0
POLYLINE
8
0
66
1
40
0.008000
41
0.008000
0
VERTEX
8
0
10
-2.762000
20
0.248000
0
VERTEX
8
0
10
-2.712000
20
0.248000
0
SEQEND
8
0
0
POLYLINE
8
0
66
1
40
0.008000
41
0.008000
0
VERTEX
8
0
10
-2.712000
20
0.223000
0
VERTEX
8
0
10
-2.512000
20
0.223000
0
VERTEX
8
0
10
-2.512000
20
0.273000
0
VERTEX
8
0
10
-2.712000
20
0.273000
0
VERTEX
8
0
10
-2.712000
20
0.223000
0
SEQEND
8
0
0
POLYLINE
8
0
66
1
40
0.008000
41
0.008000
0
VERTEX
8
0
10
-2.512000
20
0.248000
0
VERTEX
8
0
10
-2.462000
20
0.248000
0
SEQEND
8
0
0
TEXT
8
12632256
10
-2.662000
20
0.283000
40
0.048000
41
1.041667
1
R5
0
POLYLINE
8
0
66
1
40
0.008000
41
0.008000
0
VERTEX
8
0
10
-2.761000
20
0.367000
0
VERTEX
8
0
10
-2.711000
20
0.367000
0
SEQEND
8
0
0
POLYLINE
8
0
66
1
40
0.008000
41
0.008000
0
VERTEX
8
0
10
-2.711000
20
0.342000
0
VERTEX
8
0
10
-2.511000
20
0.342000
0
VERTEX
8
0
10
-2.511000
20
0.392000
0
VERTEX
8
0
10
-2.711000
20
0.392000
0
VERTEX
8
0
10
-2.711000
20
0.342000
0
SEQEND
8
0
0
POLYLINE
8
0
66
1
40
0.008000
41
0.008000
0
VERTEX
8
0
10
-2.511000
20
0.367000
0
VERTEX
8
0
10
-2.461000
20
0.367000
0
SEQEND
8
0
0
TEXT
8
12632256
10
-2.686000
20
0.402000
40
0.048000
41
1.041667
1
R44
0
CIRCLE
8
12632256
10
-2.263000
20
0.424000
40
0.100000
0
POLYLINE
8
0
66
1
40
0.008000
41
0.008000
0
VERTEX
8
0
10
-2.213000
20
0.499000
0
VERTEX
8
0
10
-2.213000
20
0.449000
0
SEQEND
8
0
0
POLYLINE
8
0
66
1
40
0.008000
41
0.008000
0
VERTEX
8
0
10
-2.188000
20
0.474000
0
VERTEX
8
0
10
-2.238000
20
0.474000
0
SEQEND
8
0
0
TEXT
8
12632256
10
-2.239000
20
0.188000
40
0.048000
41
1.041667
50
90.000000
1
C35
0
POLYLINE
8
0
66
1
40
0.008000
41
0.008000
0
VERTEX
8
0
10
-2.864000
20
0.458000
0
VERTEX
8
0
10
-2.464000
20
0.458000
0
SEQEND
8
0
0
POLYLINE
8
0
66
1
40
0.008000
41
0.008000
0
VERTEX
8
0
10
-2.864000
20
0.858000
0
VERTEX
8
0
10
-2.464000
20
0.858000
0
SEQEND
8
0
0
POLYLINE
8
0
66
1
40
0.008000
41
0.008000
0
VERTEX
8
0
10
-2.464000
20
0.458000
0
VERTEX
8
0
10
-2.464000
20
0.858000
0
SEQEND
8
0
0
POLYLINE
8
0
66
1
40
0.008000
41
0.008000
0
VERTEX
8
0
10
-2.864000
20
0.458000
0
VERTEX
8
0
10
-2.864000
20
0.858000
0
SEQEND
8
0
0
TEXT
8
12632256
10
-2.846000
20
0.336000
40
0.048000
41
1.041667
50
90.000000
1
J5
0
POLYLINE
8
0
66
1
40
0.008000
41
0.008000
0
VERTEX
8
0
10
-0.534000
20
-0.430000
0
VERTEX
8
0
10
-0.534000
20
-0.480000
0
SEQEND
8
0
0
POLYLINE
8
0
66
1
40
0.008000
41
0.008000
0
VERTEX
8
0
10
-0.559000
20
-0.680000
0
VERTEX
8
0
10
-0.509000
20
-0.680000
0
VERTEX
8
0
10
-0.509000
20
-0.480000
0
VERTEX
8
0
10
-0.559000
20
-0.480000
0
VERTEX
8
0
10
-0.559000
20
-0.680000
0
SEQEND
8
0
0
POLYLINE
8
0
66
1
40
0.008000
41
0.008000
0
VERTEX
8
0
10
-0.534000
20
-0.680000
0
VERTEX
8
0
10
-0.534000
20
-0.730000
0
SEQEND
8
0
0
TEXT
8
12632256
10
-0.451000
20
-0.630000
40
0.048000
41
1.041667
50
90.000000
1
R9
0
POLYLINE
8
0
66
1
40
0.008000
41
0.008000
0
VERTEX
8
0
10
-0.686000
20
-0.788000
0
VERTEX
8
0
10
-0.686000
20
-0.588000
0
SEQEND
8
0
0
POLYLINE
8
0
66
1
40
0.008000
41
0.008000
0
VERTEX
8
0
10
-0.751000
20
-0.818000
0
VERTEX
8
0
10
-0.736000
20
-0.816000
0
VERTEX
8
0
10
-0.720000
20
-0.810000
0
VERTEX
8
0
10
-0.704000
20
-0.801000
0
VERTEX
8
0
10
-0.686000
20
-0.788000
0
SEQEND
8
0
0
POLYLINE
8
0
66
1
40
0.008000
41
0.008000
0
VERTEX
8
0
10
-0.751000
20
-0.818000
0
VERTEX
8
0
10
-0.776000
20
-0.817000
0
VERTEX
8
0
10
-0.788000
20
-0.814000
0
VERTEX
8
0
10
-0.800000
20
-0.810000
0
VERTEX
8
0
10
-0.811000
20
-0.805000
0
VERTEX
8
0
10
-0.821000
20
-0.799000
0
VERTEX
8
0
10
-0.831000
20
-0.792000
0
VERTEX
8
0
10
-0.840000
20
-0.783000
0
VERTEX
8
0
10
-0.855000
20
-0.764000
0
VERTEX
8
0
10
-0.866000
20
-0.741000
0
VERTEX
8
0
10
-0.870000
20
-0.729000
0
VERTEX
8
0
10
-0.873000
20
-0.716000
0
VERTEX
8
0
10
-0.875000
20
-0.702000
0
VERTEX
8
0
10
-0.876000
20
-0.688000
0
SEQEND
8
0
0
POLYLINE
8
0
66
1
40
0.008000
41
0.008000
0
VERTEX
8
0
10
-0.751000
20
-0.558000
0
VERTEX
8
0
10
-0.736000
20
-0.560000
0
VERTEX
8
0
10
-0.720000
20
-0.566000
0
VERTEX
8
0
10
-0.704000
20
-0.575000
0
VERTEX
8
0
10
-0.686000
20
-0.588000
0
SEQEND
8
0
0
POLYLINE
8
0
66
1
40
0.008000
41
0.008000
0
VERTEX
8
0
10
-0.751000
20
-0.558000
0
VERTEX
8
0
10
-0.776000
20
-0.559000
0
VERTEX
8
0
10
-0.788000
20
-0.562000
0
VERTEX
8
0
10
-0.800000
20
-0.566000
0
VERTEX
8
0
10
-0.811000
20
-0.571000
0
VERTEX
8
0
10
-0.821000
20
-0.577000
0
VERTEX
8
0
10
-0.831000
20
-0.584000
0
VERTEX
8
0
10
-0.840000
20
-0.593000
0
VERTEX
8
0
10
-0.855000
20
-0.612000
0
VERTEX
8
0
10
-0.866000
20
-0.635000
0
VERTEX
8
0
10
-0.870000
20
-0.647000
0
VERTEX
8
0
10
-0.873000
20
-0.660000
0
VERTEX
8
0
10
-0.875000
20
-0.674000
0
VERTEX
8
0
10
-0.876000
20
-0.688000
0
SEQEND
8
0
0
TEXT
8
12632256
10
-0.886000
20
-0.738000
40
0.048000
41
1.041667
50
90.000000
1
Q1
0
POLYLINE
8
0
66
1
40
0.008000
41
0.008000
0
VERTEX
8
0
10
-0.805000
20
0.118000
0
VERTEX
8
0
10
-0.505000
20
0.118000
0
VERTEX
8
0
10
-0.455000
20
0.068000
0
VERTEX
8
0
10
-0.455000
20
-0.031000
0
VERTEX
8
0
10
-0.505000
20
-0.081000
0
VERTEX
8
0
10
-0.805000
20
-0.081000
0
VERTEX
8
0
10
-0.855000
20
-0.031000
0
VERTEX
8
0
10
-0.855000
20
0.068000
0
VERTEX
8
0
10
-0.805000
20
0.118000
0
SEQEND
8
0
0
TEXT
8
12632256
10
-0.705000
20
0.128000
40
0.048000
41
1.041667
1
X1
0
POLYLINE
8
0
66
1
40
0.008000
41
0.008000
0
VERTEX
8
0
10
-0.778000
20
0.135000
0
VERTEX
8
0
10
-0.788000
20
0.137000
0
VERTEX
8
0
10
-0.798000
20
0.143000
0
VERTEX
8
0
10
-0.806000
20
0.152000
0
VERTEX
8
0
10
-0.814000
20
0.164000
0
VERTEX
8
0
10
-0.820000
20
0.179000
0
VERTEX
8
0
10
-0.824000
20
0.196000
0
VERTEX
8
0
10
-0.827000
20
0.215000
0
VERTEX
8
0
10
-0.828000
20
0.235000
0
SEQEND
8
0
0
POLYLINE
8
0
66
1
40
0.008000
41
0.008000
0
VERTEX
8
0
10
-0.778000
20
0.335000
0
VERTEX
8
0
10
-0.788000
20
0.333000
0
VERTEX
8
0
10
-0.798000
20
0.327000
0
VERTEX
8
0
10
-0.806000
20
0.318000
0
VERTEX
8
0
10
-0.814000
20
0.306000
0
VERTEX
8
0
10
-0.820000
20
0.291000
0
VERTEX
8
0
10
-0.824000
20
0.274000
0
VERTEX
8
0
10
-0.827000
20
0.255000
0
VERTEX
8
0
10
-0.828000
20
0.235000
0
SEQEND
8
0
0
POLYLINE
8
0
66
1
40
0.008000
41
0.008000
0
VERTEX
8
0
10
-0.778000
20
0.135000
0
VERTEX
8
0
10
-0.768000
20
0.137000
0
VERTEX
8
0
10
-0.758000
20
0.143000
0
VERTEX
8
0
10
-0.750000
20
0.152000
0
VERTEX
8
0
10
-0.742000
20
0.164000
0
VERTEX
8
0
10
-0.736000
20
0.179000
0
VERTEX
8
0
10
-0.732000
20
0.196000
0
VERTEX
8
0
10
-0.729000
20
0.215000
0
VERTEX
8
0
10
-0.728000
20
0.235000
0
SEQEND
8
0
0
POLYLINE
8
0
66
1
40
0.008000
41
0.008000
0
VERTEX
8
0
10
-0.778000
20
0.335000
0
VERTEX
8
0
10
-0.768000
20
0.333000
0
VERTEX
8
0
10
-0.758000
20
0.327000
0
VERTEX
8
0
10
-0.750000
20
0.318000
0
VERTEX
8
0
10
-0.742000
20
0.306000
0
VERTEX
8
0
10
-0.736000
20
0.291000
0
VERTEX
8
0
10
-0.732000
20
0.274000
0
VERTEX
8
0
10
-0.729000
20
0.255000
0
VERTEX
8
0
10
-0.728000
20
0.235000
0
SEQEND
8
0
0
TEXT
8
12632256
10
-0.838000
20
0.185000
40
0.048000
41
1.041667
50
90.000000
1
C8
0
POLYLINE
8
0
66
1
40
0.008000
41
0.008000
0
VERTEX
8
0
10
-0.559000
20
0.131000
0
VERTEX
8
0
10
-0.569000
20
0.133000
0
VERTEX
8
0
10
-0.579000
20
0.139000
0
VERTEX
8
0
10
-0.587000
20
0.148000
0
VERTEX
8
0
10
-0.594000
20
0.160000
0
VERTEX
8
0
10
-0.600000
20
0.175000
0
VERTEX
8
0
10
-0.605000
20
0.192000
0
VERTEX
8
0
10
-0.608000
20
0.211000
0
VERTEX
8
0
10
-0.609000
20
0.231000
0
SEQEND
8
0
0
POLYLINE
8
0
66
1
40
0.008000
41
0.008000
0
VERTEX
8
0
10
-0.559000
20
0.331000
0
VERTEX
8
0
10
-0.569000
20
0.329000
0
VERTEX
8
0
10
-0.579000
20
0.323000
0
VERTEX
8
0
10
-0.587000
20
0.314000
0
VERTEX
8
0
10
-0.594000
20
0.302000
0
VERTEX
8
0
10
-0.600000
20
0.287000
0
VERTEX
8
0
10
-0.605000
20
0.270000
0
VERTEX
8
0
10
-0.608000
20
0.251000
0
VERTEX
8
0
10
-0.609000
20
0.231000
0
SEQEND
8
0
0
POLYLINE
8
0
66
1
40
0.008000
41
0.008000
0
VERTEX
8
0
10
-0.559000
20
0.131000
0
VERTEX
8
0
10
-0.549000
20
0.133000
0
VERTEX
8
0
10
-0.539000
20
0.139000
0
VERTEX
8
0
10
-0.531000
20
0.148000
0
VERTEX
8
0
10
-0.524000
20
0.160000
0
VERTEX
8
0
10
-0.518000
20
0.175000
0
VERTEX
8
0
10
-0.513000
20
0.192000
0
VERTEX
8
0
10
-0.510000
20
0.211000
0
VERTEX
8
0
10
-0.509000
20
0.231000
0
SEQEND
8
0
0
POLYLINE
8
0
66
1
40
0.008000
41
0.008000
0
VERTEX
8
0
10
-0.559000
20
0.331000
0
VERTEX
8
0
10
-0.549000
20
0.329000
0
VERTEX
8
0
10
-0.539000
20
0.323000
0
VERTEX
8
0
10
-0.531000
20
0.314000
0
VERTEX
8
0
10
-0.524000
20
0.302000
0
VERTEX
8
0
10
-0.518000
20
0.287000
0
VERTEX
8
0
10
-0.513000
20
0.270000
0
VERTEX
8
0
10
-0.510000
20
0.251000
0
VERTEX
8
0
10
-0.509000
20
0.231000
0
SEQEND
8
0
0
TEXT
8
12632256
10
-0.619000
20
0.181000
40
0.048000
41
1.041667
50
90.000000
1
C9
0
POLYLINE
8
0
66
1
40
0.008000
41
0.008000
0
VERTEX
8
0
10
-0.436000
20
0.005000
0
VERTEX
8
0
10
-0.433000
20
0.015000
0
VERTEX
8
0
10
-0.425000
20
0.025000
0
VERTEX
8
0
10
-0.411000
20
0.033000
0
VERTEX
8
0
10
-0.393000
20
0.040000
0
VERTEX
8
0
10
-0.371000
20
0.047000
0
VERTEX
8
0
10
-0.345000
20
0.051000
0
VERTEX
8
0
10
-0.317000
20
0.054000
0
VERTEX
8
0
10
-0.286000
20
0.055000
0
SEQEND
8
0
0
POLYLINE
8
0
66
1
40
0.008000
41
0.008000
0
VERTEX
8
0
10
-0.136000
20
0.005000
0
VERTEX
8
0
10
-0.139000
20
0.015000
0
VERTEX
8
0
10
-0.148000
20
0.025000
0
VERTEX
8
0
10
-0.162000
20
0.033000
0
VERTEX
8
0
10
-0.180000
20
0.040000
0
VERTEX
8
0
10
-0.202000
20
0.047000
0
VERTEX
8
0
10
-0.227000
20
0.051000
0
VERTEX
8
0
10
-0.255000
20
0.054000
0
VERTEX
8
0
10
-0.286000
20
0.055000
0
SEQEND
8
0
0
POLYLINE
8
0
66
1
40
0.008000
41
0.008000
0
VERTEX
8
0
10
-0.136000
20
0.005000
0
VERTEX
8
0
10
-0.139000
20
-0.005000
0
VERTEX
8
0
10
-0.148000
20
-0.014000
0
VERTEX
8
0
10
-0.162000
20
-0.022000
0
VERTEX
8
0
10
-0.180000
20
-0.030000
0
VERTEX
8
0
10
-0.202000
20
-0.036000
0
VERTEX
8
0
10
-0.227000
20
-0.040000
0
VERTEX
8
0
10
-0.255000
20
-0.043000
0
VERTEX
8
0
10
-0.286000
20
-0.044000
0
SEQEND
8
0
0
POLYLINE
8
0
66
1
40
0.008000
41
0.008000
0
VERTEX
8
0
10
-0.436000
20
0.005000
0
VERTEX
8
0
10
-0.433000
20
-0.005000
0
VERTEX
8
0
10
-0.425000
20
-0.014000
0
VERTEX
8
0
10
-0.411000
20
-0.022000
0
VERTEX
8
0
10
-0.393000
20
-0.030000
0
VERTEX
8
0
10
-0.371000
20
-0.036000
0
VERTEX
8
0
10
-0.345000
20
-0.040000
0
VERTEX
8
0
10
-0.317000
20
-0.043000
0
VERTEX
8
0
10
-0.286000
20
-0.044000
0
SEQEND
8
0
0
TEXT
8
12632256
10
-0.336000
20
0.065000
40
0.048000
41
1.041667
1
C1
0
POLYLINE
8
0
66
1
40
0.008000
41
0.008000
0
VERTEX
8
0
10
-0.387000
20
-0.450000
0
VERTEX
8
0
10
-0.337000
20
-0.450000
0
SEQEND
8
0
0
POLYLINE
8
0
66
1
40
0.008000
41
0.008000
0
VERTEX
8
0
10
-0.337000
20
-0.475000
0
VERTEX
8
0
10
-0.137000
20
-0.475000
0
VERTEX
8
0
10
-0.137000
20
-0.425000
0
VERTEX
8
0
10
-0.337000
20
-0.425000
0
VERTEX
8
0
10
-0.337000
20
-0.475000
0
SEQEND
8
0
0
POLYLINE
8
0
66
1
40
0.008000
41
0.008000
0
VERTEX
8
0
10
-0.137000
20
-0.450000
0
VERTEX
8
0
10
-0.087000
20
-0.450000
0
SEQEND
8
0
0
TEXT
8
12632256
10
-0.287000
20
-0.415000
40
0.048000
41
1.041667
1
R6
0
POLYLINE
8
0
66
1
40
0.008000
41
0.008000
0
VERTEX
8
0
10
0.260000
20
-1.512000
0
VERTEX
8
0
10
0.260000
20
-1.112000
0
SEQEND
8
0
0
POLYLINE
8
0
66
1
40
0.008000
41
0.008000
0
VERTEX
8
0
10
-0.139000
20
-1.512000
0
VERTEX
8
0
10
-0.139000
20
-1.112000
0
SEQEND
8
0
0
POLYLINE
8
0
66
1
40
0.008000
41
0.008000
0
VERTEX
8
0
10
0.260000
20
-1.112000
0
VERTEX
8
0
10
-0.139000
20
-1.112000
0
SEQEND
8
0
0
POLYLINE
8
0
66
1
40
0.008000
41
0.008000
0
VERTEX
8
0
10
0.260000
20
-1.512000
0
VERTEX
8
0
10
-0.139000
20
-1.512000
0
SEQEND
8
0
0
TEXT
8
12632256
10
0.278000
20
-1.144000
40
0.048000
41
1.041667
1
J4
0
POLYLINE
8
0
66
1
40
0.008000
41
0.008000
0
VERTEX
8
0
10
-2.374000
20
1.061000
0
VERTEX
8
0
10
-2.374000
20
0.661000
0
SEQEND
8
0
0
POLYLINE
8
0
66
1
40
0.008000
41
0.008000
0
VERTEX
8
0
10
-1.574000
20
1.061000
0
VERTEX
8
0
10
-1.574000
20
0.661000
0
VERTEX
8
0
10
-2.374000
20
0.661000
0
SEQEND
8
0
0
POLYLINE
8
0
66
1
40
0.008000
41
0.008000
0
VERTEX
8
0
10
-2.374000
20
1.061000
0
VERTEX
8
0
10
-1.574000
20
1.061000
0
SEQEND
8
0
0
TEXT
8
12632256
10
-2.024000
20
1.071000
40
0.048000
41
1.041667
1
J3
0
POLYLINE
8
0
66
1
40
0.008000
41
0.008000
0
VERTEX
8
0
10
-1.918000
20
-0.372000
0
VERTEX
8
0
10
-1.868000
20
-0.372000
0
SEQEND
8
0
0
POLYLINE
8
0
66
1
40
0.008000
41
0.008000
0
VERTEX
8
0
10
-1.868000
20
-0.397000
0
VERTEX
8
0
10
-1.668000
20
-0.397000
0
VERTEX
8
0
10
-1.668000
20
-0.347000
0
VERTEX
8
0
10
-1.868000
20
-0.347000
0
VERTEX
8
0
10
-1.868000
20
-0.397000
0
SEQEND
8
0
0
POLYLINE
8
0
66
1
40
0.008000
41
0.008000
0
VERTEX
8
0
10
-1.668000
20
-0.372000
0
VERTEX
8
0
10
-1.618000
20
-0.372000
0
SEQEND
8
0
0
TEXT
8
12632256
10
-1.818000
20
-0.337000
40
0.048000
41
1.041667
1
R7
0
POLYLINE
8
0
66
1
40
0.008000
41
0.008000
0
VERTEX
8
0
10
-1.918000
20
-0.521000
0
VERTEX
8
0
10
-1.868000
20
-0.521000
0
SEQEND
8
0
0
POLYLINE
8
0
66
1
40
0.008000
41
0.008000
0
VERTEX
8
0
10
-1.868000
20
-0.546000
0
VERTEX
8
0
10
-1.668000
20
-0.546000
0
VERTEX
8
0
10
-1.668000
20
-0.496000
0
VERTEX
8
0
10
-1.868000
20
-0.496000
0
VERTEX
8
0
10
-1.868000
20
-0.546000
0
SEQEND
8
0
0
POLYLINE
8
0
66
1
40
0.008000
41
0.008000
0
VERTEX
8
0
10
-1.668000
20
-0.521000
0
VERTEX
8
0
10
-1.618000
20
-0.521000
0
SEQEND
8
0
0
TEXT
8
12632256
10
-1.843000
20
-0.486000
40
0.048000
41
1.041667
1
R29
0
POLYLINE
8
0
66
1
40
0.008000
41
0.008000
0
VERTEX
8
0
10
-1.618000
20
0.037000
0
VERTEX
8
0
10
-1.568000
20
0.037000
0
SEQEND
8
0
0
POLYLINE
8
0
66
1
40
0.008000
41
0.008000
0
VERTEX
8
0
10
-1.568000
20
0.012000
0
VERTEX
8
0
10
-1.368000
20
0.012000
0
VERTEX
8
0
10
-1.368000
20
0.062000
0
VERTEX
8
0
10
-1.568000
20
0.062000
0
VERTEX
8
0
10
-1.568000
20
0.012000
0
SEQEND
8
0
0
POLYLINE
8
0
66
1
40
0.008000
41
0.008000
0
VERTEX
8
0
10
-1.368000
20
0.037000
0
VERTEX
8
0
10
-1.318000
20
0.037000
0
SEQEND
8
0
0
TEXT
8
12632256
10
-1.518000
20
0.072000
40
0.048000
41
1.041667
1
R3
0
POLYLINE
8
0
66
1
40
0.008000
41
0.008000
0
VERTEX
8
0
10
-1.618000
20
0.167000
0
VERTEX
8
0
10
-1.568000
20
0.167000
0
SEQEND
8
0
0
POLYLINE
8
0
66
1
40
0.008000
41
0.008000
0
VERTEX
8
0
10
-1.568000
20
0.142000
0
VERTEX
8
0
10
-1.368000
20
0.142000
0
VERTEX
8
0
10
-1.368000
20
0.192000
0
VERTEX
8
0
10
-1.568000
20
0.192000
0
VERTEX
8
0
10
-1.568000
20
0.142000
0
SEQEND
8
0
0
POLYLINE
8
0
66
1
40
0.008000
41
0.008000
0
VERTEX
8
0
10
-1.368000
20
0.167000
0
VERTEX
8
0
10
-1.318000
20
0.167000
0
SEQEND
8
0
0
TEXT
8
12632256
10
-1.518000
20
0.202000
40
0.048000
41
1.041667
1
R4
0
POLYLINE
8
0
66
1
40
0.008000
41
0.008000
0
VERTEX
8
0
10
-2.420000
20
0.520000
0
VERTEX
8
0
10
-2.420000
20
0.570000
0
SEQEND
8
0
0
POLYLINE
8
0
66
1
40
0.008000
41
0.008000
0
VERTEX
8
0
10
-2.445000
20
0.570000
0
VERTEX
8
0
10
-2.395000
20
0.570000
0
VERTEX
8
0
10
-2.395000
20
0.770000
0
VERTEX
8
0
10
-2.445000
20
0.770000
0
VERTEX
8
0
10
-2.445000
20
0.570000
0
SEQEND
8
0
0
POLYLINE
8
0
66
1
40
0.008000
41
0.008000
0
VERTEX
8
0
10
-2.420000
20
0.770000
0
VERTEX
8
0
10
-2.420000
20
0.820000
0
SEQEND
8
0
0
TEXT
8
12632256
10
-2.426000
20
0.923000
40
0.048000
41
1.041667
50
90.000000
1
R13
0
POLYLINE
8
0
66
1
40
0.025000
41
0.025000
0
VERTEX
8
0
10
0.674000
20
-0.497000
0
VERTEX
8
0
10
1.454000
20
-0.497000
0
VERTEX
8
0
10
1.454000
20
-0.143000
0
VERTEX
8
0
10
0.674000
20
-0.143000
0
VERTEX
8
0
10
0.674000
20
-0.497000
0
SEQEND
8
0
0
TEXT
8
12632256
10
0.712000
20
-0.247000
40
0.072000
41
0.972222
1
INCUBADORA
0
TEXT
8
12632256
10
0.695000
20
-0.378000
40
0.072000
41
0.972222
1
REFRIGERADA
0
TEXT
8
12632256
10
-2.460000
20
-0.607000
40
0.072000
41
1.111111
1
A
0
TEXT
8
12632256
10
-2.460000
20
-0.390000
40
0.072000
41
1.111111
1
B
0
TEXT
8
12632256
10
-2.452000
20
-0.126000
40
0.072000
41
1.111111
1
B'
0
TEXT
8
12632256
10
-2.373000
20
-1.095000
40
0.072000
41
1.111111
1
VIN
0
TEXT
8
12632256
10
-0.038000
20
-1.021000
40
0.064000
41
0.937500
1
SSR
0
TEXT
8
12632256
10
-0.121000
20
-1.089000
40
0.056000
41
1.071429
1
GND
0
TEXT
8
12632256
10
0.130000
20
-1.095000
40
0.072000
41
1.111111
1
+
0
TEXT
8
12632256
10
-2.373000
20
0.576000
40
0.064000
41
0.781250
1
TERM
0
TEXT
8
12632256
10
-2.145000
20
0.572000
40
0.064000
41
0.781250
1
DOOR
0
TEXT
8
12632256
10
-1.901000
20
0.576000
40
0.064000
41
0.781250
1
GN
0
TEXT
8
12632256
10
-1.727000
20
0.576000
40
0.064000
41
0.781250
1
5V
0
TEXT
8
12632256
10
-2.920000
20
0.533000
40
0.064000
41
0.781250
50
-90.000000
1
-
0
TEXT
8
12632256
10
-2.617000
20
0.970000
40
0.064000
41
0.781250
50
-90.000000
1
IN
0
TEXT
8
12632256
10
-2.371000
20
1.357000
40
0.064000
41
0.781250
1
v1.0
0
TEXT
8
12632256
10
-2.441000
20
1.436000
40
0.064000
41
0.781250
1
JUDAPIES
0
POLYLINE
8
0
66
1
40
0.000000
41
0.000000
0
VERTEX
8
0
10
-2.847000
20
0.993000
0
VERTEX
8
0
10
-2.568000
20
0.993000
0
VERTEX
8
0
10
-2.568000
20
1.234000
0
VERTEX
8
0
10
-2.847000
20
1.234000
0
VERTEX
8
0
10
-2.847000
20
0.993000
0
SEQEND
8
0
0
TEXT
8
12632256
10
-1.428000
20
-0.226000
40
0.064000
41
0.781250
1
U D R L + + + +
0
POLYLINE
8
0
66
1
40
0.008000
41
0.008000
0
VERTEX
8
0
10
-1.928000
20
0.060000
0
VERTEX
8
0
10
-1.928000
20
0.022000
0
SEQEND
8
0
0
POLYLINE
8
0
66
1
40
0.008000
41
0.008000
0
VERTEX
8
0
10
-1.817000
20
0.060000
0
VERTEX
8
0
10
-1.817000
20
0.021000
0
SEQEND
8
0
0
POLYLINE
8
0
66
1
40
0.008000
41
0.008000
0
VERTEX
8
0
10
-1.943000
20
-0.019000
0
VERTEX
8
0
10
-1.963000
20
-0.019000
0
SEQEND
8
0
0
POLYLINE
8
0
66
1
40
0.008000
41
0.008000
0
VERTEX
8
0
10
-1.953000
20
-0.009000
0
VERTEX
8
0
10
-1.953000
20
-0.029000
0
SEQEND
8
0
0
TEXT
8
12632256
10
-1.973000
20
0.116000
40
0.048000
41
1.041667
50
90.000000
71
2
1
C22
0
POLYLINE
8
0
66
1
40
0.008000
41
0.008000
0
VERTEX
8
0
10
-1.062000
20
0.398000
0
VERTEX
8
0
10
-1.100000
20
0.398000
0
SEQEND
8
0
0
POLYLINE
8
0
66
1
40
0.008000
41
0.008000
0
VERTEX
8
0
10
-1.062000
20
0.287000
0
VERTEX
8
0
10
-1.101000
20
0.287000
0
SEQEND
8
0
0
POLYLINE
8
0
66
1
40
0.008000
41
0.008000
0
VERTEX
8
0
10
-1.142000
20
0.413000
0
VERTEX
8
0
10
-1.142000
20
0.433000
0
SEQEND
8
0
0
POLYLINE
8
0
66
1
40
0.008000
41
0.008000
0
VERTEX
8
0
10
-1.132000
20
0.423000
0
VERTEX
8
0
10
-1.152000
20
0.423000
0
SEQEND
8
0
0
TEXT
8
12632256
10
-1.199000
20
0.333000
40
0.048000
41
1.041667
71
2
1
C3
0
POLYLINE
8
0
66
1
40
0.008000
41
0.008000
0
VERTEX
8
0
10
-0.948000
20
0.050000
0
VERTEX
8
0
10
-0.986000
20
0.050000
0
SEQEND
8
0
0
POLYLINE
8
0
66
1
40
0.008000
41
0.008000
0
VERTEX
8
0
10
-0.948000
20
-0.060000
0
VERTEX
8
0
10
-0.987000
20
-0.060000
0
SEQEND
8
0
0
POLYLINE
8
0
66
1
40
0.008000
41
0.008000
0
VERTEX
8
0
10
-1.028000
20
0.065000
0
VERTEX
8
0
10
-1.028000
20
0.085000
0
SEQEND
8
0
0
POLYLINE
8
0
66
1
40
0.008000
41
0.008000
0
VERTEX
8
0
10
-1.018000
20
0.075000
0
VERTEX
8
0
10
-1.038000
20
0.075000
0
SEQEND
8
0
0
TEXT
8
12632256
10
-1.071000
20
-0.055000
40
0.048000
41
1.041667
71
2
1
C7
0
TEXT
8
12632256
10
1.289000
20
1.286000
40
0.064000
41
0.781250
1
www.jpinglobal.com
0
TEXT
8
12632256
10
-2.557000
20
1.244000
40
0.064000
41
0.781250
1
DIELEC-IR0012
0
POLYLINE
8
0
66
1
40
0.008000
41
0.008000
0
VERTEX
8
0
10
0.175000
20
-0.515000
0
VERTEX
8
0
10
0.225000
20
-0.515000
0
SEQEND
8
0
0
POLYLINE
8
0
66
1
40
0.008000
41
0.008000
0
VERTEX
8
0
10
0.225000
20
-0.540000
0
VERTEX
8
0
10
0.425000
20
-0.540000
0
VERTEX
8
0
10
0.425000
20
-0.490000
0
VERTEX
8
0
10
0.225000
20
-0.490000
0
VERTEX
8
0
10
0.225000
20
-0.540000
0
SEQEND
8
0
0
POLYLINE
8
0
66
1
40
0.008000
41
0.008000
0
VERTEX
8
0
10
0.425000
20
-0.515000
0
VERTEX
8
0
10
0.475000
20
-0.515000
0
SEQEND
8
0
0
TEXT
8
12632256
10
0.250000
20
-0.618000
40
0.048000
41
1.041667
1
R25
0
POLYLINE
8
0
66
1
40
0.008000
41
0.008000
0
VERTEX
8
0
10
0.469000
20
-0.206000
0
VERTEX
8
0
10
0.419000
20
-0.206000
0
SEQEND
8
0
0
POLYLINE
8
0
66
1
40
0.008000
41
0.008000
0
VERTEX
8
0
10
0.219000
20
-0.231000
0
VERTEX
8
0
10
0.419000
20
-0.231000
0
VERTEX
8
0
10
0.419000
20
-0.181000
0
VERTEX
8
0
10
0.219000
20
-0.181000
0
VERTEX
8
0
10
0.219000
20
-0.231000
0
SEQEND
8
0
0
POLYLINE
8
0
66
1
40
0.008000
41
0.008000
0
VERTEX
8
0
10
0.219000
20
-0.206000
0
VERTEX
8
0
10
0.169000
20
-0.206000
0
SEQEND
8
0
0
TEXT
8
12632256
10
0.240000
20
-0.171000
40
0.048000
41
1.041667
1
R26
0
POLYLINE
8
0
66
1
40
0.008000
41
0.008000
0
VERTEX
8
0
10
0.886000
20
-0.849000
0
VERTEX
8
0
10
0.886000
20
-0.649000
0
SEQEND
8
0
0
POLYLINE
8
0
66
1
40
0.008000
41
0.008000
0
VERTEX
8
0
10
0.821000
20
-0.879000
0
VERTEX
8
0
10
0.836000
20
-0.877000
0
VERTEX
8
0
10
0.852000
20
-0.872000
0
VERTEX
8
0
10
0.868000
20
-0.862000
0
VERTEX
8
0
10
0.886000
20
-0.849000
0
SEQEND
8
0
0
POLYLINE
8
0
66
1
40
0.008000
41
0.008000
0
VERTEX
8
0
10
0.821000
20
-0.879000
0
VERTEX
8
0
10
0.796000
20
-0.878000
0
VERTEX
8
0
10
0.784000
20
-0.875000
0
VERTEX
8
0
10
0.772000
20
-0.871000
0
VERTEX
8
0
10
0.761000
20
-0.866000
0
VERTEX
8
0
10
0.751000
20
-0.860000
0
VERTEX
8
0
10
0.741000
20
-0.853000
0
VERTEX
8
0
10
0.732000
20
-0.844000
0
VERTEX
8
0
10
0.717000
20
-0.825000
0
VERTEX
8
0
10
0.706000
20
-0.802000
0
VERTEX
8
0
10
0.702000
20
-0.790000
0
VERTEX
8
0
10
0.699000
20
-0.777000
0
VERTEX
8
0
10
0.697000
20
-0.763000
0
VERTEX
8
0
10
0.696000
20
-0.749000
0
SEQEND
8
0
0
POLYLINE
8
0
66
1
40
0.008000
41
0.008000
0
VERTEX
8
0
10
0.821000
20
-0.619000
0
VERTEX
8
0
10
0.836000
20
-0.621000
0
VERTEX
8
0
10
0.852000
20
-0.626000
0
VERTEX
8
0
10
0.868000
20
-0.636000
0
VERTEX
8
0
10
0.886000
20
-0.649000
0
SEQEND
8
0
0
POLYLINE
8
0
66
1
40
0.008000
41
0.008000
0
VERTEX
8
0
10
0.821000
20
-0.619000
0
VERTEX
8
0
10
0.796000
20
-0.620000
0
VERTEX
8
0
10
0.784000
20
-0.623000
0
VERTEX
8
0
10
0.772000
20
-0.627000
0
VERTEX
8
0
10
0.761000
20
-0.632000
0
VERTEX
8
0
10
0.751000
20
-0.638000
0
VERTEX
8
0
10
0.741000
20
-0.645000
0
VERTEX
8
0
10
0.732000
20
-0.654000
0
VERTEX
8
0
10
0.717000
20
-0.673000
0
VERTEX
8
0
10
0.706000
20
-0.696000
0
VERTEX
8
0
10
0.702000
20
-0.708000
0
VERTEX
8
0
10
0.699000
20
-0.721000
0
VERTEX
8
0
10
0.697000
20
-0.735000
0
VERTEX
8
0
10
0.696000
20
-0.749000
0
SEQEND
8
0
0
TEXT
8
12632256
10
0.686000
20
-0.824000
40
0.048000
41
1.041667
50
90.000000
1
Q13
0
POLYLINE
8
0
66
1
40
0.008000
41
0.008000
0
VERTEX
8
0
10
0.876000
20
-0.028000
0
VERTEX
8
0
10
0.876000
20
0.171000
0
SEQEND
8
0
0
POLYLINE
8
0
66
1
40
0.008000
41
0.008000
0
VERTEX
8
0
10
0.811000
20
-0.058000
0
VERTEX
8
0
10
0.826000
20
-0.056000
0
VERTEX
8
0
10
0.842000
20
-0.050000
0
VERTEX
8
0
10
0.858000
20
-0.041000
0
VERTEX
8
0
10
0.876000
20
-0.028000
0
SEQEND
8
0
0
POLYLINE
8
0
66
1
40
0.008000
41
0.008000
0
VERTEX
8
0
10
0.811000
20
-0.058000
0
VERTEX
8
0
10
0.786000
20
-0.057000
0
VERTEX
8
0
10
0.774000
20
-0.054000
0
VERTEX
8
0
10
0.762000
20
-0.050000
0
VERTEX
8
0
10
0.751000
20
-0.045000
0
VERTEX
8
0
10
0.741000
20
-0.039000
0
VERTEX
8
0
10
0.731000
20
-0.032000
0
VERTEX
8
0
10
0.722000
20
-0.024000
0
VERTEX
8
0
10
0.707000
20
-0.004000
0
VERTEX
8
0
10
0.696000
20
0.018000
0
VERTEX
8
0
10
0.692000
20
0.031000
0
VERTEX
8
0
10
0.689000
20
0.044000
0
VERTEX
8
0
10
0.687000
20
0.057000
0
VERTEX
8
0
10
0.686000
20
0.071000
0
SEQEND
8
0
0
POLYLINE
8
0
66
1
40
0.008000
41
0.008000
0
VERTEX
8
0
10
0.811000
20
0.201000
0
VERTEX
8
0
10
0.826000
20
0.199000
0
VERTEX
8
0
10
0.842000
20
0.194000
0
VERTEX
8
0
10
0.858000
20
0.184000
0
VERTEX
8
0
10
0.876000
20
0.171000
0
SEQEND
8
0
0
POLYLINE
8
0
66
1
40
0.008000
41
0.008000
0
VERTEX
8
0
10
0.811000
20
0.201000
0
VERTEX
8
0
10
0.786000
20
0.200000
0
VERTEX
8
0
10
0.774000
20
0.197000
0
VERTEX
8
0
10
0.762000
20
0.193000
0
VERTEX
8
0
10
0.751000
20
0.188000
0
VERTEX
8
0
10
0.741000
20
0.182000
0
VERTEX
8
0
10
0.731000
20
0.175000
0
VERTEX
8
0
10
0.722000
20
0.166000
0
VERTEX
8
0
10
0.707000
20
0.147000
0
VERTEX
8
0
10
0.696000
20
0.124000
0
VERTEX
8
0
10
0.692000
20
0.112000
0
VERTEX
8
0
10
0.689000
20
0.099000
0
VERTEX
8
0
10
0.687000
20
0.085000
0
VERTEX
8
0
10
0.686000
20
0.071000
0
SEQEND
8
0
0
TEXT
8
12632256
10
0.676000
20
-0.003000
40
0.048000
41
1.041667
50
90.000000
1
Q14
0
POLYLINE
8
0
66
1
40
0.008000
41
0.008000
0
VERTEX
8
0
10
1.298000
20
-0.689000
0
VERTEX
8
0
10
1.248000
20
-0.689000
0
SEQEND
8
0
0
POLYLINE
8
0
66
1
40
0.008000
41
0.008000
0
VERTEX
8
0
10
1.048000
20
-0.714000
0
VERTEX
8
0
10
1.248000
20
-0.714000
0
VERTEX
8
0
10
1.248000
20
-0.664000
0
VERTEX
8
0
10
1.048000
20
-0.664000
0
VERTEX
8
0
10
1.048000
20
-0.714000
0
SEQEND
8
0
0
POLYLINE
8
0
66
1
40
0.008000
41
0.008000
0
VERTEX
8
0
10
1.048000
20
-0.689000
0
VERTEX
8
0
10
0.998000
20
-0.689000
0
SEQEND
8
0
0
TEXT
8
12632256
10
1.073000
20
-0.772000
40
0.048000
41
1.041667
1
R22
0
POLYLINE
8
0
66
1
40
0.008000
41
0.008000
0
VERTEX
8
0
10
1.298000
20
0.164000
0
VERTEX
8
0
10
1.248000
20
0.164000
0
SEQEND
8
0
0
POLYLINE
8
0
66
1
40
0.008000
41
0.008000
0
VERTEX
8
0
10
1.048000
20
0.139000
0
VERTEX
8
0
10
1.248000
20
0.139000
0
VERTEX
8
0
10
1.248000
20
0.189000
0
VERTEX
8
0
10
1.048000
20
0.189000
0
VERTEX
8
0
10
1.048000
20
0.139000
0
SEQEND
8
0
0
POLYLINE
8
0
66
1
40
0.008000
41
0.008000
0
VERTEX
8
0
10
1.048000
20
0.164000
0
VERTEX
8
0
10
0.998000
20
0.164000
0
SEQEND
8
0
0
TEXT
8
12632256
10
1.073000
20
0.081000
40
0.048000
41
1.041667
1
R23
0
POLYLINE
8
0
66
1
40
0.008000
41
0.008000
0
VERTEX
8
0
10
2.353000
20
1.055000
0
VERTEX
8
0
10
2.353000
20
0.455000
0
SEQEND
8
0
0
POLYLINE
8
0
66
1
40
0.008000
41
0.008000
0
VERTEX
8
0
10
2.153000
20
0.455000
0
VERTEX
8
0
10
2.153000
20
1.055000
0
SEQEND
8
0
0
POLYLINE
8
0
66
1
40
0.008000
41
0.008000
0
VERTEX
8
0
10
2.153000
20
0.455000
0
VERTEX
8
0
10
2.253000
20
0.445000
0
VERTEX
8
0
10
2.353000
20
0.455000
0
SEQEND
8
0
0
POLYLINE
8
0
66
1
40
0.008000
41
0.008000
0
VERTEX
8
0
10
2.153000
20
1.055000
0
VERTEX
8
0
10
2.253000
20
1.065000
0
VERTEX
8
0
10
2.353000
20
1.055000
0
SEQEND
8
0
0
POLYLINE
8
0
66
1
40
0.008000
41
0.008000
0
VERTEX
8
0
10
2.338000
20
1.055000
0
VERTEX
8
0
10
2.338000
20
0.455000
0
SEQEND
8
0
0
POLYLINE
8
0
66
1
40
0.008000
41
0.008000
0
VERTEX
8
0
10
2.338000
20
1.010000
0
VERTEX
8
0
10
2.353000
20
0.995000
0
SEQEND
8
0
0
POLYLINE
8
0
66
1
40
0.008000
41
0.008000
0
VERTEX
8
0
10
2.338000
20
0.960000
0
VERTEX
8
0
10
2.353000
20
0.945000
0
SEQEND
8
0
0
POLYLINE
8
0
66
1
40
0.008000
41
0.008000
0
VERTEX
8
0
10
2.338000
20
0.960000
0
VERTEX
8
0
10
2.353000
20
0.945000
0
SEQEND
8
0
0
POLYLINE
8
0
66
1
40
0.008000
41
0.008000
0
VERTEX
8
0
10
2.338000
20
0.910000
0
VERTEX
8
0
10
2.353000
20
0.895000
0
SEQEND
8
0
0
POLYLINE
8
0
66
1
40
0.008000
41
0.008000
0
VERTEX
8
0
10
2.338000
20
0.910000
0
VERTEX
8
0
10
2.353000
20
0.895000
0
SEQEND
8
0
0
POLYLINE
8
0
66
1
40
0.008000
41
0.008000
0
VERTEX
8
0
10
2.338000
20
0.860000
0
VERTEX
8
0
10
2.353000
20
0.845000
0
SEQEND
8
0
0
POLYLINE
8
0
66
1
40
0.008000
41
0.008000
0
VERTEX
8
0
10
2.338000
20
0.860000
0
VERTEX
8
0
10
2.353000
20
0.845000
0
SEQEND
8
0
0
POLYLINE
8
0
66
1
40
0.008000
41
0.008000
0
VERTEX
8
0
10
2.338000
20
0.810000
0
VERTEX
8
0
10
2.353000
20
0.795000
0
SEQEND
8
0
0
POLYLINE
8
0
66
1
40
0.008000
41
0.008000
0
VERTEX
8
0
10
2.338000
20
0.810000
0
VERTEX
8
0
10
2.353000
20
0.795000
0
SEQEND
8
0
0
POLYLINE
8
0
66
1
40
0.008000
41
0.008000
0
VERTEX
8
0
10
2.338000
20
0.760000
0
VERTEX
8
0
10
2.353000
20
0.745000
0
SEQEND
8
0
0
POLYLINE
8
0
66
1
40
0.008000
41
0.008000
0
VERTEX
8
0
10
2.338000
20
0.760000
0
VERTEX
8
0
10
2.353000
20
0.745000
0
SEQEND
8
0
0
POLYLINE
8
0
66
1
40
0.008000
41
0.008000
0
VERTEX
8
0
10
2.338000
20
0.710000
0
VERTEX
8
0
10
2.353000
20
0.695000
0
SEQEND
8
0
0
POLYLINE
8
0
66
1
40
0.008000
41
0.008000
0
VERTEX
8
0
10
2.338000
20
0.710000
0
VERTEX
8
0
10
2.353000
20
0.695000
0
SEQEND
8
0
0
POLYLINE
8
0
66
1
40
0.008000
41
0.008000
0
VERTEX
8
0
10
2.338000
20
0.660000
0
VERTEX
8
0
10
2.353000
20
0.645000
0
SEQEND
8
0
0
POLYLINE
8
0
66
1
40
0.008000
41
0.008000
0
VERTEX
8
0
10
2.338000
20
0.660000
0
VERTEX
8
0
10
2.353000
20
0.645000
0
SEQEND
8
0
0
POLYLINE
8
0
66
1
40
0.008000
41
0.008000
0
VERTEX
8
0
10
2.338000
20
0.610000
0
VERTEX
8
0
10
2.353000
20
0.595000
0
SEQEND
8
0
0
POLYLINE
8
0
66
1
40
0.008000
41
0.008000
0
VERTEX
8
0
10
2.338000
20
0.610000
0
VERTEX
8
0
10
2.353000
20
0.595000
0
SEQEND
8
0
0
POLYLINE
8
0
66
1
40
0.008000
41
0.008000
0
VERTEX
8
0
10
2.338000
20
0.560000
0
VERTEX
8
0
10
2.353000
20
0.545000
0
SEQEND
8
0
0
POLYLINE
8
0
66
1
40
0.008000
41
0.008000
0
VERTEX
8
0
10
2.338000
20
0.560000
0
VERTEX
8
0
10
2.353000
20
0.545000
0
SEQEND
8
0
0
POLYLINE
8
0
66
1
40
0.008000
41
0.008000
0
VERTEX
8
0
10
2.338000
20
0.510000
0
VERTEX
8
0
10
2.353000
20
0.495000
0
SEQEND
8
0
0
TEXT
8
12632256
10
2.411000
20
0.705000
40
0.048000
41
1.041667
50
90.000000
1
Q3
0
POLYLINE
8
0
66
1
40
0.008000
41
0.008000
0
VERTEX
8
0
10
2.353000
20
0.389000
0
VERTEX
8
0
10
2.353000
20
-0.210000
0
SEQEND
8
0
0
POLYLINE
8
0
66
1
40
0.008000
41
0.008000
0
VERTEX
8
0
10
2.153000
20
-0.210000
0
VERTEX
8
0
10
2.153000
20
0.389000
0
SEQEND
8
0
0
POLYLINE
8
0
66
1
40
0.008000
41
0.008000
0
VERTEX
8
0
10
2.153000
20
-0.210000
0
VERTEX
8
0
10
2.253000
20
-0.220000
0
VERTEX
8
0
10
2.353000
20
-0.210000
0
SEQEND
8
0
0
POLYLINE
8
0
66
1
40
0.008000
41
0.008000
0
VERTEX
8
0
10
2.153000
20
0.389000
0
VERTEX
8
0
10
2.253000
20
0.399000
0
VERTEX
8
0
10
2.353000
20
0.389000
0
SEQEND
8
0
0
POLYLINE
8
0
66
1
40
0.008000
41
0.008000
0
VERTEX
8
0
10
2.338000
20
0.389000
0
VERTEX
8
0
10
2.338000
20
-0.210000
0
SEQEND
8
0
0
POLYLINE
8
0
66
1
40
0.008000
41
0.008000
0
VERTEX
8
0
10
2.338000
20
0.344000
0
VERTEX
8
0
10
2.353000
20
0.329000
0
SEQEND
8
0
0
POLYLINE
8
0
66
1
40
0.008000
41
0.008000
0
VERTEX
8
0
10
2.338000
20
0.294000
0
VERTEX
8
0
10
2.353000
20
0.279000
0
SEQEND
8
0
0
POLYLINE
8
0
66
1
40
0.008000
41
0.008000
0
VERTEX
8
0
10
2.338000
20
0.294000
0
VERTEX
8
0
10
2.353000
20
0.279000
0
SEQEND
8
0
0
POLYLINE
8
0
66
1
40
0.008000
41
0.008000
0
VERTEX
8
0
10
2.338000
20
0.244000
0
VERTEX
8
0
10
2.353000
20
0.229000
0
SEQEND
8
0
0
POLYLINE
8
0
66
1
40
0.008000
41
0.008000
0
VERTEX
8
0
10
2.338000
20
0.244000
0
VERTEX
8
0
10
2.353000
20
0.229000
0
SEQEND
8
0
0
POLYLINE
8
0
66
1
40
0.008000
41
0.008000
0
VERTEX
8
0
10
2.338000
20
0.194000
0
VERTEX
8
0
10
2.353000
20
0.179000
0
SEQEND
8
0
0
POLYLINE
8
0
66
1
40
0.008000
41
0.008000
0
VERTEX
8
0
10
2.338000
20
0.194000
0
VERTEX
8
0
10
2.353000
20
0.179000
0
SEQEND
8
0
0
POLYLINE
8
0
66
1
40
0.008000
41
0.008000
0
VERTEX
8
0
10
2.338000
20
0.144000
0
VERTEX
8
0
10
2.353000
20
0.129000
0
SEQEND
8
0
0
POLYLINE
8
0
66
1
40
0.008000
41
0.008000
0
VERTEX
8
0
10
2.338000
20
0.144000
0
VERTEX
8
0
10
2.353000
20
0.129000
0
SEQEND
8
0
0
POLYLINE
8
0
66
1
40
0.008000
41
0.008000
0
VERTEX
8
0
10
2.338000
20
0.094000
0
VERTEX
8
0
10
2.353000
20
0.079000
0
SEQEND
8
0
0
POLYLINE
8
0
66
1
40
0.008000
41
0.008000
0
VERTEX
8
0
10
2.338000
20
0.094000
0
VERTEX
8
0
10
2.353000
20
0.079000
0
SEQEND
8
0
0
POLYLINE
8
0
66
1
40
0.008000
41
0.008000
0
VERTEX
8
0
10
2.338000
20
0.044000
0
VERTEX
8
0
10
2.353000
20
0.029000
0
SEQEND
8
0
0
POLYLINE
8
0
66
1
40
0.008000
41
0.008000
0
VERTEX
8
0
10
2.338000
20
0.044000
0
VERTEX
8
0
10
2.353000
20
0.029000
0
SEQEND
8
0
0
POLYLINE
8
0
66
1
40
0.008000
41
0.008000
0
VERTEX
8
0
10
2.338000
20
-0.005000
0
VERTEX
8
0
10
2.353000
20
-0.020000
0
SEQEND
8
0
0
POLYLINE
8
0
66
1
40
0.008000
41
0.008000
0
VERTEX
8
0
10
2.338000
20
-0.005000
0
VERTEX
8
0
10
2.353000
20
-0.020000
0
SEQEND
8
0
0
POLYLINE
8
0
66
1
40
0.008000
41
0.008000
0
VERTEX
8
0
10
2.338000
20
-0.055000
0
VERTEX
8
0
10
2.353000
20
-0.070000
0
SEQEND
8
0
0
POLYLINE
8
0
66
1
40
0.008000
41
0.008000
0
VERTEX
8
0
10
2.338000
20
-0.055000
0
VERTEX
8
0
10
2.353000
20
-0.070000
0
SEQEND
8
0
0
POLYLINE
8
0
66
1
40
0.008000
41
0.008000
0
VERTEX
8
0
10
2.338000
20
-0.105000
0
VERTEX
8
0
10
2.353000
20
-0.120000
0
SEQEND
8
0
0
POLYLINE
8
0
66
1
40
0.008000
41
0.008000
0
VERTEX
8
0
10
2.338000
20
-0.105000
0
VERTEX
8
0
10
2.353000
20
-0.120000
0
SEQEND
8
0
0
POLYLINE
8
0
66
1
40
0.008000
41
0.008000
0
VERTEX
8
0
10
2.338000
20
-0.155000
0
VERTEX
8
0
10
2.353000
20
-0.170000
0
SEQEND
8
0
0
TEXT
8
12632256
10
2.411000
20
0.039000
40
0.048000
41
1.041667
50
90.000000
1
Q4
0
POLYLINE
8
0
66
1
40
0.008000
41
0.008000
0
VERTEX
8
0
10
2.353000
20
-0.253000
0
VERTEX
8
0
10
2.353000
20
-0.853000
0
SEQEND
8
0
0
POLYLINE
8
0
66
1
40
0.008000
41
0.008000
0
VERTEX
8
0
10
2.153000
20
-0.853000
0
VERTEX
8
0
10
2.153000
20
-0.253000
0
SEQEND
8
0
0
POLYLINE
8
0
66
1
40
0.008000
41
0.008000
0
VERTEX
8
0
10
2.153000
20
-0.853000
0
VERTEX
8
0
10
2.253000
20
-0.863000
0
VERTEX
8
0
10
2.353000
20
-0.853000
0
SEQEND
8
0
0
POLYLINE
8
0
66
1
40
0.008000
41
0.008000
0
VERTEX
8
0
10
2.153000
20
-0.253000
0
VERTEX
8
0
10
2.253000
20
-0.243000
0
VERTEX
8
0
10
2.353000
20
-0.253000
0
SEQEND
8
0
0
POLYLINE
8
0
66
1
40
0.008000
41
0.008000
0
VERTEX
8
0
10
2.338000
20
-0.253000
0
VERTEX
8
0
10
2.338000
20
-0.853000
0
SEQEND
8
0
0
POLYLINE
8
0
66
1
40
0.008000
41
0.008000
0
VERTEX
8
0
10
2.338000
20
-0.298000
0
VERTEX
8
0
10
2.353000
20
-0.313000
0
SEQEND
8
0
0
POLYLINE
8
0
66
1
40
0.008000
41
0.008000
0
VERTEX
8
0
10
2.338000
20
-0.348000
0
VERTEX
8
0
10
2.353000
20
-0.363000
0
SEQEND
8
0
0
POLYLINE
8
0
66
1
40
0.008000
41
0.008000
0
VERTEX
8
0
10
2.338000
20
-0.348000
0
VERTEX
8
0
10
2.353000
20
-0.363000
0
SEQEND
8
0
0
POLYLINE
8
0
66
1
40
0.008000
41
0.008000
0
VERTEX
8
0
10
2.338000
20
-0.398000
0
VERTEX
8
0
10
2.353000
20
-0.413000
0
SEQEND
8
0
0
POLYLINE
8
0
66
1
40
0.008000
41
0.008000
0
VERTEX
8
0
10
2.338000
20
-0.398000
0
VERTEX
8
0
10
2.353000
20
-0.413000
0
SEQEND
8
0
0
POLYLINE
8
0
66
1
40
0.008000
41
0.008000
0
VERTEX
8
0
10
2.338000
20
-0.448000
0
VERTEX
8
0
10
2.353000
20
-0.463000
0
SEQEND
8
0
0
POLYLINE
8
0
66
1
40
0.008000
41
0.008000
0
VERTEX
8
0
10
2.338000
20
-0.448000
0
VERTEX
8
0
10
2.353000
20
-0.463000
0
SEQEND
8
0
0
POLYLINE
8
0
66
1
40
0.008000
41
0.008000
0
VERTEX
8
0
10
2.338000
20
-0.498000
0
VERTEX
8
0
10
2.353000
20
-0.513000
0
SEQEND
8
0
0
POLYLINE
8
0
66
1
40
0.008000
41
0.008000
0
VERTEX
8
0
10
2.338000
20
-0.498000
0
VERTEX
8
0
10
2.353000
20
-0.513000
0
SEQEND
8
0
0
POLYLINE
8
0
66
1
40
0.008000
41
0.008000
0
VERTEX
8
0
10
2.338000
20
-0.548000
0
VERTEX
8
0
10
2.353000
20
-0.563000
0
SEQEND
8
0
0
POLYLINE
8
0
66
1
40
0.008000
41
0.008000
0
VERTEX
8
0
10
2.338000
20
-0.548000
0
VERTEX
8
0
10
2.353000
20
-0.563000
0
SEQEND
8
0
0
POLYLINE
8
0
66
1
40
0.008000
41
0.008000
0
VERTEX
8
0
10
2.338000
20
-0.598000
0
VERTEX
8
0
10
2.353000
20
-0.613000
0
SEQEND
8
0
0
POLYLINE
8
0
66
1
40
0.008000
41
0.008000
0
VERTEX
8
0
10
2.338000
20
-0.598000
0
VERTEX
8
0
10
2.353000
20
-0.613000
0
SEQEND
8
0
0
POLYLINE
8
0
66
1
40
0.008000
41
0.008000
0
VERTEX
8
0
10
2.338000
20
-0.648000
0
VERTEX
8
0
10
2.353000
20
-0.663000
0
SEQEND
8
0
0
POLYLINE
8
0
66
1
40
0.008000
41
0.008000
0
VERTEX
8
0
10
2.338000
20
-0.648000
0
VERTEX
8
0
10
2.353000
20
-0.663000
0
SEQEND
8
0
0
POLYLINE
8
0
66
1
40
0.008000
41
0.008000
0
VERTEX
8
0
10
2.338000
20
-0.698000
0
VERTEX
8
0
10
2.353000
20
-0.713000
0
SEQEND
8
0
0
POLYLINE
8
0
66
1
40
0.008000
41
0.008000
0
VERTEX
8
0
10
2.338000
20
-0.698000
0
VERTEX
8
0
10
2.353000
20
-0.713000
0
SEQEND
8
0
0
POLYLINE
8
0
66
1
40
0.008000
41
0.008000
0
VERTEX
8
0
10
2.338000
20
-0.748000
0
VERTEX
8
0
10
2.353000
20
-0.763000
0
SEQEND
8
0
0
POLYLINE
8
0
66
1
40
0.008000
41
0.008000
0
VERTEX
8
0
10
2.338000
20
-0.748000
0
VERTEX
8
0
10
2.353000
20
-0.763000
0
SEQEND
8
0
0
POLYLINE
8
0
66
1
40
0.008000
41
0.008000
0
VERTEX
8
0
10
2.338000
20
-0.798000
0
VERTEX
8
0
10
2.353000
20
-0.813000
0
SEQEND
8
0
0
TEXT
8
12632256
10
2.411000
20
-0.603000
40
0.048000
41
1.041667
50
90.000000
1
Q5
0
POLYLINE
8
0
66
1
40
0.008000
41
0.008000
0
VERTEX
8
0
10
2.361000
20
-0.899000
0
VERTEX
8
0
10
2.361000
20
-1.499000
0
SEQEND
8
0
0
POLYLINE
8
0
66
1
40
0.008000
41
0.008000
0
VERTEX
8
0
10
2.161000
20
-1.499000
0
VERTEX
8
0
10
2.161000
20
-0.899000
0
SEQEND
8
0
0
POLYLINE
8
0
66
1
40
0.008000
41
0.008000
0
VERTEX
8
0
10
2.161000
20
-1.499000
0
VERTEX
8
0
10
2.261000
20
-1.509000
0
VERTEX
8
0
10
2.361000
20
-1.499000
0
SEQEND
8
0
0
POLYLINE
8
0
66
1
40
0.008000
41
0.008000
0
VERTEX
8
0
10
2.161000
20
-0.899000
0
VERTEX
8
0
10
2.261000
20
-0.889000
0
VERTEX
8
0
10
2.361000
20
-0.899000
0
SEQEND
8
0
0
POLYLINE
8
0
66
1
40
0.008000
41
0.008000
0
VERTEX
8
0
10
2.346000
20
-0.899000
0
VERTEX
8
0
10
2.346000
20
-1.499000
0
SEQEND
8
0
0
POLYLINE
8
0
66
1
40
0.008000
41
0.008000
0
VERTEX
8
0
10
2.346000
20
-0.944000
0
VERTEX
8
0
10
2.361000
20
-0.959000
0
SEQEND
8
0
0
POLYLINE
8
0
66
1
40
0.008000
41
0.008000
0
VERTEX
8
0
10
2.346000
20
-0.994000
0
VERTEX
8
0
10
2.361000
20
-1.009000
0
SEQEND
8
0
0
POLYLINE
8
0
66
1
40
0.008000
41
0.008000
0
VERTEX
8
0
10
2.346000
20
-0.994000
0
VERTEX
8
0
10
2.361000
20
-1.009000
0
SEQEND
8
0
0
POLYLINE
8
0
66
1
40
0.008000
41
0.008000
0
VERTEX
8
0
10
2.346000
20
-1.044000
0
VERTEX
8
0
10
2.361000
20
-1.059000
0
SEQEND
8
0
0
POLYLINE
8
0
66
1
40
0.008000
41
0.008000
0
VERTEX
8
0
10
2.346000
20
-1.044000
0
VERTEX
8
0
10
2.361000
20
-1.059000
0
SEQEND
8
0
0
POLYLINE
8
0
66
1
40
0.008000
41
0.008000
0
VERTEX
8
0
10
2.346000
20
-1.094000
0
VERTEX
8
0
10
2.361000
20
-1.109000
0
SEQEND
8
0
0
POLYLINE
8
0
66
1
40
0.008000
41
0.008000
0
VERTEX
8
0
10
2.346000
20
-1.094000
0
VERTEX
8
0
10
2.361000
20
-1.109000
0
SEQEND
8
0
0
POLYLINE
8
0
66
1
40
0.008000
41
0.008000
0
VERTEX
8
0
10
2.346000
20
-1.144000
0
VERTEX
8
0
10
2.361000
20
-1.159000
0
SEQEND
8
0
0
POLYLINE
8
0
66
1
40
0.008000
41
0.008000
0
VERTEX
8
0
10
2.346000
20
-1.144000
0
VERTEX
8
0
10
2.361000
20
-1.159000
0
SEQEND
8
0
0
POLYLINE
8
0
66
1
40
0.008000
41
0.008000
0
VERTEX
8
0
10
2.346000
20
-1.194000
0
VERTEX
8
0
10
2.361000
20
-1.209000
0
SEQEND
8
0
0
POLYLINE
8
0
66
1
40
0.008000
41
0.008000
0
VERTEX
8
0
10
2.346000
20
-1.194000
0
VERTEX
8
0
10
2.361000
20
-1.209000
0
SEQEND
8
0
0
POLYLINE
8
0
66
1
40
0.008000
41
0.008000
0
VERTEX
8
0
10
2.346000
20
-1.244000
0
VERTEX
8
0
10
2.361000
20
-1.259000
0
SEQEND
8
0
0
POLYLINE
8
0
66
1
40
0.008000
41
0.008000
0
VERTEX
8
0
10
2.346000
20
-1.244000
0
VERTEX
8
0
10
2.361000
20
-1.259000
0
SEQEND
8
0
0
POLYLINE
8
0
66
1
40
0.008000
41
0.008000
0
VERTEX
8
0
10
2.346000
20
-1.294000
0
VERTEX
8
0
10
2.361000
20
-1.309000
0
SEQEND
8
0
0
POLYLINE
8
0
66
1
40
0.008000
41
0.008000
0
VERTEX
8
0
10
2.346000
20
-1.294000
0
VERTEX
8
0
10
2.361000
20
-1.309000
0
SEQEND
8
0
0
POLYLINE
8
0
66
1
40
0.008000
41
0.008000
0
VERTEX
8
0
10
2.346000
20
-1.344000
0
VERTEX
8
0
10
2.361000
20
-1.359000
0
SEQEND
8
0
0
POLYLINE
8
0
66
1
40
0.008000
41
0.008000
0
VERTEX
8
0
10
2.346000
20
-1.344000
0
VERTEX
8
0
10
2.361000
20
-1.359000
0
SEQEND
8
0
0
POLYLINE
8
0
66
1
40
0.008000
41
0.008000
0
VERTEX
8
0
10
2.346000
20
-1.394000
0
VERTEX
8
0
10
2.361000
20
-1.409000
0
SEQEND
8
0
0
POLYLINE
8
0
66
1
40
0.008000
41
0.008000
0
VERTEX
8
0
10
2.346000
20
-1.394000
0
VERTEX
8
0
10
2.361000
20
-1.409000
0
SEQEND
8
0
0
POLYLINE
8
0
66
1
40
0.008000
41
0.008000
0
VERTEX
8
0
10
2.346000
20
-1.444000
0
VERTEX
8
0
10
2.361000
20
-1.459000
0
SEQEND
8
0
0
TEXT
8
12632256
10
2.419000
20
-1.249000
40
0.048000
41
1.041667
50
90.000000
1
Q6
0
POLYLINE
8
0
66
1
40
0.008000
41
0.008000
0
VERTEX
8
0
10
1.799000
20
-0.725000
0
VERTEX
8
0
10
1.799000
20
-0.775000
0
SEQEND
8
0
0
POLYLINE
8
0
66
1
40
0.008000
41
0.008000
0
VERTEX
8
0
10
1.774000
20
-0.975000
0
VERTEX
8
0
10
1.824000
20
-0.975000
0
VERTEX
8
0
10
1.824000
20
-0.775000
0
VERTEX
8
0
10
1.774000
20
-0.775000
0
VERTEX
8
0
10
1.774000
20
-0.975000
0
SEQEND
8
0
0
POLYLINE
8
0
66
1
40
0.008000
41
0.008000
0
VERTEX
8
0
10
1.799000
20
-0.975000
0
VERTEX
8
0
10
1.799000
20
-1.025000
0
SEQEND
8
0
0
TEXT
8
12632256
10
1.760000
20
-0.925000
40
0.048000
41
1.041667
50
90.000000
1
R8
0
POLYLINE
8
0
66
1
40
0.008000
41
0.008000
0
VERTEX
8
0
10
1.684000
20
-1.018000
0
VERTEX
8
0
10
1.684000
20
-0.968000
0
SEQEND
8
0
0
POLYLINE
8
0
66
1
40
0.008000
41
0.008000
0
VERTEX
8
0
10
1.659000
20
-0.968000
0
VERTEX
8
0
10
1.709000
20
-0.968000
0
VERTEX
8
0
10
1.709000
20
-0.768000
0
VERTEX
8
0
10
1.659000
20
-0.768000
0
VERTEX
8
0
10
1.659000
20
-0.968000
0
SEQEND
8
0
0
POLYLINE
8
0
66
1
40
0.008000
41
0.008000
0
VERTEX
8
0
10
1.684000
20
-0.768000
0
VERTEX
8
0
10
1.684000
20
-0.718000
0
SEQEND
8
0
0
TEXT
8
12632256
10
1.649000
20
-0.943000
40
0.048000
41
1.041667
50
90.000000
1
R19
0
POLYLINE
8
0
66
1
40
0.008000
41
0.008000
0
VERTEX
8
0
10
1.566000
20
-0.710000
0
VERTEX
8
0
10
1.566000
20
-0.760000
0
SEQEND
8
0
0
POLYLINE
8
0
66
1
40
0.008000
41
0.008000
0
VERTEX
8
0
10
1.541000
20
-0.960000
0
VERTEX
8
0
10
1.591000
20
-0.960000
0
VERTEX
8
0
10
1.591000
20
-0.760000
0
VERTEX
8
0
10
1.541000
20
-0.760000
0
VERTEX
8
0
10
1.541000
20
-0.960000
0
SEQEND
8
0
0
POLYLINE
8
0
66
1
40
0.008000
41
0.008000
0
VERTEX
8
0
10
1.566000
20
-0.960000
0
VERTEX
8
0
10
1.566000
20
-1.010000
0
SEQEND
8
0
0
TEXT
8
12632256
10
1.532000
20
-0.926000
40
0.048000
41
1.041667
50
90.000000
1
R20
0
POLYLINE
8
0
66
1
40
0.008000
41
0.008000
0
VERTEX
8
0
10
1.782000
20
-1.225000
0
VERTEX
8
0
10
1.732000
20
-1.225000
0
SEQEND
8
0
0
POLYLINE
8
0
66
1
40
0.008000
41
0.008000
0
VERTEX
8
0
10
1.532000
20
-1.250000
0
VERTEX
8
0
10
1.732000
20
-1.250000
0
VERTEX
8
0
10
1.732000
20
-1.200000
0
VERTEX
8
0
10
1.532000
20
-1.200000
0
VERTEX
8
0
10
1.532000
20
-1.250000
0
SEQEND
8
0
0
POLYLINE
8
0
66
1
40
0.008000
41
0.008000
0
VERTEX
8
0
10
1.532000
20
-1.225000
0
VERTEX
8
0
10
1.482000
20
-1.225000
0
SEQEND
8
0
0
TEXT
8
12632256
10
1.557000
20
-1.308000
40
0.048000
41
1.041667
1
R21
0
POLYLINE
8
0
66
1
40
0.008000
41
0.008000
0
VERTEX
8
0
10
1.183000
20
0.658000
0
VERTEX
8
0
10
1.183000
20
1.058000
0
SEQEND
8
0
0
POLYLINE
8
0
66
1
40
0.008000
41
0.008000
0
VERTEX
8
0
10
0.783000
20
0.658000
0
VERTEX
8
0
10
0.783000
20
1.058000
0
SEQEND
8
0
0
POLYLINE
8
0
66
1
40
0.008000
41
0.008000
0
VERTEX
8
0
10
1.183000
20
1.058000
0
VERTEX
8
0
10
0.783000
20
1.058000
0
SEQEND
8
0
0
POLYLINE
8
0
66
1
40
0.008000
41
0.008000
0
VERTEX
8
0
10
1.183000
20
0.658000
0
VERTEX
8
0
10
0.783000
20
0.658000
0
SEQEND
8
0
0
TEXT
8
12632256
10
0.940000
20
1.116000
40
0.048000
41
1.041667
1
J8
0
POLYLINE
8
0
66
1
40
0.008000
41
0.008000
0
VERTEX
8
0
10
1.194000
20
1.058000
0
VERTEX
8
0
10
1.194000
20
0.658000
0
SEQEND
8
0
0
POLYLINE
8
0
66
1
40
0.008000
41
0.008000
0
VERTEX
8
0
10
1.594000
20
1.058000
0
VERTEX
8
0
10
1.594000
20
0.658000
0
SEQEND
8
0
0
POLYLINE
8
0
66
1
40
0.008000
41
0.008000
0
VERTEX
8
0
10
1.194000
20
0.658000
0
VERTEX
8
0
10
1.594000
20
0.658000
0
SEQEND
8
0
0
POLYLINE
8
0
66
1
40
0.008000
41
0.008000
0
VERTEX
8
0
10
1.194000
20
1.058000
0
VERTEX
8
0
10
1.594000
20
1.058000
0
SEQEND
8
0
0
TEXT
8
12632256
10
1.355000
20
1.135000
40
0.048000
41
1.041667
1
J6
0
POLYLINE
8
0
66
1
40
0.008000
41
0.008000
0
VERTEX
8
0
10
0.374000
20
-1.112000
0
VERTEX
8
0
10
0.374000
20
-1.512000
0
SEQEND
8
0
0
POLYLINE
8
0
66
1
40
0.008000
41
0.008000
0
VERTEX
8
0
10
0.774000
20
-1.112000
0
VERTEX
8
0
10
0.774000
20
-1.512000
0
SEQEND
8
0
0
POLYLINE
8
0
66
1
40
0.008000
41
0.008000
0
VERTEX
8
0
10
0.374000
20
-1.512000
0
VERTEX
8
0
10
0.774000
20
-1.512000
0
SEQEND
8
0
0
POLYLINE
8
0
66
1
40
0.008000
41
0.008000
0
VERTEX
8
0
10
0.374000
20
-1.112000
0
VERTEX
8
0
10
0.774000
20
-1.112000
0
SEQEND
8
0
0
TEXT
8
12632256
10
0.787000
20
-1.236000
40
0.048000
41
1.041667
1
J1
0
POLYLINE
8
0
66
1
40
0.008000
41
0.008000
0
VERTEX
8
0
10
0.466000
20
-0.932000
0
VERTEX
8
0
10
0.516000
20
-0.932000
0
SEQEND
8
0
0
POLYLINE
8
0
66
1
40
0.008000
41
0.008000
0
VERTEX
8
0
10
0.516000
20
-0.957000
0
VERTEX
8
0
10
0.716000
20
-0.957000
0
VERTEX
8
0
10
0.716000
20
-0.907000
0
VERTEX
8
0
10
0.516000
20
-0.907000
0
VERTEX
8
0
10
0.516000
20
-0.957000
0
SEQEND
8
0
0
POLYLINE
8
0
66
1
40
0.008000
41
0.008000
0
VERTEX
8
0
10
0.716000
20
-0.932000
0
VERTEX
8
0
10
0.766000
20
-0.932000
0
SEQEND
8
0
0
TEXT
8
12632256
10
0.566000
20
-0.897000
40
0.048000
41
1.041667
1
R2
0
POLYLINE
8
0
66
1
40
0.008000
41
0.008000
0
VERTEX
8
0
10
0.888000
20
-1.386000
0
VERTEX
8
0
10
1.188000
20
-1.386000
0
VERTEX
8
0
10
1.188000
20
-1.286000
0
VERTEX
8
0
10
0.888000
20
-1.286000
0
VERTEX
8
0
10
0.888000
20
-1.386000
0
SEQEND
8
0
0
POLYLINE
8
0
66
1
40
0.008000
41
0.008000
0
VERTEX
8
0
10
0.888000
20
-1.286000
0
VERTEX
8
0
10
0.888000
20
-1.236000
0
VERTEX
8
0
10
1.188000
20
-1.236000
0
VERTEX
8
0
10
1.188000
20
-1.286000
0
SEQEND
8
0
0
POLYLINE
8
0
66
1
40
0.008000
41
0.008000
0
VERTEX
8
0
10
0.888000
20
-1.286000
0
VERTEX
8
0
10
0.938000
20
-1.236000
0
SEQEND
8
0
0
POLYLINE
8
0
66
1
40
0.008000
41
0.008000
0
VERTEX
8
0
10
0.938000
20
-1.286000
0
VERTEX
8
0
10
0.988000
20
-1.236000
0
SEQEND
8
0
0
POLYLINE
8
0
66
1
40
0.008000
41
0.008000
0
VERTEX
8
0
10
0.988000
20
-1.286000
0
VERTEX
8
0
10
1.038000
20
-1.236000
0
SEQEND
8
0
0
POLYLINE
8
0
66
1
40
0.008000
41
0.008000
0
VERTEX
8
0
10
1.038000
20
-1.286000
0
VERTEX
8
0
10
1.088000
20
-1.236000
0
SEQEND
8
0
0
POLYLINE
8
0
66
1
40
0.008000
41
0.008000
0
VERTEX
8
0
10
1.088000
20
-1.286000
0
VERTEX
8
0
10
1.138000
20
-1.236000
0
SEQEND
8
0
0
POLYLINE
8
0
66
1
40
0.008000
41
0.008000
0
VERTEX
8
0
10
1.138000
20
-1.286000
0
VERTEX
8
0
10
1.188000
20
-1.236000
0
SEQEND
8
0
0
TEXT
8
12632256
10
0.988000
20
-1.226000
40
0.048000
41
1.041667
1
Q2
0
TEXT
8
12632256
10
2.511000
20
-1.176000
40
0.064000
41
0.781250
1
CANAL N
0
TEXT
8
12632256
10
2.479000
20
-0.579000
40
0.064000
41
0.781250
1
CANAL N
0
TEXT
8
12632256
10
2.479000
20
0.055000
40
0.064000
41
0.781250
1
CANAL P
0
TEXT
8
12632256
10
2.479000
20
0.740000
40
0.064000
41
0.781250
1
CANAL P
0
TEXT
8
12632256
10
0.827000
20
0.490000
40
0.064000
41
0.781250
1
FUENTE
0
TEXT
8
12632256
10
1.202000
20
0.485000
40
0.064000
41
0.781250
1
PELTIER
0
TEXT
8
12632256
10
0.814000
20
0.567000
40
0.064000
41
0.781250
1
GND 12V
0
TEXT
8
12632256
10
1.207000
20
0.568000
40
0.064000
41
0.781250
1
GND  +
0
TEXT
8
12632256
10
1.324000
20
1.410000
40
0.064000
41
0.781250
1
Bogota - Colombia
0
TEXT
8
12632256
10
0.406000
20
-1.017000
40
0.064000
41
0.937500
1
VENTILA
0
TEXT
8
12632256
10
0.438000
20
-1.103000
40
0.072000
41
1.111111
1
+
0
TEXT
8
12632256
10
0.591000
20
-1.089000
40
0.056000
41
1.071429
1
GND
0
POLYLINE
8
0
66
1
40
0.008000
41
0.008000
0
VERTEX
8
0
10
1.911000
20
-0.039000
0
VERTEX
8
0
10
2.011000
20
-0.039000
0
VERTEX
8
0
10
2.011000
20
0.260000
0
VERTEX
8
0
10
1.911000
20
0.260000
0
VERTEX
8
0
10
1.911000
20
-0.039000
0
VERTEX
8
0
10
1.861000
20
-0.039000
0
VERTEX
8
0
10
1.861000
20
0.260000
0
VERTEX
8
0
10
1.911000
20
0.260000
0
SEQEND
8
0
0
POLYLINE
8
0
66
1
40
0.008000
41
0.008000
0
VERTEX
8
0
10
1.911000
20
-0.039000
0
VERTEX
8
0
10
1.861000
20
0.010000
0
SEQEND
8
0
0
POLYLINE
8
0
66
1
40
0.008000
41
0.008000
0
VERTEX
8
0
10
1.911000
20
0.010000
0
VERTEX
8
0
10
1.861000
20
0.060000
0
SEQEND
8
0
0
POLYLINE
8
0
66
1
40
0.008000
41
0.008000
0
VERTEX
8
0
10
1.911000
20
0.060000
0
VERTEX
8
0
10
1.861000
20
0.110000
0
SEQEND
8
0
0
POLYLINE
8
0
66
1
40
0.008000
41
0.008000
0
VERTEX
8
0
10
1.911000
20
0.110000
0
VERTEX
8
0
10
1.861000
20
0.160000
0
SEQEND
8
0
0
POLYLINE
8
0
66
1
40
0.008000
41
0.008000
0
VERTEX
8
0
10
1.911000
20
0.160000
0
VERTEX
8
0
10
1.861000
20
0.210000
0
SEQEND
8
0
0
POLYLINE
8
0
66
1
40
0.008000
41
0.008000
0
VERTEX
8
0
10
1.911000
20
0.210000
0
VERTEX
8
0
10
1.861000
20
0.260000
0
SEQEND
8
0
0
TEXT
8
12632256
10
1.851000
20
0.060000
40
0.048000
41
1.041667
50
90.000000
1
D3
0
POLYLINE
8
0
66
1
40
0.008000
41
0.008000
0
VERTEX
8
0
10
1.906000
20
0.439000
0
VERTEX
8
0
10
2.006000
20
0.439000
0
VERTEX
8
0
10
2.006000
20
0.739000
0
VERTEX
8
0
10
1.906000
20
0.739000
0
VERTEX
8
0
10
1.906000
20
0.439000
0
VERTEX
8
0
10
1.856000
20
0.439000
0
VERTEX
8
0
10
1.856000
20
0.739000
0
VERTEX
8
0
10
1.906000
20
0.739000
0
SEQEND
8
0
0
POLYLINE
8
0
66
1
40
0.008000
41
0.008000
0
VERTEX
8
0
10
1.906000
20
0.439000
0
VERTEX
8
0
10
1.856000
20
0.489000
0
SEQEND
8
0
0
POLYLINE
8
0
66
1
40
0.008000
41
0.008000
0
VERTEX
8
0
10
1.906000
20
0.489000
0
VERTEX
8
0
10
1.856000
20
0.539000
0
SEQEND
8
0
0
POLYLINE
8
0
66
1
40
0.008000
41
0.008000
0
VERTEX
8
0
10
1.906000
20
0.539000
0
VERTEX
8
0
10
1.856000
20
0.589000
0
SEQEND
8
0
0
POLYLINE
8
0
66
1
40
0.008000
41
0.008000
0
VERTEX
8
0
10
1.906000
20
0.589000
0
VERTEX
8
0
10
1.856000
20
0.639000
0
SEQEND
8
0
0
POLYLINE
8
0
66
1
40
0.008000
41
0.008000
0
VERTEX
8
0
10
1.906000
20
0.639000
0
VERTEX
8
0
10
1.856000
20
0.689000
0
SEQEND
8
0
0
POLYLINE
8
0
66
1
40
0.008000
41
0.008000
0
VERTEX
8
0
10
1.906000
20
0.689000
0
VERTEX
8
0
10
1.856000
20
0.739000
0
SEQEND
8
0
0
TEXT
8
12632256
10
1.846000
20
0.539000
40
0.048000
41
1.041667
50
90.000000
1
D5
0
POLYLINE
8
0
66
1
40
0.008000
41
0.008000
0
VERTEX
8
0
10
1.904000
20
-1.016000
0
VERTEX
8
0
10
2.004000
20
-1.016000
0
VERTEX
8
0
10
2.004000
20
-0.716000
0
VERTEX
8
0
10
1.904000
20
-0.716000
0
VERTEX
8
0
10
1.904000
20
-1.016000
0
VERTEX
8
0
10
1.854000
20
-1.016000
0
VERTEX
8
0
10
1.854000
20
-0.716000
0
VERTEX
8
0
10
1.904000
20
-0.716000
0
SEQEND
8
0
0
POLYLINE
8
0
66
1
40
0.008000
41
0.008000
0
VERTEX
8
0
10
1.904000
20
-1.016000
0
VERTEX
8
0
10
1.854000
20
-0.966000
0
SEQEND
8
0
0
POLYLINE
8
0
66
1
40
0.008000
41
0.008000
0
VERTEX
8
0
10
1.904000
20
-0.966000
0
VERTEX
8
0
10
1.854000
20
-0.916000
0
SEQEND
8
0
0
POLYLINE
8
0
66
1
40
0.008000
41
0.008000
0
VERTEX
8
0
10
1.904000
20
-0.916000
0
VERTEX
8
0
10
1.854000
20
-0.866000
0
SEQEND
8
0
0
POLYLINE
8
0
66
1
40
0.008000
41
0.008000
0
VERTEX
8
0
10
1.904000
20
-0.866000
0
VERTEX
8
0
10
1.854000
20
-0.816000
0
SEQEND
8
0
0
POLYLINE
8
0
66
1
40
0.008000
41
0.008000
0
VERTEX
8
0
10
1.904000
20
-0.816000
0
VERTEX
8
0
10
1.854000
20
-0.766000
0
SEQEND
8
0
0
POLYLINE
8
0
66
1
40
0.008000
41
0.008000
0
VERTEX
8
0
10
1.904000
20
-0.766000
0
VERTEX
8
0
10
1.854000
20
-0.716000
0
SEQEND
8
0
0
TEXT
8
12632256
10
1.934000
20
-1.133000
40
0.048000
41
1.041667
50
90.000000
1
D6
0
POLYLINE
8
0
66
1
40
0.008000
41
0.008000
0
VERTEX
8
0
10
1.806000
20
-1.472000
0
VERTEX
8
0
10
2.106000
20
-1.472000
0
VERTEX
8
0
10
2.106000
20
-1.372000
0
VERTEX
8
0
10
1.806000
20
-1.372000
0
VERTEX
8
0
10
1.806000
20
-1.472000
0
SEQEND
8
0
0
POLYLINE
8
0
66
1
40
0.008000
41
0.008000
0
VERTEX
8
0
10
1.806000
20
-1.372000
0
VERTEX
8
0
10
1.806000
20
-1.322000
0
VERTEX
8
0
10
2.106000
20
-1.322000
0
VERTEX
8
0
10
2.106000
20
-1.372000
0
SEQEND
8
0
0
POLYLINE
8
0
66
1
40
0.008000
41
0.008000
0
VERTEX
8
0
10
1.806000
20
-1.372000
0
VERTEX
8
0
10
1.856000
20
-1.322000
0
SEQEND
8
0
0
POLYLINE
8
0
66
1
40
0.008000
41
0.008000
0
VERTEX
8
0
10
1.856000
20
-1.372000
0
VERTEX
8
0
10
1.906000
20
-1.322000
0
SEQEND
8
0
0
POLYLINE
8
0
66
1
40
0.008000
41
0.008000
0
VERTEX
8
0
10
1.906000
20
-1.372000
0
VERTEX
8
0
10
1.956000
20
-1.322000
0
SEQEND
8
0
0
POLYLINE
8
0
66
1
40
0.008000
41
0.008000
0
VERTEX
8
0
10
1.956000
20
-1.372000
0
VERTEX
8
0
10
2.006000
20
-1.322000
0
SEQEND
8
0
0
POLYLINE
8
0
66
1
40
0.008000
41
0.008000
0
VERTEX
8
0
10
2.006000
20
-1.372000
0
VERTEX
8
0
10
2.056000
20
-1.322000
0
SEQEND
8
0
0
POLYLINE
8
0
66
1
40
0.008000
41
0.008000
0
VERTEX
8
0
10
2.056000
20
-1.372000
0
VERTEX
8
0
10
2.106000
20
-1.322000
0
SEQEND
8
0
0
TEXT
8
12632256
10
1.906000
20
-1.312000
40
0.048000
41
1.041667
1
D4
0
ENDSEC
0
EOF

