  0
SECTION
  2
HEADER
  9
$ACADVER
  1
AC2.10
  0
ENDSEC
  0
SECTION
  2
TABLES
  0
TABLE
  2
LAYER
 70
     8
  0
LAYER
  2
0
 62
     7
 70
0
  6
CONTINUOUS
  0
LAYER
  2
1
 62
     1
 70
0
  6
CONTINUOUS
  0
LAYER
  2
2
 62
     2
 70
0
  6
CONTINUOUS
  0
LAYER
  2
3
 62
     3
 70
0
  6
CONTINUOUS
  0
LAYER
  2
4
 62
     4
 70
0
  6
CONTINUOUS
  0
LAYER
  2
5
 62
     5
 70
0
  6
CONTINUOUS
  0
LAYER
  2
6
 62
     6
 70
0
  6
CONTINUOUS
  0
LAYER
  2
7
 62
     7
 70
0
  6
CONTINUOUS
  0
ENDTAB
  0
TABLE
  2
STYLE
 70
     1
  0
STYLE
 70
     0
  2
STANDARD
  3
TXT
 40
0.00
 41
1.00
 42
1.00
 50
0.00
 71
     0
  0
ENDTAB
  0
ENDSEC
  0
SECTION
  2
BLOCKS
  0
BLOCK
  8
0
  2
EPAD
 70
0
 10
0.0
 20
0.0
  0
POLYLINE
  8
0
 66
1
 70
1
 40
0.5
 41
0.5
  0
VERTEX
  8
0
 10
-0.25
 20
0.0
 42
1.0
  0
VERTEX
  8
0
 10
0.25
 20
0.0
 42
1.0
  0
SEQEND
  8
0
  0
ENDBLK
  8
0
  0
BLOCK
  8
0
  2
RPAD
 70
0
 10
0.0
 20
0.0
  0
TRACE
  8
0
 10
-0.5
 20
-0.5
 11
-0.5
 21
0.5
 12
0.5
 22
-0.5
 13
0.5
 23
0.5
  0
ENDBLK
  8
0
  0
ENDSEC
0
SECTION
2
ENTITIES
0
POLYLINE
8
0
66
1
40
0.025000
41
0.025000
0
VERTEX
8
0
10
0.852000
20
0.184000
0
VERTEX
8
0
10
0.997000
20
0.184000
0
VERTEX
8
0
10
1.134000
20
0.047000
0
VERTEX
8
0
10
1.134000
20
-0.321000
0
VERTEX
8
0
10
1.051000
20
-0.404000
0
VERTEX
8
0
10
1.038000
20
-0.417000
0
VERTEX
8
0
10
0.516000
20
-0.417000
0
VERTEX
8
0
10
0.370000
20
-0.271000
0
VERTEX
8
0
10
0.370000
20
-0.175000
0
VERTEX
8
0
10
0.358000
20
-0.162000
0
VERTEX
8
0
10
0.370000
20
-0.182000
0
SEQEND
8
0
0
POLYLINE
8
0
66
1
40
0.025000
41
0.025000
0
VERTEX
8
0
10
-1.506000
20
0.564000
0
VERTEX
8
0
10
-1.249000
20
0.307000
0
VERTEX
8
0
10
-1.249000
20
0.043000
0
SEQEND
8
0
0
POLYLINE
8
0
66
1
40
0.025000
41
0.025000
0
VERTEX
8
0
10
1.069000
20
0.610000
0
VERTEX
8
0
10
1.193000
20
0.486000
0
VERTEX
8
0
10
1.425000
20
0.486000
0
VERTEX
8
0
10
1.594000
20
0.655000
0
VERTEX
8
0
10
1.594000
20
1.064000
0
VERTEX
8
0
10
1.549000
20
1.108000
0
VERTEX
8
0
10
-0.258000
20
1.108000
0
VERTEX
8
0
10
-0.261000
20
1.111000
0
SEQEND
8
0
0
POLYLINE
8
0
66
1
40
0.025000
41
0.025000
0
VERTEX
8
0
10
-0.463000
20
1.114000
0
VERTEX
8
0
10
-0.541000
20
1.191000
0
VERTEX
8
0
10
-0.866000
20
1.191000
0
VERTEX
8
0
10
-0.972000
20
1.297000
0
VERTEX
8
0
10
-0.986000
20
1.297000
0
VERTEX
8
0
10
-0.986000
20
1.286000
0
SEQEND
8
0
0
POLYLINE
8
0
66
1
40
0.025000
41
0.025000
0
VERTEX
8
0
10
-1.515000
20
0.667000
0
VERTEX
8
0
10
-1.515000
20
0.748000
0
VERTEX
8
0
10
-1.423000
20
0.839000
0
VERTEX
8
0
10
-1.325000
20
0.839000
0
VERTEX
8
0
10
-1.224000
20
0.738000
0
VERTEX
8
0
10
-1.224000
20
0.557000
0
VERTEX
8
0
10
-0.937000
20
0.270000
0
VERTEX
8
0
10
-0.937000
20
0.256000
0
VERTEX
8
0
10
-0.854000
20
0.173000
0
SEQEND
8
0
0
POLYLINE
8
0
66
1
40
0.025000
41
0.025000
0
VERTEX
8
0
10
-0.541000
20
1.292000
0
VERTEX
8
0
10
1.250000
20
1.292000
0
VERTEX
8
0
10
1.338000
20
1.204000
0
SEQEND
8
0
0
POLYLINE
8
0
66
1
40
0.025000
41
0.025000
0
VERTEX
8
0
10
-0.370000
20
1.120000
0
VERTEX
8
0
10
-0.541000
20
1.292000
0
VERTEX
8
0
10
-0.769000
20
1.292000
0
VERTEX
8
0
10
-0.769000
20
1.287000
0
SEQEND
8
0
0
POLYLINE
8
0
66
1
40
0.025000
41
0.025000
0
VERTEX
8
0
10
0.518000
20
0.388000
0
VERTEX
8
0
10
0.797000
20
0.388000
0
VERTEX
8
0
10
0.959000
20
0.550000
0
VERTEX
8
0
10
0.959000
20
0.704000
0
VERTEX
8
0
10
1.021000
20
0.767000
0
VERTEX
8
0
10
1.238000
20
0.767000
0
VERTEX
8
0
10
1.269000
20
0.736000
0
VERTEX
8
0
10
1.269000
20
0.610000
0
SEQEND
8
0
0
POLYLINE
8
0
66
1
40
0.025000
41
0.025000
0
VERTEX
8
0
10
-0.684000
20
-0.477000
0
VERTEX
8
0
10
-0.185000
20
-0.477000
0
VERTEX
8
0
10
-0.133000
20
-0.424000
0
VERTEX
8
0
10
-0.122000
20
-0.424000
0
SEQEND
8
0
0
POLYLINE
8
0
66
1
40
0.050000
41
0.050000
0
VERTEX
8
0
10
-0.059000
20
-0.768000
0
VERTEX
8
0
10
0.115000
20
-0.768000
0
VERTEX
8
0
10
0.221000
20
-0.662000
0
VERTEX
8
0
10
0.432000
20
-0.662000
0
VERTEX
8
0
10
0.528000
20
-0.758000
0
VERTEX
8
0
10
1.506000
20
-0.758000
0
SEQEND
8
0
0
INSERT
8
0
2
EPAD
10
0.852000
20
0.184000
41
0.070000
42
0.070000
0
CIRCLE
8
0
10
0.852000
20
0.184000
40
0.025000
0
INSERT
8
0
2
EPAD
10
-1.249000
20
0.043000
41
0.070000
42
0.070000
0
CIRCLE
8
0
10
-1.249000
20
0.043000
40
0.025000
0
INSERT
8
0
2
EPAD
10
-0.261000
20
1.111000
41
0.070000
42
0.070000
0
CIRCLE
8
0
10
-0.261000
20
1.111000
40
0.025000
0
INSERT
8
0
2
EPAD
10
-0.370000
20
1.120000
41
0.070000
42
0.070000
0
CIRCLE
8
0
10
-0.370000
20
1.120000
40
0.025000
0
INSERT
8
0
2
EPAD
10
-0.769000
20
1.287000
41
0.070000
42
0.070000
0
CIRCLE
8
0
10
-0.769000
20
1.287000
40
0.025000
0
INSERT
8
0
2
EPAD
10
-0.463000
20
1.114000
41
0.070000
42
0.070000
0
CIRCLE
8
0
10
-0.463000
20
1.114000
40
0.025000
0
INSERT
8
0
2
EPAD
10
-0.986000
20
1.286000
41
0.070000
42
0.070000
0
CIRCLE
8
0
10
-0.986000
20
1.286000
40
0.025000
0
INSERT
8
0
2
EPAD
10
-0.854000
20
0.173000
41
0.070000
42
0.070000
0
CIRCLE
8
0
10
-0.854000
20
0.173000
40
0.025000
0
INSERT
8
0
2
EPAD
10
1.338000
20
1.204000
41
0.070000
42
0.070000
0
CIRCLE
8
0
10
1.338000
20
1.204000
40
0.025000
0
INSERT
8
0
2
EPAD
10
0.518000
20
0.388000
41
0.070000
42
0.070000
0
CIRCLE
8
0
10
0.518000
20
0.388000
40
0.025000
0
INSERT
8
0
2
EPAD
10
-0.122000
20
-0.424000
41
0.070000
42
0.070000
0
CIRCLE
8
0
10
-0.122000
20
-0.424000
40
0.025000
0
INSERT
8
0
2
EPAD
10
1.506000
20
-0.758000
41
0.070000
42
0.070000
0
CIRCLE
8
0
10
1.506000
20
-0.758000
40
0.025000
0
INSERT
8
0
2
EPAD
10
-1.818000
20
-1.186000
41
0.250000
42
0.250000
0
CIRCLE
8
0
10
-1.818000
20
-1.186000
40
0.030000
0
INSERT
8
0
2
EPAD
10
1.865000
20
-1.166000
41
0.250000
42
0.250000
0
CIRCLE
8
0
10
1.865000
20
-1.166000
40
0.030000
0
INSERT
8
0
2
EPAD
10
1.874000
20
1.201000
41
0.250000
42
0.250000
0
CIRCLE
8
0
10
1.874000
20
1.201000
40
0.030000
0
INSERT
8
0
2
EPAD
10
-1.130000
20
-1.015000
41
0.100000
42
0.100000
0
CIRCLE
8
0
10
-1.130000
20
-1.015000
40
0.025000
0
INSERT
8
0
2
EPAD
10
-0.930000
20
-1.215000
41
0.100000
42
0.100000
0
CIRCLE
8
0
10
-0.930000
20
-1.215000
40
0.025000
0
INSERT
8
0
2
EPAD
10
-1.130000
20
-1.215000
41
0.100000
42
0.100000
0
CIRCLE
8
0
10
-1.130000
20
-1.215000
40
0.025000
0
INSERT
8
0
2
EPAD
10
-0.930000
20
-1.015000
41
0.100000
42
0.100000
0
CIRCLE
8
0
10
-0.930000
20
-1.015000
40
0.025000
0
INSERT
8
0
2
EPAD
10
0.538000
20
-0.602000
41
0.080000
42
0.080000
0
CIRCLE
8
0
10
0.538000
20
-0.602000
40
0.010000
0
INSERT
8
0
2
EPAD
10
0.841000
20
-0.602000
41
0.080000
42
0.080000
0
CIRCLE
8
0
10
0.841000
20
-0.602000
40
0.010000
0
INSERT
8
0
2
RPAD
10
-1.027000
20
0.062000
41
0.050000
42
0.050000
50
0.000000
0
CIRCLE
8
0
10
-1.027000
20
0.062000
40
0.030000
0
INSERT
8
0
2
EPAD
10
-0.927000
20
0.062000
41
0.050000
42
0.050000
0
CIRCLE
8
0
10
-0.927000
20
0.062000
40
0.030000
0
INSERT
8
0
2
EPAD
10
-0.827000
20
0.062000
41
0.050000
42
0.050000
0
CIRCLE
8
0
10
-0.827000
20
0.062000
40
0.030000
0
INSERT
8
0
2
EPAD
10
-0.727000
20
0.062000
41
0.050000
42
0.050000
0
CIRCLE
8
0
10
-0.727000
20
0.062000
40
0.030000
0
INSERT
8
0
2
EPAD
10
-0.627000
20
0.062000
41
0.050000
42
0.050000
0
CIRCLE
8
0
10
-0.627000
20
0.062000
40
0.030000
0
INSERT
8
0
2
EPAD
10
-0.527000
20
0.062000
41
0.050000
42
0.050000
0
CIRCLE
8
0
10
-0.527000
20
0.062000
40
0.030000
0
INSERT
8
0
2
EPAD
10
-0.427000
20
0.062000
41
0.050000
42
0.050000
0
CIRCLE
8
0
10
-0.427000
20
0.062000
40
0.030000
0
INSERT
8
0
2
EPAD
10
-0.327000
20
0.062000
41
0.050000
42
0.050000
0
CIRCLE
8
0
10
-0.327000
20
0.062000
40
0.030000
0
INSERT
8
0
2
EPAD
10
-0.227000
20
0.062000
41
0.050000
42
0.050000
0
CIRCLE
8
0
10
-0.227000
20
0.062000
40
0.030000
0
INSERT
8
0
2
EPAD
10
-0.127000
20
0.062000
41
0.050000
42
0.050000
0
CIRCLE
8
0
10
-0.127000
20
0.062000
40
0.030000
0
INSERT
8
0
2
EPAD
10
-0.027000
20
0.062000
41
0.050000
42
0.050000
0
CIRCLE
8
0
10
-0.027000
20
0.062000
40
0.030000
0
INSERT
8
0
2
EPAD
10
0.072000
20
0.062000
41
0.050000
42
0.050000
0
CIRCLE
8
0
10
0.072000
20
0.062000
40
0.030000
0
INSERT
8
0
2
EPAD
10
0.172000
20
0.062000
41
0.050000
42
0.050000
0
CIRCLE
8
0
10
0.172000
20
0.062000
40
0.030000
0
INSERT
8
0
2
EPAD
10
0.272000
20
0.062000
41
0.050000
42
0.050000
0
CIRCLE
8
0
10
0.272000
20
0.062000
40
0.030000
0
INSERT
8
0
2
EPAD
10
0.372000
20
0.062000
41
0.050000
42
0.050000
0
CIRCLE
8
0
10
0.372000
20
0.062000
40
0.030000
0
INSERT
8
0
2
EPAD
10
0.472000
20
0.062000
41
0.050000
42
0.050000
0
CIRCLE
8
0
10
0.472000
20
0.062000
40
0.030000
0
INSERT
8
0
2
EPAD
10
0.572000
20
0.062000
41
0.050000
42
0.050000
0
CIRCLE
8
0
10
0.572000
20
0.062000
40
0.030000
0
INSERT
8
0
2
EPAD
10
0.672000
20
0.062000
41
0.050000
42
0.050000
0
CIRCLE
8
0
10
0.672000
20
0.062000
40
0.030000
0
INSERT
8
0
2
EPAD
10
0.772000
20
0.062000
41
0.050000
42
0.050000
0
CIRCLE
8
0
10
0.772000
20
0.062000
40
0.030000
0
INSERT
8
0
2
EPAD
10
0.872000
20
0.062000
41
0.050000
42
0.050000
0
CIRCLE
8
0
10
0.872000
20
0.062000
40
0.030000
0
INSERT
8
0
2
EPAD
10
0.872000
20
0.662000
41
0.050000
42
0.050000
0
CIRCLE
8
0
10
0.872000
20
0.662000
40
0.030000
0
INSERT
8
0
2
EPAD
10
0.772000
20
0.662000
41
0.050000
42
0.050000
0
CIRCLE
8
0
10
0.772000
20
0.662000
40
0.030000
0
INSERT
8
0
2
EPAD
10
0.672000
20
0.662000
41
0.050000
42
0.050000
0
CIRCLE
8
0
10
0.672000
20
0.662000
40
0.030000
0
INSERT
8
0
2
EPAD
10
0.572000
20
0.662000
41
0.050000
42
0.050000
0
CIRCLE
8
0
10
0.572000
20
0.662000
40
0.030000
0
INSERT
8
0
2
EPAD
10
0.472000
20
0.662000
41
0.050000
42
0.050000
0
CIRCLE
8
0
10
0.472000
20
0.662000
40
0.030000
0
INSERT
8
0
2
EPAD
10
0.372000
20
0.662000
41
0.050000
42
0.050000
0
CIRCLE
8
0
10
0.372000
20
0.662000
40
0.030000
0
INSERT
8
0
2
EPAD
10
0.272000
20
0.662000
41
0.050000
42
0.050000
0
CIRCLE
8
0
10
0.272000
20
0.662000
40
0.030000
0
INSERT
8
0
2
EPAD
10
0.172000
20
0.662000
41
0.050000
42
0.050000
0
CIRCLE
8
0
10
0.172000
20
0.662000
40
0.030000
0
INSERT
8
0
2
EPAD
10
0.072000
20
0.662000
41
0.050000
42
0.050000
0
CIRCLE
8
0
10
0.072000
20
0.662000
40
0.030000
0
INSERT
8
0
2
EPAD
10
-0.027000
20
0.662000
41
0.050000
42
0.050000
0
CIRCLE
8
0
10
-0.027000
20
0.662000
40
0.030000
0
INSERT
8
0
2
EPAD
10
-0.127000
20
0.662000
41
0.050000
42
0.050000
0
CIRCLE
8
0
10
-0.127000
20
0.662000
40
0.030000
0
INSERT
8
0
2
EPAD
10
-0.227000
20
0.662000
41
0.050000
42
0.050000
0
CIRCLE
8
0
10
-0.227000
20
0.662000
40
0.030000
0
INSERT
8
0
2
EPAD
10
-0.327000
20
0.662000
41
0.050000
42
0.050000
0
CIRCLE
8
0
10
-0.327000
20
0.662000
40
0.030000
0
INSERT
8
0
2
EPAD
10
-0.427000
20
0.662000
41
0.050000
42
0.050000
0
CIRCLE
8
0
10
-0.427000
20
0.662000
40
0.030000
0
INSERT
8
0
2
EPAD
10
-0.527000
20
0.662000
41
0.050000
42
0.050000
0
CIRCLE
8
0
10
-0.527000
20
0.662000
40
0.030000
0
INSERT
8
0
2
EPAD
10
-0.627000
20
0.662000
41
0.050000
42
0.050000
0
CIRCLE
8
0
10
-0.627000
20
0.662000
40
0.030000
0
INSERT
8
0
2
EPAD
10
-0.727000
20
0.662000
41
0.050000
42
0.050000
0
CIRCLE
8
0
10
-0.727000
20
0.662000
40
0.030000
0
INSERT
8
0
2
EPAD
10
-0.827000
20
0.662000
41
0.050000
42
0.050000
0
CIRCLE
8
0
10
-0.827000
20
0.662000
40
0.030000
0
INSERT
8
0
2
EPAD
10
-0.927000
20
0.662000
41
0.050000
42
0.050000
0
CIRCLE
8
0
10
-0.927000
20
0.662000
40
0.030000
0
INSERT
8
0
2
EPAD
10
-1.027000
20
0.662000
41
0.050000
42
0.050000
0
CIRCLE
8
0
10
-1.027000
20
0.662000
40
0.030000
0
INSERT
8
0
2
EPAD
10
-1.380000
20
-1.109000
41
0.120000
42
0.120000
0
CIRCLE
8
0
10
-1.380000
20
-1.109000
40
0.030000
0
INSERT
8
0
2
EPAD
10
-1.580000
20
-1.109000
41
0.120000
42
0.120000
0
CIRCLE
8
0
10
-1.580000
20
-1.109000
40
0.030000
0
INSERT
8
0
2
EPAD
10
-1.701000
20
-0.687000
41
0.100000
42
0.100000
0
CIRCLE
8
0
10
-1.701000
20
-0.687000
40
0.025000
0
INSERT
8
0
2
EPAD
10
-1.501000
20
-0.687000
41
0.100000
42
0.100000
0
CIRCLE
8
0
10
-1.501000
20
-0.687000
40
0.025000
0
INSERT
8
0
2
EPAD
10
-1.865000
20
-0.991000
41
0.070000
42
0.070000
0
CIRCLE
8
0
10
-1.865000
20
-0.991000
40
0.025000
0
INSERT
8
0
2
EPAD
10
-1.865000
20
-0.591000
41
0.070000
42
0.070000
0
CIRCLE
8
0
10
-1.865000
20
-0.591000
40
0.025000
0
INSERT
8
0
2
RPAD
10
-0.199000
20
-1.225000
41
0.080000
42
0.080000
50
0.000000
0
CIRCLE
8
0
10
-0.199000
20
-1.225000
40
0.025000
0
INSERT
8
0
2
RPAD
10
-0.099000
20
-1.225000
41
0.080000
42
0.080000
50
0.000000
0
CIRCLE
8
0
10
-0.099000
20
-1.225000
40
0.025000
0
INSERT
8
0
2
RPAD
10
0.000000
20
-1.225000
41
0.080000
42
0.080000
50
0.000000
0
CIRCLE
8
0
10
0.000000
20
-1.225000
40
0.025000
0
INSERT
8
0
2
EPAD
10
0.396000
20
-1.087000
41
0.150000
42
0.150000
0
CIRCLE
8
0
10
0.396000
20
-1.087000
40
0.030000
0
INSERT
8
0
2
EPAD
10
-0.587000
20
-1.087000
41
0.150000
42
0.150000
0
CIRCLE
8
0
10
-0.587000
20
-1.087000
40
0.030000
0
INSERT
8
0
2
EPAD
10
0.340000
20
-0.768000
41
0.090000
42
0.090000
0
CIRCLE
8
0
10
0.340000
20
-0.768000
40
0.025000
0
INSERT
8
0
2
EPAD
10
-0.059000
20
-0.768000
41
0.090000
42
0.090000
0
CIRCLE
8
0
10
-0.059000
20
-0.768000
40
0.025000
0
INSERT
8
0
2
EPAD
10
0.681000
20
-0.918000
41
0.070000
42
0.070000
0
CIRCLE
8
0
10
0.681000
20
-0.918000
40
0.025000
0
INSERT
8
0
2
EPAD
10
0.681000
20
-1.118000
41
0.070000
42
0.070000
0
CIRCLE
8
0
10
0.681000
20
-1.118000
40
0.025000
0
INSERT
8
0
2
EPAD
10
-1.043000
20
-0.735000
41
0.080000
42
0.080000
0
CIRCLE
8
0
10
-1.043000
20
-0.735000
40
0.025000
0
INSERT
8
0
2
EPAD
10
-0.943000
20
-0.735000
41
0.080000
42
0.080000
0
CIRCLE
8
0
10
-0.943000
20
-0.735000
40
0.025000
0
INSERT
8
0
2
EPAD
10
-1.289000
20
-0.809000
41
0.070000
42
0.070000
0
CIRCLE
8
0
10
-1.289000
20
-0.809000
40
0.025000
0
INSERT
8
0
2
EPAD
10
-1.289000
20
-0.409000
41
0.070000
42
0.070000
0
CIRCLE
8
0
10
-1.289000
20
-0.409000
40
0.025000
0
INSERT
8
0
2
RPAD
10
-0.808000
20
-0.727000
41
0.080000
42
0.080000
50
0.000000
0
CIRCLE
8
0
10
-0.808000
20
-0.727000
40
0.025000
0
INSERT
8
0
2
RPAD
10
-0.708000
20
-0.727000
41
0.080000
42
0.080000
50
0.000000
0
CIRCLE
8
0
10
-0.708000
20
-0.727000
40
0.025000
0
INSERT
8
0
2
EPAD
10
-1.064000
20
-0.058000
41
0.070000
42
0.070000
0
CIRCLE
8
0
10
-1.064000
20
-0.058000
40
0.025000
0
INSERT
8
0
2
EPAD
10
-0.664000
20
-0.058000
41
0.070000
42
0.070000
0
CIRCLE
8
0
10
-0.664000
20
-0.058000
40
0.025000
0
INSERT
8
0
2
EPAD
10
-0.494000
20
-0.185000
41
0.080000
42
0.080000
0
CIRCLE
8
0
10
-0.494000
20
-0.185000
40
0.010000
0
INSERT
8
0
2
EPAD
10
-0.394000
20
-0.185000
41
0.080000
42
0.080000
0
CIRCLE
8
0
10
-0.394000
20
-0.185000
40
0.010000
0
INSERT
8
0
2
EPAD
10
-0.294000
20
-0.185000
41
0.080000
42
0.080000
0
CIRCLE
8
0
10
-0.294000
20
-0.185000
40
0.010000
0
INSERT
8
0
2
EPAD
10
-0.194000
20
-0.185000
41
0.080000
42
0.080000
0
CIRCLE
8
0
10
-0.194000
20
-0.185000
40
0.010000
0
INSERT
8
0
2
EPAD
10
-0.094000
20
-0.185000
41
0.080000
42
0.080000
0
CIRCLE
8
0
10
-0.094000
20
-0.185000
40
0.010000
0
INSERT
8
0
2
EPAD
10
0.005000
20
-0.185000
41
0.080000
42
0.080000
0
CIRCLE
8
0
10
0.005000
20
-0.185000
40
0.010000
0
INSERT
8
0
2
EPAD
10
0.105000
20
-0.185000
41
0.080000
42
0.080000
0
CIRCLE
8
0
10
0.105000
20
-0.185000
40
0.010000
0
INSERT
8
0
2
EPAD
10
0.205000
20
-0.185000
41
0.080000
42
0.080000
0
CIRCLE
8
0
10
0.205000
20
-0.185000
40
0.010000
0
INSERT
8
0
2
EPAD
10
-0.557000
20
-0.368000
41
0.070000
42
0.070000
0
CIRCLE
8
0
10
-0.557000
20
-0.368000
40
0.025000
0
INSERT
8
0
2
EPAD
10
-0.557000
20
-0.768000
41
0.070000
42
0.070000
0
CIRCLE
8
0
10
-0.557000
20
-0.768000
40
0.025000
0
INSERT
8
0
2
EPAD
10
-0.451000
20
-0.368000
41
0.070000
42
0.070000
0
CIRCLE
8
0
10
-0.451000
20
-0.368000
40
0.025000
0
INSERT
8
0
2
EPAD
10
-0.451000
20
-0.768000
41
0.070000
42
0.070000
0
CIRCLE
8
0
10
-0.451000
20
-0.768000
40
0.025000
0
INSERT
8
0
2
EPAD
10
-0.334000
20
-0.368000
41
0.070000
42
0.070000
0
CIRCLE
8
0
10
-0.334000
20
-0.368000
40
0.025000
0
INSERT
8
0
2
EPAD
10
-0.334000
20
-0.768000
41
0.070000
42
0.070000
0
CIRCLE
8
0
10
-0.334000
20
-0.768000
40
0.025000
0
INSERT
8
0
2
EPAD
10
-0.214000
20
-0.368000
41
0.070000
42
0.070000
0
CIRCLE
8
0
10
-0.214000
20
-0.368000
40
0.025000
0
INSERT
8
0
2
EPAD
10
-0.214000
20
-0.768000
41
0.070000
42
0.070000
0
CIRCLE
8
0
10
-0.214000
20
-0.768000
40
0.025000
0
INSERT
8
0
2
EPAD
10
1.437000
20
0.968000
41
0.080000
42
0.080000
0
CIRCLE
8
0
10
1.437000
20
0.968000
40
0.010000
0
INSERT
8
0
2
EPAD
10
1.337000
20
0.968000
41
0.080000
42
0.080000
0
CIRCLE
8
0
10
1.337000
20
0.968000
40
0.010000
0
INSERT
8
0
2
EPAD
10
1.237000
20
0.968000
41
0.080000
42
0.080000
0
CIRCLE
8
0
10
1.237000
20
0.968000
40
0.010000
0
INSERT
8
0
2
EPAD
10
1.137000
20
0.968000
41
0.080000
42
0.080000
0
CIRCLE
8
0
10
1.137000
20
0.968000
40
0.010000
0
INSERT
8
0
2
EPAD
10
1.037000
20
0.968000
41
0.080000
42
0.080000
0
CIRCLE
8
0
10
1.037000
20
0.968000
40
0.010000
0
INSERT
8
0
2
EPAD
10
0.937000
20
0.968000
41
0.080000
42
0.080000
0
CIRCLE
8
0
10
0.937000
20
0.968000
40
0.010000
0
INSERT
8
0
2
EPAD
10
0.837000
20
0.968000
41
0.080000
42
0.080000
0
CIRCLE
8
0
10
0.837000
20
0.968000
40
0.010000
0
INSERT
8
0
2
EPAD
10
0.737000
20
0.968000
41
0.080000
42
0.080000
0
CIRCLE
8
0
10
0.737000
20
0.968000
40
0.010000
0
INSERT
8
0
2
EPAD
10
0.637000
20
0.968000
41
0.080000
42
0.080000
0
CIRCLE
8
0
10
0.637000
20
0.968000
40
0.010000
0
INSERT
8
0
2
EPAD
10
0.537000
20
0.968000
41
0.080000
42
0.080000
0
CIRCLE
8
0
10
0.537000
20
0.968000
40
0.010000
0
INSERT
8
0
2
EPAD
10
0.437000
20
0.968000
41
0.080000
42
0.080000
0
CIRCLE
8
0
10
0.437000
20
0.968000
40
0.010000
0
INSERT
8
0
2
EPAD
10
0.337000
20
0.968000
41
0.080000
42
0.080000
0
CIRCLE
8
0
10
0.337000
20
0.968000
40
0.010000
0
INSERT
8
0
2
EPAD
10
0.237000
20
0.968000
41
0.080000
42
0.080000
0
CIRCLE
8
0
10
0.237000
20
0.968000
40
0.010000
0
INSERT
8
0
2
EPAD
10
0.137000
20
0.968000
41
0.080000
42
0.080000
0
CIRCLE
8
0
10
0.137000
20
0.968000
40
0.010000
0
INSERT
8
0
2
EPAD
10
0.037000
20
0.968000
41
0.080000
42
0.080000
0
CIRCLE
8
0
10
0.037000
20
0.968000
40
0.010000
0
INSERT
8
0
2
EPAD
10
-0.062000
20
0.968000
41
0.080000
42
0.080000
0
CIRCLE
8
0
10
-0.062000
20
0.968000
40
0.010000
0
INSERT
8
0
2
EPAD
10
-0.162000
20
0.968000
41
0.080000
42
0.080000
0
CIRCLE
8
0
10
-0.162000
20
0.968000
40
0.010000
0
INSERT
8
0
2
EPAD
10
-0.262000
20
0.968000
41
0.080000
42
0.080000
0
CIRCLE
8
0
10
-0.262000
20
0.968000
40
0.010000
0
INSERT
8
0
2
EPAD
10
-0.362000
20
0.968000
41
0.080000
42
0.080000
0
CIRCLE
8
0
10
-0.362000
20
0.968000
40
0.010000
0
INSERT
8
0
2
EPAD
10
-0.462000
20
0.968000
41
0.080000
42
0.080000
0
CIRCLE
8
0
10
-0.462000
20
0.968000
40
0.010000
0
INSERT
8
0
2
EPAD
10
1.269000
20
0.610000
41
0.080000
42
0.080000
0
CIRCLE
8
0
10
1.269000
20
0.610000
40
0.025000
0
INSERT
8
0
2
EPAD
10
1.069000
20
0.610000
41
0.080000
42
0.080000
0
CIRCLE
8
0
10
1.069000
20
0.610000
40
0.025000
0
INSERT
8
0
2
EPAD
10
1.169000
20
0.390000
41
0.080000
42
0.080000
0
CIRCLE
8
0
10
1.169000
20
0.390000
40
0.025000
0
INSERT
8
0
2
EPAD
10
-1.768000
20
0.038000
41
0.120000
42
0.120000
0
CIRCLE
8
0
10
-1.768000
20
0.038000
40
0.030000
0
INSERT
8
0
2
EPAD
10
-1.768000
20
-0.161000
41
0.120000
42
0.120000
0
CIRCLE
8
0
10
-1.768000
20
-0.161000
40
0.030000
0
INSERT
8
0
2
EPAD
10
-1.768000
20
-0.361000
41
0.120000
42
0.120000
0
CIRCLE
8
0
10
-1.768000
20
-0.361000
40
0.030000
0
INSERT
8
0
2
RPAD
10
-1.155000
20
-0.240000
41
0.050000
42
0.050000
50
90.000000
0
CIRCLE
8
0
10
-1.155000
20
-0.240000
40
0.030000
0
INSERT
8
0
2
EPAD
10
-1.155000
20
-0.140000
41
0.050000
42
0.050000
0
CIRCLE
8
0
10
-1.155000
20
-0.140000
40
0.030000
0
INSERT
8
0
2
EPAD
10
-1.155000
20
-0.040000
41
0.050000
42
0.050000
0
CIRCLE
8
0
10
-1.155000
20
-0.040000
40
0.030000
0
INSERT
8
0
2
EPAD
10
-1.155000
20
0.059000
41
0.050000
42
0.050000
0
CIRCLE
8
0
10
-1.155000
20
0.059000
40
0.030000
0
INSERT
8
0
2
EPAD
10
-1.155000
20
0.159000
41
0.050000
42
0.050000
0
CIRCLE
8
0
10
-1.155000
20
0.159000
40
0.030000
0
INSERT
8
0
2
EPAD
10
-1.155000
20
0.259000
41
0.050000
42
0.050000
0
CIRCLE
8
0
10
-1.155000
20
0.259000
40
0.030000
0
INSERT
8
0
2
EPAD
10
-1.155000
20
0.359000
41
0.050000
42
0.050000
0
CIRCLE
8
0
10
-1.155000
20
0.359000
40
0.030000
0
INSERT
8
0
2
EPAD
10
-1.455000
20
0.359000
41
0.050000
42
0.050000
0
CIRCLE
8
0
10
-1.455000
20
0.359000
40
0.030000
0
INSERT
8
0
2
EPAD
10
-1.455000
20
0.259000
41
0.050000
42
0.050000
0
CIRCLE
8
0
10
-1.455000
20
0.259000
40
0.030000
0
INSERT
8
0
2
EPAD
10
-1.455000
20
0.159000
41
0.050000
42
0.050000
0
CIRCLE
8
0
10
-1.455000
20
0.159000
40
0.030000
0
INSERT
8
0
2
EPAD
10
-1.455000
20
0.059000
41
0.050000
42
0.050000
0
CIRCLE
8
0
10
-1.455000
20
0.059000
40
0.030000
0
INSERT
8
0
2
EPAD
10
-1.455000
20
-0.040000
41
0.050000
42
0.050000
0
CIRCLE
8
0
10
-1.455000
20
-0.040000
40
0.030000
0
INSERT
8
0
2
EPAD
10
-1.455000
20
-0.140000
41
0.050000
42
0.050000
0
CIRCLE
8
0
10
-1.455000
20
-0.140000
40
0.030000
0
INSERT
8
0
2
EPAD
10
-1.455000
20
-0.240000
41
0.050000
42
0.050000
0
CIRCLE
8
0
10
-1.455000
20
-0.240000
40
0.030000
0
INSERT
8
0
2
EPAD
10
-0.684000
20
-0.477000
41
0.070000
42
0.070000
0
CIRCLE
8
0
10
-0.684000
20
-0.477000
40
0.025000
0
INSERT
8
0
2
EPAD
10
-1.084000
20
-0.477000
41
0.070000
42
0.070000
0
CIRCLE
8
0
10
-1.084000
20
-0.477000
40
0.025000
0
INSERT
8
0
2
RPAD
10
-1.869000
20
0.239000
41
0.080000
42
0.080000
50
0.000000
0
CIRCLE
8
0
10
-1.869000
20
0.239000
40
0.025000
0
INSERT
8
0
2
RPAD
10
-1.769000
20
0.239000
41
0.080000
42
0.080000
50
0.000000
0
CIRCLE
8
0
10
-1.769000
20
0.239000
40
0.025000
0
INSERT
8
0
2
RPAD
10
-1.669000
20
0.239000
41
0.080000
42
0.080000
50
0.000000
0
CIRCLE
8
0
10
-1.669000
20
0.239000
40
0.025000
0
INSERT
8
0
2
EPAD
10
-1.907000
20
0.445000
41
0.070000
42
0.070000
0
CIRCLE
8
0
10
-1.907000
20
0.445000
40
0.025000
0
INSERT
8
0
2
EPAD
10
-1.507000
20
0.445000
41
0.070000
42
0.070000
0
CIRCLE
8
0
10
-1.507000
20
0.445000
40
0.025000
0
INSERT
8
0
2
EPAD
10
-1.906000
20
0.564000
41
0.070000
42
0.070000
0
CIRCLE
8
0
10
-1.906000
20
0.564000
40
0.025000
0
INSERT
8
0
2
EPAD
10
-1.506000
20
0.564000
41
0.070000
42
0.070000
0
CIRCLE
8
0
10
-1.506000
20
0.564000
40
0.025000
0
INSERT
8
0
2
EPAD
10
-1.358000
20
0.672000
41
0.080000
42
0.080000
0
CIRCLE
8
0
10
-1.358000
20
0.672000
40
0.025000
0
INSERT
8
0
2
EPAD
10
-1.358000
20
0.572000
41
0.080000
42
0.080000
0
CIRCLE
8
0
10
-1.358000
20
0.572000
40
0.025000
0
INSERT
8
0
2
EPAD
10
-1.758000
20
0.755000
41
0.120000
42
0.120000
0
CIRCLE
8
0
10
-1.758000
20
0.755000
40
0.030000
0
INSERT
8
0
2
EPAD
10
-1.758000
20
0.955000
41
0.120000
42
0.120000
0
CIRCLE
8
0
10
-1.758000
20
0.955000
40
0.030000
0
INSERT
8
0
2
EPAD
10
0.370000
20
-0.182000
41
0.070000
42
0.070000
0
CIRCLE
8
0
10
0.370000
20
-0.182000
40
0.025000
0
INSERT
8
0
2
EPAD
10
0.370000
20
-0.582000
41
0.070000
42
0.070000
0
CIRCLE
8
0
10
0.370000
20
-0.582000
40
0.025000
0
INSERT
8
0
2
EPAD
10
0.153000
20
-0.570000
41
0.060000
42
0.060000
0
CIRCLE
8
0
10
0.153000
20
-0.570000
40
0.025000
0
INSERT
8
0
2
EPAD
10
0.153000
20
-0.490000
41
0.060000
42
0.060000
0
CIRCLE
8
0
10
0.153000
20
-0.490000
40
0.025000
0
INSERT
8
0
2
EPAD
10
0.153000
20
-0.410000
41
0.060000
42
0.060000
0
CIRCLE
8
0
10
0.153000
20
-0.410000
40
0.025000
0
INSERT
8
0
2
EPAD
10
0.149000
20
0.216000
41
0.080000
42
0.080000
0
CIRCLE
8
0
10
0.149000
20
0.216000
40
0.025000
0
INSERT
8
0
2
EPAD
10
0.349000
20
0.216000
41
0.080000
42
0.080000
0
CIRCLE
8
0
10
0.349000
20
0.216000
40
0.025000
0
INSERT
8
0
2
EPAD
10
0.126000
20
0.383000
41
0.070000
42
0.070000
0
CIRCLE
8
0
10
0.126000
20
0.383000
40
0.025000
0
INSERT
8
0
2
EPAD
10
0.126000
20
0.483000
41
0.070000
42
0.070000
0
CIRCLE
8
0
10
0.126000
20
0.483000
40
0.025000
0
INSERT
8
0
2
EPAD
10
0.345000
20
0.379000
41
0.070000
42
0.070000
0
CIRCLE
8
0
10
0.345000
20
0.379000
40
0.025000
0
INSERT
8
0
2
EPAD
10
0.345000
20
0.479000
41
0.070000
42
0.070000
0
CIRCLE
8
0
10
0.345000
20
0.479000
40
0.025000
0
INSERT
8
0
2
EPAD
10
0.518000
20
0.203000
41
0.070000
42
0.070000
0
CIRCLE
8
0
10
0.518000
20
0.203000
40
0.025000
0
INSERT
8
0
2
EPAD
10
0.718000
20
0.203000
41
0.070000
42
0.070000
0
CIRCLE
8
0
10
0.718000
20
0.203000
40
0.025000
0
INSERT
8
0
2
EPAD
10
0.467000
20
-0.252000
41
0.070000
42
0.070000
0
CIRCLE
8
0
10
0.467000
20
-0.252000
40
0.025000
0
INSERT
8
0
2
EPAD
10
0.867000
20
-0.252000
41
0.070000
42
0.070000
0
CIRCLE
8
0
10
0.867000
20
-0.252000
40
0.025000
0
INSERT
8
0
2
EPAD
10
1.066000
20
-1.105000
41
0.120000
42
0.120000
0
CIRCLE
8
0
10
1.066000
20
-1.105000
40
0.030000
0
INSERT
8
0
2
EPAD
10
0.866000
20
-1.105000
41
0.120000
42
0.120000
0
CIRCLE
8
0
10
0.866000
20
-1.105000
40
0.030000
0
INSERT
8
0
2
EPAD
10
-1.369000
20
1.058000
41
0.120000
42
0.120000
0
CIRCLE
8
0
10
-1.369000
20
1.058000
40
0.030000
0
INSERT
8
0
2
EPAD
10
-1.169000
20
1.058000
41
0.120000
42
0.120000
0
CIRCLE
8
0
10
-1.169000
20
1.058000
40
0.030000
0
INSERT
8
0
2
EPAD
10
-0.969000
20
1.058000
41
0.120000
42
0.120000
0
CIRCLE
8
0
10
-0.969000
20
1.058000
40
0.030000
0
INSERT
8
0
2
EPAD
10
-0.769000
20
1.058000
41
0.120000
42
0.120000
0
CIRCLE
8
0
10
-0.769000
20
1.058000
40
0.030000
0
INSERT
8
0
2
EPAD
10
-1.062000
20
-0.174000
41
0.070000
42
0.070000
0
CIRCLE
8
0
10
-1.062000
20
-0.174000
40
0.025000
0
INSERT
8
0
2
EPAD
10
-0.662000
20
-0.174000
41
0.070000
42
0.070000
0
CIRCLE
8
0
10
-0.662000
20
-0.174000
40
0.025000
0
INSERT
8
0
2
EPAD
10
-1.062000
20
-0.324000
41
0.070000
42
0.070000
0
CIRCLE
8
0
10
-1.062000
20
-0.324000
40
0.025000
0
INSERT
8
0
2
EPAD
10
-0.662000
20
-0.324000
41
0.070000
42
0.070000
0
CIRCLE
8
0
10
-0.662000
20
-0.324000
40
0.025000
0
INSERT
8
0
2
EPAD
10
-0.763000
20
0.234000
41
0.070000
42
0.070000
0
CIRCLE
8
0
10
-0.763000
20
0.234000
40
0.025000
0
INSERT
8
0
2
EPAD
10
-0.363000
20
0.234000
41
0.070000
42
0.070000
0
CIRCLE
8
0
10
-0.363000
20
0.234000
40
0.025000
0
INSERT
8
0
2
EPAD
10
-0.763000
20
0.364000
41
0.070000
42
0.070000
0
CIRCLE
8
0
10
-0.763000
20
0.364000
40
0.025000
0
INSERT
8
0
2
EPAD
10
-0.363000
20
0.364000
41
0.070000
42
0.070000
0
CIRCLE
8
0
10
-0.363000
20
0.364000
40
0.025000
0
INSERT
8
0
2
EPAD
10
-0.007000
20
-0.367000
41
0.150000
42
0.150000
0
CIRCLE
8
0
10
-0.007000
20
-0.367000
40
0.030000
0
INSERT
8
0
2
EPAD
10
-1.515000
20
0.667000
41
0.070000
42
0.070000
0
CIRCLE
8
0
10
-1.515000
20
0.667000
40
0.025000
0
INSERT
8
0
2
EPAD
10
-1.515000
20
1.067000
41
0.070000
42
0.070000
0
CIRCLE
8
0
10
-1.515000
20
1.067000
40
0.025000
0
INSERT
8
0
2
EPAD
10
-1.846000
20
1.195000
41
0.250000
42
0.250000
0
CIRCLE
8
0
10
-1.846000
20
1.195000
40
0.030000
0
INSERT
8
0
2
EPAD
10
0.999000
20
-0.218000
41
0.070000
42
0.070000
0
CIRCLE
8
0
10
0.999000
20
-0.218000
40
0.025000
0
INSERT
8
0
2
EPAD
10
1.399000
20
-0.218000
41
0.070000
42
0.070000
0
CIRCLE
8
0
10
1.399000
20
-0.218000
40
0.025000
0
INSERT
8
0
2
EPAD
10
0.999000
20
-0.099000
41
0.070000
42
0.070000
0
CIRCLE
8
0
10
0.999000
20
-0.099000
40
0.025000
0
INSERT
8
0
2
EPAD
10
1.399000
20
-0.099000
41
0.070000
42
0.070000
0
CIRCLE
8
0
10
1.399000
20
-0.099000
40
0.025000
0
INSERT
8
0
2
RPAD
10
1.797000
20
-0.078000
41
0.080000
42
0.080000
50
90.000000
0
CIRCLE
8
0
10
1.797000
20
-0.078000
40
0.025000
0
INSERT
8
0
2
RPAD
10
1.797000
20
0.021000
41
0.080000
42
0.080000
50
90.000000
0
CIRCLE
8
0
10
1.797000
20
0.021000
40
0.025000
0
INSERT
8
0
2
RPAD
10
1.797000
20
0.121000
41
0.080000
42
0.080000
50
90.000000
0
CIRCLE
8
0
10
1.797000
20
0.121000
40
0.025000
0
INSERT
8
0
2
EPAD
10
1.396000
20
-1.121000
41
0.120000
42
0.120000
0
CIRCLE
8
0
10
1.396000
20
-1.121000
40
0.030000
0
INSERT
8
0
2
EPAD
10
1.596000
20
-1.121000
41
0.120000
42
0.120000
0
CIRCLE
8
0
10
1.596000
20
-1.121000
40
0.030000
0
INSERT
8
0
2
EPAD
10
1.777000
20
-0.687000
41
0.120000
42
0.120000
0
CIRCLE
8
0
10
1.777000
20
-0.687000
40
0.030000
0
INSERT
8
0
2
EPAD
10
1.777000
20
-0.487000
41
0.120000
42
0.120000
0
CIRCLE
8
0
10
1.777000
20
-0.487000
40
0.030000
0
POLYLINE
8
0
66
1
40
0.008000
41
0.008000
0
VERTEX
8
0
10
-2.003000
20
-1.351000
0
VERTEX
8
0
10
2.019000
20
-1.351000
0
VERTEX
8
0
10
2.019000
20
1.351000
0
VERTEX
8
0
10
-2.003000
20
1.351000
0
VERTEX
8
0
10
-2.003000
20
-1.351000
0
SEQEND
8
0
0
POLYLINE
8
0
66
1
40
0.000000
41
0.000000
0
VERTEX
8
0
10
-0.203000
20
1.072000
0
VERTEX
8
0
10
1.287000
20
1.072000
0
VERTEX
8
0
10
1.287000
20
1.331000
0
VERTEX
8
0
10
-0.203000
20
1.331000
0
VERTEX
8
0
10
-0.203000
20
1.072000
0
SEQEND
8
0
0
CIRCLE
8
12632256
10
-1.030000
20
-1.115000
40
0.213000
0
POLYLINE
8
0
66
1
40
0.008000
41
0.008000
0
VERTEX
8
0
10
-1.110000
20
-0.925000
0
VERTEX
8
0
10
-1.110000
20
-0.965000
0
SEQEND
8
0
0
POLYLINE
8
0
66
1
40
0.008000
41
0.008000
0
VERTEX
8
0
10
-1.130000
20
-0.945000
0
VERTEX
8
0
10
-1.090000
20
-0.945000
0
SEQEND
8
0
0
TEXT
8
12632256
10
-1.105000
20
-0.892000
40
0.048000
41
1.041667
1
BR1
0
CIRCLE
8
12632256
10
0.688000
20
-0.602000
40
0.242000
0
CIRCLE
8
12632256
10
0.688000
20
-0.602000
40
0.050000
0
TEXT
8
12632256
10
0.523000
20
-0.498000
40
0.080000
41
1.125000
1
+
0
TEXT
8
12632256
10
0.588000
20
-0.350000
40
0.048000
41
1.041667
1
BUZ1
0
POLYLINE
8
0
66
1
40
0.008000
41
0.008000
0
VERTEX
8
0
10
-0.977000
20
0.362000
0
VERTEX
8
0
10
-0.979000
20
0.382000
0
VERTEX
8
0
10
-0.985000
20
0.401000
0
VERTEX
8
0
10
-0.994000
20
0.418000
0
VERTEX
8
0
10
-1.006000
20
0.433000
0
VERTEX
8
0
10
-1.021000
20
0.445000
0
VERTEX
8
0
10
-1.038000
20
0.454000
0
VERTEX
8
0
10
-1.057000
20
0.460000
0
VERTEX
8
0
10
-1.077000
20
0.462000
0
SEQEND
8
0
0
POLYLINE
8
0
66
1
40
0.008000
41
0.008000
0
VERTEX
8
0
10
-0.977000
20
0.362000
0
VERTEX
8
0
10
-0.979000
20
0.341000
0
VERTEX
8
0
10
-0.985000
20
0.322000
0
VERTEX
8
0
10
-0.994000
20
0.305000
0
VERTEX
8
0
10
-1.006000
20
0.291000
0
VERTEX
8
0
10
-1.021000
20
0.279000
0
VERTEX
8
0
10
-1.038000
20
0.270000
0
VERTEX
8
0
10
-1.057000
20
0.264000
0
VERTEX
8
0
10
-1.077000
20
0.262000
0
SEQEND
8
0
0
POLYLINE
8
0
66
1
40
0.008000
41
0.008000
0
VERTEX
8
0
10
-1.077000
20
0.462000
0
VERTEX
8
0
10
-1.077000
20
0.612000
0
SEQEND
8
0
0
POLYLINE
8
0
66
1
40
0.008000
41
0.008000
0
VERTEX
8
0
10
0.922000
20
0.612000
0
VERTEX
8
0
10
0.922000
20
0.112000
0
SEQEND
8
0
0
POLYLINE
8
0
66
1
40
0.008000
41
0.008000
0
VERTEX
8
0
10
-1.077000
20
0.112000
0
VERTEX
8
0
10
-1.077000
20
0.262000
0
SEQEND
8
0
0
POLYLINE
8
0
66
1
40
0.008000
41
0.008000
0
VERTEX
8
0
10
-1.077000
20
0.612000
0
VERTEX
8
0
10
0.922000
20
0.612000
0
SEQEND
8
0
0
POLYLINE
8
0
66
1
40
0.008000
41
0.008000
0
VERTEX
8
0
10
-1.077000
20
0.112000
0
VERTEX
8
0
10
0.922000
20
0.112000
0
SEQEND
8
0
0
TEXT
8
12632256
10
-1.087000
20
0.312000
40
0.048000
41
1.041667
50
90.000000
1
U1
0
POLYLINE
8
0
66
1
40
0.008000
41
0.008000
0
VERTEX
8
0
10
-1.280000
20
-1.309000
0
VERTEX
8
0
10
-1.280000
20
-0.909000
0
SEQEND
8
0
0
POLYLINE
8
0
66
1
40
0.008000
41
0.008000
0
VERTEX
8
0
10
-1.680000
20
-1.309000
0
VERTEX
8
0
10
-1.680000
20
-0.909000
0
SEQEND
8
0
0
POLYLINE
8
0
66
1
40
0.008000
41
0.008000
0
VERTEX
8
0
10
-1.280000
20
-0.909000
0
VERTEX
8
0
10
-1.680000
20
-0.909000
0
SEQEND
8
0
0
POLYLINE
8
0
66
1
40
0.008000
41
0.008000
0
VERTEX
8
0
10
-1.280000
20
-1.309000
0
VERTEX
8
0
10
-1.680000
20
-1.309000
0
SEQEND
8
0
0
TEXT
8
12632256
10
-1.283000
20
-1.332000
40
0.048000
41
1.041667
1
J16
0
CIRCLE
8
12632256
10
-1.601000
20
-0.687000
40
0.200000
0
POLYLINE
8
0
66
1
40
0.008000
41
0.008000
0
VERTEX
8
0
10
-1.726000
20
-0.587000
0
VERTEX
8
0
10
-1.676000
20
-0.587000
0
SEQEND
8
0
0
POLYLINE
8
0
66
1
40
0.008000
41
0.008000
0
VERTEX
8
0
10
-1.701000
20
-0.562000
0
VERTEX
8
0
10
-1.701000
20
-0.612000
0
SEQEND
8
0
0
TEXT
8
12632256
10
-1.793000
20
-0.922000
40
0.048000
41
1.041667
1
C4
0
POLYLINE
8
0
66
1
40
0.008000
41
0.008000
0
VERTEX
8
0
10
-1.865000
20
-0.941000
0
VERTEX
8
0
10
-1.865000
20
-0.891000
0
SEQEND
8
0
0
POLYLINE
8
0
66
1
40
0.008000
41
0.008000
0
VERTEX
8
0
10
-1.890000
20
-0.891000
0
VERTEX
8
0
10
-1.840000
20
-0.891000
0
VERTEX
8
0
10
-1.840000
20
-0.691000
0
VERTEX
8
0
10
-1.890000
20
-0.691000
0
VERTEX
8
0
10
-1.890000
20
-0.891000
0
SEQEND
8
0
0
POLYLINE
8
0
66
1
40
0.008000
41
0.008000
0
VERTEX
8
0
10
-1.865000
20
-0.691000
0
VERTEX
8
0
10
-1.865000
20
-0.641000
0
SEQEND
8
0
0
TEXT
8
12632256
10
-1.892000
20
-0.866000
40
0.048000
41
1.041667
50
90.000000
1
R60
0
POLYLINE
8
0
66
1
40
0.008000
41
0.008000
0
VERTEX
8
0
10
-0.249000
20
-1.275000
0
VERTEX
8
0
10
0.050000
20
-1.275000
0
VERTEX
8
0
10
0.050000
20
-1.175000
0
VERTEX
8
0
10
-0.249000
20
-1.175000
0
VERTEX
8
0
10
-0.249000
20
-1.275000
0
SEQEND
8
0
0
POLYLINE
8
0
66
1
40
0.008000
41
0.008000
0
VERTEX
8
0
10
-0.249000
20
-1.175000
0
VERTEX
8
0
10
-0.249000
20
-1.125000
0
VERTEX
8
0
10
0.050000
20
-1.125000
0
VERTEX
8
0
10
0.050000
20
-1.175000
0
SEQEND
8
0
0
POLYLINE
8
0
66
1
40
0.008000
41
0.008000
0
VERTEX
8
0
10
-0.249000
20
-1.175000
0
VERTEX
8
0
10
-0.199000
20
-1.125000
0
SEQEND
8
0
0
POLYLINE
8
0
66
1
40
0.008000
41
0.008000
0
VERTEX
8
0
10
-0.199000
20
-1.175000
0
VERTEX
8
0
10
-0.149000
20
-1.125000
0
SEQEND
8
0
0
POLYLINE
8
0
66
1
40
0.008000
41
0.008000
0
VERTEX
8
0
10
-0.149000
20
-1.175000
0
VERTEX
8
0
10
-0.099000
20
-1.125000
0
SEQEND
8
0
0
POLYLINE
8
0
66
1
40
0.008000
41
0.008000
0
VERTEX
8
0
10
-0.099000
20
-1.175000
0
VERTEX
8
0
10
-0.049000
20
-1.125000
0
SEQEND
8
0
0
POLYLINE
8
0
66
1
40
0.008000
41
0.008000
0
VERTEX
8
0
10
-0.049000
20
-1.175000
0
VERTEX
8
0
10
0.000000
20
-1.125000
0
SEQEND
8
0
0
POLYLINE
8
0
66
1
40
0.008000
41
0.008000
0
VERTEX
8
0
10
0.000000
20
-1.175000
0
VERTEX
8
0
10
0.050000
20
-1.125000
0
SEQEND
8
0
0
TEXT
8
12632256
10
-0.174000
20
-1.115000
40
0.048000
41
1.041667
1
U30
0
POLYLINE
8
0
66
1
40
0.008000
41
0.008000
0
VERTEX
8
0
10
-0.788000
20
-1.332000
0
VERTEX
8
0
10
0.589000
20
-1.332000
0
VERTEX
8
0
10
0.589000
20
-0.843000
0
VERTEX
8
0
10
-0.788000
20
-0.843000
0
VERTEX
8
0
10
-0.788000
20
-1.332000
0
SEQEND
8
0
0
POLYLINE
8
0
66
1
40
0.008000
41
0.008000
0
VERTEX
8
0
10
0.038000
20
-0.820000
0
VERTEX
8
0
10
0.242000
20
-0.820000
0
VERTEX
8
0
10
0.242000
20
-0.715000
0
VERTEX
8
0
10
0.038000
20
-0.715000
0
VERTEX
8
0
10
0.038000
20
-0.820000
0
SEQEND
8
0
0
POLYLINE
8
0
66
1
40
0.008000
41
0.008000
0
VERTEX
8
0
10
0.070000
20
-0.716000
0
VERTEX
8
0
10
0.070000
20
-0.819000
0
SEQEND
8
0
0
POLYLINE
8
0
66
1
40
0.008000
41
0.008000
0
VERTEX
8
0
10
0.010000
20
-0.768000
0
VERTEX
8
0
10
0.038000
20
-0.768000
0
SEQEND
8
0
0
POLYLINE
8
0
66
1
40
0.008000
41
0.008000
0
VERTEX
8
0
10
0.242000
20
-0.768000
0
VERTEX
8
0
10
0.270000
20
-0.768000
0
SEQEND
8
0
0
TEXT
8
12632256
10
0.090000
20
-0.705000
40
0.048000
41
1.041667
1
D1
0
POLYLINE
8
0
66
1
40
0.008000
41
0.008000
0
VERTEX
8
0
10
0.681000
20
-0.868000
0
VERTEX
8
0
10
0.691000
20
-0.871000
0
VERTEX
8
0
10
0.701000
20
-0.879000
0
VERTEX
8
0
10
0.709000
20
-0.893000
0
VERTEX
8
0
10
0.716000
20
-0.911000
0
VERTEX
8
0
10
0.722000
20
-0.933000
0
VERTEX
8
0
10
0.727000
20
-0.959000
0
VERTEX
8
0
10
0.730000
20
-0.987000
0
VERTEX
8
0
10
0.731000
20
-1.018000
0
SEQEND
8
0
0
POLYLINE
8
0
66
1
40
0.008000
41
0.008000
0
VERTEX
8
0
10
0.681000
20
-1.168000
0
VERTEX
8
0
10
0.686000
20
-1.167000
0
VERTEX
8
0
10
0.691000
20
-1.165000
0
VERTEX
8
0
10
0.701000
20
-1.156000
0
VERTEX
8
0
10
0.709000
20
-1.143000
0
VERTEX
8
0
10
0.716000
20
-1.124000
0
VERTEX
8
0
10
0.722000
20
-1.102000
0
VERTEX
8
0
10
0.727000
20
-1.077000
0
VERTEX
8
0
10
0.730000
20
-1.049000
0
VERTEX
8
0
10
0.731000
20
-1.018000
0
SEQEND
8
0
0
POLYLINE
8
0
66
1
40
0.008000
41
0.008000
0
VERTEX
8
0
10
0.681000
20
-1.168000
0
VERTEX
8
0
10
0.676000
20
-1.167000
0
VERTEX
8
0
10
0.671000
20
-1.165000
0
VERTEX
8
0
10
0.661000
20
-1.156000
0
VERTEX
8
0
10
0.653000
20
-1.143000
0
VERTEX
8
0
10
0.646000
20
-1.124000
0
VERTEX
8
0
10
0.640000
20
-1.102000
0
VERTEX
8
0
10
0.635000
20
-1.077000
0
VERTEX
8
0
10
0.632000
20
-1.049000
0
VERTEX
8
0
10
0.631000
20
-1.018000
0
SEQEND
8
0
0
POLYLINE
8
0
66
1
40
0.008000
41
0.008000
0
VERTEX
8
0
10
0.681000
20
-0.868000
0
VERTEX
8
0
10
0.671000
20
-0.871000
0
VERTEX
8
0
10
0.661000
20
-0.879000
0
VERTEX
8
0
10
0.653000
20
-0.893000
0
VERTEX
8
0
10
0.646000
20
-0.911000
0
VERTEX
8
0
10
0.640000
20
-0.933000
0
VERTEX
8
0
10
0.635000
20
-0.959000
0
VERTEX
8
0
10
0.632000
20
-0.987000
0
VERTEX
8
0
10
0.631000
20
-1.018000
0
SEQEND
8
0
0
TEXT
8
12632256
10
0.707000
20
-1.305000
40
0.048000
41
1.041667
50
90.000000
1
C6
0
CIRCLE
8
12632256
10
-0.993000
20
-0.735000
40
0.100000
0
POLYLINE
8
0
66
1
40
0.008000
41
0.008000
0
VERTEX
8
0
10
-1.068000
20
-0.685000
0
VERTEX
8
0
10
-1.018000
20
-0.685000
0
SEQEND
8
0
0
POLYLINE
8
0
66
1
40
0.008000
41
0.008000
0
VERTEX
8
0
10
-1.043000
20
-0.660000
0
VERTEX
8
0
10
-1.043000
20
-0.710000
0
SEQEND
8
0
0
TEXT
8
12632256
10
-1.043000
20
-0.625000
40
0.048000
41
1.041667
1
C5
0
POLYLINE
8
0
66
1
40
0.008000
41
0.008000
0
VERTEX
8
0
10
-1.289000
20
-0.759000
0
VERTEX
8
0
10
-1.289000
20
-0.709000
0
SEQEND
8
0
0
POLYLINE
8
0
66
1
40
0.008000
41
0.008000
0
VERTEX
8
0
10
-1.314000
20
-0.709000
0
VERTEX
8
0
10
-1.264000
20
-0.709000
0
VERTEX
8
0
10
-1.264000
20
-0.509000
0
VERTEX
8
0
10
-1.314000
20
-0.509000
0
VERTEX
8
0
10
-1.314000
20
-0.709000
0
SEQEND
8
0
0
POLYLINE
8
0
66
1
40
0.008000
41
0.008000
0
VERTEX
8
0
10
-1.289000
20
-0.509000
0
VERTEX
8
0
10
-1.289000
20
-0.459000
0
SEQEND
8
0
0
TEXT
8
12632256
10
-1.324000
20
-0.684000
40
0.048000
41
1.041667
50
90.000000
1
R24
0
CIRCLE
8
12632256
10
-0.758000
20
-0.727000
40
0.000000
0
CIRCLE
8
12632256
10
-0.758000
20
-0.727000
40
0.100000
0
POLYLINE
8
0
66
1
40
0.008000
41
0.008000
0
VERTEX
8
0
10
-0.883000
20
-0.627000
0
VERTEX
8
0
10
-0.833000
20
-0.627000
0
SEQEND
8
0
0
POLYLINE
8
0
66
1
40
0.008000
41
0.008000
0
VERTEX
8
0
10
-0.858000
20
-0.602000
0
VERTEX
8
0
10
-0.858000
20
-0.652000
0
SEQEND
8
0
0
TEXT
8
12632256
10
-0.820000
20
-0.607000
40
0.048000
41
1.041667
1
D2
0
POLYLINE
8
0
66
1
40
0.008000
41
0.008000
0
VERTEX
8
0
10
-1.014000
20
-0.058000
0
VERTEX
8
0
10
-0.964000
20
-0.058000
0
SEQEND
8
0
0
POLYLINE
8
0
66
1
40
0.008000
41
0.008000
0
VERTEX
8
0
10
-0.964000
20
-0.083000
0
VERTEX
8
0
10
-0.764000
20
-0.083000
0
VERTEX
8
0
10
-0.764000
20
-0.033000
0
VERTEX
8
0
10
-0.964000
20
-0.033000
0
VERTEX
8
0
10
-0.964000
20
-0.083000
0
SEQEND
8
0
0
POLYLINE
8
0
66
1
40
0.008000
41
0.008000
0
VERTEX
8
0
10
-0.764000
20
-0.058000
0
VERTEX
8
0
10
-0.714000
20
-0.058000
0
SEQEND
8
0
0
TEXT
8
12632256
10
-0.920000
20
-0.034000
40
0.048000
41
1.041667
1
R1
0
POLYLINE
8
0
66
1
40
0.008000
41
0.008000
0
VERTEX
8
0
10
-0.594000
20
-0.285000
0
VERTEX
8
0
10
0.305000
20
-0.285000
0
VERTEX
8
0
10
0.305000
20
-0.035000
0
VERTEX
8
0
10
-0.594000
20
-0.035000
0
VERTEX
8
0
10
-0.594000
20
-0.285000
0
SEQEND
8
0
0
POLYLINE
8
0
66
1
40
0.008000
41
0.008000
0
VERTEX
8
0
10
-0.594000
20
-0.085000
0
VERTEX
8
0
10
0.305000
20
-0.085000
0
SEQEND
8
0
0
TEXT
8
12632256
10
0.349000
20
-0.107000
40
0.048000
41
1.041667
1
J7
0
POLYLINE
8
0
66
1
40
0.008000
41
0.008000
0
VERTEX
8
0
10
-0.557000
20
-0.418000
0
VERTEX
8
0
10
-0.557000
20
-0.468000
0
SEQEND
8
0
0
POLYLINE
8
0
66
1
40
0.008000
41
0.008000
0
VERTEX
8
0
10
-0.582000
20
-0.668000
0
VERTEX
8
0
10
-0.532000
20
-0.668000
0
VERTEX
8
0
10
-0.532000
20
-0.468000
0
VERTEX
8
0
10
-0.582000
20
-0.468000
0
VERTEX
8
0
10
-0.582000
20
-0.668000
0
SEQEND
8
0
0
POLYLINE
8
0
66
1
40
0.008000
41
0.008000
0
VERTEX
8
0
10
-0.557000
20
-0.668000
0
VERTEX
8
0
10
-0.557000
20
-0.718000
0
SEQEND
8
0
0
TEXT
8
12632256
10
-0.474000
20
-0.643000
40
0.048000
41
1.041667
50
90.000000
1
R33
0
POLYLINE
8
0
66
1
40
0.008000
41
0.008000
0
VERTEX
8
0
10
-0.451000
20
-0.418000
0
VERTEX
8
0
10
-0.451000
20
-0.468000
0
SEQEND
8
0
0
POLYLINE
8
0
66
1
40
0.008000
41
0.008000
0
VERTEX
8
0
10
-0.476000
20
-0.668000
0
VERTEX
8
0
10
-0.426000
20
-0.668000
0
VERTEX
8
0
10
-0.426000
20
-0.468000
0
VERTEX
8
0
10
-0.476000
20
-0.468000
0
VERTEX
8
0
10
-0.476000
20
-0.668000
0
SEQEND
8
0
0
POLYLINE
8
0
66
1
40
0.008000
41
0.008000
0
VERTEX
8
0
10
-0.451000
20
-0.668000
0
VERTEX
8
0
10
-0.451000
20
-0.718000
0
SEQEND
8
0
0
TEXT
8
12632256
10
-0.368000
20
-0.643000
40
0.048000
41
1.041667
50
90.000000
1
R34
0
POLYLINE
8
0
66
1
40
0.008000
41
0.008000
0
VERTEX
8
0
10
-0.334000
20
-0.418000
0
VERTEX
8
0
10
-0.334000
20
-0.468000
0
SEQEND
8
0
0
POLYLINE
8
0
66
1
40
0.008000
41
0.008000
0
VERTEX
8
0
10
-0.359000
20
-0.668000
0
VERTEX
8
0
10
-0.309000
20
-0.668000
0
VERTEX
8
0
10
-0.309000
20
-0.468000
0
VERTEX
8
0
10
-0.359000
20
-0.468000
0
VERTEX
8
0
10
-0.359000
20
-0.668000
0
SEQEND
8
0
0
POLYLINE
8
0
66
1
40
0.008000
41
0.008000
0
VERTEX
8
0
10
-0.334000
20
-0.668000
0
VERTEX
8
0
10
-0.334000
20
-0.718000
0
SEQEND
8
0
0
TEXT
8
12632256
10
-0.251000
20
-0.643000
40
0.048000
41
1.041667
50
90.000000
1
R35
0
POLYLINE
8
0
66
1
40
0.008000
41
0.008000
0
VERTEX
8
0
10
-0.214000
20
-0.418000
0
VERTEX
8
0
10
-0.214000
20
-0.468000
0
SEQEND
8
0
0
POLYLINE
8
0
66
1
40
0.008000
41
0.008000
0
VERTEX
8
0
10
-0.239000
20
-0.668000
0
VERTEX
8
0
10
-0.189000
20
-0.668000
0
VERTEX
8
0
10
-0.189000
20
-0.468000
0
VERTEX
8
0
10
-0.239000
20
-0.468000
0
VERTEX
8
0
10
-0.239000
20
-0.668000
0
SEQEND
8
0
0
POLYLINE
8
0
66
1
40
0.008000
41
0.008000
0
VERTEX
8
0
10
-0.214000
20
-0.668000
0
VERTEX
8
0
10
-0.214000
20
-0.718000
0
SEQEND
8
0
0
TEXT
8
12632256
10
-0.131000
20
-0.643000
40
0.048000
41
1.041667
50
90.000000
1
R36
0
POLYLINE
8
0
66
1
40
0.008000
41
0.008000
0
VERTEX
8
0
10
-0.562000
20
0.818000
0
VERTEX
8
0
10
1.537000
20
0.818000
0
VERTEX
8
0
10
1.537000
20
1.068000
0
VERTEX
8
0
10
-0.562000
20
1.068000
0
VERTEX
8
0
10
-0.562000
20
0.818000
0
SEQEND
8
0
0
POLYLINE
8
0
66
1
40
0.008000
41
0.008000
0
VERTEX
8
0
10
1.537000
20
0.868000
0
VERTEX
8
0
10
-0.562000
20
0.868000
0
SEQEND
8
0
0
TEXT
8
12632256
10
0.437000
20
0.760000
40
0.048000
41
1.041667
1
J9
0
POLYLINE
8
0
66
1
40
0.008000
41
0.008000
0
VERTEX
8
0
10
1.019000
20
0.535000
0
VERTEX
8
0
10
1.319000
20
0.535000
0
VERTEX
8
0
10
1.319000
20
0.685000
0
VERTEX
8
0
10
1.019000
20
0.685000
0
VERTEX
8
0
10
1.019000
20
0.535000
0
SEQEND
8
0
0
POLYLINE
8
0
66
1
40
0.008000
41
0.008000
0
VERTEX
8
0
10
1.219000
20
0.385000
0
VERTEX
8
0
10
1.119000
20
0.385000
0
SEQEND
8
0
0
POLYLINE
8
0
66
1
40
0.008000
41
0.008000
0
VERTEX
8
0
10
1.074000
20
0.315000
0
VERTEX
8
0
10
1.267000
20
0.315000
0
VERTEX
8
0
10
1.267000
20
0.535000
0
VERTEX
8
0
10
1.074000
20
0.535000
0
VERTEX
8
0
10
1.074000
20
0.315000
0
SEQEND
8
0
0
TEXT
8
12632256
10
1.094000
20
0.695000
40
0.048000
41
1.041667
1
RV1
0
POLYLINE
8
0
66
1
40
0.008000
41
0.008000
0
VERTEX
8
0
10
-1.568000
20
0.138000
0
VERTEX
8
0
10
-1.968000
20
0.138000
0
SEQEND
8
0
0
POLYLINE
8
0
66
1
40
0.008000
41
0.008000
0
VERTEX
8
0
10
-1.568000
20
-0.461000
0
VERTEX
8
0
10
-1.968000
20
-0.461000
0
SEQEND
8
0
0
POLYLINE
8
0
66
1
40
0.008000
41
0.008000
0
VERTEX
8
0
10
-1.968000
20
0.138000
0
VERTEX
8
0
10
-1.968000
20
-0.461000
0
SEQEND
8
0
0
POLYLINE
8
0
66
1
40
0.008000
41
0.008000
0
VERTEX
8
0
10
-1.568000
20
-0.461000
0
VERTEX
8
0
10
-1.568000
20
0.138000
0
SEQEND
8
0
0
TEXT
8
12632256
10
-1.923000
20
-0.641000
40
0.048000
41
1.041667
50
90.000000
1
J20
0
POLYLINE
8
0
66
1
40
0.008000
41
0.008000
0
VERTEX
8
0
10
-1.355000
20
-0.290000
0
VERTEX
8
0
10
-1.405000
20
-0.290000
0
SEQEND
8
0
0
POLYLINE
8
0
66
1
40
0.008000
41
0.008000
0
VERTEX
8
0
10
-1.205000
20
-0.290000
0
VERTEX
8
0
10
-1.255000
20
-0.290000
0
SEQEND
8
0
0
POLYLINE
8
0
66
1
40
0.008000
41
0.008000
0
VERTEX
8
0
10
-1.305000
20
-0.240000
0
VERTEX
8
0
10
-1.315000
20
-0.241000
0
VERTEX
8
0
10
-1.325000
20
-0.244000
0
VERTEX
8
0
10
-1.333000
20
-0.248000
0
VERTEX
8
0
10
-1.340000
20
-0.254000
0
VERTEX
8
0
10
-1.346000
20
-0.261000
0
VERTEX
8
0
10
-1.351000
20
-0.270000
0
VERTEX
8
0
10
-1.354000
20
-0.280000
0
VERTEX
8
0
10
-1.355000
20
-0.290000
0
SEQEND
8
0
0
POLYLINE
8
0
66
1
40
0.008000
41
0.008000
0
VERTEX
8
0
10
-1.305000
20
-0.240000
0
VERTEX
8
0
10
-1.295000
20
-0.241000
0
VERTEX
8
0
10
-1.285000
20
-0.244000
0
VERTEX
8
0
10
-1.276000
20
-0.248000
0
VERTEX
8
0
10
-1.269000
20
-0.254000
0
VERTEX
8
0
10
-1.263000
20
-0.261000
0
VERTEX
8
0
10
-1.259000
20
-0.270000
0
VERTEX
8
0
10
-1.256000
20
-0.280000
0
VERTEX
8
0
10
-1.255000
20
-0.290000
0
SEQEND
8
0
0
POLYLINE
8
0
66
1
40
0.008000
41
0.008000
0
VERTEX
8
0
10
-1.205000
20
-0.290000
0
VERTEX
8
0
10
-1.205000
20
0.409000
0
VERTEX
8
0
10
-1.405000
20
0.409000
0
VERTEX
8
0
10
-1.405000
20
-0.290000
0
SEQEND
8
0
0
TEXT
8
12632256
10
-1.355000
20
-0.348000
40
0.048000
41
1.041667
1
U2
0
POLYLINE
8
0
66
1
40
0.008000
41
0.008000
0
VERTEX
8
0
10
-0.734000
20
-0.477000
0
VERTEX
8
0
10
-0.784000
20
-0.477000
0
SEQEND
8
0
0
POLYLINE
8
0
66
1
40
0.008000
41
0.008000
0
VERTEX
8
0
10
-0.984000
20
-0.502000
0
VERTEX
8
0
10
-0.784000
20
-0.502000
0
VERTEX
8
0
10
-0.784000
20
-0.452000
0
VERTEX
8
0
10
-0.984000
20
-0.452000
0
VERTEX
8
0
10
-0.984000
20
-0.502000
0
SEQEND
8
0
0
POLYLINE
8
0
66
1
40
0.008000
41
0.008000
0
VERTEX
8
0
10
-0.984000
20
-0.477000
0
VERTEX
8
0
10
-1.034000
20
-0.477000
0
SEQEND
8
0
0
TEXT
8
12632256
10
-0.959000
20
-0.560000
40
0.048000
41
1.041667
1
R51
0
POLYLINE
8
0
66
1
40
0.008000
41
0.008000
0
VERTEX
8
0
10
-1.919000
20
0.189000
0
VERTEX
8
0
10
-1.619000
20
0.189000
0
VERTEX
8
0
10
-1.619000
20
0.289000
0
VERTEX
8
0
10
-1.919000
20
0.289000
0
VERTEX
8
0
10
-1.919000
20
0.189000
0
SEQEND
8
0
0
POLYLINE
8
0
66
1
40
0.008000
41
0.008000
0
VERTEX
8
0
10
-1.919000
20
0.289000
0
VERTEX
8
0
10
-1.919000
20
0.339000
0
VERTEX
8
0
10
-1.619000
20
0.339000
0
VERTEX
8
0
10
-1.619000
20
0.289000
0
SEQEND
8
0
0
POLYLINE
8
0
66
1
40
0.008000
41
0.008000
0
VERTEX
8
0
10
-1.919000
20
0.289000
0
VERTEX
8
0
10
-1.869000
20
0.339000
0
SEQEND
8
0
0
POLYLINE
8
0
66
1
40
0.008000
41
0.008000
0
VERTEX
8
0
10
-1.869000
20
0.289000
0
VERTEX
8
0
10
-1.819000
20
0.339000
0
SEQEND
8
0
0
POLYLINE
8
0
66
1
40
0.008000
41
0.008000
0
VERTEX
8
0
10
-1.819000
20
0.289000
0
VERTEX
8
0
10
-1.769000
20
0.339000
0
SEQEND
8
0
0
POLYLINE
8
0
66
1
40
0.008000
41
0.008000
0
VERTEX
8
0
10
-1.769000
20
0.289000
0
VERTEX
8
0
10
-1.719000
20
0.339000
0
SEQEND
8
0
0
POLYLINE
8
0
66
1
40
0.008000
41
0.008000
0
VERTEX
8
0
10
-1.719000
20
0.289000
0
VERTEX
8
0
10
-1.669000
20
0.339000
0
SEQEND
8
0
0
POLYLINE
8
0
66
1
40
0.008000
41
0.008000
0
VERTEX
8
0
10
-1.669000
20
0.289000
0
VERTEX
8
0
10
-1.619000
20
0.339000
0
SEQEND
8
0
0
TEXT
8
12632256
10
-1.844000
20
0.349000
40
0.048000
41
1.041667
1
U19
0
POLYLINE
8
0
66
1
40
0.008000
41
0.008000
0
VERTEX
8
0
10
-1.857000
20
0.445000
0
VERTEX
8
0
10
-1.807000
20
0.445000
0
SEQEND
8
0
0
POLYLINE
8
0
66
1
40
0.008000
41
0.008000
0
VERTEX
8
0
10
-1.807000
20
0.420000
0
VERTEX
8
0
10
-1.607000
20
0.420000
0
VERTEX
8
0
10
-1.607000
20
0.470000
0
VERTEX
8
0
10
-1.807000
20
0.470000
0
VERTEX
8
0
10
-1.807000
20
0.420000
0
SEQEND
8
0
0
POLYLINE
8
0
66
1
40
0.008000
41
0.008000
0
VERTEX
8
0
10
-1.607000
20
0.445000
0
VERTEX
8
0
10
-1.557000
20
0.445000
0
SEQEND
8
0
0
TEXT
8
12632256
10
-1.757000
20
0.480000
40
0.048000
41
1.041667
1
R5
0
POLYLINE
8
0
66
1
40
0.008000
41
0.008000
0
VERTEX
8
0
10
-1.856000
20
0.564000
0
VERTEX
8
0
10
-1.806000
20
0.564000
0
SEQEND
8
0
0
POLYLINE
8
0
66
1
40
0.008000
41
0.008000
0
VERTEX
8
0
10
-1.806000
20
0.539000
0
VERTEX
8
0
10
-1.606000
20
0.539000
0
VERTEX
8
0
10
-1.606000
20
0.589000
0
VERTEX
8
0
10
-1.806000
20
0.589000
0
VERTEX
8
0
10
-1.806000
20
0.539000
0
SEQEND
8
0
0
POLYLINE
8
0
66
1
40
0.008000
41
0.008000
0
VERTEX
8
0
10
-1.606000
20
0.564000
0
VERTEX
8
0
10
-1.556000
20
0.564000
0
SEQEND
8
0
0
TEXT
8
12632256
10
-1.781000
20
0.599000
40
0.048000
41
1.041667
1
R44
0
CIRCLE
8
12632256
10
-1.358000
20
0.622000
40
0.100000
0
POLYLINE
8
0
66
1
40
0.008000
41
0.008000
0
VERTEX
8
0
10
-1.308000
20
0.697000
0
VERTEX
8
0
10
-1.308000
20
0.647000
0
SEQEND
8
0
0
POLYLINE
8
0
66
1
40
0.008000
41
0.008000
0
VERTEX
8
0
10
-1.283000
20
0.672000
0
VERTEX
8
0
10
-1.333000
20
0.672000
0
SEQEND
8
0
0
TEXT
8
12632256
10
-1.334000
20
0.385000
40
0.048000
41
1.041667
50
90.000000
1
C35
0
POLYLINE
8
0
66
1
40
0.008000
41
0.008000
0
VERTEX
8
0
10
-1.958000
20
0.655000
0
VERTEX
8
0
10
-1.558000
20
0.655000
0
SEQEND
8
0
0
POLYLINE
8
0
66
1
40
0.008000
41
0.008000
0
VERTEX
8
0
10
-1.958000
20
1.055000
0
VERTEX
8
0
10
-1.558000
20
1.055000
0
SEQEND
8
0
0
POLYLINE
8
0
66
1
40
0.008000
41
0.008000
0
VERTEX
8
0
10
-1.558000
20
0.655000
0
VERTEX
8
0
10
-1.558000
20
1.055000
0
SEQEND
8
0
0
POLYLINE
8
0
66
1
40
0.008000
41
0.008000
0
VERTEX
8
0
10
-1.958000
20
0.655000
0
VERTEX
8
0
10
-1.958000
20
1.055000
0
SEQEND
8
0
0
TEXT
8
12632256
10
-1.941000
20
0.534000
40
0.048000
41
1.041667
50
90.000000
1
J5
0
POLYLINE
8
0
66
1
40
0.008000
41
0.008000
0
VERTEX
8
0
10
0.370000
20
-0.232000
0
VERTEX
8
0
10
0.370000
20
-0.282000
0
SEQEND
8
0
0
POLYLINE
8
0
66
1
40
0.008000
41
0.008000
0
VERTEX
8
0
10
0.345000
20
-0.482000
0
VERTEX
8
0
10
0.395000
20
-0.482000
0
VERTEX
8
0
10
0.395000
20
-0.282000
0
VERTEX
8
0
10
0.345000
20
-0.282000
0
VERTEX
8
0
10
0.345000
20
-0.482000
0
SEQEND
8
0
0
POLYLINE
8
0
66
1
40
0.008000
41
0.008000
0
VERTEX
8
0
10
0.370000
20
-0.482000
0
VERTEX
8
0
10
0.370000
20
-0.532000
0
SEQEND
8
0
0
TEXT
8
12632256
10
0.453000
20
-0.432000
40
0.048000
41
1.041667
50
90.000000
1
R9
0
POLYLINE
8
0
66
1
40
0.008000
41
0.008000
0
VERTEX
8
0
10
0.218000
20
-0.590000
0
VERTEX
8
0
10
0.218000
20
-0.390000
0
SEQEND
8
0
0
POLYLINE
8
0
66
1
40
0.008000
41
0.008000
0
VERTEX
8
0
10
0.153000
20
-0.620000
0
VERTEX
8
0
10
0.168000
20
-0.618000
0
VERTEX
8
0
10
0.184000
20
-0.612000
0
VERTEX
8
0
10
0.200000
20
-0.603000
0
VERTEX
8
0
10
0.218000
20
-0.590000
0
SEQEND
8
0
0
POLYLINE
8
0
66
1
40
0.008000
41
0.008000
0
VERTEX
8
0
10
0.153000
20
-0.620000
0
VERTEX
8
0
10
0.128000
20
-0.619000
0
VERTEX
8
0
10
0.116000
20
-0.616000
0
VERTEX
8
0
10
0.104000
20
-0.612000
0
VERTEX
8
0
10
0.093000
20
-0.607000
0
VERTEX
8
0
10
0.083000
20
-0.601000
0
VERTEX
8
0
10
0.073000
20
-0.594000
0
VERTEX
8
0
10
0.064000
20
-0.585000
0
VERTEX
8
0
10
0.049000
20
-0.566000
0
VERTEX
8
0
10
0.038000
20
-0.543000
0
VERTEX
8
0
10
0.034000
20
-0.531000
0
VERTEX
8
0
10
0.031000
20
-0.518000
0
VERTEX
8
0
10
0.029000
20
-0.504000
0
VERTEX
8
0
10
0.028000
20
-0.490000
0
SEQEND
8
0
0
POLYLINE
8
0
66
1
40
0.008000
41
0.008000
0
VERTEX
8
0
10
0.153000
20
-0.360000
0
VERTEX
8
0
10
0.168000
20
-0.362000
0
VERTEX
8
0
10
0.184000
20
-0.368000
0
VERTEX
8
0
10
0.200000
20
-0.377000
0
VERTEX
8
0
10
0.218000
20
-0.390000
0
SEQEND
8
0
0
POLYLINE
8
0
66
1
40
0.008000
41
0.008000
0
VERTEX
8
0
10
0.153000
20
-0.360000
0
VERTEX
8
0
10
0.128000
20
-0.361000
0
VERTEX
8
0
10
0.116000
20
-0.364000
0
VERTEX
8
0
10
0.104000
20
-0.368000
0
VERTEX
8
0
10
0.093000
20
-0.373000
0
VERTEX
8
0
10
0.083000
20
-0.379000
0
VERTEX
8
0
10
0.073000
20
-0.386000
0
VERTEX
8
0
10
0.064000
20
-0.395000
0
VERTEX
8
0
10
0.049000
20
-0.414000
0
VERTEX
8
0
10
0.038000
20
-0.437000
0
VERTEX
8
0
10
0.034000
20
-0.449000
0
VERTEX
8
0
10
0.031000
20
-0.462000
0
VERTEX
8
0
10
0.029000
20
-0.476000
0
VERTEX
8
0
10
0.028000
20
-0.490000
0
SEQEND
8
0
0
TEXT
8
12632256
10
0.018000
20
-0.540000
40
0.048000
41
1.041667
50
90.000000
1
Q1
0
POLYLINE
8
0
66
1
40
0.008000
41
0.008000
0
VERTEX
8
0
10
0.099000
20
0.316000
0
VERTEX
8
0
10
0.399000
20
0.316000
0
VERTEX
8
0
10
0.449000
20
0.266000
0
VERTEX
8
0
10
0.449000
20
0.166000
0
VERTEX
8
0
10
0.399000
20
0.116000
0
VERTEX
8
0
10
0.099000
20
0.116000
0
VERTEX
8
0
10
0.049000
20
0.166000
0
VERTEX
8
0
10
0.049000
20
0.266000
0
VERTEX
8
0
10
0.099000
20
0.316000
0
SEQEND
8
0
0
TEXT
8
12632256
10
0.199000
20
0.326000
40
0.048000
41
1.041667
1
X1
0
POLYLINE
8
0
66
1
40
0.008000
41
0.008000
0
VERTEX
8
0
10
0.126000
20
0.333000
0
VERTEX
8
0
10
0.116000
20
0.335000
0
VERTEX
8
0
10
0.106000
20
0.341000
0
VERTEX
8
0
10
0.098000
20
0.350000
0
VERTEX
8
0
10
0.090000
20
0.362000
0
VERTEX
8
0
10
0.084000
20
0.377000
0
VERTEX
8
0
10
0.080000
20
0.394000
0
VERTEX
8
0
10
0.077000
20
0.413000
0
VERTEX
8
0
10
0.076000
20
0.433000
0
SEQEND
8
0
0
POLYLINE
8
0
66
1
40
0.008000
41
0.008000
0
VERTEX
8
0
10
0.126000
20
0.533000
0
VERTEX
8
0
10
0.116000
20
0.531000
0
VERTEX
8
0
10
0.106000
20
0.525000
0
VERTEX
8
0
10
0.098000
20
0.516000
0
VERTEX
8
0
10
0.090000
20
0.504000
0
VERTEX
8
0
10
0.084000
20
0.489000
0
VERTEX
8
0
10
0.080000
20
0.472000
0
VERTEX
8
0
10
0.077000
20
0.453000
0
VERTEX
8
0
10
0.076000
20
0.433000
0
SEQEND
8
0
0
POLYLINE
8
0
66
1
40
0.008000
41
0.008000
0
VERTEX
8
0
10
0.126000
20
0.333000
0
VERTEX
8
0
10
0.136000
20
0.335000
0
VERTEX
8
0
10
0.146000
20
0.341000
0
VERTEX
8
0
10
0.154000
20
0.350000
0
VERTEX
8
0
10
0.162000
20
0.362000
0
VERTEX
8
0
10
0.168000
20
0.377000
0
VERTEX
8
0
10
0.172000
20
0.394000
0
VERTEX
8
0
10
0.175000
20
0.413000
0
VERTEX
8
0
10
0.176000
20
0.433000
0
SEQEND
8
0
0
POLYLINE
8
0
66
1
40
0.008000
41
0.008000
0
VERTEX
8
0
10
0.126000
20
0.533000
0
VERTEX
8
0
10
0.136000
20
0.531000
0
VERTEX
8
0
10
0.146000
20
0.525000
0
VERTEX
8
0
10
0.154000
20
0.516000
0
VERTEX
8
0
10
0.162000
20
0.504000
0
VERTEX
8
0
10
0.168000
20
0.489000
0
VERTEX
8
0
10
0.172000
20
0.472000
0
VERTEX
8
0
10
0.175000
20
0.453000
0
VERTEX
8
0
10
0.176000
20
0.433000
0
SEQEND
8
0
0
TEXT
8
12632256
10
0.066000
20
0.383000
40
0.048000
41
1.041667
50
90.000000
1
C8
0
POLYLINE
8
0
66
1
40
0.008000
41
0.008000
0
VERTEX
8
0
10
0.345000
20
0.329000
0
VERTEX
8
0
10
0.335000
20
0.331000
0
VERTEX
8
0
10
0.325000
20
0.337000
0
VERTEX
8
0
10
0.317000
20
0.346000
0
VERTEX
8
0
10
0.310000
20
0.358000
0
VERTEX
8
0
10
0.304000
20
0.373000
0
VERTEX
8
0
10
0.299000
20
0.390000
0
VERTEX
8
0
10
0.296000
20
0.409000
0
VERTEX
8
0
10
0.295000
20
0.429000
0
SEQEND
8
0
0
POLYLINE
8
0
66
1
40
0.008000
41
0.008000
0
VERTEX
8
0
10
0.345000
20
0.529000
0
VERTEX
8
0
10
0.335000
20
0.527000
0
VERTEX
8
0
10
0.325000
20
0.521000
0
VERTEX
8
0
10
0.317000
20
0.512000
0
VERTEX
8
0
10
0.310000
20
0.500000
0
VERTEX
8
0
10
0.304000
20
0.485000
0
VERTEX
8
0
10
0.299000
20
0.468000
0
VERTEX
8
0
10
0.296000
20
0.449000
0
VERTEX
8
0
10
0.295000
20
0.429000
0
SEQEND
8
0
0
POLYLINE
8
0
66
1
40
0.008000
41
0.008000
0
VERTEX
8
0
10
0.345000
20
0.329000
0
VERTEX
8
0
10
0.355000
20
0.331000
0
VERTEX
8
0
10
0.365000
20
0.337000
0
VERTEX
8
0
10
0.373000
20
0.346000
0
VERTEX
8
0
10
0.380000
20
0.358000
0
VERTEX
8
0
10
0.386000
20
0.373000
0
VERTEX
8
0
10
0.391000
20
0.390000
0
VERTEX
8
0
10
0.394000
20
0.409000
0
VERTEX
8
0
10
0.395000
20
0.429000
0
SEQEND
8
0
0
POLYLINE
8
0
66
1
40
0.008000
41
0.008000
0
VERTEX
8
0
10
0.345000
20
0.529000
0
VERTEX
8
0
10
0.355000
20
0.527000
0
VERTEX
8
0
10
0.365000
20
0.521000
0
VERTEX
8
0
10
0.373000
20
0.512000
0
VERTEX
8
0
10
0.380000
20
0.500000
0
VERTEX
8
0
10
0.386000
20
0.485000
0
VERTEX
8
0
10
0.391000
20
0.468000
0
VERTEX
8
0
10
0.394000
20
0.449000
0
VERTEX
8
0
10
0.395000
20
0.429000
0
SEQEND
8
0
0
TEXT
8
12632256
10
0.285000
20
0.379000
40
0.048000
41
1.041667
50
90.000000
1
C9
0
POLYLINE
8
0
66
1
40
0.008000
41
0.008000
0
VERTEX
8
0
10
0.468000
20
0.203000
0
VERTEX
8
0
10
0.471000
20
0.213000
0
VERTEX
8
0
10
0.479000
20
0.223000
0
VERTEX
8
0
10
0.493000
20
0.231000
0
VERTEX
8
0
10
0.511000
20
0.238000
0
VERTEX
8
0
10
0.533000
20
0.245000
0
VERTEX
8
0
10
0.559000
20
0.249000
0
VERTEX
8
0
10
0.587000
20
0.252000
0
VERTEX
8
0
10
0.618000
20
0.253000
0
SEQEND
8
0
0
POLYLINE
8
0
66
1
40
0.008000
41
0.008000
0
VERTEX
8
0
10
0.768000
20
0.203000
0
VERTEX
8
0
10
0.765000
20
0.213000
0
VERTEX
8
0
10
0.756000
20
0.223000
0
VERTEX
8
0
10
0.742000
20
0.231000
0
VERTEX
8
0
10
0.724000
20
0.238000
0
VERTEX
8
0
10
0.702000
20
0.245000
0
VERTEX
8
0
10
0.677000
20
0.249000
0
VERTEX
8
0
10
0.649000
20
0.252000
0
VERTEX
8
0
10
0.618000
20
0.253000
0
SEQEND
8
0
0
POLYLINE
8
0
66
1
40
0.008000
41
0.008000
0
VERTEX
8
0
10
0.768000
20
0.203000
0
VERTEX
8
0
10
0.765000
20
0.193000
0
VERTEX
8
0
10
0.756000
20
0.183000
0
VERTEX
8
0
10
0.742000
20
0.175000
0
VERTEX
8
0
10
0.724000
20
0.168000
0
VERTEX
8
0
10
0.702000
20
0.161000
0
VERTEX
8
0
10
0.677000
20
0.157000
0
VERTEX
8
0
10
0.649000
20
0.154000
0
VERTEX
8
0
10
0.618000
20
0.153000
0
SEQEND
8
0
0
POLYLINE
8
0
66
1
40
0.008000
41
0.008000
0
VERTEX
8
0
10
0.468000
20
0.203000
0
VERTEX
8
0
10
0.471000
20
0.193000
0
VERTEX
8
0
10
0.479000
20
0.183000
0
VERTEX
8
0
10
0.493000
20
0.175000
0
VERTEX
8
0
10
0.511000
20
0.168000
0
VERTEX
8
0
10
0.533000
20
0.161000
0
VERTEX
8
0
10
0.559000
20
0.157000
0
VERTEX
8
0
10
0.587000
20
0.154000
0
VERTEX
8
0
10
0.618000
20
0.153000
0
SEQEND
8
0
0
TEXT
8
12632256
10
0.568000
20
0.263000
40
0.048000
41
1.041667
1
C1
0
POLYLINE
8
0
66
1
40
0.008000
41
0.008000
0
VERTEX
8
0
10
0.517000
20
-0.252000
0
VERTEX
8
0
10
0.567000
20
-0.252000
0
SEQEND
8
0
0
POLYLINE
8
0
66
1
40
0.008000
41
0.008000
0
VERTEX
8
0
10
0.567000
20
-0.277000
0
VERTEX
8
0
10
0.767000
20
-0.277000
0
VERTEX
8
0
10
0.767000
20
-0.227000
0
VERTEX
8
0
10
0.567000
20
-0.227000
0
VERTEX
8
0
10
0.567000
20
-0.277000
0
SEQEND
8
0
0
POLYLINE
8
0
66
1
40
0.008000
41
0.008000
0
VERTEX
8
0
10
0.767000
20
-0.252000
0
VERTEX
8
0
10
0.817000
20
-0.252000
0
SEQEND
8
0
0
TEXT
8
12632256
10
0.617000
20
-0.217000
40
0.048000
41
1.041667
1
R6
0
POLYLINE
8
0
66
1
40
0.008000
41
0.008000
0
VERTEX
8
0
10
1.166000
20
-1.305000
0
VERTEX
8
0
10
1.166000
20
-0.905000
0
SEQEND
8
0
0
POLYLINE
8
0
66
1
40
0.008000
41
0.008000
0
VERTEX
8
0
10
0.766000
20
-1.305000
0
VERTEX
8
0
10
0.766000
20
-0.905000
0
SEQEND
8
0
0
POLYLINE
8
0
66
1
40
0.008000
41
0.008000
0
VERTEX
8
0
10
1.166000
20
-0.905000
0
VERTEX
8
0
10
0.766000
20
-0.905000
0
SEQEND
8
0
0
POLYLINE
8
0
66
1
40
0.008000
41
0.008000
0
VERTEX
8
0
10
1.166000
20
-1.305000
0
VERTEX
8
0
10
0.766000
20
-1.305000
0
SEQEND
8
0
0
TEXT
8
12632256
10
1.183000
20
-0.938000
40
0.048000
41
1.041667
1
J4
0
POLYLINE
8
0
66
1
40
0.008000
41
0.008000
0
VERTEX
8
0
10
-1.469000
20
1.258000
0
VERTEX
8
0
10
-1.469000
20
0.858000
0
SEQEND
8
0
0
POLYLINE
8
0
66
1
40
0.008000
41
0.008000
0
VERTEX
8
0
10
-0.669000
20
1.258000
0
VERTEX
8
0
10
-0.669000
20
0.858000
0
VERTEX
8
0
10
-1.469000
20
0.858000
0
SEQEND
8
0
0
POLYLINE
8
0
66
1
40
0.008000
41
0.008000
0
VERTEX
8
0
10
-1.469000
20
1.258000
0
VERTEX
8
0
10
-0.669000
20
1.258000
0
SEQEND
8
0
0
TEXT
8
12632256
10
-1.119000
20
1.268000
40
0.048000
41
1.041667
1
J3
0
POLYLINE
8
0
66
1
40
0.008000
41
0.008000
0
VERTEX
8
0
10
-1.012000
20
-0.174000
0
VERTEX
8
0
10
-0.962000
20
-0.174000
0
SEQEND
8
0
0
POLYLINE
8
0
66
1
40
0.008000
41
0.008000
0
VERTEX
8
0
10
-0.962000
20
-0.199000
0
VERTEX
8
0
10
-0.762000
20
-0.199000
0
VERTEX
8
0
10
-0.762000
20
-0.149000
0
VERTEX
8
0
10
-0.962000
20
-0.149000
0
VERTEX
8
0
10
-0.962000
20
-0.199000
0
SEQEND
8
0
0
POLYLINE
8
0
66
1
40
0.008000
41
0.008000
0
VERTEX
8
0
10
-0.762000
20
-0.174000
0
VERTEX
8
0
10
-0.712000
20
-0.174000
0
SEQEND
8
0
0
TEXT
8
12632256
10
-0.912000
20
-0.139000
40
0.048000
41
1.041667
1
R7
0
POLYLINE
8
0
66
1
40
0.008000
41
0.008000
0
VERTEX
8
0
10
-1.012000
20
-0.324000
0
VERTEX
8
0
10
-0.962000
20
-0.324000
0
SEQEND
8
0
0
POLYLINE
8
0
66
1
40
0.008000
41
0.008000
0
VERTEX
8
0
10
-0.962000
20
-0.349000
0
VERTEX
8
0
10
-0.762000
20
-0.349000
0
VERTEX
8
0
10
-0.762000
20
-0.299000
0
VERTEX
8
0
10
-0.962000
20
-0.299000
0
VERTEX
8
0
10
-0.962000
20
-0.349000
0
SEQEND
8
0
0
POLYLINE
8
0
66
1
40
0.008000
41
0.008000
0
VERTEX
8
0
10
-0.762000
20
-0.324000
0
VERTEX
8
0
10
-0.712000
20
-0.324000
0
SEQEND
8
0
0
TEXT
8
12632256
10
-0.937000
20
-0.289000
40
0.048000
41
1.041667
1
R29
0
POLYLINE
8
0
66
1
40
0.008000
41
0.008000
0
VERTEX
8
0
10
-0.713000
20
0.234000
0
VERTEX
8
0
10
-0.663000
20
0.234000
0
SEQEND
8
0
0
POLYLINE
8
0
66
1
40
0.008000
41
0.008000
0
VERTEX
8
0
10
-0.663000
20
0.209000
0
VERTEX
8
0
10
-0.463000
20
0.209000
0
VERTEX
8
0
10
-0.463000
20
0.259000
0
VERTEX
8
0
10
-0.663000
20
0.259000
0
VERTEX
8
0
10
-0.663000
20
0.209000
0
SEQEND
8
0
0
POLYLINE
8
0
66
1
40
0.008000
41
0.008000
0
VERTEX
8
0
10
-0.463000
20
0.234000
0
VERTEX
8
0
10
-0.413000
20
0.234000
0
SEQEND
8
0
0
TEXT
8
12632256
10
-0.613000
20
0.269000
40
0.048000
41
1.041667
1
R3
0
POLYLINE
8
0
66
1
40
0.008000
41
0.008000
0
VERTEX
8
0
10
-0.713000
20
0.364000
0
VERTEX
8
0
10
-0.663000
20
0.364000
0
SEQEND
8
0
0
POLYLINE
8
0
66
1
40
0.008000
41
0.008000
0
VERTEX
8
0
10
-0.663000
20
0.339000
0
VERTEX
8
0
10
-0.463000
20
0.339000
0
VERTEX
8
0
10
-0.463000
20
0.389000
0
VERTEX
8
0
10
-0.663000
20
0.389000
0
VERTEX
8
0
10
-0.663000
20
0.339000
0
SEQEND
8
0
0
POLYLINE
8
0
66
1
40
0.008000
41
0.008000
0
VERTEX
8
0
10
-0.463000
20
0.364000
0
VERTEX
8
0
10
-0.413000
20
0.364000
0
SEQEND
8
0
0
TEXT
8
12632256
10
-0.613000
20
0.399000
40
0.048000
41
1.041667
1
R4
0
POLYLINE
8
0
66
1
40
0.008000
41
0.008000
0
VERTEX
8
0
10
-1.515000
20
0.717000
0
VERTEX
8
0
10
-1.515000
20
0.767000
0
SEQEND
8
0
0
POLYLINE
8
0
66
1
40
0.008000
41
0.008000
0
VERTEX
8
0
10
-1.540000
20
0.767000
0
VERTEX
8
0
10
-1.490000
20
0.767000
0
VERTEX
8
0
10
-1.490000
20
0.967000
0
VERTEX
8
0
10
-1.540000
20
0.967000
0
VERTEX
8
0
10
-1.540000
20
0.767000
0
SEQEND
8
0
0
POLYLINE
8
0
66
1
40
0.008000
41
0.008000
0
VERTEX
8
0
10
-1.515000
20
0.967000
0
VERTEX
8
0
10
-1.515000
20
1.017000
0
SEQEND
8
0
0
TEXT
8
12632256
10
-1.491000
20
0.792000
40
0.048000
41
1.041667
50
90.000000
1
R13
0
POLYLINE
8
0
66
1
40
0.025000
41
0.025000
0
VERTEX
8
0
10
1.631000
20
0.261000
0
VERTEX
8
0
10
1.985000
20
0.261000
0
VERTEX
8
0
10
1.985000
20
1.040000
0
VERTEX
8
0
10
1.631000
20
1.040000
0
VERTEX
8
0
10
1.631000
20
0.261000
0
SEQEND
8
0
0
TEXT
8
12632256
10
1.791000
20
0.320000
40
0.072000
41
0.972222
50
90.000000
1
INCUBADORA
0
TEXT
8
12632256
10
1.933000
20
0.269000
40
0.072000
41
0.972222
50
90.000000
1
REFRIGERADA
0
TEXT
8
12632256
10
-1.555000
20
-0.409000
40
0.072000
41
1.111111
1
A
0
TEXT
8
12632256
10
-1.555000
20
-0.193000
40
0.072000
41
1.111111
1
B
0
TEXT
8
12632256
10
-1.547000
20
0.070000
40
0.072000
41
1.111111
1
B'
0
TEXT
8
12632256
10
-1.468000
20
-0.898000
40
0.072000
41
1.111111
1
VIN
0
TEXT
8
12632256
10
0.933000
20
-0.717000
40
0.064000
41
0.937500
1
SSR
0
TEXT
8
12632256
10
0.783000
20
-0.892000
40
0.056000
41
1.071429
1
GND
0
TEXT
8
12632256
10
1.035000
20
-0.898000
40
0.072000
41
1.111111
1
+
0
TEXT
8
12632256
10
-1.468000
20
0.774000
40
0.064000
41
0.781250
1
TERM
0
TEXT
8
12632256
10
-1.240000
20
0.770000
40
0.064000
41
0.781250
1
DOOR
0
TEXT
8
12632256
10
-0.996000
20
0.774000
40
0.064000
41
0.781250
1
GN
0
TEXT
8
12632256
10
-0.822000
20
0.774000
40
0.064000
41
0.781250
1
5V
0
TEXT
8
12632256
10
-2.015000
20
0.730000
40
0.064000
41
0.781250
50
-90.000000
1
-
0
TEXT
8
12632256
10
-1.712000
20
1.167000
40
0.064000
41
0.781250
50
-90.000000
1
IN
0
TEXT
8
12632256
10
1.087000
20
-0.486000
40
0.064000
41
0.781250
1
v1.0
0
TEXT
8
12632256
10
1.001000
20
-0.399000
40
0.064000
41
0.781250
1
JUDAPIES
0
POLYLINE
8
0
66
1
40
0.000000
41
0.000000
0
VERTEX
8
0
10
-1.668000
20
1.168000
0
VERTEX
8
0
10
-1.496000
20
1.168000
0
VERTEX
8
0
10
-1.496000
20
1.331000
0
VERTEX
8
0
10
-1.668000
20
1.331000
0
VERTEX
8
0
10
-1.668000
20
1.168000
0
SEQEND
8
0
0
TEXT
8
12632256
10
-0.523000
20
-0.029000
40
0.064000
41
0.781250
1
U D R L + + + +
0
TEXT
8
12632256
10
1.587000
20
-0.196000
40
0.064000
41
0.781250
50
90.000000
1
www.jpinglobal.com
0
TEXT
8
12632256
10
1.502000
20
-0.197000
40
0.064000
41
0.781250
50
90.000000
1
Bogota - Colombia
0
TEXT
8
12632256
10
1.078000
20
1.263000
40
0.064000
41
0.781250
1
DIELEC-IR0012
0
POLYLINE
8
0
66
1
40
0.008000
41
0.008000
0
VERTEX
8
0
10
1.049000
20
-0.218000
0
VERTEX
8
0
10
1.099000
20
-0.218000
0
SEQEND
8
0
0
POLYLINE
8
0
66
1
40
0.008000
41
0.008000
0
VERTEX
8
0
10
1.099000
20
-0.243000
0
VERTEX
8
0
10
1.299000
20
-0.243000
0
VERTEX
8
0
10
1.299000
20
-0.193000
0
VERTEX
8
0
10
1.099000
20
-0.193000
0
VERTEX
8
0
10
1.099000
20
-0.243000
0
SEQEND
8
0
0
POLYLINE
8
0
66
1
40
0.008000
41
0.008000
0
VERTEX
8
0
10
1.299000
20
-0.218000
0
VERTEX
8
0
10
1.349000
20
-0.218000
0
SEQEND
8
0
0
TEXT
8
12632256
10
1.149000
20
-0.183000
40
0.048000
41
1.041667
1
R2
0
POLYLINE
8
0
66
1
40
0.008000
41
0.008000
0
VERTEX
8
0
10
1.049000
20
-0.099000
0
VERTEX
8
0
10
1.099000
20
-0.099000
0
SEQEND
8
0
0
POLYLINE
8
0
66
1
40
0.008000
41
0.008000
0
VERTEX
8
0
10
1.099000
20
-0.124000
0
VERTEX
8
0
10
1.299000
20
-0.124000
0
VERTEX
8
0
10
1.299000
20
-0.074000
0
VERTEX
8
0
10
1.099000
20
-0.074000
0
VERTEX
8
0
10
1.099000
20
-0.124000
0
SEQEND
8
0
0
POLYLINE
8
0
66
1
40
0.008000
41
0.008000
0
VERTEX
8
0
10
1.299000
20
-0.099000
0
VERTEX
8
0
10
1.349000
20
-0.099000
0
SEQEND
8
0
0
TEXT
8
12632256
10
1.149000
20
-0.064000
40
0.048000
41
1.041667
1
R8
0
POLYLINE
8
0
66
1
40
0.008000
41
0.008000
0
VERTEX
8
0
10
1.747000
20
-0.128000
0
VERTEX
8
0
10
1.847000
20
-0.128000
0
VERTEX
8
0
10
1.847000
20
0.171000
0
VERTEX
8
0
10
1.747000
20
0.171000
0
VERTEX
8
0
10
1.747000
20
-0.128000
0
VERTEX
8
0
10
1.697000
20
-0.128000
0
VERTEX
8
0
10
1.697000
20
0.171000
0
VERTEX
8
0
10
1.747000
20
0.171000
0
SEQEND
8
0
0
POLYLINE
8
0
66
1
40
0.008000
41
0.008000
0
VERTEX
8
0
10
1.747000
20
-0.128000
0
VERTEX
8
0
10
1.697000
20
-0.078000
0
SEQEND
8
0
0
POLYLINE
8
0
66
1
40
0.008000
41
0.008000
0
VERTEX
8
0
10
1.747000
20
-0.078000
0
VERTEX
8
0
10
1.697000
20
-0.028000
0
SEQEND
8
0
0
POLYLINE
8
0
66
1
40
0.008000
41
0.008000
0
VERTEX
8
0
10
1.747000
20
-0.028000
0
VERTEX
8
0
10
1.697000
20
0.021000
0
SEQEND
8
0
0
POLYLINE
8
0
66
1
40
0.008000
41
0.008000
0
VERTEX
8
0
10
1.747000
20
0.021000
0
VERTEX
8
0
10
1.697000
20
0.071000
0
SEQEND
8
0
0
POLYLINE
8
0
66
1
40
0.008000
41
0.008000
0
VERTEX
8
0
10
1.747000
20
0.071000
0
VERTEX
8
0
10
1.697000
20
0.121000
0
SEQEND
8
0
0
POLYLINE
8
0
66
1
40
0.008000
41
0.008000
0
VERTEX
8
0
10
1.747000
20
0.121000
0
VERTEX
8
0
10
1.697000
20
0.171000
0
SEQEND
8
0
0
TEXT
8
12632256
10
1.687000
20
-0.028000
40
0.048000
41
1.041667
50
90.000000
1
Q2
0
POLYLINE
8
0
66
1
40
0.008000
41
0.008000
0
VERTEX
8
0
10
1.296000
20
-0.921000
0
VERTEX
8
0
10
1.296000
20
-1.321000
0
SEQEND
8
0
0
POLYLINE
8
0
66
1
40
0.008000
41
0.008000
0
VERTEX
8
0
10
1.696000
20
-0.921000
0
VERTEX
8
0
10
1.696000
20
-1.321000
0
SEQEND
8
0
0
POLYLINE
8
0
66
1
40
0.008000
41
0.008000
0
VERTEX
8
0
10
1.296000
20
-1.321000
0
VERTEX
8
0
10
1.696000
20
-1.321000
0
SEQEND
8
0
0
POLYLINE
8
0
66
1
40
0.008000
41
0.008000
0
VERTEX
8
0
10
1.296000
20
-0.921000
0
VERTEX
8
0
10
1.696000
20
-0.921000
0
SEQEND
8
0
0
TEXT
8
12632256
10
1.186000
20
-1.302000
40
0.048000
41
1.041667
1
J2
0
POLYLINE
8
0
66
1
40
0.008000
41
0.008000
0
VERTEX
8
0
10
1.577000
20
-0.787000
0
VERTEX
8
0
10
1.977000
20
-0.787000
0
SEQEND
8
0
0
POLYLINE
8
0
66
1
40
0.008000
41
0.008000
0
VERTEX
8
0
10
1.577000
20
-0.387000
0
VERTEX
8
0
10
1.977000
20
-0.387000
0
SEQEND
8
0
0
POLYLINE
8
0
66
1
40
0.008000
41
0.008000
0
VERTEX
8
0
10
1.977000
20
-0.787000
0
VERTEX
8
0
10
1.977000
20
-0.387000
0
SEQEND
8
0
0
POLYLINE
8
0
66
1
40
0.008000
41
0.008000
0
VERTEX
8
0
10
1.577000
20
-0.787000
0
VERTEX
8
0
10
1.577000
20
-0.387000
0
SEQEND
8
0
0
TEXT
8
12632256
10
1.926000
20
-0.929000
40
0.048000
41
1.041667
50
90.000000
1
J1
0
TEXT
8
12632256
10
0.885000
20
-0.804000
40
0.064000
41
0.781250
1
CALEF
0
TEXT
8
12632256
10
1.350000
20
-0.918000
40
0.064000
41
0.781250
1
+  GND
0
TEXT
8
12632256
10
1.314000
20
-0.855000
40
0.064000
41
0.781250
1
PELTIER
0
TEXT
8
12632256
10
1.401000
20
-0.655000
40
0.064000
41
0.781250
50
90.000000
1
VENT
0
TEXT
8
12632256
10
1.539000
20
-0.714000
40
0.064000
41
0.781250
50
90.000000
1
+  GND
0
ENDSEC
0
EOF

