  0
SECTION
  2
HEADER
  9
$ACADVER
  1
AC2.10
  0
ENDSEC
  0
SECTION
  2
TABLES
  0
TABLE
  2
LAYER
 70
     8
  0
LAYER
  2
0
 62
     7
 70
0
  6
CONTINUOUS
  0
LAYER
  2
1
 62
     1
 70
0
  6
CONTINUOUS
  0
LAYER
  2
2
 62
     2
 70
0
  6
CONTINUOUS
  0
LAYER
  2
3
 62
     3
 70
0
  6
CONTINUOUS
  0
LAYER
  2
4
 62
     4
 70
0
  6
CONTINUOUS
  0
LAYER
  2
5
 62
     5
 70
0
  6
CONTINUOUS
  0
LAYER
  2
6
 62
     6
 70
0
  6
CONTINUOUS
  0
LAYER
  2
7
 62
     7
 70
0
  6
CONTINUOUS
  0
ENDTAB
  0
TABLE
  2
STYLE
 70
     1
  0
STYLE
 70
     0
  2
STANDARD
  3
TXT
 40
0.00
 41
1.00
 42
1.00
 50
0.00
 71
     0
  0
ENDTAB
  0
ENDSEC
  0
SECTION
  2
BLOCKS
  0
BLOCK
  8
0
  2
EPAD
 70
0
 10
0.0
 20
0.0
  0
POLYLINE
  8
0
 66
1
 70
1
 40
0.5
 41
0.5
  0
VERTEX
  8
0
 10
-0.25
 20
0.0
 42
1.0
  0
VERTEX
  8
0
 10
0.25
 20
0.0
 42
1.0
  0
SEQEND
  8
0
  0
ENDBLK
  8
0
  0
BLOCK
  8
0
  2
RPAD
 70
0
 10
0.0
 20
0.0
  0
TRACE
  8
0
 10
-0.5
 20
-0.5
 11
-0.5
 21
0.5
 12
0.5
 22
-0.5
 13
0.5
 23
0.5
  0
ENDBLK
  8
0
  0
ENDSEC
0
SECTION
2
ENTITIES
0
INSERT
8
0
2
RPAD
10
-1.296000
20
0.445000
41
0.150000
42
0.150000
50
0.000000
0
CIRCLE
8
0
10
-1.296000
20
0.445000
40
0.030000
0
INSERT
8
0
2
RPAD
10
-1.081000
20
0.445000
41
0.150000
42
0.150000
50
0.000000
0
CIRCLE
8
0
10
-1.081000
20
0.445000
40
0.030000
0
INSERT
8
0
2
RPAD
10
-0.866000
20
0.445000
41
0.150000
42
0.150000
50
0.000000
0
CIRCLE
8
0
10
-0.866000
20
0.445000
40
0.030000
0
INSERT
8
0
2
RPAD
10
0.814000
20
0.442000
41
0.150000
42
0.150000
50
0.000000
0
CIRCLE
8
0
10
0.814000
20
0.442000
40
0.030000
0
INSERT
8
0
2
RPAD
10
1.029000
20
0.442000
41
0.150000
42
0.150000
50
0.000000
0
CIRCLE
8
0
10
1.029000
20
0.442000
40
0.030000
0
INSERT
8
0
2
RPAD
10
1.244000
20
0.442000
41
0.150000
42
0.150000
50
0.000000
0
CIRCLE
8
0
10
1.244000
20
0.442000
40
0.030000
0
INSERT
8
0
2
RPAD
10
-0.607000
20
0.453000
41
0.150000
42
0.150000
50
0.000000
0
CIRCLE
8
0
10
-0.607000
20
0.453000
40
0.030000
0
INSERT
8
0
2
RPAD
10
-0.392000
20
0.453000
41
0.150000
42
0.150000
50
0.000000
0
CIRCLE
8
0
10
-0.392000
20
0.453000
40
0.030000
0
INSERT
8
0
2
RPAD
10
-0.177000
20
0.453000
41
0.150000
42
0.150000
50
0.000000
0
CIRCLE
8
0
10
-0.177000
20
0.453000
40
0.030000
0
INSERT
8
0
2
RPAD
10
0.125000
20
0.442000
41
0.150000
42
0.150000
50
0.000000
0
CIRCLE
8
0
10
0.125000
20
0.442000
40
0.030000
0
INSERT
8
0
2
RPAD
10
0.340000
20
0.442000
41
0.150000
42
0.150000
50
0.000000
0
CIRCLE
8
0
10
0.340000
20
0.442000
40
0.030000
0
INSERT
8
0
2
RPAD
10
0.555000
20
0.442000
41
0.150000
42
0.150000
50
0.000000
0
CIRCLE
8
0
10
0.555000
20
0.442000
40
0.030000
0
INSERT
8
0
2
EPAD
10
-0.278000
20
0.130000
41
0.090000
42
0.090000
0
CIRCLE
8
0
10
-0.278000
20
0.130000
40
0.025000
0
INSERT
8
0
2
EPAD
10
-0.678000
20
0.130000
41
0.090000
42
0.090000
0
CIRCLE
8
0
10
-0.678000
20
0.130000
40
0.025000
0
INSERT
8
0
2
EPAD
10
-0.282000
20
-0.046000
41
0.090000
42
0.090000
0
CIRCLE
8
0
10
-0.282000
20
-0.046000
40
0.025000
0
INSERT
8
0
2
EPAD
10
-0.682000
20
-0.046000
41
0.090000
42
0.090000
0
CIRCLE
8
0
10
-0.682000
20
-0.046000
40
0.025000
0
INSERT
8
0
2
EPAD
10
-1.188000
20
-0.712000
41
0.120000
42
0.120000
0
CIRCLE
8
0
10
-1.188000
20
-0.712000
40
0.030000
0
INSERT
8
0
2
EPAD
10
-1.188000
20
-0.512000
41
0.120000
42
0.120000
0
CIRCLE
8
0
10
-1.188000
20
-0.512000
40
0.030000
0
INSERT
8
0
2
EPAD
10
-1.188000
20
-0.312000
41
0.120000
42
0.120000
0
CIRCLE
8
0
10
-1.188000
20
-0.312000
40
0.030000
0
INSERT
8
0
2
EPAD
10
-1.188000
20
-0.112000
41
0.120000
42
0.120000
0
CIRCLE
8
0
10
-1.188000
20
-0.112000
40
0.030000
0
INSERT
8
0
2
EPAD
10
-1.188000
20
0.087000
41
0.120000
42
0.120000
0
CIRCLE
8
0
10
-1.188000
20
0.087000
40
0.030000
0
INSERT
8
0
2
EPAD
10
-1.305000
20
-0.966000
41
0.250000
42
0.250000
0
CIRCLE
8
0
10
-1.305000
20
-0.966000
40
0.030000
0
INSERT
8
0
2
EPAD
10
1.273000
20
-0.946000
41
0.250000
42
0.250000
0
CIRCLE
8
0
10
1.273000
20
-0.946000
40
0.030000
0
INSERT
8
0
2
EPAD
10
0.961000
20
0.116000
41
0.090000
42
0.090000
0
CIRCLE
8
0
10
0.961000
20
0.116000
40
0.025000
0
INSERT
8
0
2
EPAD
10
0.561000
20
0.116000
41
0.090000
42
0.090000
0
CIRCLE
8
0
10
0.561000
20
0.116000
40
0.025000
0
INSERT
8
0
2
EPAD
10
0.961000
20
-0.061000
41
0.090000
42
0.090000
0
CIRCLE
8
0
10
0.961000
20
-0.061000
40
0.025000
0
INSERT
8
0
2
EPAD
10
0.561000
20
-0.061000
41
0.090000
42
0.090000
0
CIRCLE
8
0
10
0.561000
20
-0.061000
40
0.025000
0
INSERT
8
0
2
EPAD
10
-0.116000
20
0.116000
41
0.070000
42
0.070000
0
CIRCLE
8
0
10
-0.116000
20
0.116000
40
0.025000
0
INSERT
8
0
2
EPAD
10
0.283000
20
0.116000
41
0.070000
42
0.070000
0
CIRCLE
8
0
10
0.283000
20
0.116000
40
0.025000
0
INSERT
8
0
2
EPAD
10
-0.305000
20
-0.652000
41
0.060000
42
0.060000
0
CIRCLE
8
0
10
-0.305000
20
-0.652000
40
0.025000
0
INSERT
8
0
2
EPAD
10
-0.305000
20
-0.572000
41
0.060000
42
0.060000
0
CIRCLE
8
0
10
-0.305000
20
-0.572000
40
0.025000
0
INSERT
8
0
2
EPAD
10
-0.305000
20
-0.492000
41
0.060000
42
0.060000
0
CIRCLE
8
0
10
-0.305000
20
-0.492000
40
0.025000
0
INSERT
8
0
2
EPAD
10
0.005000
20
-0.644000
41
0.060000
42
0.060000
0
CIRCLE
8
0
10
0.005000
20
-0.644000
40
0.025000
0
INSERT
8
0
2
EPAD
10
0.005000
20
-0.564000
41
0.060000
42
0.060000
0
CIRCLE
8
0
10
0.005000
20
-0.564000
40
0.025000
0
INSERT
8
0
2
EPAD
10
0.005000
20
-0.484000
41
0.060000
42
0.060000
0
CIRCLE
8
0
10
0.005000
20
-0.484000
40
0.025000
0
INSERT
8
0
2
EPAD
10
-0.879000
20
-0.466000
41
0.070000
42
0.070000
0
CIRCLE
8
0
10
-0.879000
20
-0.466000
40
0.025000
0
INSERT
8
0
2
EPAD
10
-0.479000
20
-0.466000
41
0.070000
42
0.070000
0
CIRCLE
8
0
10
-0.479000
20
-0.466000
40
0.025000
0
INSERT
8
0
2
EPAD
10
-0.483000
20
-0.273000
41
0.070000
42
0.070000
0
CIRCLE
8
0
10
-0.483000
20
-0.273000
40
0.025000
0
INSERT
8
0
2
EPAD
10
-0.883000
20
-0.273000
41
0.070000
42
0.070000
0
CIRCLE
8
0
10
-0.883000
20
-0.273000
40
0.025000
0
INSERT
8
0
2
EPAD
10
0.985000
20
-0.513000
41
0.120000
42
0.120000
0
CIRCLE
8
0
10
0.985000
20
-0.513000
40
0.030000
0
INSERT
8
0
2
EPAD
10
0.785000
20
-0.513000
41
0.120000
42
0.120000
0
CIRCLE
8
0
10
0.785000
20
-0.513000
40
0.030000
0
INSERT
8
0
2
EPAD
10
0.379000
20
-0.521000
41
0.070000
42
0.070000
0
CIRCLE
8
0
10
0.379000
20
-0.521000
40
0.025000
0
INSERT
8
0
2
EPAD
10
0.379000
20
-0.921000
41
0.070000
42
0.070000
0
CIRCLE
8
0
10
0.379000
20
-0.921000
40
0.025000
0
INSERT
8
0
2
EPAD
10
-0.200000
20
0.659000
41
0.070000
42
0.070000
0
CIRCLE
8
0
10
-0.200000
20
0.659000
40
0.025000
0
INSERT
8
0
2
EPAD
10
-0.600000
20
0.659000
41
0.070000
42
0.070000
0
CIRCLE
8
0
10
-0.600000
20
0.659000
40
0.025000
0
INSERT
8
0
2
EPAD
10
-0.612000
20
0.781000
41
0.070000
42
0.070000
0
CIRCLE
8
0
10
-0.612000
20
0.781000
40
0.025000
0
INSERT
8
0
2
EPAD
10
-0.212000
20
0.781000
41
0.070000
42
0.070000
0
CIRCLE
8
0
10
-0.212000
20
0.781000
40
0.025000
0
INSERT
8
0
2
EPAD
10
0.415000
20
0.655000
41
0.070000
42
0.070000
0
CIRCLE
8
0
10
0.415000
20
0.655000
40
0.025000
0
INSERT
8
0
2
EPAD
10
0.815000
20
0.655000
41
0.070000
42
0.070000
0
CIRCLE
8
0
10
0.815000
20
0.655000
40
0.025000
0
INSERT
8
0
2
EPAD
10
0.807000
20
0.773000
41
0.070000
42
0.070000
0
CIRCLE
8
0
10
0.807000
20
0.773000
40
0.025000
0
INSERT
8
0
2
EPAD
10
0.407000
20
0.773000
41
0.070000
42
0.070000
0
CIRCLE
8
0
10
0.407000
20
0.773000
40
0.025000
0
INSERT
8
0
2
EPAD
10
-0.108000
20
-0.061000
41
0.070000
42
0.070000
0
CIRCLE
8
0
10
-0.108000
20
-0.061000
40
0.025000
0
INSERT
8
0
2
EPAD
10
0.291000
20
-0.061000
41
0.070000
42
0.070000
0
CIRCLE
8
0
10
0.291000
20
-0.061000
40
0.025000
0
INSERT
8
0
2
EPAD
10
1.187000
20
-0.256000
41
0.090000
42
0.090000
0
CIRCLE
8
0
10
1.187000
20
-0.256000
40
0.025000
0
INSERT
8
0
2
EPAD
10
1.187000
20
0.143000
41
0.090000
42
0.090000
0
CIRCLE
8
0
10
1.187000
20
0.143000
40
0.025000
0
INSERT
8
0
2
EPAD
10
-0.714000
20
-0.820000
41
0.100000
42
0.100000
0
CIRCLE
8
0
10
-0.714000
20
-0.820000
40
0.025000
0
INSERT
8
0
2
EPAD
10
-0.514000
20
-0.820000
41
0.100000
42
0.100000
0
CIRCLE
8
0
10
-0.514000
20
-0.820000
40
0.025000
0
INSERT
8
0
2
EPAD
10
0.210000
20
0.978000
41
0.080000
42
0.080000
0
CIRCLE
8
0
10
0.210000
20
0.978000
40
0.025000
0
INSERT
8
0
2
EPAD
10
0.210000
20
0.778000
41
0.080000
42
0.080000
0
CIRCLE
8
0
10
0.210000
20
0.778000
40
0.025000
0
INSERT
8
0
2
EPAD
10
-0.025000
20
0.273000
41
0.080000
42
0.080000
0
CIRCLE
8
0
10
-0.025000
20
0.273000
40
0.025000
0
INSERT
8
0
2
EPAD
10
0.274000
20
0.273000
41
0.080000
42
0.080000
0
CIRCLE
8
0
10
0.274000
20
0.273000
40
0.025000
0
INSERT
8
0
2
EPAD
10
1.100000
20
0.246000
41
0.080000
42
0.080000
0
CIRCLE
8
0
10
1.100000
20
0.246000
40
0.025000
0
INSERT
8
0
2
EPAD
10
1.400000
20
0.246000
41
0.080000
42
0.080000
0
CIRCLE
8
0
10
1.400000
20
0.246000
40
0.025000
0
INSERT
8
0
2
EPAD
10
-1.305000
20
0.958000
41
0.250000
42
0.250000
0
CIRCLE
8
0
10
-1.305000
20
0.958000
40
0.030000
0
INSERT
8
0
2
EPAD
10
1.273000
20
0.946000
41
0.250000
42
0.250000
0
CIRCLE
8
0
10
1.273000
20
0.946000
40
0.030000
0
POLYLINE
8
0
66
1
40
0.008000
41
0.008000
0
VERTEX
8
0
10
-1.462000
20
-1.112000
0
VERTEX
8
0
10
1.462000
20
-1.112000
0
VERTEX
8
0
10
1.462000
20
1.112000
0
VERTEX
8
0
10
-1.462000
20
1.112000
0
VERTEX
8
0
10
-1.462000
20
-1.112000
0
SEQEND
8
0
0
POLYLINE
8
0
66
1
40
0.008000
41
0.008000
0
VERTEX
8
0
10
-1.380000
20
0.544000
0
VERTEX
8
0
10
-0.780000
20
0.544000
0
SEQEND
8
0
0
POLYLINE
8
0
66
1
40
0.008000
41
0.008000
0
VERTEX
8
0
10
-0.780000
20
0.344000
0
VERTEX
8
0
10
-1.380000
20
0.344000
0
SEQEND
8
0
0
POLYLINE
8
0
66
1
40
0.008000
41
0.008000
0
VERTEX
8
0
10
-0.780000
20
0.344000
0
VERTEX
8
0
10
-0.770000
20
0.444000
0
VERTEX
8
0
10
-0.780000
20
0.544000
0
SEQEND
8
0
0
POLYLINE
8
0
66
1
40
0.008000
41
0.008000
0
VERTEX
8
0
10
-1.380000
20
0.344000
0
VERTEX
8
0
10
-1.390000
20
0.444000
0
VERTEX
8
0
10
-1.380000
20
0.544000
0
SEQEND
8
0
0
POLYLINE
8
0
66
1
40
0.008000
41
0.008000
0
VERTEX
8
0
10
-1.380000
20
0.529000
0
VERTEX
8
0
10
-0.780000
20
0.529000
0
SEQEND
8
0
0
POLYLINE
8
0
66
1
40
0.008000
41
0.008000
0
VERTEX
8
0
10
-1.335000
20
0.529000
0
VERTEX
8
0
10
-1.320000
20
0.544000
0
SEQEND
8
0
0
POLYLINE
8
0
66
1
40
0.008000
41
0.008000
0
VERTEX
8
0
10
-1.285000
20
0.529000
0
VERTEX
8
0
10
-1.270000
20
0.544000
0
SEQEND
8
0
0
POLYLINE
8
0
66
1
40
0.008000
41
0.008000
0
VERTEX
8
0
10
-1.285000
20
0.529000
0
VERTEX
8
0
10
-1.270000
20
0.544000
0
SEQEND
8
0
0
POLYLINE
8
0
66
1
40
0.008000
41
0.008000
0
VERTEX
8
0
10
-1.235000
20
0.529000
0
VERTEX
8
0
10
-1.220000
20
0.544000
0
SEQEND
8
0
0
POLYLINE
8
0
66
1
40
0.008000
41
0.008000
0
VERTEX
8
0
10
-1.235000
20
0.529000
0
VERTEX
8
0
10
-1.220000
20
0.544000
0
SEQEND
8
0
0
POLYLINE
8
0
66
1
40
0.008000
41
0.008000
0
VERTEX
8
0
10
-1.185000
20
0.529000
0
VERTEX
8
0
10
-1.170000
20
0.544000
0
SEQEND
8
0
0
POLYLINE
8
0
66
1
40
0.008000
41
0.008000
0
VERTEX
8
0
10
-1.185000
20
0.529000
0
VERTEX
8
0
10
-1.170000
20
0.544000
0
SEQEND
8
0
0
POLYLINE
8
0
66
1
40
0.008000
41
0.008000
0
VERTEX
8
0
10
-1.135000
20
0.529000
0
VERTEX
8
0
10
-1.120000
20
0.544000
0
SEQEND
8
0
0
POLYLINE
8
0
66
1
40
0.008000
41
0.008000
0
VERTEX
8
0
10
-1.135000
20
0.529000
0
VERTEX
8
0
10
-1.120000
20
0.544000
0
SEQEND
8
0
0
POLYLINE
8
0
66
1
40
0.008000
41
0.008000
0
VERTEX
8
0
10
-1.085000
20
0.529000
0
VERTEX
8
0
10
-1.070000
20
0.544000
0
SEQEND
8
0
0
POLYLINE
8
0
66
1
40
0.008000
41
0.008000
0
VERTEX
8
0
10
-1.085000
20
0.529000
0
VERTEX
8
0
10
-1.070000
20
0.544000
0
SEQEND
8
0
0
POLYLINE
8
0
66
1
40
0.008000
41
0.008000
0
VERTEX
8
0
10
-1.035000
20
0.529000
0
VERTEX
8
0
10
-1.020000
20
0.544000
0
SEQEND
8
0
0
POLYLINE
8
0
66
1
40
0.008000
41
0.008000
0
VERTEX
8
0
10
-1.035000
20
0.529000
0
VERTEX
8
0
10
-1.020000
20
0.544000
0
SEQEND
8
0
0
POLYLINE
8
0
66
1
40
0.008000
41
0.008000
0
VERTEX
8
0
10
-0.985000
20
0.529000
0
VERTEX
8
0
10
-0.970000
20
0.544000
0
SEQEND
8
0
0
POLYLINE
8
0
66
1
40
0.008000
41
0.008000
0
VERTEX
8
0
10
-0.985000
20
0.529000
0
VERTEX
8
0
10
-0.970000
20
0.544000
0
SEQEND
8
0
0
POLYLINE
8
0
66
1
40
0.008000
41
0.008000
0
VERTEX
8
0
10
-0.935000
20
0.529000
0
VERTEX
8
0
10
-0.920000
20
0.544000
0
SEQEND
8
0
0
POLYLINE
8
0
66
1
40
0.008000
41
0.008000
0
VERTEX
8
0
10
-0.935000
20
0.529000
0
VERTEX
8
0
10
-0.920000
20
0.544000
0
SEQEND
8
0
0
POLYLINE
8
0
66
1
40
0.008000
41
0.008000
0
VERTEX
8
0
10
-0.885000
20
0.529000
0
VERTEX
8
0
10
-0.870000
20
0.544000
0
SEQEND
8
0
0
POLYLINE
8
0
66
1
40
0.008000
41
0.008000
0
VERTEX
8
0
10
-0.885000
20
0.529000
0
VERTEX
8
0
10
-0.870000
20
0.544000
0
SEQEND
8
0
0
POLYLINE
8
0
66
1
40
0.008000
41
0.008000
0
VERTEX
8
0
10
-0.835000
20
0.529000
0
VERTEX
8
0
10
-0.820000
20
0.544000
0
SEQEND
8
0
0
TEXT
8
12632256
10
-1.130000
20
0.554000
40
0.048000
41
1.041667
1
Q1
0
POLYLINE
8
0
66
1
40
0.008000
41
0.008000
0
VERTEX
8
0
10
0.730000
20
0.542000
0
VERTEX
8
0
10
1.330000
20
0.542000
0
SEQEND
8
0
0
POLYLINE
8
0
66
1
40
0.008000
41
0.008000
0
VERTEX
8
0
10
1.330000
20
0.342000
0
VERTEX
8
0
10
0.730000
20
0.342000
0
SEQEND
8
0
0
POLYLINE
8
0
66
1
40
0.008000
41
0.008000
0
VERTEX
8
0
10
1.330000
20
0.342000
0
VERTEX
8
0
10
1.340000
20
0.442000
0
VERTEX
8
0
10
1.330000
20
0.542000
0
SEQEND
8
0
0
POLYLINE
8
0
66
1
40
0.008000
41
0.008000
0
VERTEX
8
0
10
0.730000
20
0.342000
0
VERTEX
8
0
10
0.720000
20
0.442000
0
VERTEX
8
0
10
0.730000
20
0.542000
0
SEQEND
8
0
0
POLYLINE
8
0
66
1
40
0.008000
41
0.008000
0
VERTEX
8
0
10
0.730000
20
0.527000
0
VERTEX
8
0
10
1.330000
20
0.527000
0
SEQEND
8
0
0
POLYLINE
8
0
66
1
40
0.008000
41
0.008000
0
VERTEX
8
0
10
0.775000
20
0.527000
0
VERTEX
8
0
10
0.790000
20
0.542000
0
SEQEND
8
0
0
POLYLINE
8
0
66
1
40
0.008000
41
0.008000
0
VERTEX
8
0
10
0.825000
20
0.527000
0
VERTEX
8
0
10
0.840000
20
0.542000
0
SEQEND
8
0
0
POLYLINE
8
0
66
1
40
0.008000
41
0.008000
0
VERTEX
8
0
10
0.825000
20
0.527000
0
VERTEX
8
0
10
0.840000
20
0.542000
0
SEQEND
8
0
0
POLYLINE
8
0
66
1
40
0.008000
41
0.008000
0
VERTEX
8
0
10
0.875000
20
0.527000
0
VERTEX
8
0
10
0.890000
20
0.542000
0
SEQEND
8
0
0
POLYLINE
8
0
66
1
40
0.008000
41
0.008000
0
VERTEX
8
0
10
0.875000
20
0.527000
0
VERTEX
8
0
10
0.890000
20
0.542000
0
SEQEND
8
0
0
POLYLINE
8
0
66
1
40
0.008000
41
0.008000
0
VERTEX
8
0
10
0.925000
20
0.527000
0
VERTEX
8
0
10
0.940000
20
0.542000
0
SEQEND
8
0
0
POLYLINE
8
0
66
1
40
0.008000
41
0.008000
0
VERTEX
8
0
10
0.925000
20
0.527000
0
VERTEX
8
0
10
0.940000
20
0.542000
0
SEQEND
8
0
0
POLYLINE
8
0
66
1
40
0.008000
41
0.008000
0
VERTEX
8
0
10
0.975000
20
0.527000
0
VERTEX
8
0
10
0.990000
20
0.542000
0
SEQEND
8
0
0
POLYLINE
8
0
66
1
40
0.008000
41
0.008000
0
VERTEX
8
0
10
0.975000
20
0.527000
0
VERTEX
8
0
10
0.990000
20
0.542000
0
SEQEND
8
0
0
POLYLINE
8
0
66
1
40
0.008000
41
0.008000
0
VERTEX
8
0
10
1.025000
20
0.527000
0
VERTEX
8
0
10
1.040000
20
0.542000
0
SEQEND
8
0
0
POLYLINE
8
0
66
1
40
0.008000
41
0.008000
0
VERTEX
8
0
10
1.025000
20
0.527000
0
VERTEX
8
0
10
1.040000
20
0.542000
0
SEQEND
8
0
0
POLYLINE
8
0
66
1
40
0.008000
41
0.008000
0
VERTEX
8
0
10
1.075000
20
0.527000
0
VERTEX
8
0
10
1.090000
20
0.542000
0
SEQEND
8
0
0
POLYLINE
8
0
66
1
40
0.008000
41
0.008000
0
VERTEX
8
0
10
1.075000
20
0.527000
0
VERTEX
8
0
10
1.090000
20
0.542000
0
SEQEND
8
0
0
POLYLINE
8
0
66
1
40
0.008000
41
0.008000
0
VERTEX
8
0
10
1.125000
20
0.527000
0
VERTEX
8
0
10
1.140000
20
0.542000
0
SEQEND
8
0
0
POLYLINE
8
0
66
1
40
0.008000
41
0.008000
0
VERTEX
8
0
10
1.125000
20
0.527000
0
VERTEX
8
0
10
1.140000
20
0.542000
0
SEQEND
8
0
0
POLYLINE
8
0
66
1
40
0.008000
41
0.008000
0
VERTEX
8
0
10
1.175000
20
0.527000
0
VERTEX
8
0
10
1.190000
20
0.542000
0
SEQEND
8
0
0
POLYLINE
8
0
66
1
40
0.008000
41
0.008000
0
VERTEX
8
0
10
1.175000
20
0.527000
0
VERTEX
8
0
10
1.190000
20
0.542000
0
SEQEND
8
0
0
POLYLINE
8
0
66
1
40
0.008000
41
0.008000
0
VERTEX
8
0
10
1.225000
20
0.527000
0
VERTEX
8
0
10
1.240000
20
0.542000
0
SEQEND
8
0
0
POLYLINE
8
0
66
1
40
0.008000
41
0.008000
0
VERTEX
8
0
10
1.225000
20
0.527000
0
VERTEX
8
0
10
1.240000
20
0.542000
0
SEQEND
8
0
0
POLYLINE
8
0
66
1
40
0.008000
41
0.008000
0
VERTEX
8
0
10
1.275000
20
0.527000
0
VERTEX
8
0
10
1.290000
20
0.542000
0
SEQEND
8
0
0
TEXT
8
12632256
10
0.980000
20
0.591000
40
0.048000
41
1.041667
1
Q3
0
POLYLINE
8
0
66
1
40
0.008000
41
0.008000
0
VERTEX
8
0
10
-0.691000
20
0.552000
0
VERTEX
8
0
10
-0.091000
20
0.552000
0
SEQEND
8
0
0
POLYLINE
8
0
66
1
40
0.008000
41
0.008000
0
VERTEX
8
0
10
-0.091000
20
0.352000
0
VERTEX
8
0
10
-0.691000
20
0.352000
0
SEQEND
8
0
0
POLYLINE
8
0
66
1
40
0.008000
41
0.008000
0
VERTEX
8
0
10
-0.091000
20
0.352000
0
VERTEX
8
0
10
-0.081000
20
0.452000
0
VERTEX
8
0
10
-0.091000
20
0.552000
0
SEQEND
8
0
0
POLYLINE
8
0
66
1
40
0.008000
41
0.008000
0
VERTEX
8
0
10
-0.691000
20
0.352000
0
VERTEX
8
0
10
-0.701000
20
0.452000
0
VERTEX
8
0
10
-0.691000
20
0.552000
0
SEQEND
8
0
0
POLYLINE
8
0
66
1
40
0.008000
41
0.008000
0
VERTEX
8
0
10
-0.691000
20
0.537000
0
VERTEX
8
0
10
-0.091000
20
0.537000
0
SEQEND
8
0
0
POLYLINE
8
0
66
1
40
0.008000
41
0.008000
0
VERTEX
8
0
10
-0.646000
20
0.537000
0
VERTEX
8
0
10
-0.631000
20
0.552000
0
SEQEND
8
0
0
POLYLINE
8
0
66
1
40
0.008000
41
0.008000
0
VERTEX
8
0
10
-0.596000
20
0.537000
0
VERTEX
8
0
10
-0.581000
20
0.552000
0
SEQEND
8
0
0
POLYLINE
8
0
66
1
40
0.008000
41
0.008000
0
VERTEX
8
0
10
-0.596000
20
0.537000
0
VERTEX
8
0
10
-0.581000
20
0.552000
0
SEQEND
8
0
0
POLYLINE
8
0
66
1
40
0.008000
41
0.008000
0
VERTEX
8
0
10
-0.546000
20
0.537000
0
VERTEX
8
0
10
-0.531000
20
0.552000
0
SEQEND
8
0
0
POLYLINE
8
0
66
1
40
0.008000
41
0.008000
0
VERTEX
8
0
10
-0.546000
20
0.537000
0
VERTEX
8
0
10
-0.531000
20
0.552000
0
SEQEND
8
0
0
POLYLINE
8
0
66
1
40
0.008000
41
0.008000
0
VERTEX
8
0
10
-0.496000
20
0.537000
0
VERTEX
8
0
10
-0.481000
20
0.552000
0
SEQEND
8
0
0
POLYLINE
8
0
66
1
40
0.008000
41
0.008000
0
VERTEX
8
0
10
-0.496000
20
0.537000
0
VERTEX
8
0
10
-0.481000
20
0.552000
0
SEQEND
8
0
0
POLYLINE
8
0
66
1
40
0.008000
41
0.008000
0
VERTEX
8
0
10
-0.446000
20
0.537000
0
VERTEX
8
0
10
-0.431000
20
0.552000
0
SEQEND
8
0
0
POLYLINE
8
0
66
1
40
0.008000
41
0.008000
0
VERTEX
8
0
10
-0.446000
20
0.537000
0
VERTEX
8
0
10
-0.431000
20
0.552000
0
SEQEND
8
0
0
POLYLINE
8
0
66
1
40
0.008000
41
0.008000
0
VERTEX
8
0
10
-0.396000
20
0.537000
0
VERTEX
8
0
10
-0.381000
20
0.552000
0
SEQEND
8
0
0
POLYLINE
8
0
66
1
40
0.008000
41
0.008000
0
VERTEX
8
0
10
-0.396000
20
0.537000
0
VERTEX
8
0
10
-0.381000
20
0.552000
0
SEQEND
8
0
0
POLYLINE
8
0
66
1
40
0.008000
41
0.008000
0
VERTEX
8
0
10
-0.346000
20
0.537000
0
VERTEX
8
0
10
-0.331000
20
0.552000
0
SEQEND
8
0
0
POLYLINE
8
0
66
1
40
0.008000
41
0.008000
0
VERTEX
8
0
10
-0.346000
20
0.537000
0
VERTEX
8
0
10
-0.331000
20
0.552000
0
SEQEND
8
0
0
POLYLINE
8
0
66
1
40
0.008000
41
0.008000
0
VERTEX
8
0
10
-0.296000
20
0.537000
0
VERTEX
8
0
10
-0.281000
20
0.552000
0
SEQEND
8
0
0
POLYLINE
8
0
66
1
40
0.008000
41
0.008000
0
VERTEX
8
0
10
-0.296000
20
0.537000
0
VERTEX
8
0
10
-0.281000
20
0.552000
0
SEQEND
8
0
0
POLYLINE
8
0
66
1
40
0.008000
41
0.008000
0
VERTEX
8
0
10
-0.246000
20
0.537000
0
VERTEX
8
0
10
-0.231000
20
0.552000
0
SEQEND
8
0
0
POLYLINE
8
0
66
1
40
0.008000
41
0.008000
0
VERTEX
8
0
10
-0.246000
20
0.537000
0
VERTEX
8
0
10
-0.231000
20
0.552000
0
SEQEND
8
0
0
POLYLINE
8
0
66
1
40
0.008000
41
0.008000
0
VERTEX
8
0
10
-0.196000
20
0.537000
0
VERTEX
8
0
10
-0.181000
20
0.552000
0
SEQEND
8
0
0
POLYLINE
8
0
66
1
40
0.008000
41
0.008000
0
VERTEX
8
0
10
-0.196000
20
0.537000
0
VERTEX
8
0
10
-0.181000
20
0.552000
0
SEQEND
8
0
0
POLYLINE
8
0
66
1
40
0.008000
41
0.008000
0
VERTEX
8
0
10
-0.146000
20
0.537000
0
VERTEX
8
0
10
-0.131000
20
0.552000
0
SEQEND
8
0
0
TEXT
8
12632256
10
-0.441000
20
0.562000
40
0.048000
41
1.041667
1
Q4
0
POLYLINE
8
0
66
1
40
0.008000
41
0.008000
0
VERTEX
8
0
10
0.041000
20
0.542000
0
VERTEX
8
0
10
0.641000
20
0.542000
0
SEQEND
8
0
0
POLYLINE
8
0
66
1
40
0.008000
41
0.008000
0
VERTEX
8
0
10
0.641000
20
0.342000
0
VERTEX
8
0
10
0.041000
20
0.342000
0
SEQEND
8
0
0
POLYLINE
8
0
66
1
40
0.008000
41
0.008000
0
VERTEX
8
0
10
0.641000
20
0.342000
0
VERTEX
8
0
10
0.651000
20
0.442000
0
VERTEX
8
0
10
0.641000
20
0.542000
0
SEQEND
8
0
0
POLYLINE
8
0
66
1
40
0.008000
41
0.008000
0
VERTEX
8
0
10
0.041000
20
0.342000
0
VERTEX
8
0
10
0.031000
20
0.442000
0
VERTEX
8
0
10
0.041000
20
0.542000
0
SEQEND
8
0
0
POLYLINE
8
0
66
1
40
0.008000
41
0.008000
0
VERTEX
8
0
10
0.041000
20
0.527000
0
VERTEX
8
0
10
0.641000
20
0.527000
0
SEQEND
8
0
0
POLYLINE
8
0
66
1
40
0.008000
41
0.008000
0
VERTEX
8
0
10
0.086000
20
0.527000
0
VERTEX
8
0
10
0.101000
20
0.542000
0
SEQEND
8
0
0
POLYLINE
8
0
66
1
40
0.008000
41
0.008000
0
VERTEX
8
0
10
0.136000
20
0.527000
0
VERTEX
8
0
10
0.151000
20
0.542000
0
SEQEND
8
0
0
POLYLINE
8
0
66
1
40
0.008000
41
0.008000
0
VERTEX
8
0
10
0.136000
20
0.527000
0
VERTEX
8
0
10
0.151000
20
0.542000
0
SEQEND
8
0
0
POLYLINE
8
0
66
1
40
0.008000
41
0.008000
0
VERTEX
8
0
10
0.186000
20
0.527000
0
VERTEX
8
0
10
0.201000
20
0.542000
0
SEQEND
8
0
0
POLYLINE
8
0
66
1
40
0.008000
41
0.008000
0
VERTEX
8
0
10
0.186000
20
0.527000
0
VERTEX
8
0
10
0.201000
20
0.542000
0
SEQEND
8
0
0
POLYLINE
8
0
66
1
40
0.008000
41
0.008000
0
VERTEX
8
0
10
0.236000
20
0.527000
0
VERTEX
8
0
10
0.251000
20
0.542000
0
SEQEND
8
0
0
POLYLINE
8
0
66
1
40
0.008000
41
0.008000
0
VERTEX
8
0
10
0.236000
20
0.527000
0
VERTEX
8
0
10
0.251000
20
0.542000
0
SEQEND
8
0
0
POLYLINE
8
0
66
1
40
0.008000
41
0.008000
0
VERTEX
8
0
10
0.286000
20
0.527000
0
VERTEX
8
0
10
0.301000
20
0.542000
0
SEQEND
8
0
0
POLYLINE
8
0
66
1
40
0.008000
41
0.008000
0
VERTEX
8
0
10
0.286000
20
0.527000
0
VERTEX
8
0
10
0.301000
20
0.542000
0
SEQEND
8
0
0
POLYLINE
8
0
66
1
40
0.008000
41
0.008000
0
VERTEX
8
0
10
0.336000
20
0.527000
0
VERTEX
8
0
10
0.351000
20
0.542000
0
SEQEND
8
0
0
POLYLINE
8
0
66
1
40
0.008000
41
0.008000
0
VERTEX
8
0
10
0.336000
20
0.527000
0
VERTEX
8
0
10
0.351000
20
0.542000
0
SEQEND
8
0
0
POLYLINE
8
0
66
1
40
0.008000
41
0.008000
0
VERTEX
8
0
10
0.386000
20
0.527000
0
VERTEX
8
0
10
0.401000
20
0.542000
0
SEQEND
8
0
0
POLYLINE
8
0
66
1
40
0.008000
41
0.008000
0
VERTEX
8
0
10
0.386000
20
0.527000
0
VERTEX
8
0
10
0.401000
20
0.542000
0
SEQEND
8
0
0
POLYLINE
8
0
66
1
40
0.008000
41
0.008000
0
VERTEX
8
0
10
0.436000
20
0.527000
0
VERTEX
8
0
10
0.451000
20
0.542000
0
SEQEND
8
0
0
POLYLINE
8
0
66
1
40
0.008000
41
0.008000
0
VERTEX
8
0
10
0.436000
20
0.527000
0
VERTEX
8
0
10
0.451000
20
0.542000
0
SEQEND
8
0
0
POLYLINE
8
0
66
1
40
0.008000
41
0.008000
0
VERTEX
8
0
10
0.486000
20
0.527000
0
VERTEX
8
0
10
0.501000
20
0.542000
0
SEQEND
8
0
0
POLYLINE
8
0
66
1
40
0.008000
41
0.008000
0
VERTEX
8
0
10
0.486000
20
0.527000
0
VERTEX
8
0
10
0.501000
20
0.542000
0
SEQEND
8
0
0
POLYLINE
8
0
66
1
40
0.008000
41
0.008000
0
VERTEX
8
0
10
0.536000
20
0.527000
0
VERTEX
8
0
10
0.551000
20
0.542000
0
SEQEND
8
0
0
POLYLINE
8
0
66
1
40
0.008000
41
0.008000
0
VERTEX
8
0
10
0.536000
20
0.527000
0
VERTEX
8
0
10
0.551000
20
0.542000
0
SEQEND
8
0
0
POLYLINE
8
0
66
1
40
0.008000
41
0.008000
0
VERTEX
8
0
10
0.586000
20
0.527000
0
VERTEX
8
0
10
0.601000
20
0.542000
0
SEQEND
8
0
0
TEXT
8
12632256
10
0.291000
20
0.552000
40
0.048000
41
1.041667
1
Q2
0
POLYLINE
8
0
66
1
40
0.008000
41
0.008000
0
VERTEX
8
0
10
-0.580000
20
0.078000
0
VERTEX
8
0
10
-0.376000
20
0.078000
0
VERTEX
8
0
10
-0.376000
20
0.183000
0
VERTEX
8
0
10
-0.580000
20
0.183000
0
VERTEX
8
0
10
-0.580000
20
0.078000
0
SEQEND
8
0
0
POLYLINE
8
0
66
1
40
0.008000
41
0.008000
0
VERTEX
8
0
10
-0.548000
20
0.182000
0
VERTEX
8
0
10
-0.548000
20
0.079000
0
SEQEND
8
0
0
POLYLINE
8
0
66
1
40
0.008000
41
0.008000
0
VERTEX
8
0
10
-0.608000
20
0.130000
0
VERTEX
8
0
10
-0.580000
20
0.130000
0
SEQEND
8
0
0
POLYLINE
8
0
66
1
40
0.008000
41
0.008000
0
VERTEX
8
0
10
-0.376000
20
0.130000
0
VERTEX
8
0
10
-0.348000
20
0.130000
0
SEQEND
8
0
0
TEXT
8
12632256
10
-0.548000
20
0.193000
40
0.048000
41
1.041667
1
D1
0
POLYLINE
8
0
66
1
40
0.008000
41
0.008000
0
VERTEX
8
0
10
-0.584000
20
-0.098000
0
VERTEX
8
0
10
-0.380000
20
-0.098000
0
VERTEX
8
0
10
-0.380000
20
0.006000
0
VERTEX
8
0
10
-0.584000
20
0.006000
0
VERTEX
8
0
10
-0.584000
20
-0.098000
0
SEQEND
8
0
0
POLYLINE
8
0
66
1
40
0.008000
41
0.008000
0
VERTEX
8
0
10
-0.552000
20
0.005000
0
VERTEX
8
0
10
-0.552000
20
-0.097000
0
SEQEND
8
0
0
POLYLINE
8
0
66
1
40
0.008000
41
0.008000
0
VERTEX
8
0
10
-0.612000
20
-0.046000
0
VERTEX
8
0
10
-0.584000
20
-0.046000
0
SEQEND
8
0
0
POLYLINE
8
0
66
1
40
0.008000
41
0.008000
0
VERTEX
8
0
10
-0.380000
20
-0.046000
0
VERTEX
8
0
10
-0.352000
20
-0.046000
0
SEQEND
8
0
0
TEXT
8
12632256
10
-0.532000
20
0.016000
40
0.048000
41
1.041667
1
D5
0
POLYLINE
8
0
66
1
40
0.008000
41
0.008000
0
VERTEX
8
0
10
-1.388000
20
-0.812000
0
VERTEX
8
0
10
-0.988000
20
-0.812000
0
SEQEND
8
0
0
POLYLINE
8
0
66
1
40
0.008000
41
0.008000
0
VERTEX
8
0
10
-1.388000
20
0.187000
0
VERTEX
8
0
10
-0.988000
20
0.187000
0
SEQEND
8
0
0
POLYLINE
8
0
66
1
40
0.008000
41
0.008000
0
VERTEX
8
0
10
-1.388000
20
0.187000
0
VERTEX
8
0
10
-1.388000
20
-0.812000
0
SEQEND
8
0
0
POLYLINE
8
0
66
1
40
0.008000
41
0.008000
0
VERTEX
8
0
10
-0.988000
20
-0.812000
0
VERTEX
8
0
10
-0.988000
20
0.187000
0
SEQEND
8
0
0
TEXT
8
12632256
10
-1.398000
20
-0.362000
40
0.048000
41
1.041667
50
90.000000
1
J2
0
POLYLINE
8
0
66
1
40
0.008000
41
0.008000
0
VERTEX
8
0
10
0.659000
20
0.064000
0
VERTEX
8
0
10
0.863000
20
0.064000
0
VERTEX
8
0
10
0.863000
20
0.169000
0
VERTEX
8
0
10
0.659000
20
0.169000
0
VERTEX
8
0
10
0.659000
20
0.064000
0
SEQEND
8
0
0
POLYLINE
8
0
66
1
40
0.008000
41
0.008000
0
VERTEX
8
0
10
0.691000
20
0.168000
0
VERTEX
8
0
10
0.691000
20
0.065000
0
SEQEND
8
0
0
POLYLINE
8
0
66
1
40
0.008000
41
0.008000
0
VERTEX
8
0
10
0.631000
20
0.116000
0
VERTEX
8
0
10
0.659000
20
0.116000
0
SEQEND
8
0
0
POLYLINE
8
0
66
1
40
0.008000
41
0.008000
0
VERTEX
8
0
10
0.863000
20
0.116000
0
VERTEX
8
0
10
0.891000
20
0.116000
0
SEQEND
8
0
0
TEXT
8
12632256
10
0.711000
20
0.179000
40
0.048000
41
1.041667
1
D2
0
POLYLINE
8
0
66
1
40
0.008000
41
0.008000
0
VERTEX
8
0
10
0.659000
20
-0.113000
0
VERTEX
8
0
10
0.863000
20
-0.113000
0
VERTEX
8
0
10
0.863000
20
-0.008000
0
VERTEX
8
0
10
0.659000
20
-0.008000
0
VERTEX
8
0
10
0.659000
20
-0.113000
0
SEQEND
8
0
0
POLYLINE
8
0
66
1
40
0.008000
41
0.008000
0
VERTEX
8
0
10
0.691000
20
-0.009000
0
VERTEX
8
0
10
0.691000
20
-0.112000
0
SEQEND
8
0
0
POLYLINE
8
0
66
1
40
0.008000
41
0.008000
0
VERTEX
8
0
10
0.631000
20
-0.061000
0
VERTEX
8
0
10
0.659000
20
-0.061000
0
SEQEND
8
0
0
POLYLINE
8
0
66
1
40
0.008000
41
0.008000
0
VERTEX
8
0
10
0.863000
20
-0.061000
0
VERTEX
8
0
10
0.891000
20
-0.061000
0
SEQEND
8
0
0
TEXT
8
12632256
10
0.711000
20
0.002000
40
0.048000
41
1.041667
1
D3
0
POLYLINE
8
0
66
1
40
0.008000
41
0.008000
0
VERTEX
8
0
10
-0.066000
20
0.116000
0
VERTEX
8
0
10
-0.016000
20
0.116000
0
SEQEND
8
0
0
POLYLINE
8
0
66
1
40
0.008000
41
0.008000
0
VERTEX
8
0
10
-0.016000
20
0.091000
0
VERTEX
8
0
10
0.183000
20
0.091000
0
VERTEX
8
0
10
0.183000
20
0.141000
0
VERTEX
8
0
10
-0.016000
20
0.141000
0
VERTEX
8
0
10
-0.016000
20
0.091000
0
SEQEND
8
0
0
POLYLINE
8
0
66
1
40
0.008000
41
0.008000
0
VERTEX
8
0
10
0.183000
20
0.116000
0
VERTEX
8
0
10
0.233000
20
0.116000
0
SEQEND
8
0
0
TEXT
8
12632256
10
0.033000
20
0.151000
40
0.048000
41
1.041667
1
R7
0
POLYLINE
8
0
66
1
40
0.008000
41
0.008000
0
VERTEX
8
0
10
-0.240000
20
-0.672000
0
VERTEX
8
0
10
-0.240000
20
-0.472000
0
SEQEND
8
0
0
POLYLINE
8
0
66
1
40
0.008000
41
0.008000
0
VERTEX
8
0
10
-0.305000
20
-0.702000
0
VERTEX
8
0
10
-0.290000
20
-0.700000
0
VERTEX
8
0
10
-0.274000
20
-0.694000
0
VERTEX
8
0
10
-0.258000
20
-0.685000
0
VERTEX
8
0
10
-0.240000
20
-0.672000
0
SEQEND
8
0
0
POLYLINE
8
0
66
1
40
0.008000
41
0.008000
0
VERTEX
8
0
10
-0.305000
20
-0.702000
0
VERTEX
8
0
10
-0.330000
20
-0.701000
0
VERTEX
8
0
10
-0.342000
20
-0.698000
0
VERTEX
8
0
10
-0.354000
20
-0.694000
0
VERTEX
8
0
10
-0.365000
20
-0.689000
0
VERTEX
8
0
10
-0.375000
20
-0.683000
0
VERTEX
8
0
10
-0.385000
20
-0.676000
0
VERTEX
8
0
10
-0.394000
20
-0.667000
0
VERTEX
8
0
10
-0.409000
20
-0.648000
0
VERTEX
8
0
10
-0.420000
20
-0.625000
0
VERTEX
8
0
10
-0.424000
20
-0.613000
0
VERTEX
8
0
10
-0.427000
20
-0.600000
0
VERTEX
8
0
10
-0.429000
20
-0.586000
0
VERTEX
8
0
10
-0.430000
20
-0.572000
0
SEQEND
8
0
0
POLYLINE
8
0
66
1
40
0.008000
41
0.008000
0
VERTEX
8
0
10
-0.305000
20
-0.442000
0
VERTEX
8
0
10
-0.290000
20
-0.444000
0
VERTEX
8
0
10
-0.274000
20
-0.450000
0
VERTEX
8
0
10
-0.258000
20
-0.459000
0
VERTEX
8
0
10
-0.240000
20
-0.472000
0
SEQEND
8
0
0
POLYLINE
8
0
66
1
40
0.008000
41
0.008000
0
VERTEX
8
0
10
-0.305000
20
-0.442000
0
VERTEX
8
0
10
-0.330000
20
-0.443000
0
VERTEX
8
0
10
-0.342000
20
-0.446000
0
VERTEX
8
0
10
-0.354000
20
-0.450000
0
VERTEX
8
0
10
-0.365000
20
-0.455000
0
VERTEX
8
0
10
-0.375000
20
-0.461000
0
VERTEX
8
0
10
-0.385000
20
-0.468000
0
VERTEX
8
0
10
-0.394000
20
-0.477000
0
VERTEX
8
0
10
-0.409000
20
-0.496000
0
VERTEX
8
0
10
-0.420000
20
-0.519000
0
VERTEX
8
0
10
-0.424000
20
-0.531000
0
VERTEX
8
0
10
-0.427000
20
-0.544000
0
VERTEX
8
0
10
-0.429000
20
-0.558000
0
VERTEX
8
0
10
-0.430000
20
-0.572000
0
SEQEND
8
0
0
TEXT
8
12632256
10
-0.440000
20
-0.622000
40
0.048000
41
1.041667
50
90.000000
1
Q5
0
POLYLINE
8
0
66
1
40
0.008000
41
0.008000
0
VERTEX
8
0
10
0.070000
20
-0.664000
0
VERTEX
8
0
10
0.070000
20
-0.464000
0
SEQEND
8
0
0
POLYLINE
8
0
66
1
40
0.008000
41
0.008000
0
VERTEX
8
0
10
0.005000
20
-0.694000
0
VERTEX
8
0
10
0.020000
20
-0.692000
0
VERTEX
8
0
10
0.036000
20
-0.686000
0
VERTEX
8
0
10
0.052000
20
-0.677000
0
VERTEX
8
0
10
0.070000
20
-0.664000
0
SEQEND
8
0
0
POLYLINE
8
0
66
1
40
0.008000
41
0.008000
0
VERTEX
8
0
10
0.005000
20
-0.694000
0
VERTEX
8
0
10
-0.020000
20
-0.693000
0
VERTEX
8
0
10
-0.044000
20
-0.686000
0
VERTEX
8
0
10
-0.065000
20
-0.675000
0
VERTEX
8
0
10
-0.083000
20
-0.659000
0
VERTEX
8
0
10
-0.098000
20
-0.640000
0
VERTEX
8
0
10
-0.109000
20
-0.617000
0
VERTEX
8
0
10
-0.113000
20
-0.605000
0
VERTEX
8
0
10
-0.116000
20
-0.592000
0
VERTEX
8
0
10
-0.118000
20
-0.578000
0
VERTEX
8
0
10
-0.119000
20
-0.564000
0
SEQEND
8
0
0
POLYLINE
8
0
66
1
40
0.008000
41
0.008000
0
VERTEX
8
0
10
0.005000
20
-0.434000
0
VERTEX
8
0
10
0.020000
20
-0.436000
0
VERTEX
8
0
10
0.036000
20
-0.442000
0
VERTEX
8
0
10
0.052000
20
-0.451000
0
VERTEX
8
0
10
0.070000
20
-0.464000
0
SEQEND
8
0
0
POLYLINE
8
0
66
1
40
0.008000
41
0.008000
0
VERTEX
8
0
10
0.005000
20
-0.434000
0
VERTEX
8
0
10
-0.020000
20
-0.435000
0
VERTEX
8
0
10
-0.044000
20
-0.442000
0
VERTEX
8
0
10
-0.065000
20
-0.453000
0
VERTEX
8
0
10
-0.083000
20
-0.469000
0
VERTEX
8
0
10
-0.098000
20
-0.489000
0
VERTEX
8
0
10
-0.109000
20
-0.511000
0
VERTEX
8
0
10
-0.113000
20
-0.524000
0
VERTEX
8
0
10
-0.116000
20
-0.537000
0
VERTEX
8
0
10
-0.118000
20
-0.550000
0
VERTEX
8
0
10
-0.119000
20
-0.564000
0
SEQEND
8
0
0
TEXT
8
12632256
10
-0.129000
20
-0.614000
40
0.048000
41
1.041667
50
90.000000
1
Q6
0
POLYLINE
8
0
66
1
40
0.008000
41
0.008000
0
VERTEX
8
0
10
-0.829000
20
-0.466000
0
VERTEX
8
0
10
-0.779000
20
-0.466000
0
SEQEND
8
0
0
POLYLINE
8
0
66
1
40
0.008000
41
0.008000
0
VERTEX
8
0
10
-0.779000
20
-0.491000
0
VERTEX
8
0
10
-0.579000
20
-0.491000
0
VERTEX
8
0
10
-0.579000
20
-0.441000
0
VERTEX
8
0
10
-0.779000
20
-0.441000
0
VERTEX
8
0
10
-0.779000
20
-0.491000
0
SEQEND
8
0
0
POLYLINE
8
0
66
1
40
0.008000
41
0.008000
0
VERTEX
8
0
10
-0.579000
20
-0.466000
0
VERTEX
8
0
10
-0.529000
20
-0.466000
0
SEQEND
8
0
0
TEXT
8
12632256
10
-0.729000
20
-0.431000
40
0.048000
41
1.041667
1
R8
0
POLYLINE
8
0
66
1
40
0.008000
41
0.008000
0
VERTEX
8
0
10
-0.533000
20
-0.273000
0
VERTEX
8
0
10
-0.583000
20
-0.273000
0
SEQEND
8
0
0
POLYLINE
8
0
66
1
40
0.008000
41
0.008000
0
VERTEX
8
0
10
-0.783000
20
-0.298000
0
VERTEX
8
0
10
-0.583000
20
-0.298000
0
VERTEX
8
0
10
-0.583000
20
-0.248000
0
VERTEX
8
0
10
-0.783000
20
-0.248000
0
VERTEX
8
0
10
-0.783000
20
-0.298000
0
SEQEND
8
0
0
POLYLINE
8
0
66
1
40
0.008000
41
0.008000
0
VERTEX
8
0
10
-0.783000
20
-0.273000
0
VERTEX
8
0
10
-0.833000
20
-0.273000
0
SEQEND
8
0
0
TEXT
8
12632256
10
-0.733000
20
-0.356000
40
0.048000
41
1.041667
1
R9
0
POLYLINE
8
0
66
1
40
0.008000
41
0.008000
0
VERTEX
8
0
10
1.085000
20
-0.713000
0
VERTEX
8
0
10
1.085000
20
-0.313000
0
SEQEND
8
0
0
POLYLINE
8
0
66
1
40
0.008000
41
0.008000
0
VERTEX
8
0
10
0.685000
20
-0.713000
0
VERTEX
8
0
10
0.685000
20
-0.313000
0
SEQEND
8
0
0
POLYLINE
8
0
66
1
40
0.008000
41
0.008000
0
VERTEX
8
0
10
1.085000
20
-0.313000
0
VERTEX
8
0
10
0.685000
20
-0.313000
0
SEQEND
8
0
0
POLYLINE
8
0
66
1
40
0.008000
41
0.008000
0
VERTEX
8
0
10
1.085000
20
-0.713000
0
VERTEX
8
0
10
0.685000
20
-0.713000
0
SEQEND
8
0
0
TEXT
8
12632256
10
0.796000
20
-0.819000
40
0.048000
41
1.041667
1
J1
0
POLYLINE
8
0
66
1
40
0.008000
41
0.008000
0
VERTEX
8
0
10
0.379000
20
-0.571000
0
VERTEX
8
0
10
0.379000
20
-0.621000
0
SEQEND
8
0
0
POLYLINE
8
0
66
1
40
0.008000
41
0.008000
0
VERTEX
8
0
10
0.354000
20
-0.821000
0
VERTEX
8
0
10
0.404000
20
-0.821000
0
VERTEX
8
0
10
0.404000
20
-0.621000
0
VERTEX
8
0
10
0.354000
20
-0.621000
0
VERTEX
8
0
10
0.354000
20
-0.821000
0
SEQEND
8
0
0
POLYLINE
8
0
66
1
40
0.008000
41
0.008000
0
VERTEX
8
0
10
0.379000
20
-0.821000
0
VERTEX
8
0
10
0.379000
20
-0.871000
0
SEQEND
8
0
0
TEXT
8
12632256
10
0.462000
20
-0.771000
40
0.048000
41
1.041667
50
90.000000
1
R1
0
POLYLINE
8
0
66
1
40
0.008000
41
0.008000
0
VERTEX
8
0
10
-0.250000
20
0.659000
0
VERTEX
8
0
10
-0.300000
20
0.659000
0
SEQEND
8
0
0
POLYLINE
8
0
66
1
40
0.008000
41
0.008000
0
VERTEX
8
0
10
-0.500000
20
0.634000
0
VERTEX
8
0
10
-0.300000
20
0.634000
0
VERTEX
8
0
10
-0.300000
20
0.684000
0
VERTEX
8
0
10
-0.500000
20
0.684000
0
VERTEX
8
0
10
-0.500000
20
0.634000
0
SEQEND
8
0
0
POLYLINE
8
0
66
1
40
0.008000
41
0.008000
0
VERTEX
8
0
10
-0.500000
20
0.659000
0
VERTEX
8
0
10
-0.550000
20
0.659000
0
SEQEND
8
0
0
TEXT
8
12632256
10
-0.454000
20
0.714000
40
0.048000
41
1.041667
1
R2
0
POLYLINE
8
0
66
1
40
0.008000
41
0.008000
0
VERTEX
8
0
10
-0.562000
20
0.781000
0
VERTEX
8
0
10
-0.512000
20
0.781000
0
SEQEND
8
0
0
POLYLINE
8
0
66
1
40
0.008000
41
0.008000
0
VERTEX
8
0
10
-0.512000
20
0.756000
0
VERTEX
8
0
10
-0.312000
20
0.756000
0
VERTEX
8
0
10
-0.312000
20
0.806000
0
VERTEX
8
0
10
-0.512000
20
0.806000
0
VERTEX
8
0
10
-0.512000
20
0.756000
0
SEQEND
8
0
0
POLYLINE
8
0
66
1
40
0.008000
41
0.008000
0
VERTEX
8
0
10
-0.312000
20
0.781000
0
VERTEX
8
0
10
-0.262000
20
0.781000
0
SEQEND
8
0
0
TEXT
8
12632256
10
-0.462000
20
0.816000
40
0.048000
41
1.041667
1
R5
0
POLYLINE
8
0
66
1
40
0.008000
41
0.008000
0
VERTEX
8
0
10
0.465000
20
0.655000
0
VERTEX
8
0
10
0.515000
20
0.655000
0
SEQEND
8
0
0
POLYLINE
8
0
66
1
40
0.008000
41
0.008000
0
VERTEX
8
0
10
0.515000
20
0.630000
0
VERTEX
8
0
10
0.715000
20
0.630000
0
VERTEX
8
0
10
0.715000
20
0.680000
0
VERTEX
8
0
10
0.515000
20
0.680000
0
VERTEX
8
0
10
0.515000
20
0.630000
0
SEQEND
8
0
0
POLYLINE
8
0
66
1
40
0.008000
41
0.008000
0
VERTEX
8
0
10
0.715000
20
0.655000
0
VERTEX
8
0
10
0.765000
20
0.655000
0
SEQEND
8
0
0
TEXT
8
12632256
10
0.565000
20
0.690000
40
0.048000
41
1.041667
1
R3
0
POLYLINE
8
0
66
1
40
0.008000
41
0.008000
0
VERTEX
8
0
10
0.757000
20
0.773000
0
VERTEX
8
0
10
0.707000
20
0.773000
0
SEQEND
8
0
0
POLYLINE
8
0
66
1
40
0.008000
41
0.008000
0
VERTEX
8
0
10
0.507000
20
0.748000
0
VERTEX
8
0
10
0.707000
20
0.748000
0
VERTEX
8
0
10
0.707000
20
0.798000
0
VERTEX
8
0
10
0.507000
20
0.798000
0
VERTEX
8
0
10
0.507000
20
0.748000
0
SEQEND
8
0
0
POLYLINE
8
0
66
1
40
0.008000
41
0.008000
0
VERTEX
8
0
10
0.507000
20
0.773000
0
VERTEX
8
0
10
0.457000
20
0.773000
0
SEQEND
8
0
0
TEXT
8
12632256
10
0.549000
20
0.816000
40
0.048000
41
1.041667
1
R4
0
POLYLINE
8
0
66
1
40
0.008000
41
0.008000
0
VERTEX
8
0
10
-0.058000
20
-0.061000
0
VERTEX
8
0
10
-0.008000
20
-0.061000
0
SEQEND
8
0
0
POLYLINE
8
0
66
1
40
0.008000
41
0.008000
0
VERTEX
8
0
10
-0.008000
20
-0.086000
0
VERTEX
8
0
10
0.191000
20
-0.086000
0
VERTEX
8
0
10
0.191000
20
-0.036000
0
VERTEX
8
0
10
-0.008000
20
-0.036000
0
VERTEX
8
0
10
-0.008000
20
-0.086000
0
SEQEND
8
0
0
POLYLINE
8
0
66
1
40
0.008000
41
0.008000
0
VERTEX
8
0
10
0.191000
20
-0.061000
0
VERTEX
8
0
10
0.241000
20
-0.061000
0
SEQEND
8
0
0
TEXT
8
12632256
10
0.041000
20
-0.026000
40
0.048000
41
1.041667
1
R6
0
POLYLINE
8
0
66
1
40
0.008000
41
0.008000
0
VERTEX
8
0
10
1.135000
20
-0.158000
0
VERTEX
8
0
10
1.240000
20
-0.158000
0
VERTEX
8
0
10
1.240000
20
0.045000
0
VERTEX
8
0
10
1.135000
20
0.045000
0
VERTEX
8
0
10
1.135000
20
-0.158000
0
SEQEND
8
0
0
POLYLINE
8
0
66
1
40
0.008000
41
0.008000
0
VERTEX
8
0
10
1.239000
20
0.013000
0
VERTEX
8
0
10
1.136000
20
0.013000
0
SEQEND
8
0
0
POLYLINE
8
0
66
1
40
0.008000
41
0.008000
0
VERTEX
8
0
10
1.187000
20
0.073000
0
VERTEX
8
0
10
1.187000
20
0.045000
0
SEQEND
8
0
0
POLYLINE
8
0
66
1
40
0.008000
41
0.008000
0
VERTEX
8
0
10
1.187000
20
-0.158000
0
VERTEX
8
0
10
1.187000
20
-0.186000
0
SEQEND
8
0
0
TEXT
8
12632256
10
1.298000
20
-0.106000
40
0.048000
41
1.041667
50
90.000000
1
D4
0
CIRCLE
8
12632256
10
-0.614000
20
-0.820000
40
0.200000
0
POLYLINE
8
0
66
1
40
0.008000
41
0.008000
0
VERTEX
8
0
10
-0.739000
20
-0.720000
0
VERTEX
8
0
10
-0.689000
20
-0.720000
0
SEQEND
8
0
0
POLYLINE
8
0
66
1
40
0.008000
41
0.008000
0
VERTEX
8
0
10
-0.714000
20
-0.695000
0
VERTEX
8
0
10
-0.714000
20
-0.745000
0
SEQEND
8
0
0
TEXT
8
12632256
10
-0.664000
20
-0.610000
40
0.048000
41
1.041667
1
C1
0
POLYLINE
8
0
66
1
40
0.008000
41
0.008000
0
VERTEX
8
0
10
0.200000
20
0.828000
0
VERTEX
8
0
10
0.220000
20
0.828000
0
VERTEX
8
0
10
0.220000
20
0.928000
0
VERTEX
8
0
10
0.200000
20
0.928000
0
VERTEX
8
0
10
0.200000
20
0.828000
0
SEQEND
8
0
0
POLYLINE
8
0
66
1
40
0.008000
41
0.008000
0
VERTEX
8
0
10
0.024000
20
0.263000
0
VERTEX
8
0
10
0.224000
20
0.263000
0
VERTEX
8
0
10
0.224000
20
0.283000
0
VERTEX
8
0
10
0.024000
20
0.283000
0
VERTEX
8
0
10
0.024000
20
0.263000
0
SEQEND
8
0
0
POLYLINE
8
0
66
1
40
0.008000
41
0.008000
0
VERTEX
8
0
10
1.150000
20
0.236000
0
VERTEX
8
0
10
1.350000
20
0.236000
0
VERTEX
8
0
10
1.350000
20
0.256000
0
VERTEX
8
0
10
1.150000
20
0.256000
0
VERTEX
8
0
10
1.150000
20
0.236000
0
SEQEND
8
0
0
TEXT
8
12632256
10
0.690000
20
-0.234000
40
0.064000
41
1.250000
1
MOTOR
0
TEXT
8
12632256
10
0.726000
20
-0.297000
40
0.064000
41
1.250000
1
+  -
0
TEXT
8
12632256
10
-1.080000
20
0.254000
40
0.064000
41
1.250000
1
P
0
TEXT
8
12632256
10
0.387000
20
0.242000
40
0.064000
41
1.250000
1
P
0
TEXT
8
12632256
10
-0.435000
20
0.265000
40
0.064000
41
1.250000
1
N
0
TEXT
8
12632256
10
0.950000
20
0.250000
40
0.064000
41
1.250000
1
N
0
POLYLINE
8
0
66
1
40
0.000000
41
0.000000
0
VERTEX
8
0
10
-1.091000
20
0.880000
0
VERTEX
8
0
10
0.044000
20
0.880000
0
VERTEX
8
0
10
0.044000
20
1.076000
0
VERTEX
8
0
10
-1.091000
20
1.076000
0
VERTEX
8
0
10
-1.091000
20
0.880000
0
SEQEND
8
0
0
TEXT
8
12632256
10
-0.435000
20
-0.962000
40
0.064000
41
1.250000
1
JDPE
0
TEXT
8
12632256
10
0.454000
20
-1.017000
40
0.064000
41
1.250000
1
PUENTE H
0
TEXT
8
12632256
10
-0.966000
20
0.059000
40
0.048000
41
1.250000
1
GND
0
TEXT
8
12632256
10
-0.950000
20
-0.586000
40
0.048000
41
1.250000
1
GND
0
TEXT
8
12632256
10
-0.942000
20
-0.747000
40
0.048000
41
1.250000
1
V+
0
TEXT
8
12632256
10
-0.938000
20
-0.389000
40
0.048000
41
1.250000
1
IN1
0
TEXT
8
12632256
10
-0.942000
20
-0.161000
40
0.048000
41
1.250000
1
IN2
0
ENDSEC
0
EOF

