  0
SECTION
  2
HEADER
  9
$ACADVER
  1
AC2.10
  0
ENDSEC
  0
SECTION
  2
TABLES
  0
TABLE
  2
LAYER
 70
     8
  0
LAYER
  2
0
 62
     7
 70
0
  6
CONTINUOUS
  0
LAYER
  2
1
 62
     1
 70
0
  6
CONTINUOUS
  0
LAYER
  2
2
 62
     2
 70
0
  6
CONTINUOUS
  0
LAYER
  2
3
 62
     3
 70
0
  6
CONTINUOUS
  0
LAYER
  2
4
 62
     4
 70
0
  6
CONTINUOUS
  0
LAYER
  2
5
 62
     5
 70
0
  6
CONTINUOUS
  0
LAYER
  2
6
 62
     6
 70
0
  6
CONTINUOUS
  0
LAYER
  2
7
 62
     7
 70
0
  6
CONTINUOUS
  0
ENDTAB
  0
TABLE
  2
STYLE
 70
     1
  0
STYLE
 70
     0
  2
STANDARD
  3
TXT
 40
0.00
 41
1.00
 42
1.00
 50
0.00
 71
     0
  0
ENDTAB
  0
ENDSEC
  0
SECTION
  2
BLOCKS
  0
BLOCK
  8
0
  2
EPAD
 70
0
 10
0.0
 20
0.0
  0
POLYLINE
  8
0
 66
1
 70
1
 40
0.5
 41
0.5
  0
VERTEX
  8
0
 10
-0.25
 20
0.0
 42
1.0
  0
VERTEX
  8
0
 10
0.25
 20
0.0
 42
1.0
  0
SEQEND
  8
0
  0
ENDBLK
  8
0
  0
BLOCK
  8
0
  2
RPAD
 70
0
 10
0.0
 20
0.0
  0
TRACE
  8
0
 10
-0.5
 20
-0.5
 11
-0.5
 21
0.5
 12
0.5
 22
-0.5
 13
0.5
 23
0.5
  0
ENDBLK
  8
0
  0
ENDSEC
0
SECTION
2
ENTITIES
0
POLYLINE
8
0
66
1
40
0.025000
41
0.025000
0
VERTEX
8
0
10
0.362000
20
-0.861000
0
VERTEX
8
0
10
0.436000
20
-0.861000
0
VERTEX
8
0
10
0.505000
20
-0.792000
0
VERTEX
8
0
10
0.505000
20
-0.466000
0
VERTEX
8
0
10
0.445000
20
-0.406000
0
VERTEX
8
0
10
0.445000
20
-0.213000
0
VERTEX
8
0
10
0.397000
20
-0.164000
0
SEQEND
8
0
0
POLYLINE
8
0
66
1
40
0.025000
41
0.025000
0
VERTEX
8
0
10
0.594000
20
1.304000
0
VERTEX
8
0
10
-0.170000
20
1.304000
0
VERTEX
8
0
10
-0.187000
20
1.321000
0
SEQEND
8
0
0
POLYLINE
8
0
66
1
40
0.025000
41
0.025000
0
VERTEX
8
0
10
-1.028000
20
1.060000
0
VERTEX
8
0
10
-1.319000
20
1.350000
0
VERTEX
8
0
10
-1.571000
20
1.350000
0
VERTEX
8
0
10
-1.711000
20
1.490000
0
VERTEX
8
0
10
-1.711000
20
1.655000
0
VERTEX
8
0
10
-1.620000
20
1.746000
0
VERTEX
8
0
10
-1.586000
20
1.746000
0
VERTEX
8
0
10
-1.586000
20
1.742000
0
SEQEND
8
0
0
POLYLINE
8
0
66
1
40
0.025000
41
0.025000
0
VERTEX
8
0
10
-0.946000
20
1.120000
0
VERTEX
8
0
10
-1.240000
20
1.414000
0
VERTEX
8
0
10
-1.534000
20
1.414000
0
VERTEX
8
0
10
-1.648000
20
1.529000
0
VERTEX
8
0
10
-1.648000
20
1.633000
0
VERTEX
8
0
10
-1.615000
20
1.667000
0
VERTEX
8
0
10
-0.276000
20
1.667000
0
VERTEX
8
0
10
-0.211000
20
1.602000
0
VERTEX
8
0
10
0.015000
20
1.602000
0
VERTEX
8
0
10
0.086000
20
1.673000
0
SEQEND
8
0
0
POLYLINE
8
0
66
1
40
0.025000
41
0.025000
0
VERTEX
8
0
10
-1.132000
20
1.008000
0
VERTEX
8
0
10
-1.423000
20
1.299000
0
VERTEX
8
0
10
-1.600000
20
1.299000
0
VERTEX
8
0
10
-1.761000
20
1.460000
0
VERTEX
8
0
10
-1.761000
20
1.699000
0
VERTEX
8
0
10
-1.660000
20
1.799000
0
VERTEX
8
0
10
-0.235000
20
1.799000
0
VERTEX
8
0
10
-0.100000
20
1.665000
0
VERTEX
8
0
10
-0.102000
20
1.681000
0
SEQEND
8
0
0
POLYLINE
8
0
66
1
40
0.025000
41
0.025000
0
VERTEX
8
0
10
-0.042000
20
-0.747000
0
VERTEX
8
0
10
-0.050000
20
-0.739000
0
VERTEX
8
0
10
-0.870000
20
-0.739000
0
VERTEX
8
0
10
-0.885000
20
-0.754000
0
SEQEND
8
0
0
POLYLINE
8
0
66
1
40
0.025000
41
0.025000
0
VERTEX
8
0
10
-0.554000
20
-1.146000
0
VERTEX
8
0
10
-0.554000
20
-1.134000
0
VERTEX
8
0
10
-0.503000
20
-1.083000
0
VERTEX
8
0
10
-0.449000
20
-1.083000
0
VERTEX
8
0
10
-0.373000
20
-1.083000
0
VERTEX
8
0
10
-0.322000
20
-1.134000
0
VERTEX
8
0
10
-0.165000
20
-1.134000
0
VERTEX
8
0
10
-0.112000
20
-1.081000
0
VERTEX
8
0
10
0.191000
20
-1.081000
0
VERTEX
8
0
10
0.196000
20
-1.086000
0
SEQEND
8
0
0
POLYLINE
8
0
66
1
40
0.025000
41
0.025000
0
VERTEX
8
0
10
0.093000
20
-0.996000
0
VERTEX
8
0
10
-0.110000
20
-0.996000
0
VERTEX
8
0
10
-0.144000
20
-0.962000
0
VERTEX
8
0
10
-0.596000
20
-0.962000
0
VERTEX
8
0
10
-0.713000
20
-0.844000
0
VERTEX
8
0
10
-1.043000
20
-0.844000
0
VERTEX
8
0
10
-1.098000
20
-0.789000
0
SEQEND
8
0
0
POLYLINE
8
0
66
1
40
0.025000
41
0.025000
0
VERTEX
8
0
10
-0.482000
20
0.711000
0
VERTEX
8
0
10
-0.448000
20
0.744000
0
VERTEX
8
0
10
0.924000
20
0.744000
0
VERTEX
8
0
10
0.935000
20
0.755000
0
VERTEX
8
0
10
0.935000
20
1.170000
0
VERTEX
8
0
10
0.731000
20
1.374000
0
VERTEX
8
0
10
0.616000
20
1.374000
0
VERTEX
8
0
10
0.569000
20
1.421000
0
SEQEND
8
0
0
POLYLINE
8
0
66
1
40
0.025000
41
0.025000
0
VERTEX
8
0
10
-0.476000
20
0.571000
0
VERTEX
8
0
10
-0.341000
20
0.571000
0
VERTEX
8
0
10
-0.240000
20
0.672000
0
VERTEX
8
0
10
-0.102000
20
0.672000
0
SEQEND
8
0
0
POLYLINE
8
0
66
1
40
0.025000
41
0.025000
0
VERTEX
8
0
10
-1.356000
20
0.249000
0
VERTEX
8
0
10
-0.297000
20
0.249000
0
VERTEX
8
0
10
-0.069000
20
0.021000
0
VERTEX
8
0
10
0.909000
20
0.021000
0
VERTEX
8
0
10
0.938000
20
0.050000
0
SEQEND
8
0
0
POLYLINE
8
0
66
1
40
0.025000
41
0.025000
0
VERTEX
8
0
10
0.881000
20
1.114000
0
VERTEX
8
0
10
0.382000
20
1.114000
0
VERTEX
8
0
10
0.375000
20
1.107000
0
SEQEND
8
0
0
POLYLINE
8
0
66
1
40
0.025000
41
0.025000
0
VERTEX
8
0
10
0.605000
20
0.821000
0
VERTEX
8
0
10
0.779000
20
0.821000
0
VERTEX
8
0
10
0.881000
20
0.923000
0
VERTEX
8
0
10
0.881000
20
1.114000
0
VERTEX
8
0
10
0.806000
20
1.189000
0
SEQEND
8
0
0
POLYLINE
8
0
66
1
40
0.025000
41
0.025000
0
VERTEX
8
0
10
-0.750000
20
-0.510000
0
VERTEX
8
0
10
-0.750000
20
-0.414000
0
VERTEX
8
0
10
-0.833000
20
-0.331000
0
VERTEX
8
0
10
-1.399000
20
-0.331000
0
VERTEX
8
0
10
-1.452000
20
-0.278000
0
VERTEX
8
0
10
-1.452000
20
0.276000
0
VERTEX
8
0
10
-1.277000
20
0.451000
0
SEQEND
8
0
0
INSERT
8
0
2
EPAD
10
0.362000
20
-0.861000
41
0.070000
42
0.070000
0
CIRCLE
8
0
10
0.362000
20
-0.861000
40
0.025000
0
INSERT
8
0
2
EPAD
10
0.397000
20
-0.164000
41
0.070000
42
0.070000
0
CIRCLE
8
0
10
0.397000
20
-0.164000
40
0.025000
0
INSERT
8
0
2
EPAD
10
-0.554000
20
-1.146000
41
0.070000
42
0.070000
0
CIRCLE
8
0
10
-0.554000
20
-1.146000
40
0.025000
0
INSERT
8
0
2
EPAD
10
0.196000
20
-1.086000
41
0.070000
42
0.070000
0
CIRCLE
8
0
10
0.196000
20
-1.086000
40
0.025000
0
INSERT
8
0
2
EPAD
10
0.594000
20
1.304000
41
0.070000
42
0.070000
0
CIRCLE
8
0
10
0.594000
20
1.304000
40
0.025000
0
INSERT
8
0
2
EPAD
10
-0.187000
20
1.321000
41
0.070000
42
0.070000
0
CIRCLE
8
0
10
-0.187000
20
1.321000
40
0.025000
0
INSERT
8
0
2
EPAD
10
-1.028000
20
1.060000
41
0.070000
42
0.070000
0
CIRCLE
8
0
10
-1.028000
20
1.060000
40
0.025000
0
INSERT
8
0
2
EPAD
10
-1.586000
20
1.742000
41
0.070000
42
0.070000
0
CIRCLE
8
0
10
-1.586000
20
1.742000
40
0.025000
0
INSERT
8
0
2
EPAD
10
-0.946000
20
1.120000
41
0.070000
42
0.070000
0
CIRCLE
8
0
10
-0.946000
20
1.120000
40
0.025000
0
INSERT
8
0
2
EPAD
10
0.086000
20
1.673000
41
0.070000
42
0.070000
0
CIRCLE
8
0
10
0.086000
20
1.673000
40
0.025000
0
INSERT
8
0
2
EPAD
10
-1.132000
20
1.008000
41
0.070000
42
0.070000
0
CIRCLE
8
0
10
-1.132000
20
1.008000
40
0.025000
0
INSERT
8
0
2
EPAD
10
-0.102000
20
1.681000
41
0.070000
42
0.070000
0
CIRCLE
8
0
10
-0.102000
20
1.681000
40
0.025000
0
INSERT
8
0
2
EPAD
10
-0.042000
20
-0.747000
41
0.070000
42
0.070000
0
CIRCLE
8
0
10
-0.042000
20
-0.747000
40
0.025000
0
INSERT
8
0
2
EPAD
10
-0.885000
20
-0.754000
41
0.070000
42
0.070000
0
CIRCLE
8
0
10
-0.885000
20
-0.754000
40
0.025000
0
INSERT
8
0
2
EPAD
10
0.093000
20
-0.996000
41
0.070000
42
0.070000
0
CIRCLE
8
0
10
0.093000
20
-0.996000
40
0.025000
0
INSERT
8
0
2
EPAD
10
-1.098000
20
-0.789000
41
0.070000
42
0.070000
0
CIRCLE
8
0
10
-1.098000
20
-0.789000
40
0.025000
0
INSERT
8
0
2
EPAD
10
0.605000
20
0.821000
41
0.070000
42
0.070000
0
CIRCLE
8
0
10
0.605000
20
0.821000
40
0.025000
0
INSERT
8
0
2
EPAD
10
0.806000
20
1.189000
41
0.070000
42
0.070000
0
CIRCLE
8
0
10
0.806000
20
1.189000
40
0.025000
0
INSERT
8
0
2
EPAD
10
-0.482000
20
0.711000
41
0.070000
42
0.070000
0
CIRCLE
8
0
10
-0.482000
20
0.711000
40
0.025000
0
INSERT
8
0
2
EPAD
10
0.569000
20
1.421000
41
0.070000
42
0.070000
0
CIRCLE
8
0
10
0.569000
20
1.421000
40
0.025000
0
INSERT
8
0
2
EPAD
10
-0.476000
20
0.571000
41
0.070000
42
0.070000
0
CIRCLE
8
0
10
-0.476000
20
0.571000
40
0.025000
0
INSERT
8
0
2
EPAD
10
-0.102000
20
0.672000
41
0.070000
42
0.070000
0
CIRCLE
8
0
10
-0.102000
20
0.672000
40
0.025000
0
INSERT
8
0
2
EPAD
10
-1.356000
20
0.249000
41
0.070000
42
0.070000
0
CIRCLE
8
0
10
-1.356000
20
0.249000
40
0.025000
0
INSERT
8
0
2
EPAD
10
0.938000
20
0.050000
41
0.070000
42
0.070000
0
CIRCLE
8
0
10
0.938000
20
0.050000
40
0.025000
0
INSERT
8
0
2
EPAD
10
-0.750000
20
-0.510000
41
0.070000
42
0.070000
0
CIRCLE
8
0
10
-0.750000
20
-0.510000
40
0.025000
0
INSERT
8
0
2
EPAD
10
-1.277000
20
0.451000
41
0.070000
42
0.070000
0
CIRCLE
8
0
10
-1.277000
20
0.451000
40
0.025000
0
INSERT
8
0
2
EPAD
10
-1.146000
20
-1.440000
41
0.100000
42
0.100000
0
CIRCLE
8
0
10
-1.146000
20
-1.440000
40
0.025000
0
INSERT
8
0
2
EPAD
10
-0.946000
20
-1.640000
41
0.100000
42
0.100000
0
CIRCLE
8
0
10
-0.946000
20
-1.640000
40
0.025000
0
INSERT
8
0
2
EPAD
10
-1.146000
20
-1.640000
41
0.100000
42
0.100000
0
CIRCLE
8
0
10
-1.146000
20
-1.640000
40
0.025000
0
INSERT
8
0
2
EPAD
10
-0.946000
20
-1.440000
41
0.100000
42
0.100000
0
CIRCLE
8
0
10
-0.946000
20
-1.440000
40
0.025000
0
INSERT
8
0
2
EPAD
10
-1.646000
20
-1.542000
41
0.120000
42
0.120000
0
CIRCLE
8
0
10
-1.646000
20
-1.542000
40
0.030000
0
INSERT
8
0
2
EPAD
10
-1.446000
20
-1.542000
41
0.120000
42
0.120000
0
CIRCLE
8
0
10
-1.446000
20
-1.542000
40
0.030000
0
INSERT
8
0
2
EPAD
10
-1.961000
20
-1.668000
41
0.250000
42
0.250000
0
CIRCLE
8
0
10
-1.961000
20
-1.668000
40
0.030000
0
INSERT
8
0
2
EPAD
10
-0.689000
20
-1.527000
41
0.100000
42
0.100000
0
CIRCLE
8
0
10
-0.689000
20
-1.527000
40
0.025000
0
INSERT
8
0
2
EPAD
10
-0.489000
20
-1.527000
41
0.100000
42
0.100000
0
CIRCLE
8
0
10
-0.489000
20
-1.527000
40
0.025000
0
INSERT
8
0
2
EPAD
10
-0.427000
20
-1.189000
41
0.070000
42
0.070000
0
CIRCLE
8
0
10
-0.427000
20
-1.189000
40
0.025000
0
INSERT
8
0
2
EPAD
10
-0.027000
20
-1.189000
41
0.070000
42
0.070000
0
CIRCLE
8
0
10
-0.027000
20
-1.189000
40
0.025000
0
INSERT
8
0
2
RPAD
10
0.277000
20
-1.665000
41
0.080000
42
0.080000
50
0.000000
0
CIRCLE
8
0
10
0.277000
20
-1.665000
40
0.025000
0
INSERT
8
0
2
RPAD
10
0.377000
20
-1.665000
41
0.080000
42
0.080000
50
0.000000
0
CIRCLE
8
0
10
0.377000
20
-1.665000
40
0.025000
0
INSERT
8
0
2
RPAD
10
0.477000
20
-1.665000
41
0.080000
42
0.080000
50
0.000000
0
CIRCLE
8
0
10
0.477000
20
-1.665000
40
0.025000
0
INSERT
8
0
2
EPAD
10
0.873000
20
-1.542000
41
0.150000
42
0.150000
0
CIRCLE
8
0
10
0.873000
20
-1.542000
40
0.030000
0
INSERT
8
0
2
EPAD
10
-0.110000
20
-1.542000
41
0.150000
42
0.150000
0
CIRCLE
8
0
10
-0.110000
20
-1.542000
40
0.030000
0
INSERT
8
0
2
EPAD
10
0.943000
20
-1.182000
41
0.090000
42
0.090000
0
CIRCLE
8
0
10
0.943000
20
-1.182000
40
0.025000
0
INSERT
8
0
2
EPAD
10
0.543000
20
-1.182000
41
0.090000
42
0.090000
0
CIRCLE
8
0
10
0.543000
20
-1.182000
40
0.025000
0
INSERT
8
0
2
EPAD
10
0.840000
20
-0.958000
41
0.080000
42
0.080000
0
CIRCLE
8
0
10
0.840000
20
-0.958000
40
0.025000
0
INSERT
8
0
2
EPAD
10
0.740000
20
-0.958000
41
0.080000
42
0.080000
0
CIRCLE
8
0
10
0.740000
20
-0.958000
40
0.025000
0
INSERT
8
0
2
EPAD
10
0.378000
20
-0.970000
41
0.070000
42
0.070000
0
CIRCLE
8
0
10
0.378000
20
-0.970000
40
0.025000
0
INSERT
8
0
2
EPAD
10
0.578000
20
-0.970000
41
0.070000
42
0.070000
0
CIRCLE
8
0
10
0.578000
20
-0.970000
40
0.025000
0
INSERT
8
0
2
RPAD
10
-1.127000
20
0.335000
41
0.050000
42
0.050000
50
0.000000
0
CIRCLE
8
0
10
-1.127000
20
0.335000
40
0.030000
0
INSERT
8
0
2
EPAD
10
-1.027000
20
0.335000
41
0.050000
42
0.050000
0
CIRCLE
8
0
10
-1.027000
20
0.335000
40
0.030000
0
INSERT
8
0
2
EPAD
10
-0.927000
20
0.335000
41
0.050000
42
0.050000
0
CIRCLE
8
0
10
-0.927000
20
0.335000
40
0.030000
0
INSERT
8
0
2
EPAD
10
-0.827000
20
0.335000
41
0.050000
42
0.050000
0
CIRCLE
8
0
10
-0.827000
20
0.335000
40
0.030000
0
INSERT
8
0
2
EPAD
10
-0.727000
20
0.335000
41
0.050000
42
0.050000
0
CIRCLE
8
0
10
-0.727000
20
0.335000
40
0.030000
0
INSERT
8
0
2
EPAD
10
-0.627000
20
0.335000
41
0.050000
42
0.050000
0
CIRCLE
8
0
10
-0.627000
20
0.335000
40
0.030000
0
INSERT
8
0
2
EPAD
10
-0.527000
20
0.335000
41
0.050000
42
0.050000
0
CIRCLE
8
0
10
-0.527000
20
0.335000
40
0.030000
0
INSERT
8
0
2
EPAD
10
-0.427000
20
0.335000
41
0.050000
42
0.050000
0
CIRCLE
8
0
10
-0.427000
20
0.335000
40
0.030000
0
INSERT
8
0
2
EPAD
10
-0.327000
20
0.335000
41
0.050000
42
0.050000
0
CIRCLE
8
0
10
-0.327000
20
0.335000
40
0.030000
0
INSERT
8
0
2
EPAD
10
-0.227000
20
0.335000
41
0.050000
42
0.050000
0
CIRCLE
8
0
10
-0.227000
20
0.335000
40
0.030000
0
INSERT
8
0
2
EPAD
10
-0.127000
20
0.335000
41
0.050000
42
0.050000
0
CIRCLE
8
0
10
-0.127000
20
0.335000
40
0.030000
0
INSERT
8
0
2
EPAD
10
-0.027000
20
0.335000
41
0.050000
42
0.050000
0
CIRCLE
8
0
10
-0.027000
20
0.335000
40
0.030000
0
INSERT
8
0
2
EPAD
10
0.072000
20
0.335000
41
0.050000
42
0.050000
0
CIRCLE
8
0
10
0.072000
20
0.335000
40
0.030000
0
INSERT
8
0
2
EPAD
10
0.172000
20
0.335000
41
0.050000
42
0.050000
0
CIRCLE
8
0
10
0.172000
20
0.335000
40
0.030000
0
INSERT
8
0
2
EPAD
10
0.272000
20
0.335000
41
0.050000
42
0.050000
0
CIRCLE
8
0
10
0.272000
20
0.335000
40
0.030000
0
INSERT
8
0
2
EPAD
10
0.372000
20
0.335000
41
0.050000
42
0.050000
0
CIRCLE
8
0
10
0.372000
20
0.335000
40
0.030000
0
INSERT
8
0
2
EPAD
10
0.472000
20
0.335000
41
0.050000
42
0.050000
0
CIRCLE
8
0
10
0.472000
20
0.335000
40
0.030000
0
INSERT
8
0
2
EPAD
10
0.572000
20
0.335000
41
0.050000
42
0.050000
0
CIRCLE
8
0
10
0.572000
20
0.335000
40
0.030000
0
INSERT
8
0
2
EPAD
10
0.672000
20
0.335000
41
0.050000
42
0.050000
0
CIRCLE
8
0
10
0.672000
20
0.335000
40
0.030000
0
INSERT
8
0
2
EPAD
10
0.772000
20
0.335000
41
0.050000
42
0.050000
0
CIRCLE
8
0
10
0.772000
20
0.335000
40
0.030000
0
INSERT
8
0
2
EPAD
10
0.772000
20
0.935000
41
0.050000
42
0.050000
0
CIRCLE
8
0
10
0.772000
20
0.935000
40
0.030000
0
INSERT
8
0
2
EPAD
10
0.672000
20
0.935000
41
0.050000
42
0.050000
0
CIRCLE
8
0
10
0.672000
20
0.935000
40
0.030000
0
INSERT
8
0
2
EPAD
10
0.572000
20
0.935000
41
0.050000
42
0.050000
0
CIRCLE
8
0
10
0.572000
20
0.935000
40
0.030000
0
INSERT
8
0
2
EPAD
10
0.472000
20
0.935000
41
0.050000
42
0.050000
0
CIRCLE
8
0
10
0.472000
20
0.935000
40
0.030000
0
INSERT
8
0
2
EPAD
10
0.372000
20
0.935000
41
0.050000
42
0.050000
0
CIRCLE
8
0
10
0.372000
20
0.935000
40
0.030000
0
INSERT
8
0
2
EPAD
10
0.272000
20
0.935000
41
0.050000
42
0.050000
0
CIRCLE
8
0
10
0.272000
20
0.935000
40
0.030000
0
INSERT
8
0
2
EPAD
10
0.172000
20
0.935000
41
0.050000
42
0.050000
0
CIRCLE
8
0
10
0.172000
20
0.935000
40
0.030000
0
INSERT
8
0
2
EPAD
10
0.072000
20
0.935000
41
0.050000
42
0.050000
0
CIRCLE
8
0
10
0.072000
20
0.935000
40
0.030000
0
INSERT
8
0
2
EPAD
10
-0.027000
20
0.935000
41
0.050000
42
0.050000
0
CIRCLE
8
0
10
-0.027000
20
0.935000
40
0.030000
0
INSERT
8
0
2
EPAD
10
-0.127000
20
0.935000
41
0.050000
42
0.050000
0
CIRCLE
8
0
10
-0.127000
20
0.935000
40
0.030000
0
INSERT
8
0
2
EPAD
10
-0.227000
20
0.935000
41
0.050000
42
0.050000
0
CIRCLE
8
0
10
-0.227000
20
0.935000
40
0.030000
0
INSERT
8
0
2
EPAD
10
-0.327000
20
0.935000
41
0.050000
42
0.050000
0
CIRCLE
8
0
10
-0.327000
20
0.935000
40
0.030000
0
INSERT
8
0
2
EPAD
10
-0.427000
20
0.935000
41
0.050000
42
0.050000
0
CIRCLE
8
0
10
-0.427000
20
0.935000
40
0.030000
0
INSERT
8
0
2
EPAD
10
-0.527000
20
0.935000
41
0.050000
42
0.050000
0
CIRCLE
8
0
10
-0.527000
20
0.935000
40
0.030000
0
INSERT
8
0
2
EPAD
10
-0.627000
20
0.935000
41
0.050000
42
0.050000
0
CIRCLE
8
0
10
-0.627000
20
0.935000
40
0.030000
0
INSERT
8
0
2
EPAD
10
-0.727000
20
0.935000
41
0.050000
42
0.050000
0
CIRCLE
8
0
10
-0.727000
20
0.935000
40
0.030000
0
INSERT
8
0
2
EPAD
10
-0.827000
20
0.935000
41
0.050000
42
0.050000
0
CIRCLE
8
0
10
-0.827000
20
0.935000
40
0.030000
0
INSERT
8
0
2
EPAD
10
-0.927000
20
0.935000
41
0.050000
42
0.050000
0
CIRCLE
8
0
10
-0.927000
20
0.935000
40
0.030000
0
INSERT
8
0
2
EPAD
10
-1.027000
20
0.935000
41
0.050000
42
0.050000
0
CIRCLE
8
0
10
-1.027000
20
0.935000
40
0.030000
0
INSERT
8
0
2
EPAD
10
-1.127000
20
0.935000
41
0.050000
42
0.050000
0
CIRCLE
8
0
10
-1.127000
20
0.935000
40
0.030000
0
INSERT
8
0
2
RPAD
10
1.658000
20
-1.316000
41
0.150000
42
0.150000
50
90.000000
0
CIRCLE
8
0
10
1.658000
20
-1.316000
40
0.030000
0
INSERT
8
0
2
RPAD
10
1.658000
20
-1.101000
41
0.150000
42
0.150000
50
90.000000
0
CIRCLE
8
0
10
1.658000
20
-1.101000
40
0.030000
0
INSERT
8
0
2
RPAD
10
1.658000
20
-0.886000
41
0.150000
42
0.150000
50
90.000000
0
CIRCLE
8
0
10
1.658000
20
-0.886000
40
0.030000
0
INSERT
8
0
2
EPAD
10
1.508000
20
-1.596000
41
0.150000
42
0.150000
0
CIRCLE
8
0
10
1.508000
20
-1.596000
40
0.030000
0
INSERT
8
0
2
EPAD
10
1.508000
20
-0.612000
41
0.150000
42
0.150000
0
CIRCLE
8
0
10
1.508000
20
-0.612000
40
0.030000
0
INSERT
8
0
2
RPAD
10
1.588000
20
-0.275000
41
0.080000
42
0.080000
50
0.000000
0
CIRCLE
8
0
10
1.588000
20
-0.275000
40
0.025000
0
INSERT
8
0
2
RPAD
10
1.788000
20
-0.275000
41
0.080000
42
0.080000
50
0.000000
0
CIRCLE
8
0
10
1.788000
20
-0.275000
40
0.025000
0
INSERT
8
0
2
RPAD
10
1.688000
20
-0.275000
41
0.080000
42
0.080000
50
0.000000
0
CIRCLE
8
0
10
1.688000
20
-0.275000
40
0.025000
0
INSERT
8
0
2
EPAD
10
1.829000
20
0.000000
41
0.120000
42
0.120000
0
CIRCLE
8
0
10
1.829000
20
0.000000
40
0.030000
0
INSERT
8
0
2
EPAD
10
1.829000
20
0.199000
41
0.120000
42
0.120000
0
CIRCLE
8
0
10
1.829000
20
0.199000
40
0.030000
0
INSERT
8
0
2
EPAD
10
1.893000
20
-1.668000
41
0.250000
42
0.250000
0
CIRCLE
8
0
10
1.893000
20
-1.668000
40
0.030000
0
INSERT
8
0
2
EPAD
10
1.829000
20
0.450000
41
0.120000
42
0.120000
0
CIRCLE
8
0
10
1.829000
20
0.450000
40
0.030000
0
INSERT
8
0
2
EPAD
10
1.829000
20
0.650000
41
0.120000
42
0.120000
0
CIRCLE
8
0
10
1.829000
20
0.650000
40
0.030000
0
INSERT
8
0
2
EPAD
10
0.407000
20
1.522000
41
0.080000
42
0.080000
0
CIRCLE
8
0
10
0.407000
20
1.522000
40
0.010000
0
INSERT
8
0
2
EPAD
10
0.307000
20
1.522000
41
0.080000
42
0.080000
0
CIRCLE
8
0
10
0.307000
20
1.522000
40
0.010000
0
INSERT
8
0
2
EPAD
10
0.207000
20
1.522000
41
0.080000
42
0.080000
0
CIRCLE
8
0
10
0.207000
20
1.522000
40
0.010000
0
INSERT
8
0
2
EPAD
10
0.107000
20
1.522000
41
0.080000
42
0.080000
0
CIRCLE
8
0
10
0.107000
20
1.522000
40
0.010000
0
INSERT
8
0
2
EPAD
10
0.007000
20
1.522000
41
0.080000
42
0.080000
0
CIRCLE
8
0
10
0.007000
20
1.522000
40
0.010000
0
INSERT
8
0
2
EPAD
10
-0.092000
20
1.522000
41
0.080000
42
0.080000
0
CIRCLE
8
0
10
-0.092000
20
1.522000
40
0.010000
0
INSERT
8
0
2
EPAD
10
-0.192000
20
1.522000
41
0.080000
42
0.080000
0
CIRCLE
8
0
10
-0.192000
20
1.522000
40
0.010000
0
INSERT
8
0
2
EPAD
10
-0.292000
20
1.522000
41
0.080000
42
0.080000
0
CIRCLE
8
0
10
-0.292000
20
1.522000
40
0.010000
0
INSERT
8
0
2
EPAD
10
-0.392000
20
1.522000
41
0.080000
42
0.080000
0
CIRCLE
8
0
10
-0.392000
20
1.522000
40
0.010000
0
INSERT
8
0
2
EPAD
10
-0.492000
20
1.522000
41
0.080000
42
0.080000
0
CIRCLE
8
0
10
-0.492000
20
1.522000
40
0.010000
0
INSERT
8
0
2
EPAD
10
-0.592000
20
1.522000
41
0.080000
42
0.080000
0
CIRCLE
8
0
10
-0.592000
20
1.522000
40
0.010000
0
INSERT
8
0
2
EPAD
10
-0.692000
20
1.522000
41
0.080000
42
0.080000
0
CIRCLE
8
0
10
-0.692000
20
1.522000
40
0.010000
0
INSERT
8
0
2
EPAD
10
-0.792000
20
1.522000
41
0.080000
42
0.080000
0
CIRCLE
8
0
10
-0.792000
20
1.522000
40
0.010000
0
INSERT
8
0
2
EPAD
10
-0.892000
20
1.522000
41
0.080000
42
0.080000
0
CIRCLE
8
0
10
-0.892000
20
1.522000
40
0.010000
0
INSERT
8
0
2
EPAD
10
-0.992000
20
1.522000
41
0.080000
42
0.080000
0
CIRCLE
8
0
10
-0.992000
20
1.522000
40
0.010000
0
INSERT
8
0
2
EPAD
10
-1.092000
20
1.522000
41
0.080000
42
0.080000
0
CIRCLE
8
0
10
-1.092000
20
1.522000
40
0.010000
0
INSERT
8
0
2
EPAD
10
-1.192000
20
1.522000
41
0.080000
42
0.080000
0
CIRCLE
8
0
10
-1.192000
20
1.522000
40
0.010000
0
INSERT
8
0
2
EPAD
10
-1.292000
20
1.522000
41
0.080000
42
0.080000
0
CIRCLE
8
0
10
-1.292000
20
1.522000
40
0.010000
0
INSERT
8
0
2
EPAD
10
-1.392000
20
1.522000
41
0.080000
42
0.080000
0
CIRCLE
8
0
10
-1.392000
20
1.522000
40
0.010000
0
INSERT
8
0
2
EPAD
10
-1.492000
20
1.522000
41
0.080000
42
0.080000
0
CIRCLE
8
0
10
-1.492000
20
1.522000
40
0.010000
0
INSERT
8
0
2
EPAD
10
-1.891000
20
-0.696000
41
0.120000
42
0.120000
0
CIRCLE
8
0
10
-1.891000
20
-0.696000
40
0.030000
0
INSERT
8
0
2
EPAD
10
-1.891000
20
-0.896000
41
0.120000
42
0.120000
0
CIRCLE
8
0
10
-1.891000
20
-0.896000
40
0.030000
0
INSERT
8
0
2
EPAD
10
-1.891000
20
-1.096000
41
0.120000
42
0.120000
0
CIRCLE
8
0
10
-1.891000
20
-1.096000
40
0.030000
0
INSERT
8
0
2
EPAD
10
-1.558000
20
-0.670000
41
0.070000
42
0.070000
0
CIRCLE
8
0
10
-1.558000
20
-0.670000
40
0.025000
0
INSERT
8
0
2
EPAD
10
-1.558000
20
-1.070000
41
0.070000
42
0.070000
0
CIRCLE
8
0
10
-1.558000
20
-1.070000
40
0.025000
0
INSERT
8
0
2
RPAD
10
-0.794000
20
-0.645000
41
0.050000
42
0.050000
50
180.000000
0
CIRCLE
8
0
10
-0.794000
20
-0.645000
40
0.030000
0
INSERT
8
0
2
EPAD
10
-0.894000
20
-0.645000
41
0.050000
42
0.050000
0
CIRCLE
8
0
10
-0.894000
20
-0.645000
40
0.030000
0
INSERT
8
0
2
EPAD
10
-0.994000
20
-0.645000
41
0.050000
42
0.050000
0
CIRCLE
8
0
10
-0.994000
20
-0.645000
40
0.030000
0
INSERT
8
0
2
EPAD
10
-1.094000
20
-0.645000
41
0.050000
42
0.050000
0
CIRCLE
8
0
10
-1.094000
20
-0.645000
40
0.030000
0
INSERT
8
0
2
EPAD
10
-1.194000
20
-0.645000
41
0.050000
42
0.050000
0
CIRCLE
8
0
10
-1.194000
20
-0.645000
40
0.030000
0
INSERT
8
0
2
EPAD
10
-1.294000
20
-0.645000
41
0.050000
42
0.050000
0
CIRCLE
8
0
10
-1.294000
20
-0.645000
40
0.030000
0
INSERT
8
0
2
EPAD
10
-1.394000
20
-0.645000
41
0.050000
42
0.050000
0
CIRCLE
8
0
10
-1.394000
20
-0.645000
40
0.030000
0
INSERT
8
0
2
EPAD
10
-1.394000
20
-0.945000
41
0.050000
42
0.050000
0
CIRCLE
8
0
10
-1.394000
20
-0.945000
40
0.030000
0
INSERT
8
0
2
EPAD
10
-1.294000
20
-0.945000
41
0.050000
42
0.050000
0
CIRCLE
8
0
10
-1.294000
20
-0.945000
40
0.030000
0
INSERT
8
0
2
EPAD
10
-1.194000
20
-0.945000
41
0.050000
42
0.050000
0
CIRCLE
8
0
10
-1.194000
20
-0.945000
40
0.030000
0
INSERT
8
0
2
EPAD
10
-1.094000
20
-0.945000
41
0.050000
42
0.050000
0
CIRCLE
8
0
10
-1.094000
20
-0.945000
40
0.030000
0
INSERT
8
0
2
EPAD
10
-0.994000
20
-0.945000
41
0.050000
42
0.050000
0
CIRCLE
8
0
10
-0.994000
20
-0.945000
40
0.030000
0
INSERT
8
0
2
EPAD
10
-0.894000
20
-0.945000
41
0.050000
42
0.050000
0
CIRCLE
8
0
10
-0.894000
20
-0.945000
40
0.030000
0
INSERT
8
0
2
EPAD
10
-0.794000
20
-0.945000
41
0.050000
42
0.050000
0
CIRCLE
8
0
10
-0.794000
20
-0.945000
40
0.030000
0
INSERT
8
0
2
EPAD
10
-0.626000
20
-0.650000
41
0.070000
42
0.070000
0
CIRCLE
8
0
10
-0.626000
20
-0.650000
40
0.025000
0
INSERT
8
0
2
EPAD
10
-0.626000
20
-1.050000
41
0.070000
42
0.070000
0
CIRCLE
8
0
10
-0.626000
20
-1.050000
40
0.025000
0
INSERT
8
0
2
EPAD
10
-0.155000
20
-0.815000
41
0.080000
42
0.080000
0
CIRCLE
8
0
10
-0.155000
20
-0.815000
40
0.025000
0
INSERT
8
0
2
EPAD
10
-0.355000
20
-0.815000
41
0.080000
42
0.080000
0
CIRCLE
8
0
10
-0.355000
20
-0.815000
40
0.025000
0
INSERT
8
0
2
EPAD
10
-0.255000
20
-1.036000
41
0.080000
42
0.080000
0
CIRCLE
8
0
10
-0.255000
20
-1.036000
40
0.025000
0
INSERT
8
0
2
EPAD
10
0.018000
20
0.504000
41
0.080000
42
0.080000
0
CIRCLE
8
0
10
0.018000
20
0.504000
40
0.025000
0
INSERT
8
0
2
EPAD
10
0.218000
20
0.504000
41
0.080000
42
0.080000
0
CIRCLE
8
0
10
0.218000
20
0.504000
40
0.025000
0
INSERT
8
0
2
EPAD
10
0.073000
20
0.229000
41
0.070000
42
0.070000
0
CIRCLE
8
0
10
0.073000
20
0.229000
40
0.025000
0
INSERT
8
0
2
EPAD
10
0.073000
20
0.129000
41
0.070000
42
0.070000
0
CIRCLE
8
0
10
0.073000
20
0.129000
40
0.025000
0
INSERT
8
0
2
EPAD
10
0.195000
20
0.229000
41
0.070000
42
0.070000
0
CIRCLE
8
0
10
0.195000
20
0.229000
40
0.025000
0
INSERT
8
0
2
EPAD
10
0.195000
20
0.129000
41
0.070000
42
0.070000
0
CIRCLE
8
0
10
0.195000
20
0.129000
40
0.025000
0
INSERT
8
0
2
RPAD
10
0.307000
20
-0.518000
41
0.080000
42
0.080000
50
-90.000000
0
CIRCLE
8
0
10
0.307000
20
-0.518000
40
0.025000
0
INSERT
8
0
2
RPAD
10
0.307000
20
-0.618000
41
0.080000
42
0.080000
50
-90.000000
0
CIRCLE
8
0
10
0.307000
20
-0.618000
40
0.025000
0
INSERT
8
0
2
RPAD
10
0.307000
20
-0.718000
41
0.080000
42
0.080000
50
-90.000000
0
CIRCLE
8
0
10
0.307000
20
-0.718000
40
0.025000
0
INSERT
8
0
2
EPAD
10
0.964000
20
-0.496000
41
0.080000
42
0.080000
0
CIRCLE
8
0
10
0.964000
20
-0.496000
40
0.025000
0
INSERT
8
0
2
EPAD
10
0.764000
20
-0.496000
41
0.080000
42
0.080000
0
CIRCLE
8
0
10
0.764000
20
-0.496000
40
0.025000
0
INSERT
8
0
2
EPAD
10
0.864000
20
-0.717000
41
0.080000
42
0.080000
0
CIRCLE
8
0
10
0.864000
20
-0.717000
40
0.025000
0
INSERT
8
0
2
EPAD
10
0.568000
20
-0.358000
41
0.070000
42
0.070000
0
CIRCLE
8
0
10
0.568000
20
-0.358000
40
0.025000
0
INSERT
8
0
2
EPAD
10
0.568000
20
-0.758000
41
0.070000
42
0.070000
0
CIRCLE
8
0
10
0.568000
20
-0.758000
40
0.025000
0
INSERT
8
0
2
EPAD
10
0.145000
20
-0.846000
41
0.080000
42
0.080000
0
CIRCLE
8
0
10
0.145000
20
-0.846000
40
0.025000
0
INSERT
8
0
2
EPAD
10
0.045000
20
-0.846000
41
0.080000
42
0.080000
0
CIRCLE
8
0
10
0.045000
20
-0.846000
40
0.025000
0
INSERT
8
0
2
EPAD
10
-1.284000
20
0.136000
41
0.070000
42
0.070000
0
CIRCLE
8
0
10
-1.284000
20
0.136000
40
0.025000
0
INSERT
8
0
2
EPAD
10
-1.284000
20
-0.263000
41
0.070000
42
0.070000
0
CIRCLE
8
0
10
-1.284000
20
-0.263000
40
0.025000
0
INSERT
8
0
2
EPAD
10
-0.539000
20
-0.094000
41
0.080000
42
0.080000
0
CIRCLE
8
0
10
-0.539000
20
-0.094000
40
0.010000
0
INSERT
8
0
2
EPAD
10
-0.439000
20
-0.094000
41
0.080000
42
0.080000
0
CIRCLE
8
0
10
-0.439000
20
-0.094000
40
0.010000
0
INSERT
8
0
2
EPAD
10
-0.339000
20
-0.094000
41
0.080000
42
0.080000
0
CIRCLE
8
0
10
-0.339000
20
-0.094000
40
0.010000
0
INSERT
8
0
2
EPAD
10
-0.239000
20
-0.094000
41
0.080000
42
0.080000
0
CIRCLE
8
0
10
-0.239000
20
-0.094000
40
0.010000
0
INSERT
8
0
2
EPAD
10
-0.139000
20
-0.094000
41
0.080000
42
0.080000
0
CIRCLE
8
0
10
-0.139000
20
-0.094000
40
0.010000
0
INSERT
8
0
2
EPAD
10
-0.039000
20
-0.094000
41
0.080000
42
0.080000
0
CIRCLE
8
0
10
-0.039000
20
-0.094000
40
0.010000
0
INSERT
8
0
2
EPAD
10
0.060000
20
-0.094000
41
0.080000
42
0.080000
0
CIRCLE
8
0
10
0.060000
20
-0.094000
40
0.010000
0
INSERT
8
0
2
EPAD
10
0.160000
20
-0.094000
41
0.080000
42
0.080000
0
CIRCLE
8
0
10
0.160000
20
-0.094000
40
0.010000
0
INSERT
8
0
2
EPAD
10
-0.476000
20
-0.260000
41
0.070000
42
0.070000
0
CIRCLE
8
0
10
-0.476000
20
-0.260000
40
0.025000
0
INSERT
8
0
2
EPAD
10
-0.476000
20
-0.660000
41
0.070000
42
0.070000
0
CIRCLE
8
0
10
-0.476000
20
-0.660000
40
0.025000
0
INSERT
8
0
2
EPAD
10
-0.346000
20
-0.262000
41
0.070000
42
0.070000
0
CIRCLE
8
0
10
-0.346000
20
-0.262000
40
0.025000
0
INSERT
8
0
2
EPAD
10
-0.346000
20
-0.662000
41
0.070000
42
0.070000
0
CIRCLE
8
0
10
-0.346000
20
-0.662000
40
0.025000
0
INSERT
8
0
2
EPAD
10
-0.229000
20
-0.262000
41
0.070000
42
0.070000
0
CIRCLE
8
0
10
-0.229000
20
-0.262000
40
0.025000
0
INSERT
8
0
2
EPAD
10
-0.229000
20
-0.662000
41
0.070000
42
0.070000
0
CIRCLE
8
0
10
-0.229000
20
-0.662000
40
0.025000
0
INSERT
8
0
2
EPAD
10
-0.110000
20
-0.260000
41
0.070000
42
0.070000
0
CIRCLE
8
0
10
-0.110000
20
-0.260000
40
0.025000
0
INSERT
8
0
2
EPAD
10
-0.110000
20
-0.660000
41
0.070000
42
0.070000
0
CIRCLE
8
0
10
-0.110000
20
-0.660000
40
0.025000
0
INSERT
8
0
2
EPAD
10
-1.759000
20
1.312000
41
0.080000
42
0.080000
0
CIRCLE
8
0
10
-1.759000
20
1.312000
40
0.025000
0
INSERT
8
0
2
EPAD
10
-1.959000
20
1.312000
41
0.080000
42
0.080000
0
CIRCLE
8
0
10
-1.959000
20
1.312000
40
0.025000
0
INSERT
8
0
2
EPAD
10
-1.859000
20
1.091000
41
0.080000
42
0.080000
0
CIRCLE
8
0
10
-1.859000
20
1.091000
40
0.025000
0
INSERT
8
0
2
EPAD
10
-1.894000
20
0.145000
41
0.120000
42
0.120000
0
CIRCLE
8
0
10
-1.894000
20
0.145000
40
0.030000
0
INSERT
8
0
2
EPAD
10
-1.894000
20
-0.054000
41
0.120000
42
0.120000
0
CIRCLE
8
0
10
-1.894000
20
-0.054000
40
0.030000
0
INSERT
8
0
2
EPAD
10
-1.894000
20
-0.254000
41
0.120000
42
0.120000
0
CIRCLE
8
0
10
-1.894000
20
-0.254000
40
0.030000
0
INSERT
8
0
2
EPAD
10
-1.894000
20
-0.454000
41
0.120000
42
0.120000
0
CIRCLE
8
0
10
-1.894000
20
-0.454000
40
0.030000
0
INSERT
8
0
2
EPAD
10
1.052000
20
1.617000
41
0.120000
42
0.120000
0
CIRCLE
8
0
10
1.052000
20
1.617000
40
0.030000
0
INSERT
8
0
2
EPAD
10
0.852000
20
1.617000
41
0.120000
42
0.120000
0
CIRCLE
8
0
10
0.852000
20
1.617000
40
0.030000
0
INSERT
8
0
2
EPAD
10
-1.853000
20
0.483000
41
0.120000
42
0.120000
0
CIRCLE
8
0
10
-1.853000
20
0.483000
40
0.030000
0
INSERT
8
0
2
EPAD
10
-1.853000
20
0.683000
41
0.120000
42
0.120000
0
CIRCLE
8
0
10
-1.853000
20
0.683000
40
0.030000
0
INSERT
8
0
2
EPAD
10
0.369000
20
0.500000
41
0.070000
42
0.070000
0
CIRCLE
8
0
10
0.369000
20
0.500000
40
0.025000
0
INSERT
8
0
2
EPAD
10
0.569000
20
0.500000
41
0.070000
42
0.070000
0
CIRCLE
8
0
10
0.569000
20
0.500000
40
0.025000
0
INSERT
8
0
2
EPAD
10
-1.108000
20
-0.257000
41
0.070000
42
0.070000
0
CIRCLE
8
0
10
-1.108000
20
-0.257000
40
0.025000
0
INSERT
8
0
2
EPAD
10
-1.108000
20
0.142000
41
0.070000
42
0.070000
0
CIRCLE
8
0
10
-1.108000
20
0.142000
40
0.025000
0
INSERT
8
0
2
EPAD
10
-1.019000
20
-0.258000
41
0.070000
42
0.070000
0
CIRCLE
8
0
10
-1.019000
20
-0.258000
40
0.025000
0
INSERT
8
0
2
EPAD
10
-1.019000
20
0.141000
41
0.070000
42
0.070000
0
CIRCLE
8
0
10
-1.019000
20
0.141000
40
0.025000
0
INSERT
8
0
2
EPAD
10
-0.893000
20
0.140000
41
0.070000
42
0.070000
0
CIRCLE
8
0
10
-0.893000
20
0.140000
40
0.025000
0
INSERT
8
0
2
EPAD
10
-0.893000
20
-0.259000
41
0.070000
42
0.070000
0
CIRCLE
8
0
10
-0.893000
20
-0.259000
40
0.025000
0
INSERT
8
0
2
EPAD
10
-0.780000
20
0.142000
41
0.070000
42
0.070000
0
CIRCLE
8
0
10
-0.780000
20
0.142000
40
0.025000
0
INSERT
8
0
2
EPAD
10
-0.780000
20
-0.257000
41
0.070000
42
0.070000
0
CIRCLE
8
0
10
-0.780000
20
-0.257000
40
0.025000
0
INSERT
8
0
2
EPAD
10
0.632000
20
-0.201000
41
0.070000
42
0.070000
0
CIRCLE
8
0
10
0.632000
20
-0.201000
40
0.025000
0
INSERT
8
0
2
EPAD
10
1.032000
20
-0.201000
41
0.070000
42
0.070000
0
CIRCLE
8
0
10
1.032000
20
-0.201000
40
0.025000
0
INSERT
8
0
2
EPAD
10
0.625000
20
-0.080000
41
0.070000
42
0.070000
0
CIRCLE
8
0
10
0.625000
20
-0.080000
40
0.025000
0
INSERT
8
0
2
EPAD
10
1.025000
20
-0.080000
41
0.070000
42
0.070000
0
CIRCLE
8
0
10
1.025000
20
-0.080000
40
0.025000
0
INSERT
8
0
2
EPAD
10
-1.584000
20
-0.478000
41
0.070000
42
0.070000
0
CIRCLE
8
0
10
-1.584000
20
-0.478000
40
0.025000
0
INSERT
8
0
2
EPAD
10
-1.184000
20
-0.478000
41
0.070000
42
0.070000
0
CIRCLE
8
0
10
-1.184000
20
-0.478000
40
0.025000
0
INSERT
8
0
2
RPAD
10
-1.076000
20
-0.454000
41
0.080000
42
0.080000
50
0.000000
0
CIRCLE
8
0
10
-1.076000
20
-0.454000
40
0.025000
0
INSERT
8
0
2
RPAD
10
-0.976000
20
-0.454000
41
0.080000
42
0.080000
50
0.000000
0
CIRCLE
8
0
10
-0.976000
20
-0.454000
40
0.025000
0
INSERT
8
0
2
EPAD
10
1.251000
20
0.307000
41
0.070000
42
0.070000
0
CIRCLE
8
0
10
1.251000
20
0.307000
40
0.025000
0
INSERT
8
0
2
EPAD
10
1.251000
20
-0.092000
41
0.070000
42
0.070000
0
CIRCLE
8
0
10
1.251000
20
-0.092000
40
0.025000
0
INSERT
8
0
2
EPAD
10
1.385000
20
-0.092000
41
0.070000
42
0.070000
0
CIRCLE
8
0
10
1.385000
20
-0.092000
40
0.025000
0
INSERT
8
0
2
EPAD
10
1.385000
20
0.307000
41
0.070000
42
0.070000
0
CIRCLE
8
0
10
1.385000
20
0.307000
40
0.025000
0
INSERT
8
0
2
EPAD
10
1.234000
20
0.500000
41
0.060000
42
0.060000
0
CIRCLE
8
0
10
1.234000
20
0.500000
40
0.025000
0
INSERT
8
0
2
EPAD
10
1.314000
20
0.500000
41
0.060000
42
0.060000
0
CIRCLE
8
0
10
1.314000
20
0.500000
40
0.025000
0
INSERT
8
0
2
EPAD
10
1.394000
20
0.500000
41
0.060000
42
0.060000
0
CIRCLE
8
0
10
1.394000
20
0.500000
40
0.025000
0
INSERT
8
0
2
EPAD
10
1.230000
20
0.748000
41
0.060000
42
0.060000
0
CIRCLE
8
0
10
1.230000
20
0.748000
40
0.025000
0
INSERT
8
0
2
EPAD
10
1.310000
20
0.748000
41
0.060000
42
0.060000
0
CIRCLE
8
0
10
1.310000
20
0.748000
40
0.025000
0
INSERT
8
0
2
EPAD
10
1.390000
20
0.748000
41
0.060000
42
0.060000
0
CIRCLE
8
0
10
1.390000
20
0.748000
40
0.025000
0
INSERT
8
0
2
EPAD
10
1.491000
20
0.985000
41
0.070000
42
0.070000
0
CIRCLE
8
0
10
1.491000
20
0.985000
40
0.025000
0
INSERT
8
0
2
EPAD
10
1.891000
20
0.985000
41
0.070000
42
0.070000
0
CIRCLE
8
0
10
1.891000
20
0.985000
40
0.025000
0
INSERT
8
0
2
EPAD
10
1.491000
20
1.166000
41
0.070000
42
0.070000
0
CIRCLE
8
0
10
1.491000
20
1.166000
40
0.025000
0
INSERT
8
0
2
EPAD
10
1.891000
20
1.166000
41
0.070000
42
0.070000
0
CIRCLE
8
0
10
1.891000
20
1.166000
40
0.025000
0
INSERT
8
0
2
RPAD
10
1.369000
20
1.598000
41
0.050000
42
0.050000
50
-90.000000
0
CIRCLE
8
0
10
1.369000
20
1.598000
40
0.030000
0
INSERT
8
0
2
EPAD
10
1.369000
20
1.498000
41
0.050000
42
0.050000
0
CIRCLE
8
0
10
1.369000
20
1.498000
40
0.030000
0
INSERT
8
0
2
EPAD
10
1.369000
20
1.398000
41
0.050000
42
0.050000
0
CIRCLE
8
0
10
1.369000
20
1.398000
40
0.030000
0
INSERT
8
0
2
EPAD
10
1.669000
20
1.398000
41
0.050000
42
0.050000
0
CIRCLE
8
0
10
1.669000
20
1.398000
40
0.030000
0
INSERT
8
0
2
EPAD
10
1.669000
20
1.498000
41
0.050000
42
0.050000
0
CIRCLE
8
0
10
1.669000
20
1.498000
40
0.030000
0
INSERT
8
0
2
EPAD
10
1.669000
20
1.598000
41
0.050000
42
0.050000
0
CIRCLE
8
0
10
1.669000
20
1.598000
40
0.030000
0
INSERT
8
0
2
EPAD
10
1.007000
20
1.161000
41
0.070000
42
0.070000
0
CIRCLE
8
0
10
1.007000
20
1.161000
40
0.025000
0
INSERT
8
0
2
EPAD
10
1.407000
20
1.161000
41
0.070000
42
0.070000
0
CIRCLE
8
0
10
1.407000
20
1.161000
40
0.025000
0
INSERT
8
0
2
EPAD
10
-1.968000
20
1.689000
41
0.250000
42
0.250000
0
CIRCLE
8
0
10
-1.968000
20
1.689000
40
0.030000
0
INSERT
8
0
2
EPAD
10
1.912000
20
1.689000
41
0.250000
42
0.250000
0
CIRCLE
8
0
10
1.912000
20
1.689000
40
0.030000
0
INSERT
8
0
2
EPAD
10
0.175000
20
1.107000
41
0.080000
42
0.080000
0
CIRCLE
8
0
10
0.175000
20
1.107000
40
0.010000
0
INSERT
8
0
2
EPAD
10
0.275000
20
1.107000
41
0.080000
42
0.080000
0
CIRCLE
8
0
10
0.275000
20
1.107000
40
0.010000
0
INSERT
8
0
2
EPAD
10
0.375000
20
1.107000
41
0.080000
42
0.080000
0
CIRCLE
8
0
10
0.375000
20
1.107000
40
0.010000
0
POLYLINE
8
0
66
1
40
0.008000
41
0.008000
0
VERTEX
8
0
10
-2.126000
20
-1.834000
0
VERTEX
8
0
10
2.129000
20
-1.834000
0
VERTEX
8
0
10
2.129000
20
1.842000
0
VERTEX
8
0
10
-2.126000
20
1.842000
0
VERTEX
8
0
10
-2.126000
20
-1.834000
0
SEQEND
8
0
0
CIRCLE
8
12632256
10
-1.046000
20
-1.540000
40
0.213000
0
POLYLINE
8
0
66
1
40
0.008000
41
0.008000
0
VERTEX
8
0
10
-1.126000
20
-1.350000
0
VERTEX
8
0
10
-1.126000
20
-1.390000
0
SEQEND
8
0
0
POLYLINE
8
0
66
1
40
0.008000
41
0.008000
0
VERTEX
8
0
10
-1.146000
20
-1.370000
0
VERTEX
8
0
10
-1.106000
20
-1.370000
0
SEQEND
8
0
0
TEXT
8
12632256
10
-1.121000
20
-1.317000
40
0.048000
41
1.041667
1
BR1
0
POLYLINE
8
0
66
1
40
0.008000
41
0.008000
0
VERTEX
8
0
10
-1.746000
20
-1.342000
0
VERTEX
8
0
10
-1.746000
20
-1.742000
0
SEQEND
8
0
0
POLYLINE
8
0
66
1
40
0.008000
41
0.008000
0
VERTEX
8
0
10
-1.346000
20
-1.342000
0
VERTEX
8
0
10
-1.346000
20
-1.742000
0
SEQEND
8
0
0
POLYLINE
8
0
66
1
40
0.008000
41
0.008000
0
VERTEX
8
0
10
-1.746000
20
-1.742000
0
VERTEX
8
0
10
-1.346000
20
-1.742000
0
SEQEND
8
0
0
POLYLINE
8
0
66
1
40
0.008000
41
0.008000
0
VERTEX
8
0
10
-1.746000
20
-1.342000
0
VERTEX
8
0
10
-1.346000
20
-1.342000
0
SEQEND
8
0
0
TEXT
8
12632256
10
-1.621000
20
-1.805000
40
0.048000
41
1.041667
1
J16
0
CIRCLE
8
12632256
10
-0.589000
20
-1.527000
40
0.200000
0
POLYLINE
8
0
66
1
40
0.008000
41
0.008000
0
VERTEX
8
0
10
-0.714000
20
-1.427000
0
VERTEX
8
0
10
-0.664000
20
-1.427000
0
SEQEND
8
0
0
POLYLINE
8
0
66
1
40
0.008000
41
0.008000
0
VERTEX
8
0
10
-0.689000
20
-1.402000
0
VERTEX
8
0
10
-0.689000
20
-1.452000
0
SEQEND
8
0
0
TEXT
8
12632256
10
-0.639000
20
-1.317000
40
0.048000
41
1.041667
1
C4
0
POLYLINE
8
0
66
1
40
0.008000
41
0.008000
0
VERTEX
8
0
10
-0.377000
20
-1.189000
0
VERTEX
8
0
10
-0.327000
20
-1.189000
0
SEQEND
8
0
0
POLYLINE
8
0
66
1
40
0.008000
41
0.008000
0
VERTEX
8
0
10
-0.327000
20
-1.214000
0
VERTEX
8
0
10
-0.127000
20
-1.214000
0
VERTEX
8
0
10
-0.127000
20
-1.164000
0
VERTEX
8
0
10
-0.327000
20
-1.164000
0
VERTEX
8
0
10
-0.327000
20
-1.214000
0
SEQEND
8
0
0
POLYLINE
8
0
66
1
40
0.008000
41
0.008000
0
VERTEX
8
0
10
-0.127000
20
-1.189000
0
VERTEX
8
0
10
-0.077000
20
-1.189000
0
SEQEND
8
0
0
TEXT
8
12632256
10
-0.318000
20
-1.285000
40
0.048000
41
1.041667
1
R60
0
POLYLINE
8
0
66
1
40
0.008000
41
0.008000
0
VERTEX
8
0
10
0.227000
20
-1.715000
0
VERTEX
8
0
10
0.527000
20
-1.715000
0
VERTEX
8
0
10
0.527000
20
-1.615000
0
VERTEX
8
0
10
0.227000
20
-1.615000
0
VERTEX
8
0
10
0.227000
20
-1.715000
0
SEQEND
8
0
0
POLYLINE
8
0
66
1
40
0.008000
41
0.008000
0
VERTEX
8
0
10
0.227000
20
-1.615000
0
VERTEX
8
0
10
0.227000
20
-1.565000
0
VERTEX
8
0
10
0.527000
20
-1.565000
0
VERTEX
8
0
10
0.527000
20
-1.615000
0
SEQEND
8
0
0
POLYLINE
8
0
66
1
40
0.008000
41
0.008000
0
VERTEX
8
0
10
0.227000
20
-1.615000
0
VERTEX
8
0
10
0.277000
20
-1.565000
0
SEQEND
8
0
0
POLYLINE
8
0
66
1
40
0.008000
41
0.008000
0
VERTEX
8
0
10
0.277000
20
-1.615000
0
VERTEX
8
0
10
0.327000
20
-1.565000
0
SEQEND
8
0
0
POLYLINE
8
0
66
1
40
0.008000
41
0.008000
0
VERTEX
8
0
10
0.327000
20
-1.615000
0
VERTEX
8
0
10
0.377000
20
-1.565000
0
SEQEND
8
0
0
POLYLINE
8
0
66
1
40
0.008000
41
0.008000
0
VERTEX
8
0
10
0.377000
20
-1.615000
0
VERTEX
8
0
10
0.427000
20
-1.565000
0
SEQEND
8
0
0
POLYLINE
8
0
66
1
40
0.008000
41
0.008000
0
VERTEX
8
0
10
0.427000
20
-1.615000
0
VERTEX
8
0
10
0.477000
20
-1.565000
0
SEQEND
8
0
0
POLYLINE
8
0
66
1
40
0.008000
41
0.008000
0
VERTEX
8
0
10
0.477000
20
-1.615000
0
VERTEX
8
0
10
0.527000
20
-1.565000
0
SEQEND
8
0
0
TEXT
8
12632256
10
0.302000
20
-1.555000
40
0.048000
41
1.041667
1
U30
0
POLYLINE
8
0
66
1
40
0.008000
41
0.008000
0
VERTEX
8
0
10
-0.311000
20
-1.787000
0
VERTEX
8
0
10
1.066000
20
-1.787000
0
VERTEX
8
0
10
1.066000
20
-1.298000
0
VERTEX
8
0
10
-0.311000
20
-1.298000
0
VERTEX
8
0
10
-0.311000
20
-1.787000
0
SEQEND
8
0
0
POLYLINE
8
0
66
1
40
0.008000
41
0.008000
0
VERTEX
8
0
10
0.641000
20
-1.234000
0
VERTEX
8
0
10
0.845000
20
-1.234000
0
VERTEX
8
0
10
0.845000
20
-1.129000
0
VERTEX
8
0
10
0.641000
20
-1.129000
0
VERTEX
8
0
10
0.641000
20
-1.234000
0
SEQEND
8
0
0
POLYLINE
8
0
66
1
40
0.008000
41
0.008000
0
VERTEX
8
0
10
0.673000
20
-1.130000
0
VERTEX
8
0
10
0.673000
20
-1.233000
0
SEQEND
8
0
0
POLYLINE
8
0
66
1
40
0.008000
41
0.008000
0
VERTEX
8
0
10
0.613000
20
-1.182000
0
VERTEX
8
0
10
0.641000
20
-1.182000
0
SEQEND
8
0
0
POLYLINE
8
0
66
1
40
0.008000
41
0.008000
0
VERTEX
8
0
10
0.845000
20
-1.182000
0
VERTEX
8
0
10
0.873000
20
-1.182000
0
SEQEND
8
0
0
TEXT
8
12632256
10
0.693000
20
-1.119000
40
0.048000
41
1.041667
1
D1
0
CIRCLE
8
12632256
10
0.790000
20
-0.958000
40
0.100000
0
POLYLINE
8
0
66
1
40
0.008000
41
0.008000
0
VERTEX
8
0
10
0.865000
20
-1.008000
0
VERTEX
8
0
10
0.815000
20
-1.008000
0
SEQEND
8
0
0
POLYLINE
8
0
66
1
40
0.008000
41
0.008000
0
VERTEX
8
0
10
0.840000
20
-1.033000
0
VERTEX
8
0
10
0.840000
20
-0.983000
0
SEQEND
8
0
0
TEXT
8
12632256
10
0.740000
20
-1.116000
40
0.048000
41
1.041667
1
C5
0
POLYLINE
8
0
66
1
40
0.008000
41
0.008000
0
VERTEX
8
0
10
0.328000
20
-0.970000
0
VERTEX
8
0
10
0.331000
20
-0.960000
0
VERTEX
8
0
10
0.339000
20
-0.950000
0
VERTEX
8
0
10
0.353000
20
-0.942000
0
VERTEX
8
0
10
0.371000
20
-0.934000
0
VERTEX
8
0
10
0.393000
20
-0.928000
0
VERTEX
8
0
10
0.419000
20
-0.924000
0
VERTEX
8
0
10
0.447000
20
-0.921000
0
VERTEX
8
0
10
0.478000
20
-0.920000
0
SEQEND
8
0
0
POLYLINE
8
0
66
1
40
0.008000
41
0.008000
0
VERTEX
8
0
10
0.628000
20
-0.970000
0
VERTEX
8
0
10
0.625000
20
-0.960000
0
VERTEX
8
0
10
0.616000
20
-0.950000
0
VERTEX
8
0
10
0.602000
20
-0.942000
0
VERTEX
8
0
10
0.584000
20
-0.934000
0
VERTEX
8
0
10
0.562000
20
-0.928000
0
VERTEX
8
0
10
0.537000
20
-0.924000
0
VERTEX
8
0
10
0.509000
20
-0.921000
0
VERTEX
8
0
10
0.478000
20
-0.920000
0
SEQEND
8
0
0
POLYLINE
8
0
66
1
40
0.008000
41
0.008000
0
VERTEX
8
0
10
0.628000
20
-0.970000
0
VERTEX
8
0
10
0.625000
20
-0.980000
0
VERTEX
8
0
10
0.616000
20
-0.990000
0
VERTEX
8
0
10
0.602000
20
-0.998000
0
VERTEX
8
0
10
0.584000
20
-1.006000
0
VERTEX
8
0
10
0.562000
20
-1.012000
0
VERTEX
8
0
10
0.537000
20
-1.016000
0
VERTEX
8
0
10
0.509000
20
-1.019000
0
VERTEX
8
0
10
0.478000
20
-1.020000
0
SEQEND
8
0
0
POLYLINE
8
0
66
1
40
0.008000
41
0.008000
0
VERTEX
8
0
10
0.328000
20
-0.970000
0
VERTEX
8
0
10
0.331000
20
-0.980000
0
VERTEX
8
0
10
0.339000
20
-0.990000
0
VERTEX
8
0
10
0.353000
20
-0.998000
0
VERTEX
8
0
10
0.371000
20
-1.006000
0
VERTEX
8
0
10
0.393000
20
-1.012000
0
VERTEX
8
0
10
0.419000
20
-1.016000
0
VERTEX
8
0
10
0.447000
20
-1.019000
0
VERTEX
8
0
10
0.478000
20
-1.020000
0
SEQEND
8
0
0
TEXT
8
12632256
10
0.428000
20
-0.910000
40
0.048000
41
1.041667
1
C6
0
POLYLINE
8
0
66
1
40
0.008000
41
0.008000
0
VERTEX
8
0
10
-1.077000
20
0.635000
0
VERTEX
8
0
10
-1.079000
20
0.655000
0
VERTEX
8
0
10
-1.085000
20
0.674000
0
VERTEX
8
0
10
-1.094000
20
0.691000
0
VERTEX
8
0
10
-1.106000
20
0.706000
0
VERTEX
8
0
10
-1.121000
20
0.718000
0
VERTEX
8
0
10
-1.138000
20
0.727000
0
VERTEX
8
0
10
-1.157000
20
0.733000
0
VERTEX
8
0
10
-1.177000
20
0.735000
0
SEQEND
8
0
0
POLYLINE
8
0
66
1
40
0.008000
41
0.008000
0
VERTEX
8
0
10
-1.077000
20
0.635000
0
VERTEX
8
0
10
-1.079000
20
0.614000
0
VERTEX
8
0
10
-1.085000
20
0.595000
0
VERTEX
8
0
10
-1.094000
20
0.578000
0
VERTEX
8
0
10
-1.106000
20
0.564000
0
VERTEX
8
0
10
-1.121000
20
0.552000
0
VERTEX
8
0
10
-1.138000
20
0.543000
0
VERTEX
8
0
10
-1.157000
20
0.537000
0
VERTEX
8
0
10
-1.177000
20
0.535000
0
SEQEND
8
0
0
POLYLINE
8
0
66
1
40
0.008000
41
0.008000
0
VERTEX
8
0
10
-1.177000
20
0.735000
0
VERTEX
8
0
10
-1.177000
20
0.885000
0
SEQEND
8
0
0
POLYLINE
8
0
66
1
40
0.008000
41
0.008000
0
VERTEX
8
0
10
0.822000
20
0.885000
0
VERTEX
8
0
10
0.822000
20
0.385000
0
SEQEND
8
0
0
POLYLINE
8
0
66
1
40
0.008000
41
0.008000
0
VERTEX
8
0
10
-1.177000
20
0.385000
0
VERTEX
8
0
10
-1.177000
20
0.535000
0
SEQEND
8
0
0
POLYLINE
8
0
66
1
40
0.008000
41
0.008000
0
VERTEX
8
0
10
-1.177000
20
0.885000
0
VERTEX
8
0
10
0.822000
20
0.885000
0
SEQEND
8
0
0
POLYLINE
8
0
66
1
40
0.008000
41
0.008000
0
VERTEX
8
0
10
-1.177000
20
0.385000
0
VERTEX
8
0
10
0.822000
20
0.385000
0
SEQEND
8
0
0
TEXT
8
12632256
10
-1.187000
20
0.585000
40
0.048000
41
1.041667
50
90.000000
1
U1
0
POLYLINE
8
0
66
1
40
0.008000
41
0.008000
0
VERTEX
8
0
10
1.558000
20
-1.400000
0
VERTEX
8
0
10
1.558000
20
-0.800000
0
SEQEND
8
0
0
POLYLINE
8
0
66
1
40
0.008000
41
0.008000
0
VERTEX
8
0
10
1.758000
20
-0.800000
0
VERTEX
8
0
10
1.758000
20
-1.400000
0
SEQEND
8
0
0
POLYLINE
8
0
66
1
40
0.008000
41
0.008000
0
VERTEX
8
0
10
1.758000
20
-0.800000
0
VERTEX
8
0
10
1.658000
20
-0.790000
0
VERTEX
8
0
10
1.558000
20
-0.800000
0
SEQEND
8
0
0
POLYLINE
8
0
66
1
40
0.008000
41
0.008000
0
VERTEX
8
0
10
1.758000
20
-1.400000
0
VERTEX
8
0
10
1.658000
20
-1.410000
0
VERTEX
8
0
10
1.558000
20
-1.400000
0
SEQEND
8
0
0
POLYLINE
8
0
66
1
40
0.008000
41
0.008000
0
VERTEX
8
0
10
1.573000
20
-1.400000
0
VERTEX
8
0
10
1.573000
20
-0.800000
0
SEQEND
8
0
0
POLYLINE
8
0
66
1
40
0.008000
41
0.008000
0
VERTEX
8
0
10
1.573000
20
-1.355000
0
VERTEX
8
0
10
1.558000
20
-1.340000
0
SEQEND
8
0
0
POLYLINE
8
0
66
1
40
0.008000
41
0.008000
0
VERTEX
8
0
10
1.573000
20
-1.305000
0
VERTEX
8
0
10
1.558000
20
-1.290000
0
SEQEND
8
0
0
POLYLINE
8
0
66
1
40
0.008000
41
0.008000
0
VERTEX
8
0
10
1.573000
20
-1.305000
0
VERTEX
8
0
10
1.558000
20
-1.290000
0
SEQEND
8
0
0
POLYLINE
8
0
66
1
40
0.008000
41
0.008000
0
VERTEX
8
0
10
1.573000
20
-1.255000
0
VERTEX
8
0
10
1.558000
20
-1.240000
0
SEQEND
8
0
0
POLYLINE
8
0
66
1
40
0.008000
41
0.008000
0
VERTEX
8
0
10
1.573000
20
-1.255000
0
VERTEX
8
0
10
1.558000
20
-1.240000
0
SEQEND
8
0
0
POLYLINE
8
0
66
1
40
0.008000
41
0.008000
0
VERTEX
8
0
10
1.573000
20
-1.205000
0
VERTEX
8
0
10
1.558000
20
-1.190000
0
SEQEND
8
0
0
POLYLINE
8
0
66
1
40
0.008000
41
0.008000
0
VERTEX
8
0
10
1.573000
20
-1.205000
0
VERTEX
8
0
10
1.558000
20
-1.190000
0
SEQEND
8
0
0
POLYLINE
8
0
66
1
40
0.008000
41
0.008000
0
VERTEX
8
0
10
1.573000
20
-1.155000
0
VERTEX
8
0
10
1.558000
20
-1.140000
0
SEQEND
8
0
0
POLYLINE
8
0
66
1
40
0.008000
41
0.008000
0
VERTEX
8
0
10
1.573000
20
-1.155000
0
VERTEX
8
0
10
1.558000
20
-1.140000
0
SEQEND
8
0
0
POLYLINE
8
0
66
1
40
0.008000
41
0.008000
0
VERTEX
8
0
10
1.573000
20
-1.105000
0
VERTEX
8
0
10
1.558000
20
-1.090000
0
SEQEND
8
0
0
POLYLINE
8
0
66
1
40
0.008000
41
0.008000
0
VERTEX
8
0
10
1.573000
20
-1.105000
0
VERTEX
8
0
10
1.558000
20
-1.090000
0
SEQEND
8
0
0
POLYLINE
8
0
66
1
40
0.008000
41
0.008000
0
VERTEX
8
0
10
1.573000
20
-1.055000
0
VERTEX
8
0
10
1.558000
20
-1.040000
0
SEQEND
8
0
0
POLYLINE
8
0
66
1
40
0.008000
41
0.008000
0
VERTEX
8
0
10
1.573000
20
-1.055000
0
VERTEX
8
0
10
1.558000
20
-1.040000
0
SEQEND
8
0
0
POLYLINE
8
0
66
1
40
0.008000
41
0.008000
0
VERTEX
8
0
10
1.573000
20
-1.005000
0
VERTEX
8
0
10
1.558000
20
-0.990000
0
SEQEND
8
0
0
POLYLINE
8
0
66
1
40
0.008000
41
0.008000
0
VERTEX
8
0
10
1.573000
20
-1.005000
0
VERTEX
8
0
10
1.558000
20
-0.990000
0
SEQEND
8
0
0
POLYLINE
8
0
66
1
40
0.008000
41
0.008000
0
VERTEX
8
0
10
1.573000
20
-0.955000
0
VERTEX
8
0
10
1.558000
20
-0.940000
0
SEQEND
8
0
0
POLYLINE
8
0
66
1
40
0.008000
41
0.008000
0
VERTEX
8
0
10
1.573000
20
-0.955000
0
VERTEX
8
0
10
1.558000
20
-0.940000
0
SEQEND
8
0
0
POLYLINE
8
0
66
1
40
0.008000
41
0.008000
0
VERTEX
8
0
10
1.573000
20
-0.905000
0
VERTEX
8
0
10
1.558000
20
-0.890000
0
SEQEND
8
0
0
POLYLINE
8
0
66
1
40
0.008000
41
0.008000
0
VERTEX
8
0
10
1.573000
20
-0.905000
0
VERTEX
8
0
10
1.558000
20
-0.890000
0
SEQEND
8
0
0
POLYLINE
8
0
66
1
40
0.008000
41
0.008000
0
VERTEX
8
0
10
1.573000
20
-0.855000
0
VERTEX
8
0
10
1.558000
20
-0.840000
0
SEQEND
8
0
0
TEXT
8
12632256
10
1.548000
20
-1.150000
40
0.048000
41
1.041667
50
90.000000
1
Q3
0
POLYLINE
8
0
66
1
40
0.008000
41
0.008000
0
VERTEX
8
0
10
1.264000
20
-1.789000
0
VERTEX
8
0
10
1.752000
20
-1.789000
0
VERTEX
8
0
10
1.752000
20
-0.411000
0
VERTEX
8
0
10
1.264000
20
-0.411000
0
VERTEX
8
0
10
1.264000
20
-1.789000
0
SEQEND
8
0
0
POLYLINE
8
0
66
1
40
0.008000
41
0.008000
0
VERTEX
8
0
10
1.538000
20
-0.325000
0
VERTEX
8
0
10
1.838000
20
-0.325000
0
VERTEX
8
0
10
1.838000
20
-0.225000
0
VERTEX
8
0
10
1.538000
20
-0.225000
0
VERTEX
8
0
10
1.538000
20
-0.325000
0
SEQEND
8
0
0
POLYLINE
8
0
66
1
40
0.008000
41
0.008000
0
VERTEX
8
0
10
1.538000
20
-0.225000
0
VERTEX
8
0
10
1.538000
20
-0.175000
0
VERTEX
8
0
10
1.838000
20
-0.175000
0
VERTEX
8
0
10
1.838000
20
-0.225000
0
SEQEND
8
0
0
POLYLINE
8
0
66
1
40
0.008000
41
0.008000
0
VERTEX
8
0
10
1.538000
20
-0.225000
0
VERTEX
8
0
10
1.588000
20
-0.175000
0
SEQEND
8
0
0
POLYLINE
8
0
66
1
40
0.008000
41
0.008000
0
VERTEX
8
0
10
1.588000
20
-0.225000
0
VERTEX
8
0
10
1.638000
20
-0.175000
0
SEQEND
8
0
0
POLYLINE
8
0
66
1
40
0.008000
41
0.008000
0
VERTEX
8
0
10
1.638000
20
-0.225000
0
VERTEX
8
0
10
1.688000
20
-0.175000
0
SEQEND
8
0
0
POLYLINE
8
0
66
1
40
0.008000
41
0.008000
0
VERTEX
8
0
10
1.688000
20
-0.225000
0
VERTEX
8
0
10
1.738000
20
-0.175000
0
SEQEND
8
0
0
POLYLINE
8
0
66
1
40
0.008000
41
0.008000
0
VERTEX
8
0
10
1.738000
20
-0.225000
0
VERTEX
8
0
10
1.788000
20
-0.175000
0
SEQEND
8
0
0
POLYLINE
8
0
66
1
40
0.008000
41
0.008000
0
VERTEX
8
0
10
1.788000
20
-0.225000
0
VERTEX
8
0
10
1.838000
20
-0.175000
0
SEQEND
8
0
0
TEXT
8
12632256
10
1.613000
20
-0.165000
40
0.048000
41
1.041667
1
D13
0
POLYLINE
8
0
66
1
40
0.008000
41
0.008000
0
VERTEX
8
0
10
1.629000
20
-0.100000
0
VERTEX
8
0
10
2.029000
20
-0.100000
0
SEQEND
8
0
0
POLYLINE
8
0
66
1
40
0.008000
41
0.008000
0
VERTEX
8
0
10
1.629000
20
0.299000
0
VERTEX
8
0
10
2.029000
20
0.299000
0
SEQEND
8
0
0
POLYLINE
8
0
66
1
40
0.008000
41
0.008000
0
VERTEX
8
0
10
2.029000
20
-0.100000
0
VERTEX
8
0
10
2.029000
20
0.299000
0
SEQEND
8
0
0
POLYLINE
8
0
66
1
40
0.008000
41
0.008000
0
VERTEX
8
0
10
1.629000
20
-0.100000
0
VERTEX
8
0
10
1.629000
20
0.299000
0
SEQEND
8
0
0
TEXT
8
12632256
10
2.108000
20
0.023000
40
0.048000
41
1.041667
50
90.000000
1
J1
0
POLYLINE
8
0
66
1
40
0.008000
41
0.008000
0
VERTEX
8
0
10
1.629000
20
0.350000
0
VERTEX
8
0
10
2.029000
20
0.350000
0
SEQEND
8
0
0
POLYLINE
8
0
66
1
40
0.008000
41
0.008000
0
VERTEX
8
0
10
1.629000
20
0.750000
0
VERTEX
8
0
10
2.029000
20
0.750000
0
SEQEND
8
0
0
POLYLINE
8
0
66
1
40
0.008000
41
0.008000
0
VERTEX
8
0
10
2.029000
20
0.350000
0
VERTEX
8
0
10
2.029000
20
0.750000
0
SEQEND
8
0
0
POLYLINE
8
0
66
1
40
0.008000
41
0.008000
0
VERTEX
8
0
10
1.629000
20
0.350000
0
VERTEX
8
0
10
1.629000
20
0.750000
0
SEQEND
8
0
0
TEXT
8
12632256
10
2.091000
20
0.493000
40
0.048000
41
1.041667
50
90.000000
1
J2
0
POLYLINE
8
0
66
1
40
0.008000
41
0.008000
0
VERTEX
8
0
10
-1.592000
20
1.372000
0
VERTEX
8
0
10
0.507000
20
1.372000
0
VERTEX
8
0
10
0.507000
20
1.622000
0
VERTEX
8
0
10
-1.592000
20
1.622000
0
VERTEX
8
0
10
-1.592000
20
1.372000
0
SEQEND
8
0
0
POLYLINE
8
0
66
1
40
0.008000
41
0.008000
0
VERTEX
8
0
10
0.507000
20
1.422000
0
VERTEX
8
0
10
-1.592000
20
1.422000
0
SEQEND
8
0
0
TEXT
8
12632256
10
-0.592000
20
1.314000
40
0.048000
41
1.041667
1
J9
0
POLYLINE
8
0
66
1
40
0.008000
41
0.008000
0
VERTEX
8
0
10
-1.691000
20
-0.596000
0
VERTEX
8
0
10
-2.091000
20
-0.596000
0
SEQEND
8
0
0
POLYLINE
8
0
66
1
40
0.008000
41
0.008000
0
VERTEX
8
0
10
-1.691000
20
-1.196000
0
VERTEX
8
0
10
-2.091000
20
-1.196000
0
SEQEND
8
0
0
POLYLINE
8
0
66
1
40
0.008000
41
0.008000
0
VERTEX
8
0
10
-2.091000
20
-0.596000
0
VERTEX
8
0
10
-2.091000
20
-1.196000
0
SEQEND
8
0
0
POLYLINE
8
0
66
1
40
0.008000
41
0.008000
0
VERTEX
8
0
10
-1.691000
20
-1.196000
0
VERTEX
8
0
10
-1.691000
20
-0.596000
0
SEQEND
8
0
0
TEXT
8
12632256
10
-1.925000
20
-1.357000
40
0.048000
41
1.041667
50
90.000000
1
J20
0
POLYLINE
8
0
66
1
40
0.008000
41
0.008000
0
VERTEX
8
0
10
-1.558000
20
-0.720000
0
VERTEX
8
0
10
-1.558000
20
-0.770000
0
SEQEND
8
0
0
POLYLINE
8
0
66
1
40
0.008000
41
0.008000
0
VERTEX
8
0
10
-1.583000
20
-0.970000
0
VERTEX
8
0
10
-1.533000
20
-0.970000
0
VERTEX
8
0
10
-1.533000
20
-0.770000
0
VERTEX
8
0
10
-1.583000
20
-0.770000
0
VERTEX
8
0
10
-1.583000
20
-0.970000
0
SEQEND
8
0
0
POLYLINE
8
0
66
1
40
0.008000
41
0.008000
0
VERTEX
8
0
10
-1.558000
20
-0.970000
0
VERTEX
8
0
10
-1.558000
20
-1.020000
0
SEQEND
8
0
0
TEXT
8
12632256
10
-1.475000
20
-0.945000
40
0.048000
41
1.041667
50
90.000000
1
R51
0
POLYLINE
8
0
66
1
40
0.008000
41
0.008000
0
VERTEX
8
0
10
-0.744000
20
-0.845000
0
VERTEX
8
0
10
-0.744000
20
-0.895000
0
SEQEND
8
0
0
POLYLINE
8
0
66
1
40
0.008000
41
0.008000
0
VERTEX
8
0
10
-0.744000
20
-0.695000
0
VERTEX
8
0
10
-0.744000
20
-0.745000
0
SEQEND
8
0
0
POLYLINE
8
0
66
1
40
0.008000
41
0.008000
0
VERTEX
8
0
10
-0.794000
20
-0.795000
0
VERTEX
8
0
10
-0.793000
20
-0.805000
0
VERTEX
8
0
10
-0.790000
20
-0.815000
0
VERTEX
8
0
10
-0.786000
20
-0.823000
0
VERTEX
8
0
10
-0.780000
20
-0.830000
0
VERTEX
8
0
10
-0.773000
20
-0.837000
0
VERTEX
8
0
10
-0.764000
20
-0.841000
0
VERTEX
8
0
10
-0.754000
20
-0.844000
0
VERTEX
8
0
10
-0.744000
20
-0.845000
0
SEQEND
8
0
0
POLYLINE
8
0
66
1
40
0.008000
41
0.008000
0
VERTEX
8
0
10
-0.794000
20
-0.795000
0
VERTEX
8
0
10
-0.793000
20
-0.785000
0
VERTEX
8
0
10
-0.790000
20
-0.775000
0
VERTEX
8
0
10
-0.786000
20
-0.766000
0
VERTEX
8
0
10
-0.780000
20
-0.759000
0
VERTEX
8
0
10
-0.773000
20
-0.753000
0
VERTEX
8
0
10
-0.764000
20
-0.749000
0
VERTEX
8
0
10
-0.754000
20
-0.746000
0
VERTEX
8
0
10
-0.744000
20
-0.745000
0
SEQEND
8
0
0
POLYLINE
8
0
66
1
40
0.008000
41
0.008000
0
VERTEX
8
0
10
-0.744000
20
-0.695000
0
VERTEX
8
0
10
-1.444000
20
-0.695000
0
VERTEX
8
0
10
-1.444000
20
-0.895000
0
VERTEX
8
0
10
-0.744000
20
-0.895000
0
SEQEND
8
0
0
TEXT
8
12632256
10
-0.686000
20
-0.845000
40
0.048000
41
1.041667
50
90.000000
1
U2
0
POLYLINE
8
0
66
1
40
0.008000
41
0.008000
0
VERTEX
8
0
10
-0.626000
20
-0.700000
0
VERTEX
8
0
10
-0.626000
20
-0.750000
0
SEQEND
8
0
0
POLYLINE
8
0
66
1
40
0.008000
41
0.008000
0
VERTEX
8
0
10
-0.651000
20
-0.950000
0
VERTEX
8
0
10
-0.601000
20
-0.950000
0
VERTEX
8
0
10
-0.601000
20
-0.750000
0
VERTEX
8
0
10
-0.651000
20
-0.750000
0
VERTEX
8
0
10
-0.651000
20
-0.950000
0
SEQEND
8
0
0
POLYLINE
8
0
66
1
40
0.008000
41
0.008000
0
VERTEX
8
0
10
-0.626000
20
-0.950000
0
VERTEX
8
0
10
-0.626000
20
-1.000000
0
SEQEND
8
0
0
TEXT
8
12632256
10
-0.543000
20
-0.925000
40
0.048000
41
1.041667
50
90.000000
1
R29
0
POLYLINE
8
0
66
1
40
0.008000
41
0.008000
0
VERTEX
8
0
10
-0.405000
20
-0.890000
0
VERTEX
8
0
10
-0.105000
20
-0.890000
0
VERTEX
8
0
10
-0.105000
20
-0.740000
0
VERTEX
8
0
10
-0.405000
20
-0.740000
0
VERTEX
8
0
10
-0.405000
20
-0.890000
0
SEQEND
8
0
0
POLYLINE
8
0
66
1
40
0.008000
41
0.008000
0
VERTEX
8
0
10
-0.205000
20
-1.040000
0
VERTEX
8
0
10
-0.305000
20
-1.040000
0
SEQEND
8
0
0
POLYLINE
8
0
66
1
40
0.008000
41
0.008000
0
VERTEX
8
0
10
-0.349000
20
-1.111000
0
VERTEX
8
0
10
-0.157000
20
-1.111000
0
VERTEX
8
0
10
-0.157000
20
-0.890000
0
VERTEX
8
0
10
-0.349000
20
-0.890000
0
VERTEX
8
0
10
-0.349000
20
-1.111000
0
SEQEND
8
0
0
TEXT
8
12632256
10
-0.104000
20
-1.114000
40
0.048000
41
1.041667
1
RV3
0
POLYLINE
8
0
66
1
40
0.008000
41
0.008000
0
VERTEX
8
0
10
-0.031000
20
0.604000
0
VERTEX
8
0
10
0.268000
20
0.604000
0
VERTEX
8
0
10
0.318000
20
0.554000
0
VERTEX
8
0
10
0.318000
20
0.454000
0
VERTEX
8
0
10
0.268000
20
0.404000
0
VERTEX
8
0
10
-0.031000
20
0.404000
0
VERTEX
8
0
10
-0.081000
20
0.454000
0
VERTEX
8
0
10
-0.081000
20
0.554000
0
VERTEX
8
0
10
-0.031000
20
0.604000
0
SEQEND
8
0
0
TEXT
8
12632256
10
0.068000
20
0.614000
40
0.048000
41
1.041667
1
X1
0
POLYLINE
8
0
66
1
40
0.008000
41
0.008000
0
VERTEX
8
0
10
0.073000
20
0.279000
0
VERTEX
8
0
10
0.083000
20
0.277000
0
VERTEX
8
0
10
0.093000
20
0.271000
0
VERTEX
8
0
10
0.101000
20
0.262000
0
VERTEX
8
0
10
0.108000
20
0.250000
0
VERTEX
8
0
10
0.114000
20
0.235000
0
VERTEX
8
0
10
0.119000
20
0.218000
0
VERTEX
8
0
10
0.122000
20
0.199000
0
VERTEX
8
0
10
0.123000
20
0.179000
0
SEQEND
8
0
0
POLYLINE
8
0
66
1
40
0.008000
41
0.008000
0
VERTEX
8
0
10
0.073000
20
0.079000
0
VERTEX
8
0
10
0.083000
20
0.081000
0
VERTEX
8
0
10
0.093000
20
0.087000
0
VERTEX
8
0
10
0.101000
20
0.096000
0
VERTEX
8
0
10
0.108000
20
0.108000
0
VERTEX
8
0
10
0.114000
20
0.123000
0
VERTEX
8
0
10
0.119000
20
0.140000
0
VERTEX
8
0
10
0.122000
20
0.159000
0
VERTEX
8
0
10
0.123000
20
0.179000
0
SEQEND
8
0
0
POLYLINE
8
0
66
1
40
0.008000
41
0.008000
0
VERTEX
8
0
10
0.073000
20
0.279000
0
VERTEX
8
0
10
0.063000
20
0.277000
0
VERTEX
8
0
10
0.053000
20
0.271000
0
VERTEX
8
0
10
0.045000
20
0.262000
0
VERTEX
8
0
10
0.038000
20
0.250000
0
VERTEX
8
0
10
0.032000
20
0.235000
0
VERTEX
8
0
10
0.027000
20
0.218000
0
VERTEX
8
0
10
0.024000
20
0.199000
0
VERTEX
8
0
10
0.023000
20
0.179000
0
SEQEND
8
0
0
POLYLINE
8
0
66
1
40
0.008000
41
0.008000
0
VERTEX
8
0
10
0.073000
20
0.079000
0
VERTEX
8
0
10
0.063000
20
0.081000
0
VERTEX
8
0
10
0.053000
20
0.087000
0
VERTEX
8
0
10
0.045000
20
0.096000
0
VERTEX
8
0
10
0.038000
20
0.108000
0
VERTEX
8
0
10
0.032000
20
0.123000
0
VERTEX
8
0
10
0.027000
20
0.140000
0
VERTEX
8
0
10
0.024000
20
0.159000
0
VERTEX
8
0
10
0.023000
20
0.179000
0
SEQEND
8
0
0
TEXT
8
12632256
10
0.000000
20
0.121000
40
0.048000
41
1.041667
50
90.000000
1
C8
0
POLYLINE
8
0
66
1
40
0.008000
41
0.008000
0
VERTEX
8
0
10
0.195000
20
0.279000
0
VERTEX
8
0
10
0.205000
20
0.277000
0
VERTEX
8
0
10
0.215000
20
0.271000
0
VERTEX
8
0
10
0.223000
20
0.262000
0
VERTEX
8
0
10
0.230000
20
0.250000
0
VERTEX
8
0
10
0.236000
20
0.235000
0
VERTEX
8
0
10
0.241000
20
0.218000
0
VERTEX
8
0
10
0.244000
20
0.199000
0
VERTEX
8
0
10
0.245000
20
0.179000
0
SEQEND
8
0
0
POLYLINE
8
0
66
1
40
0.008000
41
0.008000
0
VERTEX
8
0
10
0.195000
20
0.079000
0
VERTEX
8
0
10
0.205000
20
0.081000
0
VERTEX
8
0
10
0.215000
20
0.087000
0
VERTEX
8
0
10
0.223000
20
0.096000
0
VERTEX
8
0
10
0.230000
20
0.108000
0
VERTEX
8
0
10
0.236000
20
0.123000
0
VERTEX
8
0
10
0.241000
20
0.140000
0
VERTEX
8
0
10
0.244000
20
0.159000
0
VERTEX
8
0
10
0.245000
20
0.179000
0
SEQEND
8
0
0
POLYLINE
8
0
66
1
40
0.008000
41
0.008000
0
VERTEX
8
0
10
0.195000
20
0.279000
0
VERTEX
8
0
10
0.185000
20
0.277000
0
VERTEX
8
0
10
0.175000
20
0.271000
0
VERTEX
8
0
10
0.167000
20
0.262000
0
VERTEX
8
0
10
0.160000
20
0.250000
0
VERTEX
8
0
10
0.154000
20
0.235000
0
VERTEX
8
0
10
0.149000
20
0.218000
0
VERTEX
8
0
10
0.146000
20
0.199000
0
VERTEX
8
0
10
0.145000
20
0.179000
0
SEQEND
8
0
0
POLYLINE
8
0
66
1
40
0.008000
41
0.008000
0
VERTEX
8
0
10
0.195000
20
0.079000
0
VERTEX
8
0
10
0.185000
20
0.081000
0
VERTEX
8
0
10
0.175000
20
0.087000
0
VERTEX
8
0
10
0.167000
20
0.096000
0
VERTEX
8
0
10
0.160000
20
0.108000
0
VERTEX
8
0
10
0.154000
20
0.123000
0
VERTEX
8
0
10
0.149000
20
0.140000
0
VERTEX
8
0
10
0.146000
20
0.159000
0
VERTEX
8
0
10
0.145000
20
0.179000
0
SEQEND
8
0
0
TEXT
8
12632256
10
0.303000
20
0.129000
40
0.048000
41
1.041667
50
90.000000
1
C9
0
POLYLINE
8
0
66
1
40
0.008000
41
0.008000
0
VERTEX
8
0
10
0.257000
20
-0.768000
0
VERTEX
8
0
10
0.357000
20
-0.768000
0
VERTEX
8
0
10
0.357000
20
-0.468000
0
VERTEX
8
0
10
0.257000
20
-0.468000
0
VERTEX
8
0
10
0.257000
20
-0.768000
0
SEQEND
8
0
0
POLYLINE
8
0
66
1
40
0.008000
41
0.008000
0
VERTEX
8
0
10
0.357000
20
-0.468000
0
VERTEX
8
0
10
0.407000
20
-0.468000
0
VERTEX
8
0
10
0.407000
20
-0.768000
0
VERTEX
8
0
10
0.357000
20
-0.768000
0
SEQEND
8
0
0
POLYLINE
8
0
66
1
40
0.008000
41
0.008000
0
VERTEX
8
0
10
0.357000
20
-0.468000
0
VERTEX
8
0
10
0.407000
20
-0.518000
0
SEQEND
8
0
0
POLYLINE
8
0
66
1
40
0.008000
41
0.008000
0
VERTEX
8
0
10
0.357000
20
-0.518000
0
VERTEX
8
0
10
0.407000
20
-0.568000
0
SEQEND
8
0
0
POLYLINE
8
0
66
1
40
0.008000
41
0.008000
0
VERTEX
8
0
10
0.357000
20
-0.568000
0
VERTEX
8
0
10
0.407000
20
-0.618000
0
SEQEND
8
0
0
POLYLINE
8
0
66
1
40
0.008000
41
0.008000
0
VERTEX
8
0
10
0.357000
20
-0.618000
0
VERTEX
8
0
10
0.407000
20
-0.668000
0
SEQEND
8
0
0
POLYLINE
8
0
66
1
40
0.008000
41
0.008000
0
VERTEX
8
0
10
0.357000
20
-0.668000
0
VERTEX
8
0
10
0.407000
20
-0.718000
0
SEQEND
8
0
0
POLYLINE
8
0
66
1
40
0.008000
41
0.008000
0
VERTEX
8
0
10
0.357000
20
-0.718000
0
VERTEX
8
0
10
0.407000
20
-0.768000
0
SEQEND
8
0
0
TEXT
8
12632256
10
0.465000
20
-0.693000
40
0.048000
41
1.041667
50
90.000000
1
U19
0
POLYLINE
8
0
66
1
40
0.008000
41
0.008000
0
VERTEX
8
0
10
0.714000
20
-0.571000
0
VERTEX
8
0
10
1.014000
20
-0.571000
0
VERTEX
8
0
10
1.014000
20
-0.421000
0
VERTEX
8
0
10
0.714000
20
-0.421000
0
VERTEX
8
0
10
0.714000
20
-0.571000
0
SEQEND
8
0
0
POLYLINE
8
0
66
1
40
0.008000
41
0.008000
0
VERTEX
8
0
10
0.914000
20
-0.721000
0
VERTEX
8
0
10
0.814000
20
-0.721000
0
SEQEND
8
0
0
POLYLINE
8
0
66
1
40
0.008000
41
0.008000
0
VERTEX
8
0
10
0.770000
20
-0.791000
0
VERTEX
8
0
10
0.963000
20
-0.791000
0
VERTEX
8
0
10
0.963000
20
-0.571000
0
VERTEX
8
0
10
0.770000
20
-0.571000
0
VERTEX
8
0
10
0.770000
20
-0.791000
0
SEQEND
8
0
0
TEXT
8
12632256
10
0.789000
20
-0.411000
40
0.048000
41
1.041667
1
RV2
0
POLYLINE
8
0
66
1
40
0.008000
41
0.008000
0
VERTEX
8
0
10
0.568000
20
-0.408000
0
VERTEX
8
0
10
0.568000
20
-0.458000
0
SEQEND
8
0
0
POLYLINE
8
0
66
1
40
0.008000
41
0.008000
0
VERTEX
8
0
10
0.543000
20
-0.658000
0
VERTEX
8
0
10
0.593000
20
-0.658000
0
VERTEX
8
0
10
0.593000
20
-0.458000
0
VERTEX
8
0
10
0.543000
20
-0.458000
0
VERTEX
8
0
10
0.543000
20
-0.658000
0
SEQEND
8
0
0
POLYLINE
8
0
66
1
40
0.008000
41
0.008000
0
VERTEX
8
0
10
0.568000
20
-0.658000
0
VERTEX
8
0
10
0.568000
20
-0.708000
0
SEQEND
8
0
0
TEXT
8
12632256
10
0.651000
20
-0.633000
40
0.048000
41
1.041667
50
90.000000
1
R44
0
CIRCLE
8
12632256
10
0.095000
20
-0.846000
40
0.100000
0
POLYLINE
8
0
66
1
40
0.008000
41
0.008000
0
VERTEX
8
0
10
0.170000
20
-0.896000
0
VERTEX
8
0
10
0.120000
20
-0.896000
0
SEQEND
8
0
0
POLYLINE
8
0
66
1
40
0.008000
41
0.008000
0
VERTEX
8
0
10
0.145000
20
-0.921000
0
VERTEX
8
0
10
0.145000
20
-0.871000
0
SEQEND
8
0
0
TEXT
8
12632256
10
0.012000
20
-0.697000
40
0.048000
41
1.041667
1
C35
0
POLYLINE
8
0
66
1
40
0.008000
41
0.008000
0
VERTEX
8
0
10
-1.284000
20
0.086000
0
VERTEX
8
0
10
-1.284000
20
0.036000
0
SEQEND
8
0
0
POLYLINE
8
0
66
1
40
0.008000
41
0.008000
0
VERTEX
8
0
10
-1.309000
20
-0.163000
0
VERTEX
8
0
10
-1.259000
20
-0.163000
0
VERTEX
8
0
10
-1.259000
20
0.036000
0
VERTEX
8
0
10
-1.309000
20
0.036000
0
VERTEX
8
0
10
-1.309000
20
-0.163000
0
SEQEND
8
0
0
POLYLINE
8
0
66
1
40
0.008000
41
0.008000
0
VERTEX
8
0
10
-1.284000
20
-0.163000
0
VERTEX
8
0
10
-1.284000
20
-0.213000
0
SEQEND
8
0
0
TEXT
8
12632256
10
-1.201000
20
-0.113000
40
0.048000
41
1.041667
50
90.000000
1
R1
0
POLYLINE
8
0
66
1
40
0.008000
41
0.008000
0
VERTEX
8
0
10
-0.639000
20
-0.194000
0
VERTEX
8
0
10
0.260000
20
-0.194000
0
VERTEX
8
0
10
0.260000
20
0.055000
0
VERTEX
8
0
10
-0.639000
20
0.055000
0
VERTEX
8
0
10
-0.639000
20
-0.194000
0
SEQEND
8
0
0
POLYLINE
8
0
66
1
40
0.008000
41
0.008000
0
VERTEX
8
0
10
-0.639000
20
0.005000
0
VERTEX
8
0
10
0.260000
20
0.005000
0
SEQEND
8
0
0
TEXT
8
12632256
10
0.271000
20
-0.111000
40
0.048000
41
1.041667
1
J7
0
POLYLINE
8
0
66
1
40
0.008000
41
0.008000
0
VERTEX
8
0
10
-0.476000
20
-0.310000
0
VERTEX
8
0
10
-0.476000
20
-0.360000
0
SEQEND
8
0
0
POLYLINE
8
0
66
1
40
0.008000
41
0.008000
0
VERTEX
8
0
10
-0.501000
20
-0.560000
0
VERTEX
8
0
10
-0.451000
20
-0.560000
0
VERTEX
8
0
10
-0.451000
20
-0.360000
0
VERTEX
8
0
10
-0.501000
20
-0.360000
0
VERTEX
8
0
10
-0.501000
20
-0.560000
0
SEQEND
8
0
0
POLYLINE
8
0
66
1
40
0.008000
41
0.008000
0
VERTEX
8
0
10
-0.476000
20
-0.560000
0
VERTEX
8
0
10
-0.476000
20
-0.610000
0
SEQEND
8
0
0
TEXT
8
12632256
10
-0.393000
20
-0.535000
40
0.048000
41
1.041667
50
90.000000
1
R33
0
POLYLINE
8
0
66
1
40
0.008000
41
0.008000
0
VERTEX
8
0
10
-0.346000
20
-0.312000
0
VERTEX
8
0
10
-0.346000
20
-0.362000
0
SEQEND
8
0
0
POLYLINE
8
0
66
1
40
0.008000
41
0.008000
0
VERTEX
8
0
10
-0.371000
20
-0.562000
0
VERTEX
8
0
10
-0.321000
20
-0.562000
0
VERTEX
8
0
10
-0.321000
20
-0.362000
0
VERTEX
8
0
10
-0.371000
20
-0.362000
0
VERTEX
8
0
10
-0.371000
20
-0.562000
0
SEQEND
8
0
0
POLYLINE
8
0
66
1
40
0.008000
41
0.008000
0
VERTEX
8
0
10
-0.346000
20
-0.562000
0
VERTEX
8
0
10
-0.346000
20
-0.612000
0
SEQEND
8
0
0
TEXT
8
12632256
10
-0.263000
20
-0.537000
40
0.048000
41
1.041667
50
90.000000
1
R34
0
POLYLINE
8
0
66
1
40
0.008000
41
0.008000
0
VERTEX
8
0
10
-0.229000
20
-0.312000
0
VERTEX
8
0
10
-0.229000
20
-0.362000
0
SEQEND
8
0
0
POLYLINE
8
0
66
1
40
0.008000
41
0.008000
0
VERTEX
8
0
10
-0.254000
20
-0.562000
0
VERTEX
8
0
10
-0.204000
20
-0.562000
0
VERTEX
8
0
10
-0.204000
20
-0.362000
0
VERTEX
8
0
10
-0.254000
20
-0.362000
0
VERTEX
8
0
10
-0.254000
20
-0.562000
0
SEQEND
8
0
0
POLYLINE
8
0
66
1
40
0.008000
41
0.008000
0
VERTEX
8
0
10
-0.229000
20
-0.562000
0
VERTEX
8
0
10
-0.229000
20
-0.612000
0
SEQEND
8
0
0
TEXT
8
12632256
10
-0.146000
20
-0.537000
40
0.048000
41
1.041667
50
90.000000
1
R35
0
POLYLINE
8
0
66
1
40
0.008000
41
0.008000
0
VERTEX
8
0
10
-0.110000
20
-0.310000
0
VERTEX
8
0
10
-0.110000
20
-0.360000
0
SEQEND
8
0
0
POLYLINE
8
0
66
1
40
0.008000
41
0.008000
0
VERTEX
8
0
10
-0.135000
20
-0.560000
0
VERTEX
8
0
10
-0.085000
20
-0.560000
0
VERTEX
8
0
10
-0.085000
20
-0.360000
0
VERTEX
8
0
10
-0.135000
20
-0.360000
0
VERTEX
8
0
10
-0.135000
20
-0.560000
0
SEQEND
8
0
0
POLYLINE
8
0
66
1
40
0.008000
41
0.008000
0
VERTEX
8
0
10
-0.110000
20
-0.560000
0
VERTEX
8
0
10
-0.110000
20
-0.610000
0
SEQEND
8
0
0
TEXT
8
12632256
10
-0.027000
20
-0.535000
40
0.048000
41
1.041667
50
90.000000
1
R36
0
POLYLINE
8
0
66
1
40
0.008000
41
0.008000
0
VERTEX
8
0
10
-2.009000
20
1.237000
0
VERTEX
8
0
10
-1.709000
20
1.237000
0
VERTEX
8
0
10
-1.709000
20
1.387000
0
VERTEX
8
0
10
-2.009000
20
1.387000
0
VERTEX
8
0
10
-2.009000
20
1.237000
0
SEQEND
8
0
0
POLYLINE
8
0
66
1
40
0.008000
41
0.008000
0
VERTEX
8
0
10
-1.809000
20
1.087000
0
VERTEX
8
0
10
-1.909000
20
1.087000
0
SEQEND
8
0
0
POLYLINE
8
0
66
1
40
0.008000
41
0.008000
0
VERTEX
8
0
10
-1.954000
20
1.017000
0
VERTEX
8
0
10
-1.761000
20
1.017000
0
VERTEX
8
0
10
-1.761000
20
1.237000
0
VERTEX
8
0
10
-1.954000
20
1.237000
0
VERTEX
8
0
10
-1.954000
20
1.017000
0
SEQEND
8
0
0
TEXT
8
12632256
10
-1.934000
20
1.397000
40
0.048000
41
1.041667
1
RV1
0
POLYLINE
8
0
66
1
40
0.008000
41
0.008000
0
VERTEX
8
0
10
-1.694000
20
0.245000
0
VERTEX
8
0
10
-2.094000
20
0.245000
0
SEQEND
8
0
0
POLYLINE
8
0
66
1
40
0.008000
41
0.008000
0
VERTEX
8
0
10
-1.694000
20
-0.554000
0
VERTEX
8
0
10
-2.094000
20
-0.554000
0
VERTEX
8
0
10
-2.094000
20
0.245000
0
SEQEND
8
0
0
POLYLINE
8
0
66
1
40
0.008000
41
0.008000
0
VERTEX
8
0
10
-1.694000
20
0.245000
0
VERTEX
8
0
10
-1.694000
20
-0.554000
0
SEQEND
8
0
0
TEXT
8
12632256
10
-1.837000
20
0.278000
40
0.048000
41
1.041667
50
90.000000
1
J3
0
POLYLINE
8
0
66
1
40
0.008000
41
0.008000
0
VERTEX
8
0
10
1.152000
20
1.417000
0
VERTEX
8
0
10
1.152000
20
1.817000
0
SEQEND
8
0
0
POLYLINE
8
0
66
1
40
0.008000
41
0.008000
0
VERTEX
8
0
10
0.752000
20
1.417000
0
VERTEX
8
0
10
0.752000
20
1.817000
0
SEQEND
8
0
0
POLYLINE
8
0
66
1
40
0.008000
41
0.008000
0
VERTEX
8
0
10
1.152000
20
1.817000
0
VERTEX
8
0
10
0.752000
20
1.817000
0
SEQEND
8
0
0
POLYLINE
8
0
66
1
40
0.008000
41
0.008000
0
VERTEX
8
0
10
1.152000
20
1.417000
0
VERTEX
8
0
10
0.752000
20
1.417000
0
SEQEND
8
0
0
TEXT
8
12632256
10
1.201000
20
1.690000
40
0.048000
41
1.041667
1
J4
0
POLYLINE
8
0
66
1
40
0.008000
41
0.008000
0
VERTEX
8
0
10
-2.053000
20
0.383000
0
VERTEX
8
0
10
-1.653000
20
0.383000
0
SEQEND
8
0
0
POLYLINE
8
0
66
1
40
0.008000
41
0.008000
0
VERTEX
8
0
10
-2.053000
20
0.783000
0
VERTEX
8
0
10
-1.653000
20
0.783000
0
SEQEND
8
0
0
POLYLINE
8
0
66
1
40
0.008000
41
0.008000
0
VERTEX
8
0
10
-1.653000
20
0.383000
0
VERTEX
8
0
10
-1.653000
20
0.783000
0
SEQEND
8
0
0
POLYLINE
8
0
66
1
40
0.008000
41
0.008000
0
VERTEX
8
0
10
-2.053000
20
0.383000
0
VERTEX
8
0
10
-2.053000
20
0.783000
0
SEQEND
8
0
0
TEXT
8
12632256
10
-2.063000
20
0.533000
40
0.048000
41
1.041667
50
90.000000
1
J5
0
POLYLINE
8
0
66
1
40
0.008000
41
0.008000
0
VERTEX
8
0
10
0.319000
20
0.500000
0
VERTEX
8
0
10
0.322000
20
0.510000
0
VERTEX
8
0
10
0.330000
20
0.520000
0
VERTEX
8
0
10
0.344000
20
0.528000
0
VERTEX
8
0
10
0.362000
20
0.536000
0
VERTEX
8
0
10
0.384000
20
0.542000
0
VERTEX
8
0
10
0.410000
20
0.546000
0
VERTEX
8
0
10
0.438000
20
0.549000
0
VERTEX
8
0
10
0.469000
20
0.550000
0
SEQEND
8
0
0
POLYLINE
8
0
66
1
40
0.008000
41
0.008000
0
VERTEX
8
0
10
0.619000
20
0.500000
0
VERTEX
8
0
10
0.616000
20
0.510000
0
VERTEX
8
0
10
0.607000
20
0.520000
0
VERTEX
8
0
10
0.594000
20
0.528000
0
VERTEX
8
0
10
0.576000
20
0.536000
0
VERTEX
8
0
10
0.554000
20
0.542000
0
VERTEX
8
0
10
0.528000
20
0.546000
0
VERTEX
8
0
10
0.500000
20
0.549000
0
VERTEX
8
0
10
0.469000
20
0.550000
0
SEQEND
8
0
0
POLYLINE
8
0
66
1
40
0.008000
41
0.008000
0
VERTEX
8
0
10
0.619000
20
0.500000
0
VERTEX
8
0
10
0.616000
20
0.490000
0
VERTEX
8
0
10
0.607000
20
0.480000
0
VERTEX
8
0
10
0.594000
20
0.472000
0
VERTEX
8
0
10
0.576000
20
0.464000
0
VERTEX
8
0
10
0.554000
20
0.458000
0
VERTEX
8
0
10
0.528000
20
0.454000
0
VERTEX
8
0
10
0.500000
20
0.451000
0
VERTEX
8
0
10
0.469000
20
0.450000
0
SEQEND
8
0
0
POLYLINE
8
0
66
1
40
0.008000
41
0.008000
0
VERTEX
8
0
10
0.319000
20
0.500000
0
VERTEX
8
0
10
0.322000
20
0.490000
0
VERTEX
8
0
10
0.330000
20
0.480000
0
VERTEX
8
0
10
0.344000
20
0.472000
0
VERTEX
8
0
10
0.362000
20
0.464000
0
VERTEX
8
0
10
0.384000
20
0.458000
0
VERTEX
8
0
10
0.410000
20
0.454000
0
VERTEX
8
0
10
0.438000
20
0.451000
0
VERTEX
8
0
10
0.469000
20
0.450000
0
SEQEND
8
0
0
TEXT
8
12632256
10
0.419000
20
0.560000
40
0.048000
41
1.041667
1
C1
0
POLYLINE
8
0
66
1
40
0.008000
41
0.008000
0
VERTEX
8
0
10
-1.717000
20
-0.956000
0
VERTEX
8
0
10
-1.679000
20
-0.956000
0
SEQEND
8
0
0
POLYLINE
8
0
66
1
40
0.008000
41
0.008000
0
VERTEX
8
0
10
-1.717000
20
-0.845000
0
VERTEX
8
0
10
-1.678000
20
-0.845000
0
SEQEND
8
0
0
POLYLINE
8
0
66
1
40
0.008000
41
0.008000
0
VERTEX
8
0
10
-1.637000
20
-0.971000
0
VERTEX
8
0
10
-1.637000
20
-0.991000
0
SEQEND
8
0
0
POLYLINE
8
0
66
1
40
0.008000
41
0.008000
0
VERTEX
8
0
10
-1.647000
20
-0.981000
0
VERTEX
8
0
10
-1.627000
20
-0.981000
0
SEQEND
8
0
0
TEXT
8
12632256
10
-1.648000
20
-1.049000
40
0.048000
41
1.041667
71
2
1
C2
0
POLYLINE
8
0
66
1
40
0.008000
41
0.008000
0
VERTEX
8
0
10
0.390000
20
1.746000
0
VERTEX
8
0
10
0.352000
20
1.746000
0
SEQEND
8
0
0
POLYLINE
8
0
66
1
40
0.008000
41
0.008000
0
VERTEX
8
0
10
0.390000
20
1.635000
0
VERTEX
8
0
10
0.351000
20
1.635000
0
SEQEND
8
0
0
POLYLINE
8
0
66
1
40
0.008000
41
0.008000
0
VERTEX
8
0
10
0.310000
20
1.761000
0
VERTEX
8
0
10
0.310000
20
1.781000
0
SEQEND
8
0
0
POLYLINE
8
0
66
1
40
0.008000
41
0.008000
0
VERTEX
8
0
10
0.320000
20
1.771000
0
VERTEX
8
0
10
0.300000
20
1.771000
0
SEQEND
8
0
0
TEXT
8
12632256
10
0.446000
20
1.791000
40
0.048000
41
1.041667
71
2
1
C21
0
POLYLINE
8
0
66
1
40
0.008000
41
0.008000
0
VERTEX
8
0
10
-1.092000
20
0.530000
0
VERTEX
8
0
10
-1.092000
20
0.492000
0
SEQEND
8
0
0
POLYLINE
8
0
66
1
40
0.008000
41
0.008000
0
VERTEX
8
0
10
-0.981000
20
0.530000
0
VERTEX
8
0
10
-0.981000
20
0.491000
0
SEQEND
8
0
0
POLYLINE
8
0
66
1
40
0.008000
41
0.008000
0
VERTEX
8
0
10
-1.107000
20
0.450000
0
VERTEX
8
0
10
-1.127000
20
0.450000
0
SEQEND
8
0
0
POLYLINE
8
0
66
1
40
0.008000
41
0.008000
0
VERTEX
8
0
10
-1.117000
20
0.460000
0
VERTEX
8
0
10
-1.117000
20
0.440000
0
SEQEND
8
0
0
TEXT
8
12632256
10
-1.011000
20
0.788000
40
0.048000
41
1.041667
50
90.000000
71
2
1
C22
0
POLYLINE
8
0
66
1
40
0.008000
41
0.008000
0
VERTEX
8
0
10
-0.933000
20
0.530000
0
VERTEX
8
0
10
-0.933000
20
0.492000
0
SEQEND
8
0
0
POLYLINE
8
0
66
1
40
0.008000
41
0.008000
0
VERTEX
8
0
10
-0.822000
20
0.530000
0
VERTEX
8
0
10
-0.822000
20
0.491000
0
SEQEND
8
0
0
POLYLINE
8
0
66
1
40
0.008000
41
0.008000
0
VERTEX
8
0
10
-0.948000
20
0.450000
0
VERTEX
8
0
10
-0.968000
20
0.450000
0
SEQEND
8
0
0
POLYLINE
8
0
66
1
40
0.008000
41
0.008000
0
VERTEX
8
0
10
-0.958000
20
0.460000
0
VERTEX
8
0
10
-0.958000
20
0.440000
0
SEQEND
8
0
0
TEXT
8
12632256
10
-0.837000
20
0.778000
40
0.048000
41
1.041667
50
90.000000
71
2
1
C24
0
POLYLINE
8
0
66
1
40
0.008000
41
0.008000
0
VERTEX
8
0
10
-0.766000
20
0.530000
0
VERTEX
8
0
10
-0.766000
20
0.492000
0
SEQEND
8
0
0
POLYLINE
8
0
66
1
40
0.008000
41
0.008000
0
VERTEX
8
0
10
-0.655000
20
0.530000
0
VERTEX
8
0
10
-0.655000
20
0.491000
0
SEQEND
8
0
0
POLYLINE
8
0
66
1
40
0.008000
41
0.008000
0
VERTEX
8
0
10
-0.781000
20
0.450000
0
VERTEX
8
0
10
-0.801000
20
0.450000
0
SEQEND
8
0
0
POLYLINE
8
0
66
1
40
0.008000
41
0.008000
0
VERTEX
8
0
10
-0.791000
20
0.460000
0
VERTEX
8
0
10
-0.791000
20
0.440000
0
SEQEND
8
0
0
TEXT
8
12632256
10
-0.705000
20
0.788000
40
0.048000
41
1.041667
50
90.000000
71
2
1
C25
0
POLYLINE
8
0
66
1
40
0.008000
41
0.008000
0
VERTEX
8
0
10
-1.108000
20
-0.207000
0
VERTEX
8
0
10
-1.108000
20
-0.157000
0
SEQEND
8
0
0
POLYLINE
8
0
66
1
40
0.008000
41
0.008000
0
VERTEX
8
0
10
-1.133000
20
-0.157000
0
VERTEX
8
0
10
-1.083000
20
-0.157000
0
VERTEX
8
0
10
-1.083000
20
0.042000
0
VERTEX
8
0
10
-1.133000
20
0.042000
0
VERTEX
8
0
10
-1.133000
20
-0.157000
0
SEQEND
8
0
0
POLYLINE
8
0
66
1
40
0.008000
41
0.008000
0
VERTEX
8
0
10
-1.108000
20
0.042000
0
VERTEX
8
0
10
-1.108000
20
0.092000
0
SEQEND
8
0
0
TEXT
8
12632256
10
-1.143000
20
-0.107000
40
0.048000
41
1.041667
50
90.000000
1
R2
0
POLYLINE
8
0
66
1
40
0.008000
41
0.008000
0
VERTEX
8
0
10
-1.055000
20
-0.133000
0
VERTEX
8
0
10
-0.983000
20
-0.133000
0
VERTEX
8
0
10
-0.983000
20
0.016000
0
VERTEX
8
0
10
-1.055000
20
0.016000
0
VERTEX
8
0
10
-1.055000
20
-0.133000
0
SEQEND
8
0
0
POLYLINE
8
0
66
1
40
0.008000
41
0.008000
0
VERTEX
8
0
10
-0.984000
20
-0.008000
0
VERTEX
8
0
10
-1.054000
20
-0.008000
0
SEQEND
8
0
0
POLYLINE
8
0
66
1
40
0.008000
41
0.008000
0
VERTEX
8
0
10
-1.019000
20
-0.133000
0
VERTEX
8
0
10
-1.019000
20
-0.198000
0
SEQEND
8
0
0
POLYLINE
8
0
66
1
40
0.008000
41
0.008000
0
VERTEX
8
0
10
-1.019000
20
0.016000
0
VERTEX
8
0
10
-1.019000
20
0.081000
0
SEQEND
8
0
0
TEXT
8
12632256
10
-0.925000
20
-0.108000
40
0.048000
41
1.041667
50
90.000000
1
D4
0
POLYLINE
8
0
66
1
40
0.008000
41
0.008000
0
VERTEX
8
0
10
-0.893000
20
0.090000
0
VERTEX
8
0
10
-0.893000
20
0.040000
0
SEQEND
8
0
0
POLYLINE
8
0
66
1
40
0.008000
41
0.008000
0
VERTEX
8
0
10
-0.918000
20
-0.159000
0
VERTEX
8
0
10
-0.868000
20
-0.159000
0
VERTEX
8
0
10
-0.868000
20
0.040000
0
VERTEX
8
0
10
-0.918000
20
0.040000
0
VERTEX
8
0
10
-0.918000
20
-0.159000
0
SEQEND
8
0
0
POLYLINE
8
0
66
1
40
0.008000
41
0.008000
0
VERTEX
8
0
10
-0.893000
20
-0.159000
0
VERTEX
8
0
10
-0.893000
20
-0.209000
0
SEQEND
8
0
0
TEXT
8
12632256
10
-0.810000
20
-0.109000
40
0.048000
41
1.041667
50
90.000000
1
R3
0
POLYLINE
8
0
66
1
40
0.008000
41
0.008000
0
VERTEX
8
0
10
-0.780000
20
0.092000
0
VERTEX
8
0
10
-0.780000
20
0.042000
0
SEQEND
8
0
0
POLYLINE
8
0
66
1
40
0.008000
41
0.008000
0
VERTEX
8
0
10
-0.805000
20
-0.157000
0
VERTEX
8
0
10
-0.755000
20
-0.157000
0
VERTEX
8
0
10
-0.755000
20
0.042000
0
VERTEX
8
0
10
-0.805000
20
0.042000
0
VERTEX
8
0
10
-0.805000
20
-0.157000
0
SEQEND
8
0
0
POLYLINE
8
0
66
1
40
0.008000
41
0.008000
0
VERTEX
8
0
10
-0.780000
20
-0.157000
0
VERTEX
8
0
10
-0.780000
20
-0.207000
0
SEQEND
8
0
0
TEXT
8
12632256
10
-0.697000
20
-0.107000
40
0.048000
41
1.041667
50
90.000000
1
R4
0
POLYLINE
8
0
66
1
40
0.008000
41
0.008000
0
VERTEX
8
0
10
0.682000
20
-0.201000
0
VERTEX
8
0
10
0.732000
20
-0.201000
0
SEQEND
8
0
0
POLYLINE
8
0
66
1
40
0.008000
41
0.008000
0
VERTEX
8
0
10
0.732000
20
-0.226000
0
VERTEX
8
0
10
0.932000
20
-0.226000
0
VERTEX
8
0
10
0.932000
20
-0.176000
0
VERTEX
8
0
10
0.732000
20
-0.176000
0
VERTEX
8
0
10
0.732000
20
-0.226000
0
SEQEND
8
0
0
POLYLINE
8
0
66
1
40
0.008000
41
0.008000
0
VERTEX
8
0
10
0.932000
20
-0.201000
0
VERTEX
8
0
10
0.982000
20
-0.201000
0
SEQEND
8
0
0
TEXT
8
12632256
10
0.782000
20
-0.166000
40
0.048000
41
1.041667
1
R6
0
POLYLINE
8
0
66
1
40
0.008000
41
0.008000
0
VERTEX
8
0
10
0.675000
20
-0.080000
0
VERTEX
8
0
10
0.725000
20
-0.080000
0
SEQEND
8
0
0
POLYLINE
8
0
66
1
40
0.008000
41
0.008000
0
VERTEX
8
0
10
0.725000
20
-0.105000
0
VERTEX
8
0
10
0.925000
20
-0.105000
0
VERTEX
8
0
10
0.925000
20
-0.055000
0
VERTEX
8
0
10
0.725000
20
-0.055000
0
VERTEX
8
0
10
0.725000
20
-0.105000
0
SEQEND
8
0
0
POLYLINE
8
0
66
1
40
0.008000
41
0.008000
0
VERTEX
8
0
10
0.925000
20
-0.080000
0
VERTEX
8
0
10
0.975000
20
-0.080000
0
SEQEND
8
0
0
TEXT
8
12632256
10
0.750000
20
-0.045000
40
0.048000
41
1.041667
1
R27
0
POLYLINE
8
0
66
1
40
0.008000
41
0.008000
0
VERTEX
8
0
10
-1.534000
20
-0.478000
0
VERTEX
8
0
10
-1.484000
20
-0.478000
0
SEQEND
8
0
0
POLYLINE
8
0
66
1
40
0.008000
41
0.008000
0
VERTEX
8
0
10
-1.484000
20
-0.503000
0
VERTEX
8
0
10
-1.284000
20
-0.503000
0
VERTEX
8
0
10
-1.284000
20
-0.453000
0
VERTEX
8
0
10
-1.484000
20
-0.453000
0
VERTEX
8
0
10
-1.484000
20
-0.503000
0
SEQEND
8
0
0
POLYLINE
8
0
66
1
40
0.008000
41
0.008000
0
VERTEX
8
0
10
-1.284000
20
-0.478000
0
VERTEX
8
0
10
-1.234000
20
-0.478000
0
SEQEND
8
0
0
TEXT
8
12632256
10
-1.459000
20
-0.443000
40
0.048000
41
1.041667
1
R24
0
CIRCLE
8
12632256
10
-1.026000
20
-0.454000
40
0.000000
0
CIRCLE
8
12632256
10
-1.026000
20
-0.454000
40
0.100000
0
POLYLINE
8
0
66
1
40
0.008000
41
0.008000
0
VERTEX
8
0
10
-1.151000
20
-0.354000
0
VERTEX
8
0
10
-1.101000
20
-0.354000
0
SEQEND
8
0
0
POLYLINE
8
0
66
1
40
0.008000
41
0.008000
0
VERTEX
8
0
10
-1.126000
20
-0.329000
0
VERTEX
8
0
10
-1.126000
20
-0.379000
0
SEQEND
8
0
0
TEXT
8
12632256
10
-0.895000
20
-0.488000
40
0.048000
41
1.041667
1
D2
0
POLYLINE
8
0
66
1
40
0.008000
41
0.008000
0
VERTEX
8
0
10
1.251000
20
0.257000
0
VERTEX
8
0
10
1.251000
20
0.207000
0
SEQEND
8
0
0
POLYLINE
8
0
66
1
40
0.008000
41
0.008000
0
VERTEX
8
0
10
1.226000
20
0.007000
0
VERTEX
8
0
10
1.276000
20
0.007000
0
VERTEX
8
0
10
1.276000
20
0.207000
0
VERTEX
8
0
10
1.226000
20
0.207000
0
VERTEX
8
0
10
1.226000
20
0.007000
0
SEQEND
8
0
0
POLYLINE
8
0
66
1
40
0.008000
41
0.008000
0
VERTEX
8
0
10
1.251000
20
0.007000
0
VERTEX
8
0
10
1.251000
20
-0.042000
0
SEQEND
8
0
0
TEXT
8
12632256
10
1.334000
20
0.032000
40
0.048000
41
1.041667
50
90.000000
1
R11
0
POLYLINE
8
0
66
1
40
0.008000
41
0.008000
0
VERTEX
8
0
10
1.349000
20
0.032000
0
VERTEX
8
0
10
1.421000
20
0.032000
0
VERTEX
8
0
10
1.421000
20
0.182000
0
VERTEX
8
0
10
1.349000
20
0.182000
0
VERTEX
8
0
10
1.349000
20
0.032000
0
SEQEND
8
0
0
POLYLINE
8
0
66
1
40
0.008000
41
0.008000
0
VERTEX
8
0
10
1.420000
20
0.157000
0
VERTEX
8
0
10
1.350000
20
0.157000
0
SEQEND
8
0
0
POLYLINE
8
0
66
1
40
0.008000
41
0.008000
0
VERTEX
8
0
10
1.385000
20
0.032000
0
VERTEX
8
0
10
1.385000
20
-0.032000
0
SEQEND
8
0
0
POLYLINE
8
0
66
1
40
0.008000
41
0.008000
0
VERTEX
8
0
10
1.385000
20
0.182000
0
VERTEX
8
0
10
1.385000
20
0.247000
0
SEQEND
8
0
0
TEXT
8
12632256
10
1.402000
20
-0.242000
40
0.048000
41
1.041667
50
90.000000
1
D3
0
POLYLINE
8
0
66
1
40
0.008000
41
0.008000
0
VERTEX
8
0
10
1.214000
20
0.435000
0
VERTEX
8
0
10
1.414000
20
0.435000
0
SEQEND
8
0
0
POLYLINE
8
0
66
1
40
0.008000
41
0.008000
0
VERTEX
8
0
10
1.184000
20
0.500000
0
VERTEX
8
0
10
1.186000
20
0.485000
0
VERTEX
8
0
10
1.192000
20
0.469000
0
VERTEX
8
0
10
1.201000
20
0.453000
0
VERTEX
8
0
10
1.214000
20
0.435000
0
SEQEND
8
0
0
POLYLINE
8
0
66
1
40
0.008000
41
0.008000
0
VERTEX
8
0
10
1.184000
20
0.500000
0
VERTEX
8
0
10
1.185000
20
0.525000
0
VERTEX
8
0
10
1.192000
20
0.549000
0
VERTEX
8
0
10
1.203000
20
0.570000
0
VERTEX
8
0
10
1.219000
20
0.589000
0
VERTEX
8
0
10
1.238000
20
0.604000
0
VERTEX
8
0
10
1.261000
20
0.615000
0
VERTEX
8
0
10
1.286000
20
0.622000
0
VERTEX
8
0
10
1.314000
20
0.625000
0
SEQEND
8
0
0
POLYLINE
8
0
66
1
40
0.008000
41
0.008000
0
VERTEX
8
0
10
1.444000
20
0.500000
0
VERTEX
8
0
10
1.442000
20
0.485000
0
VERTEX
8
0
10
1.436000
20
0.469000
0
VERTEX
8
0
10
1.427000
20
0.453000
0
VERTEX
8
0
10
1.414000
20
0.435000
0
SEQEND
8
0
0
POLYLINE
8
0
66
1
40
0.008000
41
0.008000
0
VERTEX
8
0
10
1.444000
20
0.500000
0
VERTEX
8
0
10
1.443000
20
0.525000
0
VERTEX
8
0
10
1.436000
20
0.549000
0
VERTEX
8
0
10
1.425000
20
0.570000
0
VERTEX
8
0
10
1.409000
20
0.589000
0
VERTEX
8
0
10
1.390000
20
0.604000
0
VERTEX
8
0
10
1.367000
20
0.615000
0
VERTEX
8
0
10
1.342000
20
0.622000
0
VERTEX
8
0
10
1.314000
20
0.625000
0
SEQEND
8
0
0
TEXT
8
12632256
10
1.264000
20
0.635000
40
0.048000
41
1.041667
1
Q2
0
POLYLINE
8
0
66
1
40
0.008000
41
0.008000
0
VERTEX
8
0
10
1.210000
20
0.683000
0
VERTEX
8
0
10
1.410000
20
0.683000
0
SEQEND
8
0
0
POLYLINE
8
0
66
1
40
0.008000
41
0.008000
0
VERTEX
8
0
10
1.180000
20
0.748000
0
VERTEX
8
0
10
1.182000
20
0.733000
0
VERTEX
8
0
10
1.188000
20
0.717000
0
VERTEX
8
0
10
1.197000
20
0.701000
0
VERTEX
8
0
10
1.210000
20
0.683000
0
SEQEND
8
0
0
POLYLINE
8
0
66
1
40
0.008000
41
0.008000
0
VERTEX
8
0
10
1.180000
20
0.748000
0
VERTEX
8
0
10
1.181000
20
0.773000
0
VERTEX
8
0
10
1.188000
20
0.797000
0
VERTEX
8
0
10
1.199000
20
0.818000
0
VERTEX
8
0
10
1.215000
20
0.837000
0
VERTEX
8
0
10
1.234000
20
0.852000
0
VERTEX
8
0
10
1.257000
20
0.863000
0
VERTEX
8
0
10
1.282000
20
0.870000
0
VERTEX
8
0
10
1.310000
20
0.873000
0
SEQEND
8
0
0
POLYLINE
8
0
66
1
40
0.008000
41
0.008000
0
VERTEX
8
0
10
1.440000
20
0.748000
0
VERTEX
8
0
10
1.438000
20
0.733000
0
VERTEX
8
0
10
1.432000
20
0.717000
0
VERTEX
8
0
10
1.423000
20
0.701000
0
VERTEX
8
0
10
1.410000
20
0.683000
0
SEQEND
8
0
0
POLYLINE
8
0
66
1
40
0.008000
41
0.008000
0
VERTEX
8
0
10
1.440000
20
0.748000
0
VERTEX
8
0
10
1.439000
20
0.773000
0
VERTEX
8
0
10
1.432000
20
0.797000
0
VERTEX
8
0
10
1.421000
20
0.818000
0
VERTEX
8
0
10
1.405000
20
0.837000
0
VERTEX
8
0
10
1.386000
20
0.852000
0
VERTEX
8
0
10
1.363000
20
0.863000
0
VERTEX
8
0
10
1.338000
20
0.870000
0
VERTEX
8
0
10
1.310000
20
0.873000
0
SEQEND
8
0
0
TEXT
8
12632256
10
1.260000
20
0.883000
40
0.048000
41
1.041667
1
Q1
0
POLYLINE
8
0
66
1
40
0.008000
41
0.008000
0
VERTEX
8
0
10
1.541000
20
0.985000
0
VERTEX
8
0
10
1.591000
20
0.985000
0
SEQEND
8
0
0
POLYLINE
8
0
66
1
40
0.008000
41
0.008000
0
VERTEX
8
0
10
1.591000
20
0.960000
0
VERTEX
8
0
10
1.791000
20
0.960000
0
VERTEX
8
0
10
1.791000
20
1.010000
0
VERTEX
8
0
10
1.591000
20
1.010000
0
VERTEX
8
0
10
1.591000
20
0.960000
0
SEQEND
8
0
0
POLYLINE
8
0
66
1
40
0.008000
41
0.008000
0
VERTEX
8
0
10
1.791000
20
0.985000
0
VERTEX
8
0
10
1.841000
20
0.985000
0
SEQEND
8
0
0
TEXT
8
12632256
10
1.616000
20
1.020000
40
0.048000
41
1.041667
1
R10
0
POLYLINE
8
0
66
1
40
0.008000
41
0.008000
0
VERTEX
8
0
10
1.541000
20
1.166000
0
VERTEX
8
0
10
1.591000
20
1.166000
0
SEQEND
8
0
0
POLYLINE
8
0
66
1
40
0.008000
41
0.008000
0
VERTEX
8
0
10
1.591000
20
1.141000
0
VERTEX
8
0
10
1.791000
20
1.141000
0
VERTEX
8
0
10
1.791000
20
1.191000
0
VERTEX
8
0
10
1.591000
20
1.191000
0
VERTEX
8
0
10
1.591000
20
1.141000
0
SEQEND
8
0
0
POLYLINE
8
0
66
1
40
0.008000
41
0.008000
0
VERTEX
8
0
10
1.791000
20
1.166000
0
VERTEX
8
0
10
1.841000
20
1.166000
0
SEQEND
8
0
0
TEXT
8
12632256
10
1.616000
20
1.201000
40
0.048000
41
1.041667
1
R90
0
POLYLINE
8
0
66
1
40
0.008000
41
0.008000
0
VERTEX
8
0
10
1.419000
20
1.648000
0
VERTEX
8
0
10
1.469000
20
1.648000
0
SEQEND
8
0
0
POLYLINE
8
0
66
1
40
0.008000
41
0.008000
0
VERTEX
8
0
10
1.519000
20
1.598000
0
VERTEX
8
0
10
1.529000
20
1.599000
0
VERTEX
8
0
10
1.539000
20
1.602000
0
VERTEX
8
0
10
1.547000
20
1.606000
0
VERTEX
8
0
10
1.554000
20
1.612000
0
VERTEX
8
0
10
1.560000
20
1.619000
0
VERTEX
8
0
10
1.565000
20
1.628000
0
VERTEX
8
0
10
1.568000
20
1.638000
0
VERTEX
8
0
10
1.569000
20
1.648000
0
SEQEND
8
0
0
POLYLINE
8
0
66
1
40
0.008000
41
0.008000
0
VERTEX
8
0
10
1.519000
20
1.598000
0
VERTEX
8
0
10
1.509000
20
1.599000
0
VERTEX
8
0
10
1.499000
20
1.602000
0
VERTEX
8
0
10
1.490000
20
1.606000
0
VERTEX
8
0
10
1.483000
20
1.612000
0
VERTEX
8
0
10
1.477000
20
1.619000
0
VERTEX
8
0
10
1.473000
20
1.628000
0
VERTEX
8
0
10
1.470000
20
1.638000
0
VERTEX
8
0
10
1.469000
20
1.648000
0
SEQEND
8
0
0
POLYLINE
8
0
66
1
40
0.008000
41
0.008000
0
VERTEX
8
0
10
1.569000
20
1.648000
0
VERTEX
8
0
10
1.619000
20
1.648000
0
SEQEND
8
0
0
POLYLINE
8
0
66
1
40
0.008000
41
0.008000
0
VERTEX
8
0
10
1.419000
20
1.348000
0
VERTEX
8
0
10
1.619000
20
1.348000
0
SEQEND
8
0
0
POLYLINE
8
0
66
1
40
0.008000
41
0.008000
0
VERTEX
8
0
10
1.419000
20
1.648000
0
VERTEX
8
0
10
1.419000
20
1.348000
0
SEQEND
8
0
0
POLYLINE
8
0
66
1
40
0.008000
41
0.008000
0
VERTEX
8
0
10
1.619000
20
1.648000
0
VERTEX
8
0
10
1.619000
20
1.348000
0
SEQEND
8
0
0
TEXT
8
12632256
10
1.469000
20
1.658000
40
0.048000
41
1.041667
1
U4
0
POLYLINE
8
0
66
1
40
0.008000
41
0.008000
0
VERTEX
8
0
10
1.057000
20
1.161000
0
VERTEX
8
0
10
1.107000
20
1.161000
0
SEQEND
8
0
0
POLYLINE
8
0
66
1
40
0.008000
41
0.008000
0
VERTEX
8
0
10
1.107000
20
1.136000
0
VERTEX
8
0
10
1.307000
20
1.136000
0
VERTEX
8
0
10
1.307000
20
1.186000
0
VERTEX
8
0
10
1.107000
20
1.186000
0
VERTEX
8
0
10
1.107000
20
1.136000
0
SEQEND
8
0
0
POLYLINE
8
0
66
1
40
0.008000
41
0.008000
0
VERTEX
8
0
10
1.307000
20
1.161000
0
VERTEX
8
0
10
1.357000
20
1.161000
0
SEQEND
8
0
0
TEXT
8
12632256
10
1.157000
20
1.196000
40
0.048000
41
1.041667
1
R8
0
POLYLINE
8
0
66
1
40
0.008000
41
0.008000
0
VERTEX
8
0
10
0.075000
20
1.007000
0
VERTEX
8
0
10
0.475000
20
1.007000
0
VERTEX
8
0
10
0.475000
20
1.257000
0
VERTEX
8
0
10
0.075000
20
1.257000
0
VERTEX
8
0
10
0.075000
20
1.007000
0
SEQEND
8
0
0
POLYLINE
8
0
66
1
40
0.008000
41
0.008000
0
VERTEX
8
0
10
0.075000
20
1.207000
0
VERTEX
8
0
10
0.475000
20
1.207000
0
SEQEND
8
0
0
TEXT
8
12632256
10
0.225000
20
1.267000
40
0.048000
41
1.041667
1
J6
0
TEXT
8
12632256
10
1.500000
20
-0.039000
40
0.048000
41
1.041667
50
90.000000
1
MOTOR
0
TEXT
8
12632256
10
1.598000
20
-0.033000
40
0.080000
41
1.000000
50
90.000000
1
+
0
TEXT
8
12632256
10
1.596000
20
0.157000
40
0.080000
41
1.000000
50
90.000000
1
-
0
TEXT
8
12632256
10
1.554000
20
0.356000
40
0.048000
41
1.041667
50
90.000000
1
V12
0
TEXT
8
12632256
10
1.558000
20
0.586000
40
0.048000
41
1.041667
50
90.000000
1
0V
0
TEXT
8
12632256
10
1.239000
20
0.930000
40
0.048000
41
1.041667
1
NPN
0
TEXT
8
12632256
10
1.251000
20
0.373000
40
0.048000
41
1.041667
1
PNP
0
TEXT
8
12632256
10
-0.563000
20
0.084000
40
0.048000
41
1.041667
1
U D R L +
0
TEXT
8
12632256
10
0.565000
20
1.704000
40
0.048000
41
1.041667
1
1
0
TEXT
8
12632256
10
-1.466000
20
1.731000
40
0.048000
41
1.041667
1
20
0
TEXT
8
12632256
10
-0.929000
20
1.726000
40
0.048000
41
1.041667
1
GLCD
0
TEXT
8
12632256
10
-1.716000
20
1.157000
40
0.048000
41
1.041667
1
CTE
0
TEXT
8
12632256
10
-1.644000
20
-1.280000
40
0.064000
41
1.093750
1
VIN
0
TEXT
8
12632256
10
-1.648000
20
-1.129000
40
0.048000
41
1.041667
1
A
0
TEXT
8
12632256
10
-1.665000
20
-0.695000
40
0.048000
41
1.041667
1
B'
0
TEXT
8
12632256
10
-1.649000
20
-0.922000
40
0.048000
41
1.041667
1
B
0
TEXT
8
12632256
10
1.016000
20
-0.677000
40
0.048000
41
1.041667
1
317
0
TEXT
8
12632256
10
1.014000
20
-0.754000
40
0.048000
41
1.041667
1
POT
0
TEXT
8
12632256
10
0.921000
20
1.245000
40
0.048000
41
1.041667
1
SSR
0
TEXT
8
12632256
10
1.041000
20
1.316000
40
0.072000
41
1.111111
1
+
0
TEXT
8
12632256
10
0.850000
20
1.312000
40
0.072000
41
1.111111
1
-
0
TEXT
8
12632256
10
-1.420000
20
0.668000
40
0.072000
41
1.111111
50
-90.000000
1
AUX
0
TEXT
8
12632256
10
-1.603000
20
0.430000
40
0.072000
41
1.111111
1
+
0
TEXT
8
12632256
10
-1.598000
20
0.706000
40
0.072000
41
1.111111
50
-90.000000
1
-
0
POLYLINE
8
0
66
1
40
0.000000
41
0.000000
0
VERTEX
8
0
10
2.088000
20
-1.536000
0
VERTEX
8
0
10
2.088000
20
-0.359000
0
VERTEX
8
0
10
1.788000
20
-0.359000
0
VERTEX
8
0
10
1.788000
20
-1.536000
0
VERTEX
8
0
10
2.088000
20
-1.536000
0
SEQEND
8
0
0
TEXT
8
12632256
10
-1.633000
20
0.940000
40
0.072000
41
1.111111
1
JDPE
0
POLYLINE
8
0
66
1
40
0.029000
41
0.029000
0
VERTEX
8
0
10
-0.862000
20
1.008000
0
VERTEX
8
0
10
-0.080000
20
1.008000
0
VERTEX
8
0
10
-0.080000
20
1.250000
0
VERTEX
8
0
10
-0.862000
20
1.250000
0
VERTEX
8
0
10
-0.862000
20
1.008000
0
SEQEND
8
0
0
TEXT
8
12632256
10
-0.676000
20
1.159000
40
0.072000
41
1.111111
1
HORNO
0
TEXT
8
12632256
10
-0.658000
20
1.052000
40
0.072000
41
1.111111
1
2016
0
TEXT
8
12632256
10
-1.671000
20
0.142000
40
0.048000
41
1.041667
1
DOOR
0
TEXT
8
12632256
10
-1.671000
20
-0.068000
40
0.048000
41
1.041667
1
TERM
0
TEXT
8
12632256
10
-1.635000
20
-0.205000
40
0.072000
41
1.111111
50
-90.000000
1
-
0
TEXT
8
12632256
10
-1.629000
20
-0.360000
40
0.072000
41
1.111111
50
-90.000000
1
-
0
ENDSEC
0
EOF

